<?xml version="1.0" encoding="utf-8"?>
<!-- Generator: Adobe Illustrator 24.2.1, SVG Export Plug-In . SVG Version: 6.00 Build 0)  -->
<svg version="1.1" id="Layer_1" xmlns="http://www.w3.org/2000/svg" xmlns:xlink="http://www.w3.org/1999/xlink" x="0px" y="0px"
	 viewBox="0 0 720 720" style="enable-background:new 0 0 720 720;" xml:space="preserve">
<style type="text/css">
	.st0{fill:#FFFFFF;}
	.st1{fill:#A1554F;}
	.st2{fill:#F7AA9E;}
	.st3{fill:#5BC9E9;}
	.st4{fill:#565AA7;}
	.st5{opacity:0.2;}
	.st6{opacity:0.35;}
	.st7{fill:#58595B;}
	.st8{fill:#F7AA9E;stroke:#FFFFFF;stroke-width:2;stroke-miterlimit:10;}
	.st9{fill:#D6DADD;}
	.st10{fill:#404041;}
	.st11{opacity:0.92;fill:url(#SVGID_1_);}
	.st12{fill:#3D3E7A;}
	.st13{fill:#F7AA9E;stroke:#A1554F;stroke-miterlimit:10;}
	.st14{fill:#9EDCF8;}
	.st15{fill:#FFFFFF;stroke:#3D3E7A;stroke-miterlimit:10;}
	.st16{fill:#6163AC;}
	.st17{fill:#232468;}
	.st18{fill:none;stroke:#FFFFFF;stroke-miterlimit:10;}
	.st19{fill:#231F20;}
	.st20{fill:#F5968A;stroke:#A1554F;stroke-miterlimit:10;}
	.st21{fill:#FFFFFF;stroke:#A1554F;stroke-miterlimit:10;}
	.st22{opacity:0.65;fill:url(#SVGID_2_);}
	.st23{fill:#323031;}
	.st24{fill:#87D2DB;}
	.st25{fill:#D0D2D3;}
	.st26{fill:#38BFC4;}
</style>
<g>
	<g>
		<g>
			<g>
				<g>
					<rect x="74.38" y="363.84" class="st0" width="236.09" height="229.12"/>
					<path class="st1" d="M312.03,594.52H72.82V362.27h239.22V594.52z M75.94,591.39h232.96V365.4H75.94V591.39z"/>
				</g>
				<g>
					<rect x="221.51" y="470.79" class="st2" width="66.32" height="120.67"/>
					<path class="st1" d="M289.39,593.02h-69.44v-123.8h69.44V593.02z M223.07,589.9h63.19V472.35h-63.19V589.9z"/>
				</g>
				<g>
					<rect x="91.18" y="454.75" class="st3" width="112.21" height="96.76"/>
					<path class="st1" d="M204.95,553.07H89.62v-99.88h115.33V553.07z M92.74,549.95h109.08v-93.63H92.74V549.95z"/>
				</g>
				<g>
					<rect x="230.22" y="478.39" class="st3" width="48.89" height="42.16"/>
					<path class="st4" d="M280.15,521.6h-50.98v-44.25h50.98V521.6z M231.26,519.52h46.81v-40.08h-46.81V519.52z"/>
				</g>
				<g>
					<path class="st2" d="M205.98,563.47H86.19c-1.82,0-3.29-1.47-3.29-3.29v-5.37c0-1.82,1.47-3.29,3.29-3.29h119.79
						c1.82,0,3.29,1.47,3.29,3.29v5.37C209.28,561.99,207.8,563.47,205.98,563.47z"/>
					<path class="st1" d="M205.85,565.03H86.33c-2.75,0-4.99-2.24-4.99-4.99v-5.1c0-2.75,2.24-4.99,4.99-4.99h119.52
						c2.75,0,4.99,2.24,4.99,4.99v5.1C210.84,562.79,208.6,565.03,205.85,565.03z M86.33,553.07c-1.03,0-1.87,0.84-1.87,1.87v5.1
						c0,1.03,0.84,1.87,1.87,1.87h119.52c1.03,0,1.87-0.84,1.87-1.87v-5.1c0-1.03-0.84-1.87-1.87-1.87H86.33z"/>
				</g>
				<g class="st5">
					<polygon class="st0" points="132.74,454.75 91.26,490.4 91.18,490.3 91.18,478.1 118.35,454.75 					"/>
				</g>
				<g class="st5">
					<polygon class="st0" points="279.11,491.68 279.11,504.3 253.75,520.56 234.64,520.56 234.64,518.57 276.59,491.68 					"/>
				</g>
				<g class="st5">
					<polygon class="st0" points="203.39,454.75 203.39,479.2 93.11,551.51 91.18,548.57 91.18,517.37 186.67,454.75 					"/>
				</g>
				<g class="st5">
					<polygon class="st0" points="203.39,485.87 203.39,491.09 112.71,551.51 104.87,551.51 					"/>
				</g>
				<g class="st5">
					<polygon class="st0" points="279.11,478.39 279.11,482.72 230.22,515.29 230.22,510.07 277.76,478.39 					"/>
				</g>
				<g class="st6">
					<rect x="87.24" y="578.55" class="st7" width="17.63" height="5.84"/>
				</g>
				<g class="st6">
					<rect x="103.14" y="570.19" class="st7" width="17.63" height="5.84"/>
				</g>
				<g class="st6">
					<rect x="113.74" y="578.55" class="st7" width="17.63" height="5.84"/>
				</g>
				<g class="st6">
					<rect x="294.75" y="441.91" class="st7" width="14.88" height="7.54"/>
				</g>
				<g class="st6">
					<rect x="75.39" y="441.91" class="st7" width="14.88" height="7.54"/>
				</g>
				<g class="st6">
					<rect x="297.88" y="564.69" class="st7" width="11.96" height="6.25"/>
				</g>
				<g>
					<g class="st5">
						<path class="st7" d="M151.3,428.21L151.3,428.21c-11.26,0-20.38-9.13-20.38-20.38v-14.81h40.77v14.81
							C171.68,419.09,162.55,428.21,151.3,428.21z"/>
					</g>
					<g class="st5">
						<path class="st7" d="M112.94,428.21L112.94,428.21c-11.26,0-20.38-9.13-20.38-20.38v-14.81h40.77v14.81
							C133.32,419.09,124.2,428.21,112.94,428.21z"/>
					</g>
					<g class="st5">
						<path class="st7" d="M78.42,426.18L78.42,426.18c-11.26,0-20.38-9.13-20.38-20.38v-14.81h40.77v14.81
							C98.81,417.05,89.68,426.18,78.42,426.18z"/>
					</g>
					<g class="st5">
						<path class="st7" d="M189.7,429.26L189.7,429.26c-11.85,0-21.46-9.61-21.46-21.46v-13.74h42.67v13.98
							C210.92,419.76,201.42,429.26,189.7,429.26z"/>
					</g>
					<g class="st5">
						<path class="st7" d="M228.54,429.26L228.54,429.26c-11.78,0-21.34-9.55-21.34-21.34v-13.86h42.67v13.86
							C249.88,419.7,240.32,429.26,228.54,429.26z"/>
					</g>
					<g class="st5">
						<path class="st7" d="M271.09,429.26L271.09,429.26c-11.78,0-21.34-9.55-21.34-21.34v-13.86h42.67v13.86
							C292.42,419.7,282.87,429.26,271.09,429.26z"/>
					</g>
					<g class="st5">
						<path class="st7" d="M310.03,427.97L310.03,427.97c-11.1,0-20.1-9-20.1-20.1v-12.52h40.2v12.52
							C330.13,418.97,321.13,427.97,310.03,427.97z"/>
					</g>
				</g>
				<g>
					<polygon class="st8" points="90.1,320.17 46.88,382.41 87.92,383.23 118.77,320.17 					"/>
					<path class="st1" d="M88.89,384.81l-44.95-0.89l45.34-65.31h32L88.89,384.81z M49.83,380.91l37.13,0.74l29.31-59.91H90.91
						L49.83,380.91z"/>
				</g>
				<g>
					<polygon class="st0" points="129.37,384.04 148.94,320.17 119.59,320.17 88.6,384.04 					"/>
					<path class="st1" d="M130.53,385.61H86.11l32.5-67h32.45L130.53,385.61z M91.1,382.48h37.12l18.61-60.75h-26.26L91.1,382.48z"
						/>
				</g>
				<g>
					<polygon class="st8" points="148.26,320.17 129.91,384.04 170.95,384.04 177.21,320.99 					"/>
					<path class="st1" d="M172.37,385.61h-44.53l19.25-67.03l31.83,0.9L172.37,385.61z M131.99,382.48h37.55l5.95-59.98l-26.06-0.73
						L131.99,382.48z"/>
				</g>
				<g>
					<polygon class="st0" points="176.66,321.22 170.95,385.77 213.9,385.77 207.24,321.22 					"/>
					<path class="st1" d="M215.63,387.33h-46.38l5.98-67.68h33.42L215.63,387.33z M172.66,384.2h39.5l-6.34-61.42h-27.74
						L172.66,384.2z"/>
				</g>
				<g>
					<polygon class="st8" points="207.06,321.76 212.9,385.77 255.98,385.77 236.27,321.22 					"/>
					<path class="st1" d="M258.09,387.33h-46.62l-6.13-67.1l32.08-0.6L258.09,387.33z M214.33,384.2h39.54l-18.74-61.4l-26.36,0.49
						L214.33,384.2z"/>
				</g>
				<g>
					<polygon class="st0" points="236.86,321.22 256.43,385.77 298.56,385.77 266.35,321.22 					"/>
					<path class="st1" d="M301.09,387.33h-45.81l-20.52-67.68h32.56L301.09,387.33z M257.59,384.2h38.44l-30.65-61.42h-26.42
						L257.59,384.2z"/>
				</g>
				<g>
					<polygon class="st8" points="267.8,321.22 300.15,385.09 341.84,385.09 296.66,321.22 					"/>
					<path class="st1" d="M344.86,386.65h-45.67l-33.93-67h32.21L344.86,386.65z M301.11,383.52h37.71l-42.97-60.75h-25.51
						L301.11,383.52z"/>
				</g>
				<g>
					<path class="st8" d="M150.3,419.92L150.3,419.92c-11.26,0-20.38-9.13-20.38-20.38v-14.81h40.77v14.81
						C170.68,410.79,161.56,419.92,150.3,419.92z"/>
					<path class="st1" d="M151.18,421.48h-1.77c-11.61,0-21.06-9.45-21.06-21.06v-17.26h43.89v17.26
						C172.25,412.03,162.8,421.48,151.18,421.48z M131.48,386.29v14.13c0,9.89,8.05,17.94,17.94,17.94h1.77
						c9.89,0,17.94-8.05,17.94-17.94v-14.13H131.48z"/>
				</g>
				<g>
					<path class="st0" d="M108.99,419.92L108.99,419.92c-11.26,0-20.38-9.13-20.38-20.38v-14.81h40.77v14.81
						C129.37,410.79,120.24,419.92,108.99,419.92z"/>
					<path class="st1" d="M109.87,421.48h-1.77c-11.61,0-21.06-9.45-21.06-21.06v-17.26h43.89v17.26
						C130.93,412.03,121.48,421.48,109.87,421.48z M90.17,386.29v14.13c0,9.89,8.05,17.94,17.94,17.94h1.77
						c9.89,0,17.94-8.05,17.94-17.94v-14.13H90.17z"/>
				</g>
				<g>
					<path class="st8" d="M66.59,417.88L66.59,417.88c-11.26,0-20.38-9.13-20.38-20.38v-14.81h40.77v14.81
						C86.97,408.76,77.85,417.88,66.59,417.88z"/>
					<path class="st1" d="M67.47,419.44H65.7c-11.61,0-21.06-9.45-21.06-21.06v-17.26h43.89v17.26
						C88.53,410,79.09,419.44,67.47,419.44z M47.77,384.25v14.13c0,9.89,8.05,17.94,17.94,17.94h1.77c9.89,0,17.94-8.05,17.94-17.94
						v-14.13H47.77z"/>
				</g>
				<g>
					<path class="st0" d="M192.43,420.96L192.43,420.96c-11.78,0-21.34-9.55-21.34-21.34v-13.86h42.67v13.86
						C213.76,411.41,204.21,420.96,192.43,420.96z"/>
					<path class="st1" d="M194.26,422.52h-3.67c-11.61,0-21.06-9.45-21.06-21.06V384.2h45.8v17.26
						C215.32,413.08,205.87,422.52,194.26,422.52z M172.65,387.33v14.13c0,9.89,8.05,17.94,17.94,17.94h3.67
						c9.89,0,17.94-8.05,17.94-17.94v-14.13H172.65z"/>
				</g>
				<g>
					<path class="st8" d="M234.64,420.96L234.64,420.96c-11.78,0-21.34-9.55-21.34-21.34v-13.86h42.67v13.86
						C255.98,411.41,246.43,420.96,234.64,420.96z"/>
					<path class="st1" d="M236.48,422.52h-3.67c-11.61,0-21.06-9.45-21.06-21.06V384.2h45.8v17.26
						C257.54,413.08,248.09,422.52,236.48,422.52z M214.87,387.33v14.13c0,9.89,8.05,17.94,17.94,17.94h3.67
						c9.89,0,17.94-8.05,17.94-17.94v-14.13H214.87z"/>
				</g>
				<g>
					<path class="st0" d="M278.72,420.96L278.72,420.96c-11.78,0-21.34-9.55-21.34-21.34v-13.86h42.67v13.86
						C300.05,411.41,290.5,420.96,278.72,420.96z"/>
					<path class="st1" d="M280.55,422.52h-3.67c-11.61,0-21.06-9.45-21.06-21.06V384.2h45.8v17.26
						C301.62,413.08,292.17,422.52,280.55,422.52z M258.95,387.33v14.13c0,9.89,8.05,17.94,17.94,17.94h3.67
						c9.89,0,17.94-8.05,17.94-17.94v-14.13H258.95z"/>
				</g>
				<g>
					<path class="st8" d="M321.74,418.38L321.74,418.38c-11.1,0-20.1-9-20.1-20.1v-12.52h40.2v12.52
						C341.84,409.38,332.84,418.38,321.74,418.38z"/>
					<path class="st1" d="M322.34,419.95h-1.2c-11.61,0-21.06-9.45-21.06-21.06V384.2h43.33v14.68
						C343.4,410.5,333.96,419.95,322.34,419.95z M303.2,387.33v11.56c0,9.89,8.05,17.94,17.94,17.94h1.2
						c9.89,0,17.94-8.05,17.94-17.94v-11.56H303.2z"/>
				</g>
				<g>
					<path class="st9" d="M298.56,321.71H86.97v0c0-10.62,8.61-19.23,19.23-19.23h173.13C289.95,302.48,298.56,311.09,298.56,321.71
						L298.56,321.71z"/>
					<path class="st1" d="M300.12,323.27H85.41v-8.05c0-7.89,6.42-14.3,14.3-14.3h186.11c7.89,0,14.3,6.42,14.3,14.3V323.27z
						 M88.53,320.15H297v-4.93c0-6.16-5.01-11.18-11.18-11.18H99.71c-6.16,0-11.18,5.01-11.18,11.18V320.15z"/>
				</g>
				<g>
					<path class="st9" d="M265.88,320.17H119.65v-39.83c0-16.56,13.42-29.98,29.98-29.98h86.27c16.56,0,29.98,13.42,29.98,29.98
						V320.17z"/>
					<path class="st1" d="M267.44,321.74H118.09V262.9c0-7.79,6.31-14.1,14.1-14.1h121.15c7.79,0,14.1,6.31,14.1,14.1V321.74z
						 M121.22,318.61h143.1V262.9c0-6.06-4.91-10.97-10.97-10.97H132.19c-6.06,0-10.97,4.91-10.97,10.97V318.61z"/>
				</g>
			</g>
			<rect x="47.02" y="594.52" class="st7" width="294.75" height="11.42"/>
			<rect x="47.02" y="605.93" class="st10" width="294.75" height="24.87"/>
			<g>
				<path class="st4" d="M153.86,273.64v0.92l-5.23,0.51v-1.33c0-2.05-0.97-3.13-2.77-3.13c-1.79,0-2.77,1.08-2.77,3.13v0.46
					c0,2.1,0.92,3.9,4.56,6.97c4.97,4.2,6.82,7.18,6.82,11.48v1.79c0,5.13-3.02,8.05-8.41,8.05c-5.38,0-8.41-2.92-8.41-8.05v-2.41
					l5.23-0.51v2.56c0,2.26,1.03,3.38,3.08,3.38c2.05,0,3.08-1.13,3.08-3.38v-1.18c0-2.26-1.08-4.05-4.72-7.12
					c-4.97-4.2-6.66-7.18-6.66-11.38v-0.77c0-5.13,2.92-8.05,8.1-8.05C150.93,265.59,153.86,268.51,153.86,273.64z"/>
				<path class="st4" d="M185.33,301.98h-5.43v-15.63h-6.46v15.63H168V266.1h5.43v15.12h6.46V266.1h5.43V301.98z"/>
				<path class="st4" d="M218.38,274.66v18.76c0,5.64-3.33,9.07-8.76,9.07c-5.43,0-8.77-3.43-8.77-9.07v-18.76
					c0-5.64,3.33-9.07,8.77-9.07C215.05,265.59,218.38,269.03,218.38,274.66z M206.29,274.72v18.66c0,2.67,1.18,4.1,3.33,4.1
					c2.15,0,3.33-1.44,3.33-4.1v-18.66c0-2.67-1.18-4.1-3.33-4.1C207.47,270.62,206.29,272.05,206.29,274.72z"/>
				<path class="st4" d="M250.78,275.18v2.87c0,5.89-3.18,9.07-9.02,9.07h-2.41v14.86h-5.43V266.1h7.84
					C247.6,266.1,250.78,269.28,250.78,275.18z M239.35,271.13v10.97h2.2c2.61,0,3.79-1.38,3.79-4.41v-2.15
					c0-3.02-1.18-4.41-3.79-4.41H239.35z"/>
			</g>
		</g>
		<g>
			
				<radialGradient id="SVGID_1_" cx="943.1838" cy="648.0316" r="118.2256" gradientTransform="matrix(0.99 0.1244 -0.4644 3.6971 5.8906 -1868.3734)" gradientUnits="userSpaceOnUse">
				<stop  offset="0" style="stop-color:#FFFFFF"/>
				<stop  offset="1" style="stop-color:#000000;stop-opacity:0.1"/>
			</radialGradient>
			<path class="st11" d="M628,644.38c-1.52,12.11-29.96,18.5-63.52,14.29s-59.53-17.45-58.01-29.55
				c1.52-12.11,29.96-18.5,63.51-14.29S629.52,632.27,628,644.38z"/>
			<g>
				<path class="st2" d="M605.05,291.01c0,0,46.02,29.35,47.04,44.9c1.02,15.55-9.53,11-9.53,11l-2.83,28.46
					c0,0,45.06-15.38,34.81-37.92c-10.25-22.54-53.43-57.86-58.76-58.58C610.46,278.16,605.05,291.01,605.05,291.01z"/>
				<path class="st1" d="M605.15,290.98c0.04,0.01,0.07,0.01,0.1,0.03l0.14,0.09l0.28,0.17l0.57,0.34l1.13,0.69l2.24,1.41l4.43,2.89
					c2.95,1.94,5.83,3.98,8.69,6.05c5.72,4.14,11.28,8.53,16.48,13.35c2.6,2.41,5.12,4.93,7.44,7.65c1.15,1.38,2.24,2.8,3.21,4.33
					c1,1.5,1.83,3.15,2.45,4.9l0.4,1.35l0.21,1.42c0.06,0.92,0.05,1.82,0.07,2.73c-0.05,0.91-0.14,1.83-0.26,2.73
					c-0.21,0.91-0.35,1.83-0.76,2.7l-0.26,0.66l-0.38,0.62l-0.39,0.62c-0.15,0.19-0.33,0.36-0.5,0.55
					c-0.18,0.17-0.33,0.37-0.53,0.52l-0.62,0.42c-0.39,0.32-0.89,0.43-1.34,0.63c-1.92,0.54-3.84,0.28-5.6-0.42l0.78-0.46
					c-0.55,4.74-1.13,9.47-1.61,14.21c-0.5,4.74-1.04,9.48-1.46,14.23l-0.43-0.34c6.16-2.25,12.14-5.09,17.72-8.52
					c2.79-1.72,5.47-3.6,7.96-5.7c2.47-2.11,4.79-4.41,6.58-7.06c1.76-2.64,3.1-5.62,3.23-8.73c0.02-0.77,0.07-1.55-0.06-2.31
					c-0.05-0.38-0.06-0.77-0.15-1.15l-0.28-1.13c-0.39-1.5-1.06-2.92-1.8-4.37c-3.03-5.72-7.09-10.9-11.3-15.89
					c-4.23-5-8.76-9.75-13.46-14.34c-4.71-4.57-9.5-9.07-14.49-13.35c-2.49-2.14-5.02-4.23-7.6-6.27c-2.57-2.03-5.18-4.04-7.94-5.75
					c-0.68-0.4-1.42-0.83-2.08-1.03c-0.65-0.2-1.4-0.09-2.08,0.22c-1.38,0.63-2.57,1.79-3.61,3.02
					C608.2,285.17,606.55,288.16,605.15,290.98z M604.96,291.04c0.02-0.18,0.04-0.14,0.06-0.21l0.06-0.14l0.12-0.29l0.25-0.57
					l0.51-1.13c0.35-0.75,0.72-1.49,1.11-2.22c0.78-1.46,1.64-2.89,2.65-4.22c1.02-1.31,2.16-2.63,3.77-3.43
					c0.8-0.39,1.77-0.61,2.72-0.36c0.93,0.25,1.63,0.67,2.39,1.06c5.77,3.39,10.94,7.52,16.06,11.69
					c10.2,8.42,19.82,17.55,28.47,27.62c2.17,2.51,4.19,5.15,6.13,7.86c1.92,2.72,3.74,5.53,5.26,8.53
					c0.74,1.49,1.47,3.08,1.89,4.77l0.3,1.27c0.09,0.43,0.1,0.87,0.15,1.3c0.13,0.87,0.08,1.74,0.04,2.62
					c-0.22,3.52-1.78,6.75-3.72,9.51c-1.96,2.79-4.44,5.1-7.04,7.18c-2.62,2.07-5.41,3.89-8.28,5.55c-2.87,1.66-5.83,3.14-8.85,4.51
					c-3,1.39-6.05,2.65-9.18,3.75l-0.48,0.17l0.06-0.51c0.52-4.74,0.93-9.49,1.37-14.23c0.46-4.74,0.83-9.5,1.22-14.25l0.06-0.72
					l0.72,0.26c1.51,0.55,3.28,0.7,4.75,0.22c1.47-0.53,2.51-1.8,3.05-3.33c0.32-0.74,0.42-1.59,0.58-2.4
					c0.08-0.84,0.13-1.68,0.15-2.53c-0.03-0.85-0.03-1.72-0.09-2.55l-0.19-1.19l-0.36-1.18c-1.13-3.14-3.24-5.96-5.41-8.64
					c-2.21-2.68-4.66-5.18-7.19-7.6c-2.54-2.41-5.18-4.72-7.88-6.97c-2.69-2.26-5.41-4.48-8.19-6.63c-2.77-2.16-5.6-4.25-8.43-6.36
					l-4.27-3.1L604.96,291.04z"/>
			</g>
			<g>
				<path class="st9" d="M588.16,230.58c-0.01-1.85,33.47,33.66,34.47,41.65c-3,6.66-19.32,30.65-19.32,30.65l-11-4.62
					C592.31,298.26,588.23,246.9,588.16,230.58z"/>
				<g>
					<path class="st1" d="M588.11,230.58c-0.01-0.05,0.05-0.13,0.11-0.12c0.05,0,0.09,0.02,0.12,0.03c0.07,0.03,0.13,0.07,0.2,0.11
						c0.12,0.08,0.24,0.16,0.35,0.25c0.23,0.17,0.44,0.36,0.66,0.54c0.43,0.37,0.85,0.76,1.27,1.15c0.83,0.78,1.64,1.57,2.45,2.38
						l4.79,4.86c3.16,3.28,6.29,6.58,9.29,10.01c1.5,1.71,2.99,3.44,4.45,5.19c1.44,1.77,2.86,3.55,4.23,5.37
						c1.38,1.81,2.7,3.68,3.93,5.61c0.61,0.97,1.2,1.95,1.73,2.97c0.51,1.03,1.03,2.07,1.2,3.28l0.01,0.08l-0.03,0.06
						c-0.68,1.37-1.42,2.69-2.2,3.99c-0.76,1.31-1.56,2.59-2.35,3.88l-4.85,7.66c-3.28,5.07-6.53,10.17-9.88,15.2l-0.15,0.22
						l-0.25-0.1l-11.05-4.51l-0.25-0.1l-0.02-0.28l-1.36-16.9l-1.15-16.92c-0.32-5.64-0.6-11.29-0.79-16.94l-0.27-8.48
						C588.19,236.23,588.12,233.41,588.11,230.58z M588.21,230.58c0.09,5.65,0.43,11.29,0.85,16.93l1.29,16.9l2.41,33.82l-0.28-0.38
						l10.95,4.73l-0.4,0.12c3.43-4.97,6.86-9.94,10.15-15.01c1.65-2.53,3.28-5.07,4.84-7.66c1.56-2.58,3.12-5.18,4.37-7.9
						l-0.02,0.14c-0.17-1.05-0.7-2.08-1.23-3.06c-0.54-0.98-1.15-1.94-1.78-2.88c-1.26-1.88-2.63-3.68-4.01-5.48
						c-1.38-1.8-2.81-3.56-4.26-5.31c-1.43-1.76-2.88-3.51-4.35-5.24c-2.95-3.46-5.9-6.91-8.96-10.28
						c-1.53-1.68-3.06-3.36-4.66-4.98c-0.79-0.81-1.6-1.62-2.42-2.4c-0.41-0.39-0.82-0.78-1.25-1.16c-0.21-0.19-0.43-0.37-0.65-0.55
						c-0.11-0.09-0.22-0.17-0.34-0.25C588.39,230.62,588.18,230.52,588.21,230.58z"/>
				</g>
			</g>
			<g>
				<path class="st4" d="M593.79,424.34c0,0,6.75,38.98-11.24,71.96c-10.49-2.25-147.67,18.74-216.64-25.49
					c6-14.24,11.36-19.01,19.55-73.45C401.14,410.1,587.04,437.83,593.79,424.34z"/>
				<g>
					<path class="st12" d="M593.81,424.24c0.08,0.17,0.17,0.49,0.18,0.65l0.09,0.57c0.06,0.38,0.12,0.76,0.17,1.15
						c0.1,0.77,0.21,1.53,0.29,2.3c0.18,1.53,0.31,3.07,0.44,4.61c0.13,1.54,0.18,3.08,0.28,4.63l0.12,4.63
						c0.05,6.18-0.32,12.37-1.15,18.51c-0.23,1.53-0.39,3.07-0.69,4.59l-0.88,4.56c-0.29,1.52-0.73,3.01-1.09,4.52l-0.57,2.26
						c-0.19,0.75-0.46,1.48-0.68,2.22l-1.42,4.44l-1.71,4.33l-0.86,2.17l-1.03,2.09l-2.06,4.19l-0.23,0.47l-0.61-0.08
						c-2.04-0.27-4.45-0.1-6.71-0.02c-2.29,0.11-4.59,0.26-6.89,0.41l-13.81,0.94c-9.21,0.62-18.43,1.13-27.66,1.41
						c-18.46,0.63-36.96,0.42-55.39-0.82c-9.21-0.65-18.41-1.58-27.56-2.76c-9.15-1.24-18.24-2.91-27.26-4.92
						c-9.02-1.99-17.89-4.66-26.55-7.89c-8.65-3.24-17.08-7.18-24.94-12.1l-0.4-0.25l0.19-0.45c2.48-5.91,5.37-11.56,7.43-17.54
						c2.12-5.96,3.68-12.12,5.07-18.3c1.39-6.19,2.51-12.45,3.62-18.7l1.56-9.4l1.44-9.43l0.25-1.62l1.3,1.02
						c0.75,0.59,1.7,1.1,2.66,1.55c0.97,0.45,1.97,0.86,2.99,1.25c2.04,0.77,4.13,1.44,6.23,2.07c4.21,1.26,8.49,2.35,12.78,3.38
						c8.59,2.03,17.24,3.84,25.91,5.53c17.35,3.37,34.82,6.17,52.31,8.77c17.5,2.59,35.05,4.77,52.65,6.48
						c8.8,0.83,17.62,1.5,26.45,1.82c4.41,0.16,8.84,0.22,13.24,0.01c2.2-0.11,4.41-0.28,6.58-0.65c1.08-0.19,2.16-0.42,3.2-0.77
						c0.51-0.19,1.02-0.39,1.49-0.67c0.23-0.15,0.45-0.3,0.65-0.48c0.1-0.09,0.18-0.19,0.27-0.29
						C593.56,424.51,593.7,424.34,593.81,424.24z M593.78,424.44c-0.05,0.13-0.04,0.21-0.13,0.31c-0.1,0.11-0.18,0.23-0.29,0.32
						c-0.21,0.2-0.44,0.37-0.67,0.52c-0.48,0.3-1,0.52-1.52,0.73c-1.05,0.38-2.14,0.65-3.23,0.86c-2.19,0.42-4.4,0.64-6.61,0.81
						c-4.43,0.31-8.86,0.35-13.3,0.3c-8.86-0.13-17.71-0.69-26.54-1.37c-17.67-1.38-35.26-3.5-52.81-5.88
						c-17.55-2.4-35.03-5.29-52.44-8.59c-8.7-1.67-17.39-3.45-26.01-5.57c-4.31-1.06-8.61-2.18-12.87-3.48
						c-2.13-0.65-4.25-1.35-6.35-2.15c-1.05-0.4-2.09-0.83-3.13-1.32c-1.03-0.5-2.06-1.03-3.04-1.81l1.55-0.6l-1.5,9.44l-1.62,9.42
						c-1.16,6.27-2.38,12.53-3.85,18.74c-1.48,6.21-3.13,12.4-5.34,18.41c-2.16,6.04-5.15,11.72-7.67,17.52l-0.22-0.7
						c15.5,9.92,33.11,16.18,51.03,20.34c8.98,2.09,18.08,3.6,27.21,4.8c9.14,1.16,18.33,1.91,27.53,2.41
						c18.41,0.96,36.85,0.8,55.26,0.16c9.21-0.36,18.41-0.83,27.62-1.37l13.81-0.85c2.31-0.13,4.61-0.27,6.92-0.37
						c2.34-0.06,4.57-0.26,7.11,0.09l-0.84,0.38l2.05-4.1l1.02-2.05l0.88-2.12l1.75-4.24l1.46-4.36c0.23-0.73,0.51-1.45,0.71-2.19
						l0.59-2.22c0.38-1.49,0.84-2.95,1.14-4.45l0.94-4.51c0.32-1.5,0.5-3.03,0.75-4.54c0.89-6.07,1.43-12.21,1.53-18.36l0-4.62
						c-0.06-1.54-0.07-3.08-0.16-4.61c-0.08-1.54-0.18-3.07-0.32-4.61c-0.06-0.77-0.15-1.53-0.23-2.3
						c-0.04-0.38-0.08-0.77-0.14-1.15l-0.07-0.57C593.73,424.71,593.75,424.65,593.78,424.44z"/>
				</g>
			</g>
			<g>
				<path class="st13" d="M514.36,614.13c0,0-4.99,2.81-4.5,6.35c0.49,3.54,28.68,24.94,50.35,29.33
					c21.67,4.39,65.57,3.97,67.71-4.8c1.2-7.24-10.38-4.26-10.38-4.26s-24.75,5.82-44.72,0.51s-29.56-9.88-29.56-9.88
					S515.74,618.53,514.36,614.13z"/>
				<g>
					<path class="st14" d="M532.36,451.77c0,0,4.58,21.63,5.09,53.05c0.31,19.33-9.23,38-4.15,61.98
						c10.74,2.29,31.68,2.45,31.68,2.45l10.6-53.84c1.39-7.04,1.92-14.21,1.6-21.37l-2.27-49.96
						C574.91,444.07,546.6,427.66,532.36,451.77z"/>
					<g>
						<path class="st12" d="M532.41,451.78c1.95,9.42,3.22,19.04,4.11,28.66c0.46,4.81,0.79,9.63,1.01,14.46
							c0.11,2.41,0.21,4.83,0.26,7.24c0.08,2.41,0.12,4.85-0.02,7.27c-0.25,4.85-1.03,9.65-1.9,14.4
							c-0.86,4.76-1.82,9.48-2.56,14.24c-1.5,9.49-1.88,19.26,0.15,28.71l-0.14-0.14c2.59,0.55,5.21,0.89,7.84,1.19
							c2.63,0.31,5.28,0.49,7.92,0.66c5.29,0.32,10.59,0.49,15.89,0.55l-0.22,0.18l5.96-31.03l2.97-15.51
							c0.98-5.18,2.15-10.31,2.62-15.52c0.54-5.22,0.54-10.45,0.21-15.7l-0.7-15.78l-0.7-15.78l-0.63-15.78l0.2,0.33
							c-3.47-1.92-7.26-3.37-11.13-4.35c-3.88-0.97-7.91-1.43-11.89-1.02c-3.97,0.38-7.86,1.72-11.17,3.96
							C537.18,445.24,534.48,448.38,532.41,451.78z M532.32,451.77c2.03-3.52,4.65-6.69,7.99-9.04c3.31-2.37,7.28-3.77,11.32-4.21
							c4.05-0.46,8.16-0.04,12.1,0.9c3.95,0.96,7.77,2.37,11.38,4.31l0.19,0.1l0.01,0.23l0.81,15.78l0.74,15.78l0.73,15.78
							c0.31,5.26,0.28,10.59-0.29,15.85c-0.51,5.28-1.72,10.44-2.72,15.6l-3.13,15.48l-6.25,30.97l-0.04,0.18l-0.18,0
							c-5.31-0.09-10.61-0.3-15.9-0.66c-2.65-0.18-5.29-0.4-7.93-0.68c-2.64-0.29-5.28-0.62-7.88-1.16l-0.11-0.02l-0.02-0.11
							c-0.99-4.74-1.53-9.57-1.56-14.41c-0.05-4.84,0.37-9.68,1.04-14.47c1.31-9.59,3.73-18.99,4.31-28.58
							c0.16-2.4,0.13-4.79,0.06-7.2c-0.04-2.41-0.13-4.82-0.22-7.23c-0.21-4.82-0.48-9.63-0.87-14.44
							c-0.38-4.81-0.86-9.61-1.44-14.4C533.86,461.3,533.2,456.55,532.32,451.77z"/>
					</g>
				</g>
				<path class="st15" d="M563.22,554.41c0,0-21.77-6.16-28.02-2.55c-6.25,3.62-8.17,9.9-8.17,9.9l-1.16,12.81
					c0,0,0.43,13.04,20.06,13.16c19.63,0.13,20.48-6.25,20.48-6.25l1.89-20.82C568.31,560.67,568.07,557.39,563.22,554.41z"/>
				<g>
					<path class="st16" d="M524.85,570.98c0,0-2.55,1.38-3.25,6.16c-0.7,4.78-1.01,11.1-1.01,11.1s-3.46,2.49-4.69,10.18
						c-1.24,7.69-0.57,18.09-0.57,18.09s11.78,9.57,29.8,15.52c1.5-7.67,9.61-34.65,32.53-44.14c0-5.92-8.95-11.04-10.82-11.21
						S524.85,570.98,524.85,570.98z"/>
					<g>
						<path class="st17" d="M524.87,571.08c-1.14,0.86-1.93,2.27-2.38,3.65c-0.47,1.41-0.58,2.91-0.71,4.43
							c-0.26,3.03-0.44,6.07-0.53,9.1l-0.01,0.27l-0.26,0.23c-0.77,0.67-1.48,1.7-2.03,2.71c-0.55,1.03-1.01,2.13-1.36,3.26
							c-0.7,2.27-1.03,4.66-1.24,7.08c-0.39,4.84-0.35,9.76-0.17,14.63l-0.31-0.61c2.14,1.7,4.43,3.35,6.77,4.87
							c2.34,1.52,4.73,2.98,7.2,4.31c4.9,2.71,10.08,4.95,15.41,6.69l-0.41,0.24c0.45-2.35,1.1-4.64,1.81-6.92
							c0.37-1.13,0.71-2.27,1.13-3.39c0.38-1.13,0.82-2.24,1.27-3.34c1.8-4.41,3.95-8.72,6.6-12.72c2.66-3.98,5.72-7.77,9.4-10.92
							c3.65-3.17,7.77-5.81,12.22-7.77l-0.66,0.98c-0.05-2.03-1.31-4.04-2.93-5.65c-1.62-1.62-3.58-3.05-5.63-4.06
							c-0.51-0.23-1.03-0.45-1.39-0.5l-1.81-0.26l-3.62-0.54l-7.24-1.1c-4.83-0.71-9.66-1.48-14.52-2.27
							C534.62,572.76,529.76,571.93,524.87,571.08z M524.83,570.89c4.82,0.47,9.67,0.96,14.54,1.51c4.86,0.53,9.74,1.08,14.63,1.69
							l7.33,0.88l3.67,0.45l1.83,0.24c0.86,0.1,1.48,0.4,2.08,0.66c1.19,0.55,2.28,1.22,3.33,1.95c1.04,0.74,2.05,1.54,2.96,2.48
							c0.9,0.93,1.76,1.94,2.4,3.14c0.64,1.19,1.11,2.55,1.13,4.01l0.01,0.7l-0.67,0.28c-4.26,1.81-8.24,4.25-11.8,7.24
							c-3.58,2.98-6.64,6.56-9.35,10.36c-2.7,3.83-5.05,7.92-6.98,12.22c-1.94,4.29-3.52,8.78-4.49,13.39l-0.08,0.36l-0.34-0.12
							c-2.66-0.95-5.32-1.87-7.92-2.98c-2.62-1.05-5.18-2.23-7.73-3.46c-2.55-1.23-5.03-2.58-7.47-4.02
							c-2.44-1.46-4.83-2.94-7.12-4.71l-0.28-0.22l-0.03-0.39c-0.18-2.49-0.23-4.96-0.23-7.44c0.02-2.48,0.14-4.97,0.37-7.45
							c0.23-2.48,0.64-4.99,1.46-7.41c0.85-2.41,1.97-4.75,4.12-6.54l-0.27,0.5c0.11-1.53,0.25-3.06,0.41-4.58
							c0.16-1.52,0.32-3.05,0.56-4.56c0.24-1.5,0.46-3.07,1.06-4.53C522.55,573.09,523.41,571.73,524.83,570.89z"/>
					</g>
				</g>
				<g>
					<path class="st0" d="M545.14,632.03c0,0,1.96-30.5,32.61-44.94c15.65-3.42,42.34,4.92,46.54,26.83
						c4.2,21.91,1.64,26.43,1.64,26.43S582.19,653.69,545.14,632.03z"/>
					<path class="st17" d="M545.1,632.05c0.17-2.47,0.62-4.82,1.18-7.19c0.56-2.36,1.28-4.68,2.15-6.95
						c1.73-4.53,4.01-8.88,6.85-12.83c2.82-3.97,6.19-7.54,9.94-10.65c3.78-3.07,7.96-5.64,12.36-7.71l0.05-0.02l0.04-0.01
						c3.56-0.71,7.21-0.83,10.79-0.5c3.59,0.31,7.13,1.05,10.55,2.15c3.43,1.07,6.73,2.55,9.82,4.39c3.07,1.85,5.95,4.08,8.37,6.74
						c2.42,2.65,4.44,5.71,5.78,9.07c0.71,1.66,1.18,3.42,1.57,5.18c0.34,1.76,0.7,3.52,0.98,5.29c0.62,3.53,1.12,7.09,1.41,10.67
						c0.12,1.8,0.24,3.59,0.19,5.41c-0.02,0.9-0.07,1.81-0.16,2.72c-0.06,0.46-0.11,0.91-0.21,1.37c-0.1,0.47-0.18,0.88-0.43,1.42
						l-0.08,0.16l-0.2,0.06c-3.38,0.97-6.78,1.69-10.21,2.29c-3.43,0.6-6.89,1.05-10.36,1.34c-6.94,0.57-13.93,0.67-20.87,0.02
						c-6.94-0.64-13.82-1.92-20.48-3.96C557.45,638.53,551.1,635.64,545.1,632.05z M545.18,632l2.29,1.21
						c0.75,0.41,1.51,0.8,2.31,1.16l2.35,1.11l2.39,1.01c1.58,0.7,3.23,1.25,4.84,1.87c1.65,0.52,3.27,1.12,4.95,1.56
						c6.64,1.93,13.5,3.08,20.38,3.6c6.89,0.53,13.82,0.48,20.7-0.13c6.87-0.65,13.75-1.68,20.38-3.51l-0.28,0.22
						c0.12-0.27,0.26-0.74,0.33-1.14c0.09-0.42,0.15-0.85,0.21-1.28c0.09-0.87,0.15-1.75,0.17-2.63c0.06-1.77-0.04-3.55-0.13-5.32
						c-0.24-3.55-0.68-7.1-1.24-10.63c-0.26-1.77-0.59-3.52-0.9-5.28c-0.36-1.73-0.8-3.46-1.46-5.1c-0.64-1.65-1.42-3.26-2.37-4.76
						c-0.92-1.52-2.01-2.94-3.2-4.26c-2.38-2.65-5.2-4.88-8.25-6.72c-3.08-1.8-6.36-3.24-9.78-4.27c-1.7-0.53-3.44-0.94-5.19-1.25
						c-1.75-0.33-3.52-0.55-5.29-0.66c-3.54-0.26-7.12-0.06-10.57,0.7l0.09-0.03c-4.33,2.07-8.41,4.65-12.15,7.66
						c-3.71,3.03-7.06,6.52-9.88,10.41c-2.82,3.89-5.19,8.11-6.98,12.58C547.13,622.56,545.75,627.26,545.18,632z"/>
				</g>
			</g>
			<g>
				<path class="st13" d="M314.43,612.23c0,0-0.88,0.19-1.76,0.7c-1.55,0.9-3.1,2.78,0.09,6.34c5.01,5.59,38.06,18.39,57.67,16.98
					s57.56-8.11,59.95-14.71c2.39-6.59-3.72-6.39-3.72-6.39l-38.08,6.12C388.57,621.26,351.22,632.68,314.43,612.23z"/>
				<g>
					<path class="st14" d="M422.23,559.13c2.22-14.12-3.54-42.18,1.34-62.7c5.74-24.09,22.03-39.77,22.03-39.77
						s-5.22-29.62-39.51-26.55c0,0-17.46,21.98-21.42,57.8c-2.14,19.38,0,47.41,7.53,68.13
						C392.2,556.05,408.28,569.31,422.23,559.13z"/>
					<g>
						<path class="st12" d="M422.19,559.11c0.59-4.46,0.46-9.04,0.27-13.55c-0.22-4.53-0.51-9.05-0.78-13.58
							c-0.53-9.05-0.88-18.17,0.07-27.25c0.89-9.1,3.84-17.91,7.9-26.05c2.05-4.07,4.43-7.97,7.05-11.69
							c2.64-3.71,5.49-7.26,8.73-10.49l-0.07,0.21c-0.89-4.23-2.67-8.3-5.05-11.93c-2.39-3.63-5.47-6.84-9.15-9.18
							c-1.82-1.18-3.76-2.2-5.8-2.96c-1-0.43-2.06-0.7-3.09-1.04c-1.06-0.25-2.1-0.56-3.18-0.72c-4.28-0.79-8.67-0.89-13-0.48
							l0.19-0.1c-3.24,4.37-5.96,9.14-8.4,14.01c-2.43,4.89-4.53,9.94-6.3,15.09c-3.58,10.31-5.84,21.06-6.72,31.93
							c-0.87,10.87-0.5,21.84,0.72,32.68c1.22,10.84,3.27,21.64,6.9,31.94l-0.1-0.14c2.08,1.65,4.42,3.05,6.84,4.19
							c2.43,1.14,4.99,2,7.64,2.45c2.64,0.45,5.37,0.49,7.99-0.09C417.51,561.83,420,560.62,422.19,559.11z M422.27,559.16
							c-2.21,1.62-4.67,2.86-7.34,3.46c-2.65,0.65-5.43,0.67-8.13,0.27c-2.7-0.43-5.32-1.27-7.79-2.4
							c-2.48-1.14-4.84-2.51-7.02-4.19l-0.07-0.05l-0.03-0.09c-3.77-10.32-5.96-21.16-7.3-32.04c-1.24-10.9-1.64-21.92-0.78-32.88
							c0.95-10.95,3.27-21.78,6.94-32.14c1.84-5.17,4-10.23,6.5-15.12c2.51-4.88,5.29-9.63,8.61-14.03l0.07-0.09l0.12-0.01
							c4.37-0.37,8.81-0.24,13.13,0.59c1.09,0.17,2.14,0.5,3.21,0.76c1.04,0.35,2.11,0.63,3.12,1.08c2.05,0.79,4.01,1.83,5.84,3.04
							c3.68,2.41,6.82,5.61,9.25,9.27c1.22,1.83,2.27,3.77,3.14,5.78c0.87,2.02,1.61,4.09,2.07,6.26l0.02,0.11l-0.09,0.09
							c-3.15,3.23-5.95,6.82-8.52,10.53c-2.57,3.72-4.85,7.64-6.85,11.68c-2.02,4.04-3.7,8.24-5.03,12.55
							c-0.64,2.16-1.26,4.33-1.72,6.54c-0.46,2.2-0.8,4.44-1.06,6.68c-0.99,8.99-0.67,18.08-0.29,27.13
							c0.19,4.53,0.47,9.06,0.57,13.6C422.95,550.09,422.99,554.63,422.27,559.16z"/>
					</g>
				</g>
				<path class="st18" d="M380.15,574.73"/>
				<path class="st15" d="M424.53,547.44c0,0,6.09,3.37,2.38,19.02c-1.96,9.45-2.91,12.26-2.91,12.26s-30.46,7.65-39.33-10.7
					c2.64-7.64,4.88-20.6,4.88-20.6s1.88-5.61,13.07-5.16C413.81,542.69,424.53,547.44,424.53,547.44z"/>
				<g>
					<path class="st16" d="M386.21,562.86c0,0-7.74-2.37-10.78,9.3c6.14,7.79,21.66,28.82,17.38,50.11
						c17.21-1.98,33.85-7.12,33.85-7.12s8.49-17.22,2.21-29.06c3.02-5.78,3.98-12.99-2.23-18.32c-6.21-5.33-29.03-5.5-29.03-5.5
						L386.21,562.86z"/>
					<g>
						<path class="st17" d="M386.2,562.95c-1.31-0.26-2.62-0.1-3.83,0.32c-1.21,0.43-2.26,1.2-3.1,2.14
							c-0.88,0.92-1.47,2.08-2.05,3.21c-0.23,0.6-0.48,1.2-0.69,1.8l-0.53,1.87l-0.11-0.53c1.45,1.77,2.87,3.57,4.23,5.41
							c1.34,1.86,2.63,3.76,3.86,5.71c2.42,3.91,4.6,7.98,6.31,12.27c1.71,4.29,2.89,8.8,3.42,13.4c0.55,4.59,0.36,9.25-0.56,13.77
							l-0.4-0.43c2.86-0.3,5.72-0.68,8.56-1.17c2.84-0.5,5.66-1.06,8.48-1.69c2.81-0.62,5.6-1.35,8.38-2.1
							c2.78-0.76,5.55-1.58,8.27-2.46l-0.42,0.36c0.98-2.23,1.81-4.59,2.48-6.96c0.66-2.38,1.17-4.79,1.46-7.23
							c0.27-2.43,0.32-4.88,0.05-7.28c-0.33-2.39-1.01-4.69-2.08-6.8l-0.25-0.48l0.24-0.49c1.09-2.19,1.93-4.52,2.15-6.9
							c0.13-1.18,0.07-2.37-0.16-3.51c-0.21-1.15-0.59-2.26-1.18-3.27c-0.25-0.53-0.63-0.98-0.96-1.47c-0.4-0.44-0.74-0.92-1.2-1.32
							c-0.22-0.2-0.43-0.42-0.65-0.61l-0.7-0.49c-0.43-0.36-1-0.59-1.53-0.87c-2.18-1.04-4.63-1.69-7.09-2.23
							c-2.47-0.53-4.98-0.89-7.5-1.21c-2.52-0.32-5.06-0.56-7.6-0.75c-1.27-0.09-2.55-0.17-3.81-0.22l-3.85,0.08L386.2,562.95z
							 M386.22,562.76l7.66-0.67c1.28-0.11,2.53-0.23,3.82-0.31c1.31-0.01,2.58,0.01,3.87,0.03c5.14,0.11,10.28,0.49,15.39,1.4
							c2.55,0.49,5.1,1.07,7.59,2.16c0.61,0.3,1.24,0.54,1.82,0.99l0.88,0.61c0.26,0.22,0.5,0.46,0.75,0.69
							c0.52,0.44,0.94,1,1.4,1.5c0.4,0.56,0.84,1.1,1.16,1.72c1.43,2.4,1.93,5.31,1.64,8.02c-0.26,2.73-1.18,5.31-2.43,7.66l0-0.97
							c1.18,2.39,1.88,4.96,2.19,7.55c0.25,2.6,0.15,5.19-0.18,7.73c-0.33,2.55-0.96,5.03-1.71,7.46c-0.77,2.43-1.65,4.8-2.8,7.11
							l-0.14,0.28l-0.28,0.08c-2.81,0.78-5.61,1.46-8.43,2.12c-2.82,0.67-5.65,1.24-8.48,1.82c-2.83,0.59-5.67,1.11-8.53,1.58
							c-2.85,0.51-5.71,0.89-8.58,1.3l-0.49,0.07l0.09-0.5c0.79-4.45,0.68-9.01-0.04-13.44c-0.73-4.43-2.08-8.74-3.76-12.92
							c-1.71-4.16-3.76-8.19-6.09-12.06c-2.31-3.89-4.9-7.61-7.61-11.25l-0.2-0.26l0.09-0.26l0.64-1.93
							c0.25-0.63,0.54-1.25,0.81-1.88c0.66-1.2,1.37-2.39,2.4-3.33c0.99-0.96,2.19-1.72,3.52-2.09
							C383.53,562.39,384.95,562.38,386.22,562.76z"/>
					</g>
				</g>
				<g>
					<path class="st0" d="M375.43,572.15c0,0-12.32-7.28-25.84-4.86c-13.52,2.42-30.21,8.93-33.93,33.93c-1.23,11-1.23,11-1.23,11
						s52.29,25.07,78.38,10.04C393.39,618.14,397.29,600.75,375.43,572.15z"/>
					<path class="st17" d="M375.4,572.19c-3.29-1.73-6.84-3.02-10.45-3.88c-3.61-0.88-7.34-1.34-11.04-1.12
						c-3.69,0.21-7.35,1.04-10.91,2.06c-3.56,1.05-7.01,2.49-10.16,4.42c-3.16,1.91-6.01,4.33-8.37,7.16
						c-2.42,2.81-4.2,6.11-5.62,9.53c-0.33,0.87-0.69,1.73-0.99,2.6l-0.77,2.68c-0.12,0.45-0.27,0.89-0.37,1.35l-0.27,1.37
						l-0.55,2.74l-1.3,11.14l-0.09-0.15c6.16,2.83,12.5,5.27,18.94,7.37c6.44,2.11,13,3.88,19.64,5.17
						c3.33,0.62,6.67,1.13,10.03,1.5c3.36,0.33,6.74,0.48,10.1,0.4c6.7-0.22,13.5-1.42,19.34-4.71l-0.25,0.37
						c0.79-4.47,0.84-8.97,0.17-13.44c-0.65-4.46-1.92-8.82-3.54-13.04c-0.9-2.08-1.73-4.18-2.79-6.19
						c-0.96-2.05-2.11-4.01-3.24-5.98c-0.54-1-1.17-1.94-1.77-2.9l-1.82-2.88C378.03,575.9,376.7,574.06,375.4,572.19z
						 M375.46,572.12c1.36,1.82,2.75,3.63,4.09,5.48l1.91,2.83c0.64,0.94,1.29,1.88,1.84,2.88c1.16,1.96,2.35,3.91,3.35,5.96
						c1.1,2,1.97,4.11,2.92,6.19c1.71,4.24,3.07,8.63,3.8,13.17c0.79,4.52,0.7,9.23-0.07,13.72l-0.04,0.25l-0.21,0.12
						c-6.05,3.42-13.02,4.68-19.83,4.83c-3.42,0.06-6.83-0.13-10.23-0.48c-3.39-0.38-6.75-0.94-10.09-1.62
						c-6.66-1.4-13.22-3.27-19.64-5.5c-6.42-2.24-12.75-4.71-18.92-7.58l-0.1-0.05l0.01-0.11l1.21-11.16l0.5-2.77l0.25-1.39
						c0.09-0.46,0.23-0.91,0.35-1.37l0.73-2.73c0.29-0.89,0.64-1.77,0.95-2.66c1.38-3.49,3.11-6.92,5.55-9.83
						c2.41-2.93,5.31-5.44,8.55-7.4c3.24-1.96,6.78-3.39,10.4-4.43c0.91-0.26,1.81-0.52,2.73-0.71c0.91-0.22,1.83-0.43,2.76-0.59
						c0.92-0.2,1.85-0.34,2.79-0.44c0.94-0.15,1.88-0.17,2.83-0.22c3.78-0.14,7.55,0.4,11.18,1.36
						C368.69,568.85,372.19,570.25,375.46,572.12z"/>
				</g>
			</g>
			<g>
				<path class="st9" d="M402.64,81.02c0,0,73.46-11.99,211.39-20.99c-18.74,45.73-29.98,154.42-21.74,240.62
					s0.75,166.41,0.75,166.41s-34.48-44.23-72.71,7.5c-14.99-0.75-72.71,0-72.71,0s-1.21-66.46-70.17-34.23
					c3-19.49,20.78-97.85,16.95-129.93C388.4,260.25,385.28,226.4,402.64,81.02z"/>
				<g>
					<path class="st1" d="M402.57,80.95c2.3-0.42,4.4-0.72,6.62-1.07l6.57-0.98l13.15-1.85c8.77-1.21,17.56-2.32,26.35-3.4
						c17.58-2.16,35.19-4.01,52.82-5.78c17.62-1.76,35.26-3.35,52.92-4.77l26.49-2.05l26.5-1.86l1.32-0.09l-0.48,1.26
						c-3.02,7.93-5.67,16.02-7.71,24.28l-1.57,6.19c-0.53,2.06-0.91,4.16-1.39,6.23c-0.9,4.16-1.84,8.32-2.56,12.52
						c-3.16,16.75-5.51,33.66-7.2,50.63c-0.5,4.24-0.86,8.49-1.22,12.73c-0.35,4.25-0.79,8.49-1.03,12.75l-0.84,12.77l-0.57,12.78
						c-0.23,4.26-0.29,8.53-0.39,12.79c-0.08,4.26-0.25,8.53-0.21,12.8l-0.01,12.8l0.28,12.79c0.05,4.27,0.28,8.53,0.5,12.79
						c0.24,4.26,0.36,8.53,0.76,12.78c0.66,8.5,1.35,17.01,2.08,25.53l0.27,3.19l0.2,3.2l0.41,6.39l0.4,6.39l0.29,6.4
						c0.45,8.53,0.72,17.07,0.96,25.6c0.42,17.08,0.36,34.16-0.05,51.24c-0.46,17.08-1.22,34.14-2.62,51.19l-0.11,1.32l-0.87-1.04
						c-4.62-5.46-10.39-10.09-16.79-13.31c-3.21-1.59-6.63-2.79-10.14-3.43c-3.51-0.65-7.13-0.72-10.65-0.19
						c-3.53,0.52-6.95,1.62-10.21,3.11c-1.57,0.85-3.2,1.6-4.68,2.63c-0.75,0.5-1.53,0.93-2.24,1.48l-2.15,1.63
						c-5.68,4.42-10.47,9.92-14.77,15.71l-0.25,0.34l-0.43-0.02c-6.02-0.23-12.09-0.24-18.14-0.27l-18.17,0.06
						c-12.12,0.07-24.23,0.19-36.35,0.36l-0.91,0.01l-0.05-0.94c-0.42-7.95-2.31-16.01-5.83-23.17c-1.78-3.57-4.03-6.91-6.81-9.73
						c-2.77-2.82-6.1-5.09-9.75-6.58c-3.65-1.51-7.6-2.25-11.56-2.47l-2.99-0.07c-1,0.04-1.99,0.13-2.99,0.19l-1.5,0.1l-1.49,0.22
						l-2.97,0.45c-7.9,1.5-15.52,4.39-22.87,7.76l-1.81,0.83l0.32-1.95c1.23-7.48,2.72-14.85,4.13-22.26
						c1.42-7.4,2.83-14.79,4.17-22.2c2.68-14.81,5.16-29.66,7.01-44.58c0.85-7.46,1.67-14.94,1.98-22.43l0.14-2.81
						c0.06-0.94,0.09-1.87,0.07-2.81l0-5.61c-0.19-3.72-0.45-7.41-0.93-11.17c-0.88-7.48-1.65-14.99-2.33-22.5
						c-0.3-3.76-0.61-7.52-0.84-11.29c-0.18-3.77-0.47-7.53-0.56-11.31c-1.1-30.18,0.89-60.33,3.43-90.35
						C395.31,140.84,398.83,110.93,402.57,80.95z M402.71,81.09c-3.35,29.86-6.46,59.85-8.98,89.87
						c-2.36,30.01-4.17,60.14-2.89,90.2c0.1,3.76,0.41,7.51,0.62,11.26c0.26,3.75,0.59,7.5,0.91,11.24
						c0.72,7.49,1.54,14.96,2.46,22.44c0.5,3.71,0.8,7.53,1.01,11.33l0.03,5.69c0.02,0.95-0.01,1.9-0.06,2.84l-0.12,2.84
						c-0.31,7.57-1.12,15.08-1.97,22.58c-1.84,14.98-4.31,29.87-6.98,44.71c-1.33,7.42-2.74,14.82-4.15,22.22
						c-1.4,7.4-2.88,14.8-4.09,22.18l-1.49-1.12c7.46-3.44,15.23-6.37,23.39-7.9l3.08-0.46l1.54-0.23l1.56-0.1
						c1.04-0.06,2.08-0.15,3.12-0.19l3.13,0.08c4.17,0.24,8.34,1.04,12.24,2.66c3.9,1.61,7.45,4.05,10.39,7.05
						c2.95,3,5.3,6.53,7.15,10.26c1.85,3.74,3.2,7.68,4.2,11.7c0.95,4.04,1.61,8.1,1.78,12.31l-0.96-0.93
						c12.12-0.13,24.24-0.22,36.37-0.26l18.19,0.04c6.07,0.06,12.12,0.1,18.21,0.37l-0.68,0.32c4.4-5.85,9.29-11.42,15.14-15.92
						l2.21-1.66c0.73-0.56,1.55-1,2.32-1.51c1.53-1.04,3.22-1.82,4.85-2.69c3.37-1.52,6.94-2.65,10.62-3.17
						c3.67-0.53,7.44-0.43,11.08,0.26c3.64,0.69,7.16,1.94,10.45,3.6c6.58,3.36,12.38,8.05,17.12,13.73l-0.98,0.29
						c1.47-16.99,2.3-34.05,2.82-51.11c0.48-17.06,0.61-34.14,0.25-51.2c-0.21-8.53-0.42-17.07-0.87-25.59l-0.31-6.39l-0.42-6.39
						l-0.43-6.39l-0.21-3.19l-0.28-3.19c-0.75-8.5-1.47-17.01-2.15-25.53c-0.4-4.25-0.54-8.53-0.8-12.79
						c-0.24-4.26-0.5-8.53-0.59-12.8l-0.38-12.81l-0.09-12.82c-0.08-4.27,0.07-8.54,0.11-12.81c0.07-4.27,0.1-8.54,0.3-12.81
						l0.48-12.81l0.75-12.8c0.21-4.27,0.61-8.52,0.94-12.78c0.34-4.26,0.66-8.52,1.13-12.77c1.66-17.01,3.97-33.97,7.1-50.79
						c0.71-4.22,1.65-8.39,2.54-12.58c0.47-2.09,0.85-4.19,1.4-6.26l1.59-6.22c2.08-8.31,4.77-16.46,7.86-24.48l0.84,1.17
						l-26.49,1.78l-26.48,1.97c-17.65,1.41-35.29,2.83-52.92,4.47c-17.63,1.63-35.24,3.42-52.84,5.36
						c-8.8,0.98-17.59,1.99-26.38,3.09l-13.17,1.7L402.71,81.09z"/>
				</g>
			</g>
			<g>
				<path class="st2" d="M420.38,93.02l173.41-15.74c0,0-27.74,107.19-18.74,178.41s8.4,161.4,5.25,179.91
					c-12.74-3.75-50.97-9-60.72,28.48c-6.75,1.5-60.72,0-60.72,0s-6.75-49.47-67.46-44.23c9.74-59.97,15.74-88.45,11.24-130.43
					S398.39,126,420.38,93.02z"/>
				<path class="st0" d="M420.33,92.93l86.57-8.36l43.39-4.11l43.43-4.02l1.16-0.11l-0.28,1.14c-3.61,14.54-6.66,29.26-9.41,44
					c-2.74,14.75-5.18,29.56-7.04,44.45c-0.51,3.72-0.85,7.45-1.28,11.18l-0.63,5.59l-0.48,5.6c-0.3,3.74-0.7,7.47-0.91,11.21
					l-0.6,11.23c-0.52,14.98-0.36,30,1.32,44.9c1.77,14.93,3.11,29.9,4.19,44.88c1.1,14.99,1.74,30,2.29,45.01
					c0.53,15.01,0.82,30.04,0.77,45.07c-0.04,7.51-0.12,15.03-0.39,22.54l-0.21,5.63l-0.3,5.63c-0.24,3.75-0.55,7.51-1.09,11.26
					l-0.08,0.58l-0.58-0.16c-6.02-1.7-12.32-2.54-18.58-2.53c-6.25,0.02-12.55,0.94-18.35,3.21c-5.8,2.25-11.01,5.95-14.9,10.8
					c-1.93,2.43-3.54,5.1-4.88,7.91c-1.35,2.8-2.29,5.79-3.13,8.79l-0.14,0.49l-0.43,0.06l-1.98,0.27l-1.92,0.13
					c-1.28,0.1-2.54,0.11-3.82,0.17c-2.54,0.07-5.08,0.12-7.61,0.14c-5.07,0.05-10.14,0.03-15.2-0.01
					c-10.13-0.08-20.26-0.27-30.39-0.52l-0.76-0.02l-0.13-0.78c-0.6-3.52-1.73-7.08-3.12-10.45c-1.38-3.39-3.13-6.63-5.16-9.67
					c-4.07-6.07-9.4-11.3-15.66-15.08c-3.13-1.87-6.43-3.47-9.89-4.69c-3.46-1.17-7-2.17-10.63-2.71c-7.24-1.22-14.66-1.34-22-0.69
					l-1.36,0.12l0.22-1.34l6.67-40.77c2.12-13.59,4.16-27.2,5.23-40.89c0.59-6.84,0.83-13.7,0.88-20.55l-0.03-5.14l-0.16-5.14
					l-0.08-2.57l-0.16-2.57l-0.32-5.13c-0.59-6.81-1.33-13.71-1.71-20.6c-0.41-6.89-0.67-13.78-0.85-20.67
					c-0.34-13.78-0.31-27.57,0.05-41.35c0.35-13.78,1.06-27.55,2.17-41.29c1.17-13.73,2.72-27.45,5.25-41.01
					c1.29-6.77,2.81-13.51,4.8-20.11C414.12,105.29,416.5,98.8,420.33,92.93z M420.43,93.1c-1.75,2.9-3.37,5.94-4.59,9.16
					l-0.95,2.39l-0.83,2.44c-0.27,0.82-0.56,1.62-0.82,2.44l-0.72,2.48c-1.9,6.61-3.32,13.34-4.53,20.11
					c-2.32,13.56-3.81,27.25-4.87,40.96c-1.02,13.72-1.63,27.47-1.89,41.23c-0.27,13.76-0.2,27.52,0.23,41.27
					c0.22,6.87,0.52,13.75,0.98,20.6c0.43,6.86,1.2,13.66,1.85,20.56c1.16,13.77,1.12,27.66-0.01,41.42
					c-1.07,13.78-3.1,27.44-5.2,41.05c-2.14,13.61-4.43,27.19-6.64,40.78l-1.14-1.22c7.48-0.64,15.08-0.51,22.53,0.77
					c3.73,0.57,7.39,1.61,10.97,2.84c3.57,1.28,6.99,2.94,10.24,4.9c6.49,3.95,12.02,9.41,16.22,15.71
					c2.09,3.16,3.89,6.51,5.31,10.02c1.43,3.52,2.57,7.1,3.21,10.92l-0.89-0.8c10.11,0.28,20.24,0.51,30.35,0.66
					c5.06,0.08,10.12,0.12,15.17,0.11c2.53,0,5.05-0.03,7.58-0.09c1.26-0.05,2.52-0.06,3.77-0.15l1.87-0.12l1.79-0.23l-0.57,0.55
					c0.88-3.08,1.87-6.14,3.28-9.03c1.4-2.89,3.08-5.65,5.11-8.16c4.07-5.01,9.53-8.83,15.53-11.1c6-2.3,12.45-3.2,18.81-3.17
					c6.38,0.04,12.73,0.91,18.87,2.67l-0.66,0.41c0.55-3.68,0.87-7.41,1.13-11.15l0.33-5.61l0.23-5.62c0.3-7.5,0.41-15,0.49-22.51
					c0.11-15.01-0.11-30.03-0.57-45.04c-0.47-15.01-1.26-30.01-2.38-44.98c-1.11-14.97-2.54-29.92-4.46-44.81
					c-1.81-14.96-2.11-30.04-1.7-45.08l0.51-11.27c0.18-3.76,0.55-7.5,0.82-11.25l0.44-5.62l0.59-5.61
					c0.42-3.74,0.76-7.48,1.26-11.21c3.74-29.85,9.26-59.45,16.51-88.65l0.88,1.03l-43.28,3.85l-43.32,3.76L420.43,93.1z"/>
			</g>
			<path class="st0" d="M450.57,90.28c0,0,6.31,33.08-42.17,37.78c0,0,1.24-23.04,11.98-35.03
				C440.91,91.15,450.57,90.28,450.57,90.28z"/>
			<path class="st0" d="M593.79,77.27l-8.82,40.37c0,0-39.08-10.33-28.62-36.97C575.88,78.9,593.79,77.27,593.79,77.27z"/>
			<g>
				<path class="st0" d="M423.48,423.07c0-0.22,0.05-0.29,0.07-0.41l0.08-0.33l0.18-0.66c0.12-0.44,0.26-0.87,0.4-1.31
					c0.29-0.86,0.6-1.73,0.96-2.57c0.71-1.68,1.49-3.34,2.4-4.93c1.78-3.19,3.93-6.2,6.38-8.93c4.9-5.47,10.96-9.9,17.63-13.02
					c3.32-1.57,6.78-2.88,10.32-3.86c1.75-0.55,3.56-0.92,5.34-1.35c1.8-0.34,3.6-0.71,5.42-0.96c7.27-1.06,14.63-1.17,21.93-0.7
					c7.3,0.56,14.56,1.92,21.5,4.24c3.44,1.24,6.86,2.56,10.09,4.28c1.66,0.78,3.21,1.75,4.81,2.63c1.53,0.99,3.1,1.93,4.56,3.03
					c1.51,1.03,2.91,2.21,4.33,3.35c1.37,1.21,2.74,2.41,4.04,3.69c2.61,2.55,5.03,5.3,7.21,8.23c4.32,5.88,7.99,12.28,10.23,19.33
					l0.24,0.75l-0.85-0.07c-4.55-0.36-9.26,0.24-13.65,1.55c-4.41,1.32-8.59,3.41-12.16,6.28c-1.79,1.43-3.47,3-4.95,4.75
					c-0.39,0.42-0.75,0.86-1.1,1.32c-0.35,0.46-0.71,0.9-1.05,1.36c-0.63,0.96-1.33,1.87-1.88,2.88c-2.37,3.94-4.14,8.23-5.41,12.67
					l-0.2,0.69l-0.73,0.03c-10.15,0.41-20.27,0.35-30.4,0.31c-10.13-0.05-20.25-0.17-30.37-0.42l-0.75-0.02l-0.12-0.75
					c-0.36-2.22-0.97-4.52-1.68-6.72c-0.72-2.22-1.58-4.39-2.57-6.5c-1.97-4.23-4.45-8.23-7.41-11.85c-1.48-1.81-3.11-3.5-4.81-5.1
					c-1.72-1.59-3.56-3.04-5.46-4.42c-1.94-1.31-3.93-2.59-6.04-3.64c-1.03-0.57-2.12-1.03-3.19-1.53
					C425.74,423.96,424.57,423.53,423.48,423.07z M423.66,422.97c1.12,0.39,2.2,0.71,3.29,1.16c1.09,0.46,2.21,0.88,3.27,1.41
					c2.17,0.97,4.22,2.18,6.25,3.44c4,2.59,7.62,5.78,10.76,9.38c3.12,3.62,5.81,7.63,7.9,11.95c1.05,2.15,1.97,4.37,2.75,6.64
					c0.78,2.28,1.44,4.56,1.87,7l-0.87-0.77l30.35,0.14l15.17-0.04c5.05-0.04,10.11-0.05,15.15-0.21l-0.92,0.72
					c1.35-4.57,3.22-9.01,5.73-13.09c2.48-4.09,5.71-7.77,9.53-10.68c3.8-2.94,8.2-5.07,12.81-6.34c2.3-0.63,4.66-1.06,7.04-1.27
					c2.38-0.21,4.75-0.25,7.16,0.03l-0.61,0.69c-0.98-3.41-2.4-6.78-4.04-9.98c-1.64-3.22-3.54-6.3-5.69-9.21
					c-4.29-5.81-9.44-11.03-15.41-15.13c-5.88-4.23-12.53-7.28-19.4-9.45c-6.9-2.11-14.08-3.25-21.27-3.65
					c-7.2-0.44-14.44-0.16-21.57,0.79c-1.78,0.23-3.55,0.57-5.32,0.89c-1.75,0.41-3.52,0.75-5.24,1.27
					c-3.47,0.93-6.86,2.17-10.11,3.67c-3.25,1.51-6.41,3.25-9.35,5.3c-2.94,2.06-5.69,4.41-8.15,7.03
					c-2.45,2.63-4.68,5.48-6.56,8.56c-0.95,1.53-1.79,3.14-2.55,4.77c-0.38,0.82-0.74,1.65-1.07,2.49
					c-0.16,0.42-0.32,0.85-0.47,1.27l-0.21,0.64l-0.1,0.32C423.72,422.82,423.71,422.97,423.66,422.97z"/>
			</g>
			<g>
				<path class="st0" d="M412.13,173.43c1.85-11.74,11.62-21,23.95-22.22c4.18-0.41,9.28-0.92,14.76,0.96
					c22.54,7.74,24.57,41.23,23.69,61.06c-0.37,8.32-7.19,14.89-15.52,14.89H408.4C408.4,228.11,408.98,193.41,412.13,173.43z"/>
				<path class="st19" d="M412.08,173.42c1.23-8.05,6.44-15.31,13.59-19.26c1.78-1,3.69-1.76,5.65-2.36
					c1.96-0.55,4.01-0.91,6.03-1.09c4.03-0.43,8.21-0.5,12.21,0.6c2,0.52,3.88,1.39,5.7,2.34c1.8,1,3.46,2.23,5.01,3.58
					c1.51,1.4,2.88,2.93,4.1,4.58c1.18,1.67,2.28,3.4,3.19,5.23c1.86,3.63,3.19,7.5,4.21,11.43c1,3.93,1.74,7.93,2.2,11.96
					c0.47,4.03,0.77,8.07,0.87,12.13c0.05,2.03,0.07,4.05,0.05,6.08c0,1.01-0.03,2.03-0.05,3.04l-0.05,1.52l-0.13,1.54
					c-0.51,4.09-2.73,7.94-6.02,10.46c-1.63,1.27-3.52,2.21-5.52,2.76c-2,0.58-4.13,0.6-6.12,0.59c-16.2,0.09-32.39,0.13-48.59,0.08
					l-0.52,0l0.01-0.51c0.08-4.58,0.28-9.14,0.49-13.71c0.21-4.57,0.49-9.13,0.83-13.69c0.34-4.56,0.7-9.12,1.18-13.67
					C410.85,182.48,411.36,177.94,412.08,173.42z M412.18,173.44c-0.68,4.52-1.15,9.06-1.55,13.62c-0.37,4.55-0.63,9.12-0.86,13.68
					c-0.42,9.13-0.69,18.26-0.87,27.39l-0.51-0.51c16.2-0.04,32.39-0.01,48.59,0.08c2.04,0.04,4.01,0.04,5.93-0.48
					c1.91-0.49,3.73-1.37,5.31-2.56c3.18-2.37,5.37-6.04,5.93-9.99l0.15-1.49l0.07-1.51c0.04-1.01,0.08-2.02,0.1-3.03
					c0.06-2.02,0.05-4.04,0.01-6.07c-0.09-4.04-0.32-8.09-0.83-12.1c-1-8-2.89-16.01-6.67-23.13c-0.93-1.79-2.04-3.46-3.22-5.07
					c-1.22-1.59-2.58-3.05-4.05-4.41c-1.51-1.3-3.13-2.48-4.87-3.44c-1.76-0.92-3.6-1.72-5.51-2.25c-3.84-1.1-7.9-1.09-11.9-0.71
					c-2.02,0.14-3.98,0.44-5.93,0.93c-1.93,0.54-3.81,1.24-5.59,2.18c-1.76,0.96-3.47,2.04-4.97,3.38c-0.8,0.62-1.46,1.38-2.19,2.08
					c-0.64,0.77-1.35,1.5-1.91,2.34C414.42,165.62,412.87,169.46,412.18,173.44z"/>
			</g>
			<g>
				<path class="st0" d="M558.81,173.43c-1.85-11.74-11.62-21-23.95-22.22c-4.18-0.41-9.28-0.92-14.76,0.96
					c-22.54,7.74-24.57,41.23-23.69,61.06c0.37,8.32,7.19,14.89,15.52,14.89h50.61C562.54,228.11,561.96,193.41,558.81,173.43z"/>
				<path class="st19" d="M558.76,173.44c-0.69-3.98-2.24-7.82-4.64-11.07c-0.55-0.84-1.26-1.57-1.91-2.34
					c-0.73-0.7-1.4-1.46-2.19-2.08c-1.5-1.34-3.22-2.42-4.97-3.38c-1.78-0.94-3.66-1.64-5.59-2.18c-1.95-0.49-3.91-0.79-5.93-0.93
					c-4-0.38-8.07-0.39-11.9,0.71c-1.91,0.53-3.75,1.33-5.51,2.25c-1.75,0.96-3.36,2.14-4.87,3.44c-1.46,1.35-2.83,2.82-4.05,4.41
					c-1.18,1.61-2.3,3.29-3.22,5.07c-3.78,7.12-5.67,15.13-6.67,23.13c-0.51,4.01-0.74,8.05-0.83,12.1
					c-0.04,2.02-0.05,4.04,0.01,6.07c0.02,1.01,0.06,2.02,0.1,3.03l0.07,1.51l0.15,1.49c0.56,3.95,2.75,7.62,5.93,9.99
					c1.58,1.19,3.4,2.07,5.31,2.56c1.92,0.52,3.89,0.52,5.93,0.48c16.2-0.09,32.39-0.13,48.59-0.08l-0.51,0.51
					c-0.18-9.13-0.45-18.26-0.87-27.39c-0.23-4.56-0.48-9.12-0.86-13.68C559.91,182.5,559.43,177.96,558.76,173.44z M558.86,173.42
					c0.72,4.52,1.23,9.06,1.68,13.61c0.48,4.55,0.84,9.11,1.18,13.67c0.34,4.56,0.62,9.12,0.83,13.69
					c0.21,4.57,0.41,9.14,0.49,13.71l0.01,0.51l-0.52,0c-16.2,0.04-32.39,0.01-48.59-0.08c-2,0.01-4.13-0.01-6.12-0.59
					c-2-0.54-3.89-1.49-5.52-2.76c-3.28-2.52-5.5-6.37-6.02-10.46l-0.13-1.54l-0.05-1.52c-0.02-1.01-0.05-2.03-0.05-3.04
					c-0.02-2.03,0-4.05,0.05-6.08c0.1-4.05,0.4-8.1,0.87-12.13c0.46-4.03,1.19-8.03,2.2-11.96c1.02-3.93,2.35-7.8,4.21-11.43
					c0.91-1.83,2.01-3.56,3.19-5.23c1.21-1.65,2.59-3.18,4.1-4.58c1.55-1.35,3.21-2.58,5.01-3.58c1.82-0.95,3.7-1.82,5.7-2.34
					c4-1.1,8.18-1.03,12.21-0.6c2.01,0.19,4.06,0.54,6.03,1.09c1.96,0.6,3.86,1.36,5.65,2.36
					C552.41,158.12,557.63,165.37,558.86,173.42z"/>
			</g>
			<g>
				<path class="st2" d="M366.35,259.66c0,0-17.09,18.71-31.58,22.96c-14.49,4.26-29.85-48.03-29.85-48.03l-25.87,14.44
					c0,0,24.59,44.1,37.82,51.85c13.23,7.75,60.55-13.02,67.07-21.1L366.35,259.66z"/>
				<path class="st1" d="M366.35,259.76c-0.07,0.17-0.27,0.35-0.44,0.55l-0.52,0.58l-1.05,1.14c-0.7,0.76-1.43,1.49-2.15,2.23
					c-1.46,1.46-2.94,2.91-4.46,4.31c-3.04,2.81-6.25,5.44-9.62,7.86c-3.39,2.4-6.95,4.63-10.9,6.15l-1.49,0.53l-0.75,0.26
					c-0.28,0.06-0.56,0.15-0.85,0.19c-1.15,0.19-2.35,0.05-3.43-0.3c-2.17-0.73-3.89-2.14-5.41-3.63c-2.98-3.06-5.28-6.6-7.28-10.24
					c-2.01-3.65-3.76-7.42-5.39-11.23c-3.15-7.67-5.82-15.5-8.11-23.45l0.63,0.26c-4.35,2.34-8.66,4.75-12.99,7.12
					c-4.33,2.37-8.61,4.84-12.92,7.25l0.14-0.48c5.69,9.89,11.84,19.52,18.36,28.86c3.26,4.67,6.66,9.24,10.32,13.56
					c1.84,2.15,3.75,4.24,5.83,6.09c1.04,0.92,2.12,1.79,3.26,2.48c1.13,0.64,2.33,1.11,3.67,1.32c2.64,0.49,5.46,0.39,8.23,0.12
					c2.78-0.28,5.56-0.79,8.31-1.4c5.51-1.26,10.93-2.98,16.25-4.95c5.32-1.97,10.58-4.14,15.68-6.63c2.55-1.25,5.06-2.56,7.49-4
					c1.22-0.72,2.41-1.47,3.56-2.28c1.12-0.81,2.27-1.66,3.12-2.65l0.02,0.83l-8.48-10.11L366.35,259.76z M366.35,259.56l8.97,9.79
					c3.03,3.29,6.06,6.65,9.1,10.02l0.36,0.4l-0.34,0.43c-0.98,1.21-2.13,2.1-3.29,3c-1.16,0.88-2.37,1.68-3.59,2.44
					c-2.45,1.52-4.97,2.91-7.53,4.22c-5.12,2.61-10.37,4.95-15.74,6.99c-5.38,2.02-10.86,3.79-16.49,5.1
					c-2.81,0.64-5.66,1.18-8.56,1.48c-2.9,0.28-5.86,0.35-8.84-0.22c-1.48-0.25-2.98-0.83-4.32-1.62c-0.64-0.41-1.26-0.83-1.83-1.3
					c-0.6-0.44-1.13-0.94-1.69-1.43c-2.17-1.97-4.09-4.13-5.94-6.35c-3.69-4.43-6.99-9.13-10.19-13.88
					c-6.34-9.54-12.11-19.42-17.69-29.4l-0.17-0.31l0.31-0.17c4.32-2.4,8.66-4.74,12.95-7.19c4.29-2.44,8.6-4.85,12.88-7.32
					l0.46-0.27l0.17,0.52c2.53,7.82,5.44,15.55,8.79,23.04c1.65,3.76,3.42,7.46,5.42,11.02c2.03,3.53,4.17,7.04,6.94,9.92
					c1.39,1.41,2.95,2.68,4.71,3.28c0.87,0.3,1.79,0.41,2.67,0.28c0.22-0.03,0.44-0.1,0.66-0.14l0.71-0.24l1.43-0.49
					c3.77-1.43,7.34-3.46,10.74-5.73c3.41-2.27,6.63-4.83,9.78-7.47c1.58-1.32,3.11-2.69,4.63-4.08l2.25-2.12l1.11-1.07l0.55-0.54
					C365.92,259.97,366.07,259.77,366.35,259.56z"/>
			</g>
			<path class="st20" d="M305.34,233.68c0,0,5.11-8.24,0.52-19.21c-4.59-10.97-9.99-14.17-6.14-21.47s22.42-20.96,14.45-24.78
				s-24.07-5.06-38.81,16.97c-20.1-19.51-31.44-27.82-44.45-30.15c-13.01-2.34-15.53,10.04-6.38,15.56
				c9.15,5.52,35.48,25.27,35.48,25.27s-41.97-31.81-55.13-31.59s-17.62,16.13,19.31,33.11c28.01,14.58,28.01,14.58,28.01,14.58
				S209.9,191.1,199.99,189c-9.91-2.11-26.74,7.4,33.55,37.14c-21.24-10.18-42.71-25.78-44.04-11.7
				c-1.34,14.08,72.24,38.09,81.49,39.93S305.34,233.68,305.34,233.68z"/>
			<path class="st21" d="M277.63,253.28c0,0,4.34,10.78,9.2,15.02c1.43,1.25,30.43-12.02,27.02-18.78
				c-3.32-6.59-8.51-15.84-8.51-15.84L277.63,253.28z"/>
			<g>
				<path class="st9" d="M391.65,292.54l-17.24,8.11l-20.49-41.23l36.02-34.95C389.94,224.48,388.15,257.18,391.65,292.54z"/>
				<g>
					<path class="st1" d="M391.69,292.57c-2.81,1.39-5.6,2.84-8.48,4.23c-2.86,1.41-5.73,2.84-8.64,4.21l-0.35,0.16l-0.17-0.35
						l-5.17-10.28c-1.69-3.45-3.41-6.88-5.06-10.34l-4.99-10.37c-1.65-3.46-3.37-6.89-5.05-10.34l-0.05-0.1l0.08-0.08
						c6.01-5.82,11.94-11.72,17.88-17.61c5.93-5.9,11.9-11.76,17.89-17.6l0.92-0.9l-0.05,1.29c-0.23,5.66-0.39,11.33-0.43,17
						c-0.04,5.67-0.02,11.35,0.06,17.02c0.08,5.67,0.26,11.35,0.55,17.01c0.12,2.84,0.32,5.67,0.48,8.5
						C391.25,286.87,391.5,289.77,391.69,292.57z M391.61,292.52c-0.29-2.86-0.64-5.61-0.88-8.45c-0.28-2.83-0.48-5.66-0.67-8.5
						c-0.39-5.67-0.66-11.35-0.85-17.03c-0.1-2.84-0.16-5.68-0.21-8.52c-0.02-2.84-0.03-5.68-0.01-8.53
						c0.04-5.68,0.13-11.36,0.44-17.05l0.87,0.39c-6.02,5.81-12.06,11.59-18.13,17.35c-6.06,5.77-12.14,11.52-18.14,17.34l0.03-0.18
						c1.73,3.42,3.43,6.86,5.19,10.27l5.25,10.24c1.76,3.41,3.45,6.85,5.18,10.28l5.08,10.33l-0.52-0.18c2.84-1.33,5.71-2.6,8.6-3.9
						L391.61,292.52z"/>
				</g>
			</g>
			<path class="st10" d="M438.19,141.67c0,0,32.58,0.66,39.88,27.9c0.3,1.12,1.97,0.87,1.92-0.29
				C479.43,156.67,473.27,136.34,438.19,141.67z"/>
			<path class="st10" d="M511.6,154.37c5.71-5.65,16.66-12.22,35.47-9.23c0,0-25.82-13.3-37.4,7.76
				C508.99,154.14,510.6,155.37,511.6,154.37z"/>
			<g>
				<path class="st0" d="M469.94,438.38c4.87-0.91,9.64-1.79,14.46-2.69c0.11,0.3,0.21,0.55,0.31,0.8c1.3,3.42,3.9,5.18,7.44,5.45
					c1.69,0.13,3.45-0.02,5.12-0.33c1.65-0.31,2.35-1.26,2.46-2.6c0.1-1.38-0.55-2.66-2.05-3.18c-2.08-0.73-4.24-1.25-6.39-1.77
					c-3.83-0.93-7.61-1.99-11.19-3.71c-5.61-2.71-8.06-8.88-7.55-14.1c0.8-8.06,5.73-13.43,13.91-15.27
					c0.74-0.17,1.8-0.12,2.14-0.59c0.39-0.53,0.17-1.53,0.18-2.32c0.01-1.29,0-2.59,0-3.88c0-0.38-0.04-0.75,0.53-0.75
					c2.43,0.01,4.86,0.01,7.41,0.01c0,2.35,0,4.61,0,6.91c8.27,0.99,14.5,4.62,17.52,12.75c-3.05,0.96-6.04,1.9-9.03,2.83
					c-1.09,0.34-2.18,0.67-3.26,1.03c-0.44,0.14-0.72,0.16-0.94-0.36c-1.65-3.83-5.19-4.99-9.08-4.64
					c-0.75,0.07-1.52,0.27-2.22,0.56c-1.12,0.47-1.7,1.39-1.7,2.62c-0.01,1.23,0.53,2.23,1.69,2.61c1.98,0.66,4.02,1.14,6.03,1.7
					c3.35,0.92,6.76,1.68,10.04,2.8c6.5,2.22,10.3,8.39,9.89,15.26c-0.47,7.82-5.86,13.17-12.79,15.37
					c-1.69,0.54-3.47,0.83-5.22,1.16c-0.65,0.12-0.95,0.31-0.93,1.04c0.05,2.06,0.02,4.12,0.02,6.3c-1.37,0-2.66,0-3.94,0
					c-1.08,0-2.16-0.03-3.23,0.01c-0.61,0.02-0.8-0.19-0.79-0.79c0.03-2.09,0.01-4.18,0.01-6.39
					C479.11,453.01,472.63,448.04,469.94,438.38z"/>
				<g>
					<path class="st1" d="M469.9,438.36l14.46-2.89l0.2-0.04l0.06,0.19c0.66,1.93,1.72,3.71,3.43,4.76
						c1.68,1.08,3.74,1.36,5.74,1.29c1.01-0.03,2.01-0.14,3.01-0.32c0.99-0.13,1.89-0.5,2.28-1.3c0.38-0.78,0.38-1.85-0.04-2.62
						c-0.21-0.39-0.53-0.72-0.92-0.94c-0.37-0.23-0.86-0.36-1.35-0.53c-3.87-1.22-7.96-1.89-11.89-3.22
						c-1.97-0.66-3.9-1.38-5.76-2.39c-1.85-1.05-3.43-2.56-4.58-4.33c-2.33-3.53-3.04-8.07-2.01-12.13
						c0.45-2.04,1.22-4.03,2.38-5.78c1.16-1.75,2.67-3.25,4.4-4.42c1.73-1.17,3.66-2.01,5.66-2.57l1.51-0.37
						c0.53-0.1,1.05-0.11,1.5-0.23c0.23-0.07,0.4-0.15,0.49-0.32c0.1-0.18,0.13-0.41,0.14-0.65c0.02-0.49-0.06-1-0.05-1.53
						l0.01-3.08l0-0.77c0-0.13-0.01-0.26,0.03-0.42c0.02-0.16,0.17-0.36,0.34-0.42c0.35-0.1,0.57-0.04,0.83-0.05l0.77,0l6.16,0.02
						l0.16,0l0,0.16l0.01,6.91l-0.15-0.17c3.8,0.44,7.63,1.5,10.85,3.7c1.6,1.1,3.01,2.47,4.16,4.02c1.16,1.56,2.06,3.29,2.74,5.1
						l0.1,0.26l-0.27,0.09l-12.51,4c-0.16,0.04-0.39,0.07-0.63-0.04c-0.23-0.11-0.35-0.3-0.43-0.45l-0.36-0.73
						c-0.25-0.46-0.54-0.9-0.88-1.29c-0.67-0.79-1.52-1.42-2.47-1.83c-1.9-0.81-4.17-0.88-6.17-0.44c-0.49,0.13-1.01,0.31-1.4,0.55
						c-0.39,0.25-0.69,0.6-0.85,1.02c-0.31,0.84-0.22,2,0.36,2.63c0.31,0.33,0.65,0.51,1.22,0.64l1.57,0.44l3.14,0.87
						c2.09,0.59,4.21,1.1,6.33,1.66c1.06,0.28,2.12,0.57,3.17,0.89c1.04,0.32,2.11,0.67,3.14,1.15c1.04,0.45,1.98,1.1,2.89,1.77
						c0.87,0.72,1.7,1.5,2.4,2.39c1.41,1.77,2.4,3.87,2.91,6.06c1.02,4.39,0.24,9.17-2.2,12.98c-2.46,3.81-6.42,6.44-10.67,7.73
						c-1.07,0.33-2.16,0.55-3.24,0.76l-1.61,0.29c-0.27,0.05-0.54,0.09-0.69,0.16c-0.14,0.07-0.14,0.07-0.18,0.29l-0.03,6.5l0,0.4
						l-0.39,0l-3.73-0.02c-1.26-0.01-2.42,0.01-3.77-0.03c-0.19-0.02-0.48-0.11-0.64-0.36c-0.15-0.23-0.16-0.45-0.17-0.63l0.01-0.95
						l0.02-1.86l0.03-3.72l0.26,0.3c-2.19-0.29-4.37-0.78-6.44-1.58c-2.07-0.79-4.04-1.88-5.73-3.32c-1.69-1.44-3.11-3.18-4.21-5.09
						C471.27,442.58,470.46,440.54,469.9,438.36z M469.98,438.41c0.64,2.03,1.46,4.11,2.6,5.96c1.13,1.86,2.56,3.54,4.25,4.9
						c1.69,1.36,3.62,2.41,5.65,3.16c2.04,0.75,4.17,1.21,6.33,1.46l0.26,0.03l0,0.27l0.02,3.73l0.01,1.86l0.01,0.91
						c0,0.13,0.03,0.24,0.06,0.26c0.02,0.02,0.05,0.05,0.16,0.06l7.41-0.05l-0.39,0.39l-0.05-6.6c0.02-0.17,0.06-0.38,0.18-0.58
						c0.12-0.2,0.33-0.35,0.5-0.42c0.35-0.15,0.63-0.18,0.89-0.23l1.6-0.31c1.06-0.21,2.11-0.45,3.13-0.77
						c2.03-0.65,3.97-1.6,5.71-2.82c1.74-1.22,3.23-2.78,4.39-4.55c2.27-3.56,3.01-8.08,2.04-12.18c-0.96-4.1-3.76-7.77-7.61-9.54
						c-0.94-0.46-1.95-0.8-3-1.12c-1.03-0.32-2.08-0.62-3.13-0.9c-2.1-0.57-4.23-1.09-6.33-1.7l-3.16-0.9l-1.58-0.45
						c-0.49-0.1-1.2-0.41-1.61-0.91c-0.44-0.5-0.66-1.13-0.73-1.74c-0.06-0.6-0.01-1.23,0.22-1.82c0.23-0.6,0.68-1.11,1.22-1.43
						c0.56-0.33,1.08-0.48,1.65-0.63c1.13-0.28,2.26-0.28,3.39-0.23c1.13,0.08,2.25,0.32,3.3,0.79c1.05,0.46,1.99,1.18,2.72,2.06
						c0.37,0.44,0.67,0.92,0.94,1.43l0.35,0.74c0.13,0.19,0.06,0.16,0.29,0.14l12.49-3.84l-0.17,0.35c-0.66-1.77-1.52-3.47-2.63-5
						c-1.11-1.53-2.47-2.87-4.02-3.95c-3.12-2.17-6.88-3.25-10.64-3.72l-0.15-0.02l0-0.15l0.01-6.91l0.16,0.16l-6.16,0.02l-0.77,0
						c-0.24,0.01-0.55-0.02-0.7,0.03c-0.13,0.03-0.14,0.23-0.13,0.5l0,0.77l0.01,3.08c-0.01,0.5,0.07,1,0.06,1.54
						c-0.01,0.27-0.04,0.56-0.18,0.84c-0.15,0.3-0.48,0.47-0.74,0.54c-0.54,0.15-1.06,0.16-1.53,0.26l-1.47,0.39
						c-1.95,0.57-3.81,1.42-5.47,2.58c-1.65,1.15-3.08,2.62-4.16,4.31c-1.08,1.69-1.79,3.61-2.19,5.57
						c-0.4,1.98-0.54,3.99-0.19,5.96c0.34,1.96,1.06,3.87,2.17,5.52c1.09,1.66,2.57,3.06,4.3,4.03c1.74,0.96,3.67,1.7,5.59,2.36
						c3.85,1.33,7.9,2.02,11.86,3.29c0.48,0.17,1,0.3,1.51,0.61c0.49,0.29,0.92,0.73,1.19,1.25c0.53,1.05,0.54,2.26,0.04,3.32
						c-0.26,0.54-0.73,0.96-1.25,1.22c-0.51,0.26-1.08,0.37-1.58,0.44c-1.03,0.17-2.07,0.27-3.11,0.28
						c-2.06,0.04-4.27-0.28-6.06-1.47c-1.83-1.15-2.95-3.13-3.57-5.07l0.26,0.15L469.98,438.41z"/>
				</g>
			</g>
			<g>
				<path class="st2" d="M631.09,346.87c0,0-38.65-31.02-64.96-36.34c-26.31-5.32-22.98,9.63-13.14,16.17
					c9.84,6.53,31.46,12.73,30.26,17.8c-1.21,5.07-11.45,16.14-30.02,12.07c-18.57-4.07-31.31-14.62-39.7-16.28
					c-4.06-0.8-7.11,0.4-9.18,1.86c-1.96,1.38-1.92,4.31,0.1,5.61l1.13,0.74l26.11,16.95c0,0-19.28-10.94-29.52-13.87
					c-10.24-2.93-13.89,6.37-4.72,12.19s19.43,23.3,51.93,24.23c32.49,0.93,50.64,2.93,77.09-11.17
					C628.18,371.65,631.09,346.87,631.09,346.87z"/>
				<path class="st1" d="M631,346.91c-4.5-3.38-9.21-6.76-13.93-9.97c-4.74-3.21-9.56-6.3-14.44-9.28
					c-9.8-5.86-19.96-11.29-30.77-14.78c-0.67-0.25-1.35-0.43-2.04-0.59l-2.06-0.51c-0.69-0.16-1.37-0.36-2.06-0.5l-2.09-0.38
					c-2.79-0.45-5.61-0.74-8.38-0.61c-1.39,0.05-2.75,0.24-4.04,0.61c-1.28,0.37-2.47,0.96-3.33,1.82
					c-1.74,1.76-1.43,4.66-0.17,6.99c1.24,2.38,3.19,4.43,5.42,6.01c2.28,1.57,4.82,2.88,7.37,4.13c5.13,2.48,10.42,4.69,15.57,7.31
					c1.28,0.66,2.56,1.36,3.8,2.15c1.23,0.8,2.47,1.65,3.43,2.97c0.23,0.34,0.43,0.73,0.55,1.18c0.03,0.24,0.11,0.46,0.07,0.71
					c-0.02,0.24-0.04,0.5-0.12,0.67c-0.13,0.36-0.23,0.75-0.4,1.09l-0.5,1.02c-0.77,1.29-1.68,2.46-2.72,3.51
					c-4.13,4.24-9.85,6.6-15.61,7.17c-2.89,0.36-5.81,0.18-8.67-0.21c-1.42-0.26-2.86-0.47-4.24-0.86l-2.09-0.53l-2.07-0.62
					c-5.52-1.66-10.79-4-15.95-6.52c-2.58-1.27-5.11-2.61-7.66-3.91c-2.55-1.29-5.1-2.6-7.77-3.55l-1-0.34
					c-0.34-0.1-0.68-0.17-1.02-0.26c-0.68-0.19-1.37-0.29-2.06-0.36c-1.38-0.11-2.78,0.01-4.11,0.41c-1.31,0.38-2.6,1.05-3.62,1.87
					c-0.93,0.83-1.22,2.28-0.67,3.4c0.26,0.57,0.68,0.98,1.27,1.34l1.81,1.16l3.62,2.31l7.24,4.63l14.49,9.26l-0.76,1.25
					c-7.03-3.85-14.19-7.53-21.53-10.68c-1.83-0.8-3.69-1.53-5.55-2.18c-1.89-0.62-3.73-1.23-5.57-1.25
					c-1.83-0.06-3.64,0.53-4.65,1.8l-0.2,0.23l-0.13,0.27c-0.09,0.18-0.2,0.35-0.27,0.53c-0.07,0.4-0.25,0.77-0.21,1.19
					c-0.09,0.82,0.19,1.67,0.51,2.47c0.73,1.62,2.11,2.97,3.65,4.04l2.5,1.76c0.79,0.65,1.63,1.28,2.38,1.95
					c3.07,2.66,5.98,5.39,9.13,7.81c3.13,2.43,6.44,4.61,9.96,6.4c0.88,0.44,1.79,0.83,2.69,1.24c0.45,0.2,0.89,0.42,1.35,0.6
					l1.39,0.51c0.93,0.33,1.84,0.71,2.79,1l2.85,0.82c0.94,0.3,1.91,0.5,2.88,0.69l2.91,0.61c1.96,0.27,3.93,0.56,5.9,0.77
					c1.99,0.12,3.96,0.27,5.96,0.36l6.03,0.19c8.04,0.27,16.07,0.65,24.07,0.52c8-0.12,15.99-0.87,23.74-2.76
					c7.75-1.9,15.23-4.88,22.33-8.58l-0.24,0.28c0.71-2.34,1.14-4.86,1.61-7.33c0.45-2.48,0.85-4.98,1.24-7.47l1.12-7.5L631,346.91z
					 M631.18,346.83c-0.25,2.61-0.54,5.05-0.83,7.59l-0.91,7.53c-0.33,2.51-0.65,5.02-1.04,7.52c-0.4,2.51-0.77,4.99-1.48,7.51
					l-0.05,0.18l-0.19,0.1c-7.09,3.86-14.6,7.03-22.45,9.11c-7.86,2.05-15.99,2.88-24.06,3.1c-8.08,0.2-16.14-0.04-24.18-0.27
					l-6.03-0.18c-2.02-0.08-4.06-0.23-6.09-0.35c-2.02-0.21-4.05-0.5-6.06-0.78l-3-0.62c-1-0.2-2-0.4-2.98-0.71l-2.95-0.84
					c-0.98-0.3-1.93-0.69-2.89-1.03l-1.44-0.53c-0.48-0.18-0.94-0.41-1.4-0.62c-0.93-0.43-1.87-0.83-2.79-1.29
					c-3.66-1.85-7.1-4.1-10.32-6.61c-3.22-2.51-6.17-5.31-9.16-7.93c-0.74-0.68-1.52-1.26-2.27-1.89l-2.42-1.73
					c-1.73-1.22-3.35-2.78-4.28-4.86c-0.42-1.05-0.78-2.18-0.66-3.38c-0.03-0.6,0.2-1.18,0.34-1.76c0.11-0.28,0.27-0.54,0.41-0.81
					l0.22-0.4l0.29-0.34c0.2-0.23,0.4-0.46,0.61-0.67l0.72-0.53l0.36-0.26l0.4-0.18l0.8-0.35c0.54-0.17,1.1-0.28,1.65-0.4
					c0.55-0.03,1.1-0.08,1.65-0.09l1.62,0.15c0.53,0.08,1.04,0.22,1.57,0.33c0.53,0.1,1.01,0.28,1.5,0.43
					c0.49,0.16,0.99,0.3,1.46,0.49c1.92,0.69,3.81,1.45,5.66,2.27c7.4,3.3,14.51,7.09,21.54,11.07l-0.76,1.25l-14.36-9.46
					l-7.18-4.73l-3.59-2.37l-1.79-1.18c-0.64-0.39-1.29-1.02-1.6-1.77c-0.71-1.5-0.29-3.39,0.95-4.47c1.23-0.96,2.55-1.59,3.99-2
					c1.43-0.41,2.94-0.51,4.41-0.37c0.73,0.08,1.46,0.2,2.17,0.4c0.35,0.09,0.71,0.17,1.06,0.28l1.03,0.36
					c2.73,0.99,5.29,2.32,7.84,3.63c2.55,1.32,5.07,2.67,7.63,3.95c5.11,2.56,10.38,4.84,15.86,6.44l2.05,0.6l2.08,0.51
					c1.38,0.37,2.79,0.57,4.18,0.82c2.81,0.36,5.66,0.53,8.47,0.14c2.8-0.35,5.55-1.09,8.1-2.28c2.54-1.21,4.88-2.83,6.79-4.87
					c0.96-1.01,1.79-2.13,2.47-3.31l0.43-0.92c0.15-0.3,0.21-0.62,0.32-0.93c0.1-0.31,0.07-0.48,0.02-0.74
					c-0.07-0.25-0.2-0.5-0.38-0.75c-0.74-0.99-1.92-1.82-3.1-2.54c-1.19-0.73-2.45-1.39-3.72-2.02c-5.11-2.49-10.46-4.58-15.65-7.09
					c-2.6-1.25-5.18-2.56-7.63-4.22c-2.45-1.71-4.58-3.91-6.01-6.61c-0.7-1.35-1.23-2.86-1.26-4.49c-0.08-1.62,0.58-3.35,1.74-4.54
					c1.17-1.18,2.66-1.85,4.12-2.27c1.47-0.41,2.97-0.6,4.44-0.65c5.93-0.2,11.62,1.11,17.17,2.78c11.04,3.6,21.13,9.3,30.87,15.34
					c4.86,3.07,9.62,6.27,14.27,9.63C622.15,339.72,626.69,343.11,631.18,346.83z"/>
			</g>
			<path class="st21" d="M630.08,347.06l0.01-1.51c0.01-1.97,1.81-3.44,3.74-3.05l5.2,1.05c2.14,0.43,3.77,2.18,4.05,4.34
				c0.9,7.02,2.19,22.37-2.4,29.1c-3.03,4.02-7.48,4.45-10.82,4.05c-2.57-0.31-4.37-2.7-3.99-5.26L630.08,347.06z"/>
			<radialGradient id="SVGID_2_" cx="442.841" cy="634.9084" r="118.2256" gradientUnits="userSpaceOnUse">
				<stop  offset="0" style="stop-color:#FFFFFF"/>
				<stop  offset="1" style="stop-color:#000000;stop-opacity:0.1"/>
			</radialGradient>
			<ellipse class="st22" cx="370.76" cy="635.17" rx="61.37" ry="5.93"/>
			<g>
				<g>
					<g>
						<path class="st0" d="M462.64,194.39c-2.31,15.79-13.8,27.19-25.67,25.46c-11.86-1.73-19.61-15.95-17.3-31.74
							c2.31-15.79,13.8-27.19,25.67-25.46C457.2,164.38,464.95,178.59,462.64,194.39z"/>
						<path class="st23" d="M442.64,220.61c-1.93,0.36-3.88,0.41-5.8,0.12c-12.34-1.8-20.44-16.5-18.06-32.77
							c1.96-13.43,10.55-24.16,20.89-26.1c1.93-0.36,3.89-0.4,5.8-0.12c12.34,1.81,20.44,16.51,18.06,32.77
							C461.57,207.95,452.98,218.68,442.64,220.61z M440,163.65c-9.59,1.79-17.58,11.91-19.44,24.59
							c-2.23,15.27,5.19,29.06,16.54,30.72c1.72,0.25,3.47,0.21,5.21-0.11c9.59-1.79,17.58-11.9,19.43-24.58
							c2.23-15.28-5.18-29.06-16.54-30.72C443.49,163.29,441.73,163.32,440,163.65z"/>
					</g>
					<g>
						<g>
							<path class="st24" d="M452.62,183.63c-1.85,8.41-8.35,14.13-14.52,12.77c-6.16-1.36-9.66-9.27-7.81-17.68
								c1.85-8.41,8.35-14.13,14.52-12.78C450.97,167.3,454.47,175.22,452.62,183.63z"/>
						</g>
						<g>
							<path class="st23" d="M447.32,182.47c-0.97,4.42-4.38,7.42-7.62,6.71c-3.24-0.71-5.08-4.87-4.1-9.29
								c0.97-4.42,4.39-7.42,7.62-6.71C446.45,173.89,448.29,178.04,447.32,182.47z"/>
						</g>
						<g>
							<path class="st0" d="M441.76,175.1c-1.1,2.31-3.35,3.53-5.04,2.72c-1.69-0.81-2.17-3.32-1.07-5.63
								c1.1-2.3,3.35-3.52,5.04-2.72C442.37,170.28,442.85,172.8,441.76,175.1z"/>
						</g>
					</g>
					<g>
						<path class="st25" d="M440.42,215.84c-11.44-1.65-18.9-15.29-16.66-30.45c1.04-7.04,3.72-13.27,7.73-17.66
							c-5.62,4.32-9.65,11.81-10.96,20.63c-2.24,15.16,5.21,28.98,16.66,30.63c6.13,0.89,12.17-2.03,16.8-7.1
							C449.94,215.01,445.21,216.53,440.42,215.84z"/>
					</g>
				</g>
				<g>
					<path class="st24" d="M420.88,200.8c4.82-0.76,5.1,4.33,6.35,6.3c1.25,1.97,4.19,3.28,8.72,1.08c4.53-2.19,6.47,0.03,8.24,1.69
						c1.78,1.65,3.77,0.7,6.18-3.07c2.71-4.22,8.61-4.02,9.07-3.77c-2.16,4.76-4.99,8.9-8.56,11.78c-4.71,3.8-9.39,4.78-14.32,4.06
						c-3.62-0.53-8.06-3.26-10.89-7.15C422.17,206.92,420.73,200.83,420.88,200.8z"/>
				</g>
				<g>
					<path class="st26" d="M425.67,211.73c-3.51-4.81-4.94-10.9-4.79-10.93c0.05-0.01,2.18,5.75,4.4,8.8
						c2.84,3.89,7.28,6.63,10.89,7.15c4.93,0.72,9.61-0.26,14.32-4.06c2.99-2.4,6.5-5.84,8.84-9.68c0.05,0.01,0.09,0.02,0.11,0.03
						c-2.16,4.76-4.99,8.9-8.56,11.78c-4.71,3.8-9.39,4.78-14.32,4.06C432.95,218.35,428.5,215.62,425.67,211.73z"/>
				</g>
			</g>
			<g>
				<g>
					<g>
						<path class="st0" d="M547.84,194.42c-2.31,15.79-13.8,27.19-25.67,25.46c-11.86-1.73-19.61-15.95-17.3-31.74
							c2.31-15.79,13.8-27.19,25.67-25.46C542.4,164.42,550.15,178.63,547.84,194.42z"/>
						<path class="st23" d="M527.84,220.65c-1.93,0.36-3.88,0.41-5.8,0.12c-12.34-1.8-20.44-16.5-18.06-32.77
							c1.96-13.43,10.55-24.16,20.89-26.1c1.93-0.36,3.89-0.4,5.8-0.12c12.34,1.81,20.44,16.51,18.06,32.77
							C546.76,207.98,538.17,218.71,527.84,220.65z M525.19,163.68c-9.59,1.79-17.58,11.91-19.44,24.59
							c-2.23,15.27,5.19,29.06,16.54,30.72c1.72,0.25,3.47,0.21,5.21-0.11c9.59-1.79,17.58-11.9,19.43-24.58
							c2.23-15.28-5.18-29.06-16.54-30.72C528.68,163.32,526.93,163.36,525.19,163.68z"/>
					</g>
					<g>
						<g>
							<path class="st24" d="M537.82,183.67c-1.85,8.41-8.35,14.13-14.52,12.77c-6.16-1.36-9.66-9.27-7.81-17.68
								c1.85-8.41,8.35-14.13,14.52-12.78C536.17,167.34,539.66,175.26,537.82,183.67z"/>
						</g>
						<g>
							<path class="st23" d="M532.51,182.5c-0.97,4.42-4.38,7.42-7.62,6.71c-3.24-0.71-5.08-4.87-4.1-9.29
								c0.97-4.42,4.39-7.42,7.62-6.71C531.65,173.92,533.48,178.08,532.51,182.5z"/>
						</g>
						<g>
							<path class="st0" d="M526.95,175.14c-1.1,2.31-3.35,3.53-5.04,2.72c-1.69-0.81-2.17-3.32-1.07-5.63
								c1.1-2.3,3.35-3.52,5.04-2.72C527.57,170.32,528.05,172.84,526.95,175.14z"/>
						</g>
					</g>
					<g>
						<path class="st25" d="M525.62,215.88c-11.44-1.65-18.9-15.29-16.66-30.45c1.04-7.04,3.72-13.27,7.73-17.66
							c-5.62,4.32-9.65,11.81-10.96,20.63c-2.24,15.16,5.21,28.98,16.66,30.63c6.13,0.89,12.17-2.03,16.8-7.1
							C535.14,215.04,530.41,216.57,525.62,215.88z"/>
					</g>
				</g>
				<g>
					<path class="st24" d="M506.08,200.84c4.82-0.76,5.1,4.33,6.35,6.3c1.25,1.97,4.19,3.28,8.72,1.08
						c4.53-2.19,6.47,0.03,8.24,1.69c1.78,1.65,3.77,0.7,6.18-3.07c2.71-4.22,8.61-4.02,9.07-3.77c-2.16,4.76-4.99,8.9-8.56,11.78
						c-4.71,3.8-9.39,4.78-14.32,4.06c-3.62-0.53-8.06-3.26-10.89-7.15C507.36,206.96,505.93,200.86,506.08,200.84z"/>
				</g>
				<g>
					<path class="st26" d="M510.87,211.77c-3.51-4.81-4.94-10.9-4.79-10.93c0.05-0.01,2.18,5.75,4.4,8.8
						c2.84,3.89,7.28,6.63,10.89,7.15c4.93,0.72,9.61-0.26,14.32-4.06c2.99-2.4,6.5-5.84,8.84-9.68c0.05,0.01,0.09,0.02,0.11,0.03
						c-2.16,4.76-4.99,8.9-8.56,11.78c-4.71,3.8-9.39,4.78-14.32,4.06C518.14,218.39,513.7,215.65,510.87,211.77z"/>
				</g>
			</g>
		</g>
	</g>
	<g>
		<g>
			<path class="st1" d="M491.39,297.72h-0.35c-19.3-0.07-31.65-6.26-38.64-11.45c-7.65-5.7-10.63-11.35-10.76-11.59l1.68-0.87
				c0.03,0.05,2.96,5.56,10.3,11.01c6.76,5,18.77,10.97,37.59,11.01c36.11-0.07,47.78-21.8,47.89-22.02l1.68,0.87
				c-0.12,0.24-3.1,5.9-10.76,11.59C523.04,291.46,510.69,297.65,491.39,297.72L491.39,297.72z"/>
		</g>
		<g>
			<g>
				<path class="st1" d="M527.98,272.02c1.8-0.73,3.75-1.03,5.73-1.03c1.96,0.02,3.99,0.4,5.83,1.36c1.84,0.94,3.38,2.57,4.16,4.46
					c0.8,1.89,0.93,3.93,0.59,5.84c-0.45-1.88-0.99-3.66-1.91-5.16c-0.91-1.51-2.2-2.67-3.73-3.47c-1.53-0.81-3.27-1.27-5.07-1.56
					C531.78,272.17,529.91,272.06,527.98,272.02z"/>
			</g>
			<g>
				<path class="st1" d="M454.5,272.02c-1.93,0.05-3.79,0.15-5.6,0.45c-1.8,0.29-3.54,0.75-5.07,1.56c-1.53,0.8-2.81,1.96-3.72,3.47
					c-0.93,1.49-1.47,3.28-1.92,5.16c-0.34-1.9-0.2-3.94,0.59-5.83c0.78-1.9,2.33-3.52,4.17-4.46c1.84-0.97,3.87-1.35,5.83-1.37
					C450.75,270.98,452.71,271.28,454.5,272.02z"/>
			</g>
		</g>
		<g>
			<path class="st1" d="M477.27,309.14c1.89,0.91,3.76,1.68,5.68,2.26c1.91,0.58,3.85,0.97,5.79,1.05c1.94,0.08,3.88-0.15,5.75-0.73
				c1.88-0.57,3.68-1.5,5.47-2.59c-1.26,1.68-2.97,3.06-4.93,3.98c-1.97,0.92-4.2,1.33-6.37,1.22c-2.18-0.09-4.31-0.66-6.24-1.55
				C480.49,311.88,478.69,310.7,477.27,309.14z"/>
		</g>
		<g>
			<g>
				<path class="st1" d="M544.63,274.26c0.09-1.36,0.18-2.67,0.1-3.94c-0.08-1.24-0.39-2.49-1.14-3.06c-0.37-0.28-0.91-0.43-1.5-0.5
					c-0.6-0.06-1.23-0.05-1.88-0.02c-1.29,0.06-2.64,0.23-4.01,0.17c1.26-0.51,2.51-0.97,3.86-1.26c0.68-0.14,1.37-0.24,2.11-0.22
					c0.73,0.02,1.55,0.17,2.26,0.69c0.7,0.53,1.09,1.3,1.28,2.03c0.18,0.74,0.2,1.47,0.14,2.18
					C545.71,271.74,545.3,273.07,544.63,274.26z"/>
			</g>
			<g>
				<path class="st1" d="M432.6,274.26c-0.67-1.19-1.09-2.52-1.23-3.92c-0.07-0.7-0.05-1.43,0.14-2.18c0.19-0.73,0.58-1.5,1.28-2.03
					c0.71-0.52,1.53-0.67,2.26-0.69c0.74-0.02,1.43,0.08,2.11,0.22c1.35,0.3,2.6,0.75,3.86,1.26c-1.36,0.06-2.71-0.11-4-0.17
					c-0.65-0.04-1.28-0.05-1.88,0.02c-0.59,0.07-1.13,0.22-1.5,0.5c-0.76,0.57-1.07,1.82-1.15,3.06
					C432.43,271.58,432.51,272.9,432.6,274.26z"/>
			</g>
		</g>
	</g>
</g>
</svg>
