<?xml version="1.0" encoding="utf-8"?>
<!-- Generator: Adobe Illustrator 24.2.1, SVG Export Plug-In . SVG Version: 6.00 Build 0)  -->
<svg version="1.1" id="Layer_1" xmlns="http://www.w3.org/2000/svg" xmlns:xlink="http://www.w3.org/1999/xlink" x="0px" y="0px"
	 viewBox="0 0 720 720" style="enable-background:new 0 0 720 720;" xml:space="preserve">
<style type="text/css">
	.st0{opacity:0.65;fill:url(#SVGID_1_);}
	.st1{opacity:0.92;fill:url(#SVGID_2_);}
	.st2{fill:#F7AA9E;}
	.st3{fill:#A1554F;}
	.st4{fill:#D6DADD;}
	.st5{fill:#565AA7;}
	.st6{fill:#3D3E7A;}
	.st7{fill:#F7AA9E;stroke:#A1554F;stroke-miterlimit:10;}
	.st8{fill:#9EDCF8;}
	.st9{fill:#FFFFFF;stroke:#3D3E7A;stroke-miterlimit:10;}
	.st10{fill:#6163AC;}
	.st11{fill:#232468;}
	.st12{fill:#FFFFFF;}
	.st13{fill:none;stroke:#FFFFFF;stroke-miterlimit:10;}
	.st14{fill:#384345;}
	.st15{fill:#1A2B2C;}
	.st16{fill:#E5E8EA;}
	.st17{fill:#1D1C1A;}
	.st18{fill:#7B7F80;}
	.st19{fill:#032426;}
	.st20{fill:#7F8183;}
	.st21{fill:#FFFFFF;stroke:#A1554F;stroke-miterlimit:10;}
	.st22{fill:#231F20;}
	.st23{fill:#404041;}
	.st24{fill:#850B17;}
	.st25{fill:#323031;}
	.st26{fill:#87D2DB;}
	.st27{fill:#D0D2D3;}
	.st28{opacity:0.13;}
	.st29{font-family:'ProximaNova-Bold';}
	.st30{font-size:7.6602px;}
	.st31{font-size:9.5008px;}
	.st32{font-family:'ProximaNova-Regular';}
	.st33{font-size:5.5809px;}
	.st34{font-size:7.4769px;}
	.st35{fill:#F9BD1E;}
	.st36{fill:#D78C28;}
	.st37{font-family:'MyriadPro-Regular';}
	.st38{font-size:12.1281px;}
	.st39{font-family:'MyriadPro-Bold';}
	.st40{font-size:20.3853px;}
	.st41{font-size:5.5293px;}
	.st42{font-size:13.2796px;}
	.st43{font-size:6.1494px;}
	.st44{fill:#B9B9BA;}
	.st45{fill:#39429A;}
	.st46{font-size:8.3731px;}
	.st47{font-size:6.3239px;}
	.st48{font-size:3.2483px;}
	.st49{font-size:9.6077px;}
	.st50{font-size:19.1788px;}
	.st51{font-size:4.3802px;}
	.st52{font-size:10.52px;}
	.st53{opacity:0.21;}
	.st54{font-size:10.6066px;}
	.st55{font-size:17.8279px;}
	.st56{font-size:4.8356px;}
	.st57{font-size:11.6137px;}
	.st58{font-size:5.3779px;}
</style>
<g>
	<g>
		<radialGradient id="SVGID_1_" cx="391.3818" cy="632.9977" r="118.2256" gradientUnits="userSpaceOnUse">
			<stop  offset="0" style="stop-color:#FFFFFF"/>
			<stop  offset="1" style="stop-color:#000000;stop-opacity:0.1"/>
		</radialGradient>
		<ellipse class="st0" cx="319.3" cy="633.26" rx="61.37" ry="5.93"/>
		
			<radialGradient id="SVGID_2_" cx="863.6959" cy="650.7051" r="118.2256" gradientTransform="matrix(0.99 0.1244 -0.4644 3.6971 5.8906 -1868.3734)" gradientUnits="userSpaceOnUse">
			<stop  offset="0" style="stop-color:#FFFFFF"/>
			<stop  offset="1" style="stop-color:#000000;stop-opacity:0.1"/>
		</radialGradient>
		<path class="st1" d="M548.06,644.38c-1.52,12.11-29.96,18.5-63.52,14.29s-59.53-17.45-58.01-29.55
			c1.52-12.11,29.96-18.5,63.51-14.29S549.58,632.27,548.06,644.38z"/>
		<g>
			<path class="st2" d="M532.59,276.19c0,0,36.68,28.46,48.29,82.32c-5.48-3.23-25.48,0-25.48,0s0.39-36.76-31.36-69.03
				L532.59,276.19z"/>
			<g>
				<path class="st3" d="M532.57,276.09c6.64,4.94,12.2,10.79,17.51,16.98c5.22,6.24,9.94,12.9,14.01,19.95
					c2.06,3.51,3.9,7.15,5.59,10.84c1.73,3.68,3.21,7.47,4.65,11.26c2.75,7.64,5.1,15.4,6.9,23.31l0.17,0.76l-0.71-0.37
					c-1.79-0.95-3.99-1.11-6.09-1.22c-2.12-0.08-4.25-0.01-6.38,0.13c-4.25,0.3-8.51,0.88-12.7,1.56l-0.89,0.14l-0.02-0.93
					c-0.08-3.13-0.5-6.35-1.01-9.49c-0.52-3.15-1.2-6.29-2.02-9.38c-0.82-3.09-1.79-6.14-2.89-9.15c-1.09-3.01-2.29-5.97-3.65-8.87
					c-2.64-5.83-5.84-11.39-9.4-16.71c-3.6-5.3-7.66-10.28-12.04-14.99l-0.35-0.37l0.27-0.39c1.53-2.24,3.04-4.48,4.57-6.64
					L532.57,276.09z M532.61,276.29l-4.07,6.88c-1.32,2.26-2.65,4.45-3.98,6.65l-0.08-0.77c4.66,4.52,8.87,9.52,12.68,14.8
					c1.88,2.66,3.69,5.37,5.3,8.21c1.64,2.82,3.17,5.7,4.52,8.67c2.76,5.91,4.9,12.11,6.49,18.43c1.56,6.34,2.66,12.76,2.71,19.37
					l-0.91-0.79c4.29-0.61,8.58-0.96,12.9-1.11c2.16-0.06,4.32-0.07,6.49,0.09c1.08,0.08,2.17,0.21,3.24,0.42
					c1.07,0.23,2.15,0.49,3.16,1.07l-0.53,0.39c-1.65-7.9-3.99-15.67-7.07-23.13c-3.1-7.45-6.8-14.62-10.9-21.54
					c-4.07-6.94-8.61-13.6-13.61-19.91c-2.48-3.17-5.09-6.24-7.83-9.21c-1.38-1.47-2.75-2.95-4.18-4.38
					c-0.72-0.71-1.44-1.42-2.17-2.11l-1.11-1.04l-0.56-0.51l-0.28-0.25C532.73,276.43,532.59,276.36,532.61,276.29z"/>
			</g>
		</g>
		<g>
			<path class="st4" d="M508.22,230.58c-0.01-1.85,33.47,33.66,34.47,41.65c-3,6.66-19.32,30.65-19.32,30.65l-11-4.62
				C512.37,298.26,508.29,246.9,508.22,230.58z"/>
			<g>
				<path class="st3" d="M508.17,230.58c-0.01-0.05,0.05-0.13,0.11-0.12c0.05,0,0.09,0.02,0.12,0.03c0.07,0.03,0.13,0.07,0.2,0.11
					c0.12,0.08,0.24,0.16,0.35,0.25c0.23,0.17,0.44,0.36,0.66,0.54c0.43,0.37,0.85,0.76,1.27,1.15c0.83,0.78,1.64,1.57,2.45,2.38
					l4.79,4.86c3.16,3.28,6.29,6.58,9.29,10.01c1.5,1.71,2.99,3.44,4.45,5.19c1.44,1.77,2.86,3.55,4.23,5.37
					c1.38,1.81,2.7,3.68,3.93,5.61c0.61,0.97,1.2,1.95,1.73,2.97c0.51,1.03,1.03,2.07,1.2,3.28l0.01,0.08l-0.03,0.06
					c-0.68,1.37-1.42,2.69-2.2,3.99c-0.76,1.31-1.56,2.59-2.35,3.88l-4.85,7.66c-3.28,5.07-6.53,10.17-9.88,15.2l-0.15,0.22
					l-0.25-0.1l-11.05-4.51l-0.25-0.1l-0.02-0.28l-1.36-16.9l-1.15-16.92c-0.32-5.64-0.6-11.29-0.79-16.94l-0.27-8.48
					C508.25,236.23,508.19,233.41,508.17,230.58z M508.27,230.58c0.09,5.65,0.43,11.29,0.85,16.93l1.29,16.9l2.41,33.82l-0.28-0.38
					l10.95,4.73l-0.4,0.12c3.43-4.97,6.86-9.94,10.15-15.01c1.65-2.53,3.28-5.07,4.84-7.66c1.56-2.58,3.12-5.18,4.37-7.9l-0.02,0.14
					c-0.17-1.05-0.7-2.08-1.23-3.06c-0.54-0.98-1.15-1.94-1.78-2.88c-1.26-1.88-2.63-3.68-4.01-5.48c-1.38-1.8-2.81-3.56-4.26-5.31
					c-1.43-1.76-2.88-3.51-4.35-5.24c-2.95-3.46-5.9-6.91-8.96-10.28c-1.53-1.68-3.06-3.36-4.66-4.98c-0.79-0.81-1.6-1.62-2.42-2.4
					c-0.41-0.39-0.82-0.78-1.25-1.16c-0.21-0.19-0.43-0.37-0.65-0.55c-0.11-0.09-0.22-0.17-0.34-0.25
					C508.46,230.62,508.24,230.52,508.27,230.58z"/>
			</g>
		</g>
		<g>
			<path class="st5" d="M513.85,424.34c0,0,6.75,38.98-11.24,71.96c-10.49-2.25-147.67,18.74-216.64-25.49
				c6-14.24,11.36-19.01,19.55-73.45C321.21,410.1,507.11,437.83,513.85,424.34z"/>
			<g>
				<path class="st6" d="M513.87,424.24c0.08,0.17,0.17,0.49,0.18,0.65l0.09,0.57c0.06,0.38,0.12,0.76,0.17,1.15
					c0.1,0.77,0.21,1.53,0.29,2.3c0.18,1.53,0.31,3.07,0.44,4.61c0.13,1.54,0.18,3.08,0.28,4.63l0.12,4.63
					c0.05,6.18-0.32,12.37-1.15,18.51c-0.23,1.53-0.39,3.07-0.69,4.59l-0.88,4.56c-0.29,1.52-0.73,3.01-1.09,4.52l-0.57,2.26
					c-0.19,0.75-0.46,1.48-0.68,2.22l-1.42,4.44l-1.71,4.33l-0.86,2.17l-1.03,2.09l-2.06,4.19l-0.23,0.47l-0.61-0.08
					c-2.04-0.27-4.45-0.1-6.71-0.02c-2.29,0.11-4.59,0.26-6.89,0.41l-13.81,0.94c-9.21,0.62-18.43,1.13-27.66,1.41
					c-18.46,0.63-36.96,0.42-55.39-0.82c-9.21-0.65-18.41-1.58-27.56-2.76c-9.15-1.24-18.24-2.91-27.26-4.92
					c-9.02-1.99-17.89-4.66-26.55-7.89c-8.65-3.24-17.08-7.18-24.94-12.1l-0.4-0.25l0.19-0.45c2.48-5.91,5.37-11.56,7.43-17.54
					c2.12-5.96,3.68-12.12,5.07-18.3c1.39-6.19,2.51-12.45,3.62-18.7l1.56-9.4l1.44-9.43l0.25-1.62l1.3,1.02
					c0.75,0.59,1.7,1.1,2.66,1.55c0.97,0.45,1.97,0.86,2.99,1.25c2.04,0.77,4.13,1.44,6.23,2.07c4.21,1.26,8.49,2.35,12.78,3.38
					c8.59,2.03,17.24,3.84,25.91,5.53c17.35,3.37,34.82,6.17,52.31,8.77c17.5,2.59,35.05,4.77,52.65,6.48
					c8.8,0.83,17.62,1.5,26.45,1.82c4.41,0.16,8.84,0.22,13.24,0.01c2.2-0.11,4.41-0.28,6.58-0.65c1.08-0.19,2.16-0.42,3.2-0.77
					c0.51-0.19,1.02-0.39,1.49-0.67c0.23-0.15,0.45-0.3,0.65-0.48c0.1-0.09,0.18-0.19,0.27-0.29
					C513.63,424.51,513.76,424.34,513.87,424.24z M513.84,424.44c-0.05,0.13-0.04,0.21-0.13,0.31c-0.1,0.11-0.18,0.23-0.29,0.32
					c-0.21,0.2-0.44,0.37-0.67,0.52c-0.48,0.3-1,0.52-1.52,0.73c-1.05,0.38-2.14,0.65-3.23,0.86c-2.19,0.42-4.4,0.64-6.61,0.81
					c-4.43,0.31-8.86,0.35-13.3,0.3c-8.86-0.13-17.71-0.69-26.54-1.37c-17.67-1.38-35.26-3.5-52.81-5.88
					c-17.55-2.4-35.03-5.29-52.44-8.59c-8.7-1.67-17.39-3.45-26.01-5.57c-4.31-1.06-8.61-2.18-12.87-3.48
					c-2.13-0.65-4.25-1.35-6.35-2.15c-1.05-0.4-2.09-0.83-3.13-1.32c-1.03-0.5-2.06-1.03-3.04-1.81l1.55-0.6l-1.5,9.44l-1.62,9.42
					c-1.16,6.27-2.38,12.53-3.85,18.74c-1.48,6.21-3.13,12.4-5.34,18.41c-2.16,6.04-5.15,11.72-7.67,17.52l-0.22-0.7
					c15.5,9.92,33.11,16.18,51.03,20.34c8.98,2.09,18.08,3.6,27.21,4.8c9.14,1.16,18.33,1.91,27.53,2.41
					c18.41,0.96,36.85,0.8,55.26,0.16c9.21-0.36,18.41-0.83,27.62-1.37l13.81-0.85c2.31-0.13,4.61-0.27,6.92-0.37
					c2.34-0.06,4.57-0.26,7.11,0.09l-0.84,0.38l2.05-4.1l1.02-2.05l0.88-2.12l1.75-4.24l1.46-4.36c0.23-0.73,0.51-1.45,0.71-2.19
					l0.59-2.22c0.38-1.49,0.84-2.95,1.14-4.45l0.94-4.51c0.32-1.5,0.5-3.03,0.75-4.54c0.89-6.07,1.43-12.21,1.53-18.36l0-4.62
					c-0.06-1.54-0.07-3.08-0.16-4.61c-0.08-1.54-0.18-3.07-0.32-4.61c-0.06-0.77-0.15-1.53-0.23-2.3c-0.04-0.38-0.08-0.77-0.14-1.15
					l-0.07-0.57C513.8,424.71,513.82,424.65,513.84,424.44z"/>
			</g>
		</g>
		<g>
			<path class="st7" d="M434.43,614.13c0,0-4.99,2.81-4.5,6.35s28.68,24.94,50.35,29.33c21.67,4.39,65.57,3.97,67.71-4.8
				c1.2-7.24-10.38-4.26-10.38-4.26s-24.75,5.82-44.72,0.51c-19.97-5.31-29.56-9.88-29.56-9.88S435.8,618.53,434.43,614.13z"/>
			<g>
				<path class="st8" d="M452.43,451.77c0,0,4.58,21.63,5.09,53.05c0.31,19.33-9.23,38-4.15,61.98c10.74,2.29,31.68,2.45,31.68,2.45
					l10.6-53.84c1.39-7.04,1.92-14.21,1.6-21.37l-2.27-49.96C494.97,444.07,466.66,427.66,452.43,451.77z"/>
				<g>
					<path class="st6" d="M452.48,451.78c1.95,9.42,3.22,19.04,4.11,28.66c0.46,4.81,0.79,9.63,1.01,14.46
						c0.11,2.41,0.21,4.83,0.26,7.24c0.08,2.41,0.12,4.85-0.02,7.27c-0.25,4.85-1.03,9.65-1.9,14.4c-0.86,4.76-1.82,9.48-2.56,14.24
						c-1.5,9.49-1.88,19.26,0.15,28.71l-0.14-0.14c2.59,0.55,5.21,0.89,7.84,1.19c2.63,0.31,5.28,0.49,7.92,0.66
						c5.29,0.32,10.59,0.49,15.89,0.55l-0.22,0.18l5.96-31.03l2.97-15.51c0.98-5.18,2.15-10.31,2.62-15.52
						c0.54-5.22,0.54-10.45,0.21-15.7l-0.7-15.78l-0.7-15.78l-0.63-15.78l0.2,0.33c-3.47-1.92-7.26-3.37-11.13-4.35
						c-3.88-0.97-7.91-1.43-11.89-1.02c-3.97,0.38-7.86,1.72-11.17,3.96C457.24,445.24,454.55,448.38,452.48,451.78z M452.38,451.77
						c2.03-3.52,4.65-6.69,7.99-9.04c3.31-2.37,7.28-3.77,11.32-4.21c4.05-0.46,8.16-0.04,12.1,0.9c3.95,0.96,7.77,2.37,11.38,4.31
						l0.19,0.1l0.01,0.23l0.81,15.78l0.74,15.78l0.73,15.78c0.31,5.26,0.28,10.59-0.29,15.85c-0.51,5.28-1.72,10.44-2.72,15.6
						l-3.13,15.48l-6.25,30.97l-0.04,0.18l-0.18,0c-5.31-0.09-10.61-0.3-15.9-0.66c-2.65-0.18-5.29-0.4-7.93-0.68
						c-2.64-0.29-5.28-0.62-7.88-1.16l-0.11-0.02l-0.02-0.11c-0.99-4.74-1.53-9.57-1.56-14.41c-0.05-4.84,0.37-9.68,1.04-14.47
						c1.31-9.59,3.73-18.99,4.31-28.58c0.16-2.4,0.13-4.79,0.06-7.2c-0.04-2.41-0.13-4.82-0.22-7.23
						c-0.21-4.82-0.48-9.63-0.87-14.44c-0.38-4.81-0.86-9.61-1.44-14.4C453.93,461.3,453.27,456.55,452.38,451.77z"/>
				</g>
			</g>
			<path class="st9" d="M483.29,554.41c0,0-21.77-6.16-28.02-2.55s-8.17,9.9-8.17,9.9l-1.16,12.81c0,0,0.43,13.04,20.06,13.16
				s20.48-6.25,20.48-6.25l1.89-20.82C488.37,560.67,488.13,557.39,483.29,554.41z"/>
			<g>
				<path class="st10" d="M444.92,570.98c0,0-2.55,1.38-3.25,6.16c-0.7,4.78-1.01,11.1-1.01,11.1s-3.46,2.49-4.69,10.18
					c-1.24,7.69-0.57,18.09-0.57,18.09s11.78,9.57,29.8,15.52c1.5-7.67,9.61-34.65,32.53-44.14c0-5.92-8.95-11.04-10.82-11.21
					C485.05,576.51,444.92,570.98,444.92,570.98z"/>
				<g>
					<path class="st11" d="M444.94,571.08c-1.14,0.86-1.93,2.27-2.38,3.65c-0.47,1.41-0.58,2.91-0.71,4.43
						c-0.26,3.03-0.44,6.07-0.53,9.1l-0.01,0.27l-0.26,0.23c-0.77,0.67-1.48,1.7-2.03,2.71c-0.55,1.03-1.01,2.13-1.36,3.26
						c-0.7,2.27-1.02,4.66-1.24,7.08c-0.39,4.84-0.35,9.76-0.17,14.63l-0.31-0.61c2.14,1.7,4.43,3.35,6.77,4.87
						c2.34,1.52,4.73,2.98,7.2,4.31c4.9,2.71,10.08,4.95,15.41,6.69l-0.41,0.24c0.45-2.35,1.1-4.64,1.81-6.92
						c0.37-1.13,0.71-2.27,1.13-3.39c0.38-1.13,0.82-2.24,1.27-3.34c1.8-4.41,3.95-8.72,6.6-12.72c2.66-3.98,5.72-7.77,9.4-10.92
						c3.65-3.17,7.77-5.81,12.22-7.77l-0.66,0.98c-0.05-2.03-1.31-4.04-2.93-5.65c-1.62-1.62-3.58-3.05-5.63-4.06
						c-0.51-0.23-1.03-0.45-1.39-0.5l-1.81-0.26l-3.62-0.54l-7.24-1.1c-4.83-0.71-9.66-1.48-14.52-2.27
						C454.69,572.76,449.82,571.93,444.94,571.08z M444.9,570.89c4.82,0.47,9.67,0.96,14.54,1.51c4.86,0.53,9.74,1.08,14.63,1.69
						l7.33,0.88l3.67,0.45l1.83,0.24c0.86,0.1,1.48,0.4,2.08,0.66c1.19,0.55,2.28,1.22,3.33,1.95c1.04,0.74,2.05,1.54,2.96,2.48
						c0.9,0.93,1.76,1.94,2.4,3.14c0.64,1.19,1.11,2.55,1.13,4.01l0.01,0.7l-0.67,0.28c-4.26,1.81-8.24,4.25-11.8,7.24
						c-3.58,2.98-6.64,6.56-9.35,10.36c-2.7,3.83-5.05,7.92-6.98,12.22c-1.94,4.29-3.52,8.78-4.49,13.39l-0.08,0.36l-0.34-0.12
						c-2.66-0.95-5.32-1.87-7.92-2.98c-2.62-1.05-5.18-2.23-7.73-3.46c-2.55-1.23-5.03-2.58-7.47-4.02
						c-2.44-1.46-4.83-2.94-7.12-4.71l-0.28-0.22l-0.03-0.39c-0.18-2.49-0.23-4.96-0.23-7.44c0.02-2.48,0.14-4.97,0.37-7.45
						c0.23-2.48,0.64-4.99,1.46-7.41c0.85-2.41,1.97-4.75,4.12-6.54l-0.27,0.5c0.11-1.53,0.25-3.06,0.41-4.58
						c0.16-1.52,0.32-3.05,0.56-4.56c0.24-1.5,0.46-3.07,1.06-4.53C442.62,573.09,443.47,571.73,444.9,570.89z"/>
				</g>
			</g>
			<g>
				<path class="st12" d="M465.2,632.03c0,0,1.96-30.5,32.61-44.94c15.65-3.42,42.34,4.92,46.54,26.83
					c4.2,21.91,1.64,26.43,1.64,26.43S502.25,653.69,465.2,632.03z"/>
				<path class="st11" d="M465.16,632.05c0.17-2.47,0.62-4.82,1.18-7.19c0.56-2.36,1.28-4.68,2.15-6.95
					c1.73-4.53,4.01-8.88,6.85-12.83c2.82-3.97,6.19-7.54,9.94-10.65c3.78-3.07,7.96-5.64,12.36-7.71l0.05-0.02l0.04-0.01
					c3.56-0.71,7.21-0.83,10.79-0.5c3.59,0.31,7.13,1.05,10.55,2.15c3.43,1.07,6.73,2.55,9.82,4.39c3.07,1.85,5.94,4.08,8.37,6.74
					c2.42,2.65,4.44,5.71,5.78,9.07c0.71,1.66,1.18,3.42,1.57,5.18c0.34,1.76,0.7,3.52,0.98,5.29c0.62,3.53,1.12,7.09,1.41,10.67
					c0.12,1.8,0.24,3.59,0.19,5.41c-0.02,0.9-0.07,1.81-0.16,2.72c-0.06,0.46-0.11,0.91-0.21,1.37c-0.1,0.47-0.18,0.88-0.43,1.42
					l-0.08,0.16l-0.2,0.06c-3.38,0.97-6.78,1.69-10.21,2.29c-3.43,0.6-6.89,1.05-10.36,1.34c-6.94,0.57-13.93,0.67-20.87,0.02
					c-6.94-0.64-13.82-1.92-20.48-3.96C477.51,638.53,471.16,635.64,465.16,632.05z M465.25,632l2.29,1.21
					c0.75,0.41,1.51,0.8,2.31,1.16l2.35,1.11l2.39,1.01c1.58,0.7,3.23,1.25,4.84,1.87c1.65,0.52,3.27,1.12,4.95,1.56
					c6.64,1.93,13.5,3.08,20.38,3.6c6.89,0.53,13.82,0.48,20.7-0.13c6.87-0.65,13.75-1.68,20.38-3.51l-0.28,0.22
					c0.12-0.27,0.26-0.74,0.33-1.14c0.09-0.42,0.15-0.85,0.21-1.28c0.09-0.87,0.15-1.75,0.17-2.63c0.06-1.77-0.04-3.55-0.13-5.32
					c-0.24-3.55-0.68-7.1-1.24-10.63c-0.26-1.77-0.59-3.52-0.9-5.28c-0.36-1.73-0.8-3.46-1.46-5.1c-0.64-1.65-1.42-3.26-2.37-4.76
					c-0.92-1.52-2.01-2.94-3.2-4.26c-2.38-2.65-5.2-4.88-8.25-6.72c-3.08-1.8-6.36-3.24-9.78-4.27c-1.7-0.53-3.44-0.94-5.19-1.25
					c-1.75-0.33-3.52-0.55-5.29-0.66c-3.54-0.26-7.12-0.06-10.57,0.7l0.09-0.03c-4.33,2.07-8.41,4.65-12.15,7.66
					c-3.71,3.03-7.06,6.52-9.88,10.41c-2.82,3.89-5.19,8.11-6.98,12.58C467.2,622.56,465.81,627.26,465.25,632z"/>
			</g>
		</g>
		<g>
			<g>
				<path class="st7" d="M266.73,623.16c0,0-0.82,0.36-1.59,1.03c-1.34,1.18-2.49,3.33,1.34,6.2c6.01,4.5,40.93,10.52,59.88,5.27
					s54.83-19.3,55.87-26.24c1.04-6.94-4.91-5.53-4.91-5.53L341.2,617.4C341.2,617.4,306.83,635.96,266.73,623.16z"/>
				<g>
					<path class="st8" d="M361.94,549.85c-0.61-14.28-11.79-40.66-11.05-61.73c0.87-24.75,13.76-43.33,13.76-43.33
						s-10.96-28.01-43.97-18.23c0,0-12.79,24.99-9.6,60.89c1.72,19.43,9.35,46.48,20.82,65.31
						C331.9,552.75,350.28,562.58,361.94,549.85z"/>
					<g>
						<path class="st6" d="M361.89,549.84c-0.3-4.49-1.33-8.95-2.4-13.34c-1.1-4.4-2.29-8.78-3.44-13.16
							c-2.31-8.77-4.45-17.64-5.31-26.73c-0.92-9.1,0.23-18.31,2.61-27.09c1.21-4.39,2.77-8.69,4.61-12.85
							c1.86-4.16,3.95-8.2,6.49-12l-0.03,0.22c-1.7-3.97-4.26-7.61-7.3-10.7c-3.06-3.09-6.71-5.62-10.78-7.19
							c-2.02-0.8-4.12-1.41-6.27-1.76c-1.06-0.23-2.15-0.28-3.23-0.41c-1.09-0.03-2.17-0.14-3.26-0.08
							c-4.35,0.07-8.67,0.84-12.84,2.09l0.16-0.14c-2.31,4.92-4.04,10.14-5.47,15.39c-1.42,5.27-2.48,10.63-3.2,16.04
							c-1.48,10.81-1.57,21.8-0.29,32.63c1.29,10.83,3.82,21.51,7.15,31.9c3.33,10.38,7.47,20.57,13.07,29.95l-0.12-0.12
							c2.37,1.21,4.93,2.11,7.53,2.76c2.6,0.64,5.29,0.98,7.97,0.9c2.67-0.08,5.36-0.58,7.82-1.67
							C357.84,553.42,360.05,551.75,361.89,549.84z M361.99,549.87c-1.85,2.03-4.01,3.72-6.51,4.84c-2.47,1.16-5.19,1.73-7.91,1.87
							c-2.73,0.11-5.46-0.2-8.11-0.82c-2.65-0.63-5.24-1.51-7.7-2.72l-0.07-0.04l-0.05-0.08c-5.74-9.38-10.02-19.57-13.47-29.97
							c-3.37-10.44-5.93-21.17-7.25-32.08c-1.23-10.92-1.09-22,0.46-32.87c0.79-5.44,1.91-10.82,3.39-16.11
							c1.5-5.28,3.28-10.48,5.68-15.45l0.05-0.1l0.11-0.03c4.21-1.23,8.59-1.98,12.99-2.01c1.1-0.05,2.2,0.07,3.29,0.11
							c1.09,0.14,2.19,0.21,3.27,0.44c2.17,0.37,4.29,1,6.32,1.82c4.08,1.64,7.79,4.15,10.9,7.26c1.56,1.55,2.97,3.25,4.22,5.05
							c1.25,1.81,2.38,3.69,3.27,5.73l0.05,0.11l-0.07,0.11c-2.45,3.78-4.48,7.85-6.27,12c-1.78,4.16-3.25,8.44-4.41,12.8
							c-1.18,4.36-2,8.81-2.46,13.3c-0.21,2.24-0.38,4.5-0.39,6.75c-0.02,2.25,0.09,4.51,0.28,6.76c0.8,9.01,2.91,17.85,5.07,26.65
							c1.08,4.4,2.25,8.79,3.24,13.22C360.86,540.84,361.8,545.28,361.99,549.87z"/>
					</g>
				</g>
				<path class="st9" d="M361.89,537.93c0,0,6.63,2.1,6.08,18.17c-0.06,9.65-0.43,12.59-0.43,12.59s-28.35,13.51-40.66-2.73
					c1.08-8.01,0.73-21.16,0.73-21.16s0.74-5.87,11.79-7.64S361.89,537.93,361.89,537.93z"/>
				<g>
					<path class="st10" d="M327.37,560.6c0,0-8.06-0.8-8.74,11.24c7.56,6.43,26.92,23.98,26.92,45.7
						c16.48-5.33,31.78-13.66,31.78-13.66s4.93-18.56-3.57-28.93c1.82-6.26,1.34-13.52-5.8-17.52s-29.54,0.33-29.54,0.33
						L327.37,560.6z"/>
					<g>
						<path class="st11" d="M327.37,560.7c-1.33,0-2.59,0.42-3.69,1.07c-1.1,0.66-1.97,1.62-2.62,2.71
							c-0.68,1.08-1.03,2.33-1.37,3.55c-0.1,0.64-0.23,1.27-0.32,1.9l-0.15,1.93l-0.21-0.49c1.77,1.44,3.52,2.93,5.22,4.47
							c1.68,1.56,3.32,3.17,4.91,4.83c3.14,3.35,6.09,6.92,8.61,10.79c2.52,3.87,4.57,8.06,5.99,12.46c1.44,4.39,2.18,9,2.16,13.61
							l-0.48-0.35c2.75-0.86,5.47-1.8,8.16-2.84c2.68-1.05,5.34-2.16,7.98-3.33c2.63-1.17,5.23-2.43,7.8-3.72
							c2.57-1.29,5.13-2.64,7.62-4.04l-0.34,0.43c0.52-2.38,0.87-4.86,1.06-7.31c0.18-2.46,0.2-4.93,0.01-7.37
							c-0.22-2.44-0.64-4.85-1.38-7.14c-0.79-2.28-1.92-4.4-3.38-6.25l-0.34-0.43l0.14-0.53c0.64-2.36,1-4.81,0.75-7.18
							c-0.11-1.19-0.4-2.34-0.85-3.41c-0.43-1.08-1.03-2.1-1.8-2.97c-0.35-0.47-0.82-0.84-1.23-1.25c-0.48-0.35-0.91-0.76-1.43-1.05
							c-0.25-0.16-0.5-0.33-0.76-0.47l-0.78-0.34c-0.49-0.27-1.1-0.38-1.67-0.55c-2.34-0.59-4.87-0.74-7.39-0.79
							c-2.52-0.03-5.06,0.11-7.59,0.3c-2.54,0.18-5.07,0.44-7.6,0.77c-1.26,0.16-2.54,0.34-3.77,0.54l-3.76,0.84L327.37,560.7z
							 M327.36,560.5l7.38-2.17c1.23-0.36,2.44-0.72,3.69-1.05c1.28-0.27,2.53-0.5,3.8-0.73c5.06-0.91,10.18-1.55,15.37-1.66
							c2.6-0.02,5.22,0.04,7.86,0.62c0.66,0.17,1.33,0.29,1.98,0.61l0.98,0.42c0.3,0.17,0.58,0.35,0.88,0.53
							c0.6,0.33,1.12,0.79,1.67,1.2c0.5,0.48,1.04,0.91,1.48,1.46c1.88,2.07,2.94,4.82,3.19,7.54c0.28,2.73-0.11,5.44-0.87,7.99
							l-0.19-0.95c1.63,2.11,2.82,4.49,3.63,6.97c0.76,2.5,1.17,5.06,1.35,7.62c0.18,2.56,0.05,5.12-0.2,7.65
							c-0.28,2.54-0.67,5.03-1.35,7.52l-0.08,0.3l-0.26,0.13c-2.6,1.32-5.21,2.54-7.84,3.74c-2.63,1.21-5.3,2.33-7.96,3.46
							c-2.66,1.14-5.34,2.21-8.05,3.23c-2.69,1.06-5.42,2-8.15,2.96l-0.46,0.16l-0.01-0.51c-0.11-4.52-1.11-8.97-2.69-13.17
							c-1.59-4.2-3.77-8.16-6.23-11.92c-2.5-3.74-5.3-7.29-8.35-10.63c-3.03-3.35-6.3-6.49-9.68-9.53l-0.25-0.22l0.03-0.27
							l0.25-2.02c0.12-0.67,0.28-1.33,0.43-2c0.41-1.3,0.87-2.61,1.7-3.74c0.78-1.13,1.81-2.12,3.04-2.74
							C324.64,560.68,326.04,560.38,327.36,560.5z"/>
					</g>
				</g>
				<g>
					<path class="st12" d="M318.63,571.85c0,0-13.51-4.71-26.29,0.33c-12.78,5.04-27.85,14.71-26.58,39.96
						c0.96,11.03,0.96,11.03,0.96,11.03s56.21,14.26,78.82-5.61C345.31,613.39,345.7,595.57,318.63,571.85z"/>
					<path class="st11" d="M318.6,571.89c-3.56-1.04-7.3-1.62-11.01-1.74c-3.72-0.15-7.46,0.14-11.05,1.07
						c-3.57,0.93-7,2.47-10.29,4.17c-3.28,1.73-6.38,3.82-9.08,6.34c-2.72,2.49-5.04,5.43-6.8,8.68c-1.82,3.23-2.91,6.82-3.63,10.45
						c-0.15,0.92-0.34,1.83-0.46,2.75l-0.23,2.78c-0.03,0.46-0.09,0.93-0.1,1.39l0,1.4l0.01,2.79l0.92,11.18l-0.11-0.13
						c6.59,1.56,13.3,2.7,20.03,3.49c6.73,0.8,13.51,1.24,20.27,1.19c3.38-0.05,6.76-0.2,10.12-0.51c3.36-0.34,6.7-0.85,9.98-1.6
						c6.53-1.53,12.96-4.05,18.03-8.43l-0.17,0.41c-0.11-4.53-0.95-8.96-2.49-13.2c-1.51-4.24-3.62-8.27-6.04-12.09
						c-1.29-1.86-2.52-3.76-3.96-5.52c-1.35-1.82-2.86-3.51-4.35-5.22c-0.73-0.87-1.53-1.67-2.31-2.5l-2.35-2.46
						C321.91,575,320.25,573.46,318.6,571.89z M318.65,571.8c1.69,1.52,3.41,3.01,5.09,4.56l2.43,2.4c0.81,0.8,1.63,1.59,2.38,2.46
						c1.53,1.69,3.07,3.37,4.46,5.18c1.48,1.74,2.75,3.64,4.08,5.5c2.51,3.82,4.71,7.86,6.33,12.16c1.66,4.27,2.51,8.91,2.64,13.46
						l0.01,0.26l-0.18,0.16c-5.25,4.55-11.84,7.16-18.49,8.64c-3.34,0.73-6.72,1.22-10.12,1.55c-3.4,0.29-6.81,0.41-10.21,0.4
						c-6.81-0.06-13.6-0.6-20.34-1.52c-6.73-0.93-13.43-2.1-20.04-3.7l-0.1-0.03l-0.01-0.11l-1.01-11.18l-0.06-2.82l-0.03-1.41
						c0-0.47,0.05-0.94,0.07-1.41l0.17-2.82c0.11-0.93,0.27-1.86,0.41-2.79c0.66-3.7,1.68-7.39,3.51-10.73
						c1.78-3.34,4.14-6.38,6.92-8.95c2.79-2.56,5.97-4.66,9.32-6.39c0.84-0.44,1.67-0.86,2.54-1.24c0.85-0.4,1.71-0.78,2.59-1.12
						c0.86-0.37,1.75-0.7,2.65-0.99c0.89-0.33,1.81-0.54,2.73-0.77c3.68-0.88,7.48-1.1,11.23-0.87
						C311.37,569.94,315.07,570.62,318.65,571.8z"/>
				</g>
			</g>
			<path class="st13" d="M300.22,574.73"/>
		</g>
		<g>
			<path class="st4" d="M322.71,81.02c0,0,73.46-11.99,211.39-20.99c-18.74,45.73-29.98,154.42-21.74,240.62
				c8.25,86.2,0.75,166.41,0.75,166.41s-34.48-44.23-72.71,7.5c-14.99-0.75-72.71,0-72.71,0s-1.21-66.46-70.17-34.23
				c3-19.49,20.78-97.85,16.95-129.93C308.47,260.25,305.35,226.4,322.71,81.02z"/>
			<g>
				<path class="st3" d="M322.63,80.95c2.3-0.42,4.4-0.72,6.62-1.07l6.57-0.98l13.15-1.85c8.77-1.21,17.56-2.32,26.35-3.4
					c17.58-2.16,35.19-4.01,52.82-5.78c17.62-1.76,35.26-3.35,52.92-4.77l26.49-2.05l26.5-1.86l1.32-0.09l-0.48,1.26
					c-3.02,7.93-5.67,16.02-7.71,24.28l-1.57,6.19c-0.53,2.06-0.91,4.16-1.39,6.23c-0.9,4.16-1.84,8.32-2.56,12.52
					c-3.16,16.75-5.51,33.66-7.2,50.63c-0.5,4.24-0.86,8.49-1.22,12.73c-0.35,4.25-0.79,8.49-1.03,12.75l-0.84,12.77l-0.57,12.78
					c-0.23,4.26-0.29,8.53-0.39,12.79c-0.08,4.26-0.25,8.53-0.21,12.8l-0.01,12.8l0.28,12.79c0.05,4.27,0.28,8.53,0.5,12.79
					c0.24,4.26,0.36,8.53,0.76,12.78c0.66,8.5,1.35,17.01,2.08,25.53l0.27,3.19l0.2,3.2l0.41,6.39l0.4,6.39l0.29,6.4
					c0.45,8.53,0.72,17.07,0.96,25.6c0.42,17.08,0.36,34.16-0.05,51.24c-0.46,17.08-1.22,34.14-2.62,51.19l-0.11,1.32l-0.87-1.04
					c-4.62-5.46-10.39-10.09-16.79-13.31c-3.21-1.59-6.63-2.79-10.14-3.43c-3.51-0.65-7.13-0.72-10.65-0.19
					c-3.53,0.52-6.95,1.62-10.21,3.11c-1.57,0.85-3.2,1.6-4.68,2.63c-0.75,0.5-1.53,0.93-2.24,1.48l-2.15,1.63
					c-5.68,4.42-10.47,9.92-14.77,15.71l-0.25,0.34l-0.43-0.02c-6.02-0.23-12.09-0.24-18.14-0.27l-18.17,0.06
					c-12.12,0.07-24.23,0.19-36.35,0.36l-0.91,0.01l-0.05-0.94c-0.42-7.95-2.31-16.01-5.83-23.17c-1.78-3.57-4.03-6.91-6.81-9.73
					c-2.77-2.82-6.1-5.09-9.75-6.58c-3.65-1.51-7.6-2.25-11.56-2.47l-2.99-0.07c-1,0.04-1.99,0.13-2.99,0.19l-1.5,0.1l-1.49,0.22
					l-2.97,0.45c-7.9,1.5-15.52,4.39-22.87,7.76l-1.81,0.83l0.32-1.95c1.23-7.48,2.72-14.85,4.13-22.26
					c1.42-7.4,2.83-14.79,4.17-22.2c2.68-14.81,5.16-29.66,7.01-44.58c0.85-7.46,1.67-14.94,1.98-22.43l0.14-2.81
					c0.06-0.94,0.09-1.87,0.07-2.81l0-5.61c-0.19-3.72-0.45-7.41-0.93-11.17c-0.88-7.48-1.65-14.99-2.33-22.5
					c-0.3-3.76-0.61-7.52-0.84-11.29c-0.18-3.77-0.47-7.53-0.56-11.31c-1.1-30.18,0.89-60.33,3.43-90.35
					C315.38,140.84,318.89,110.93,322.63,80.95z M322.78,81.09c-3.35,29.86-6.46,59.85-8.98,89.87c-2.36,30.01-4.17,60.14-2.89,90.2
					c0.1,3.76,0.41,7.51,0.62,11.26c0.26,3.75,0.59,7.5,0.91,11.24c0.72,7.49,1.54,14.96,2.46,22.44c0.5,3.71,0.8,7.53,1.01,11.33
					l0.03,5.69c0.02,0.95-0.01,1.9-0.06,2.84l-0.12,2.84c-0.31,7.57-1.12,15.08-1.97,22.58c-1.84,14.98-4.31,29.87-6.98,44.71
					c-1.33,7.42-2.74,14.82-4.15,22.22c-1.4,7.4-2.88,14.8-4.09,22.18l-1.49-1.12c7.46-3.44,15.23-6.37,23.39-7.9l3.08-0.46
					l1.54-0.23l1.56-0.1c1.04-0.06,2.08-0.15,3.12-0.19l3.13,0.08c4.17,0.24,8.34,1.04,12.24,2.66c3.9,1.61,7.45,4.05,10.39,7.05
					c2.95,3,5.3,6.53,7.15,10.26c1.85,3.74,3.2,7.68,4.2,11.7c0.95,4.04,1.61,8.1,1.78,12.31l-0.96-0.93
					c12.12-0.13,24.24-0.22,36.37-0.26l18.19,0.04c6.07,0.06,12.12,0.1,18.21,0.37l-0.68,0.32c4.4-5.85,9.29-11.42,15.14-15.92
					l2.21-1.66c0.73-0.56,1.55-1,2.32-1.51c1.53-1.04,3.22-1.82,4.85-2.69c3.37-1.52,6.94-2.65,10.62-3.17
					c3.67-0.53,7.44-0.43,11.08,0.26c3.64,0.69,7.16,1.94,10.45,3.6c6.58,3.36,12.38,8.05,17.12,13.73l-0.98,0.29
					c1.47-16.99,2.3-34.05,2.82-51.11c0.48-17.06,0.61-34.14,0.25-51.2c-0.21-8.53-0.42-17.07-0.87-25.59l-0.31-6.39l-0.42-6.39
					l-0.43-6.39l-0.21-3.19l-0.28-3.19c-0.75-8.5-1.47-17.01-2.15-25.53c-0.4-4.25-0.54-8.53-0.8-12.79
					c-0.24-4.26-0.5-8.53-0.59-12.8l-0.38-12.81l-0.09-12.82c-0.07-4.27,0.07-8.54,0.11-12.81c0.07-4.27,0.1-8.54,0.3-12.81
					l0.48-12.81l0.75-12.8c0.21-4.27,0.61-8.52,0.94-12.78c0.34-4.26,0.66-8.52,1.13-12.77c1.66-17.01,3.97-33.97,7.1-50.79
					c0.71-4.22,1.65-8.39,2.54-12.58c0.47-2.09,0.85-4.19,1.4-6.26l1.59-6.22c2.08-8.31,4.77-16.46,7.86-24.48l0.84,1.17
					l-26.49,1.78l-26.48,1.97c-17.65,1.41-35.29,2.83-52.92,4.47c-17.63,1.63-35.24,3.42-52.84,5.36
					c-8.8,0.98-17.59,1.99-26.38,3.09l-13.17,1.7L322.78,81.09z"/>
			</g>
		</g>
		<g>
			<path class="st2" d="M340.45,93.02l173.41-15.74c0,0-27.74,107.19-18.74,178.41c9,71.21,8.4,161.4,5.25,179.91
				c-12.74-3.75-50.97-9-60.72,28.48c-6.75,1.5-60.72,0-60.72,0s-6.75-49.47-67.46-44.23c9.74-59.97,15.74-88.45,11.24-130.43
				C318.21,247.43,318.46,126,340.45,93.02z"/>
			<path class="st12" d="M340.4,92.93l86.57-8.36l43.39-4.11l43.43-4.02l1.16-0.11l-0.28,1.14c-3.61,14.54-6.66,29.26-9.41,44
				c-2.74,14.75-5.18,29.56-7.04,44.45c-0.51,3.72-0.85,7.45-1.28,11.18l-0.63,5.59l-0.48,5.6c-0.3,3.74-0.7,7.47-0.91,11.21
				l-0.6,11.23c-0.52,14.98-0.36,30,1.32,44.9c1.77,14.93,3.11,29.9,4.19,44.88c1.1,14.99,1.74,30,2.29,45.01
				c0.53,15.01,0.82,30.04,0.77,45.07c-0.04,7.51-0.12,15.03-0.39,22.54l-0.21,5.63l-0.3,5.63c-0.24,3.75-0.55,7.51-1.09,11.26
				l-0.08,0.58l-0.58-0.16c-6.02-1.7-12.32-2.54-18.58-2.53c-6.25,0.02-12.55,0.94-18.35,3.21c-5.8,2.25-11.01,5.95-14.9,10.8
				c-1.93,2.43-3.54,5.1-4.88,7.91c-1.35,2.8-2.29,5.79-3.13,8.79l-0.14,0.49l-0.43,0.06l-1.98,0.27l-1.92,0.13
				c-1.28,0.1-2.54,0.11-3.82,0.17c-2.54,0.07-5.08,0.12-7.61,0.14c-5.07,0.05-10.14,0.03-15.2-0.01
				c-10.13-0.08-20.26-0.27-30.39-0.52l-0.76-0.02l-0.13-0.78c-0.6-3.52-1.73-7.08-3.12-10.45c-1.38-3.39-3.13-6.63-5.16-9.67
				c-4.07-6.07-9.4-11.3-15.66-15.08c-3.13-1.87-6.43-3.47-9.89-4.69c-3.46-1.17-7-2.17-10.63-2.71c-7.24-1.22-14.66-1.34-22-0.69
				l-1.36,0.12l0.22-1.34l6.67-40.77c2.12-13.59,4.16-27.2,5.23-40.89c0.59-6.84,0.83-13.7,0.88-20.55l-0.03-5.14l-0.16-5.14
				l-0.08-2.57l-0.16-2.57l-0.33-5.13c-0.59-6.81-1.33-13.71-1.71-20.6c-0.41-6.89-0.67-13.78-0.85-20.67
				c-0.34-13.78-0.31-27.57,0.05-41.35c0.35-13.78,1.06-27.55,2.17-41.29c1.17-13.73,2.72-27.45,5.25-41.01
				c1.29-6.77,2.81-13.51,4.8-20.11C334.18,105.29,336.57,98.8,340.4,92.93z M340.5,93.1c-1.75,2.9-3.37,5.94-4.59,9.16l-0.95,2.39
				l-0.83,2.44c-0.27,0.82-0.56,1.62-0.82,2.44l-0.72,2.48c-1.9,6.61-3.32,13.34-4.53,20.11c-2.32,13.56-3.81,27.25-4.87,40.96
				c-1.02,13.72-1.63,27.47-1.89,41.23c-0.27,13.76-0.2,27.52,0.23,41.27c0.22,6.87,0.52,13.75,0.98,20.6
				c0.43,6.86,1.2,13.66,1.85,20.56c1.16,13.77,1.12,27.66-0.01,41.42c-1.07,13.78-3.1,27.44-5.2,41.05
				c-2.14,13.61-4.43,27.19-6.64,40.78l-1.14-1.22c7.48-0.64,15.08-0.51,22.53,0.77c3.73,0.57,7.39,1.61,10.97,2.84
				c3.57,1.28,6.99,2.94,10.24,4.9c6.49,3.95,12.02,9.41,16.22,15.71c2.09,3.16,3.89,6.51,5.31,10.02c1.43,3.52,2.57,7.1,3.21,10.92
				l-0.89-0.8c10.11,0.28,20.24,0.51,30.35,0.66c5.06,0.08,10.12,0.12,15.17,0.11c2.53,0,5.05-0.03,7.58-0.09
				c1.26-0.05,2.52-0.06,3.77-0.15l1.87-0.12l1.79-0.23l-0.57,0.55c0.88-3.08,1.87-6.14,3.28-9.03c1.4-2.89,3.08-5.65,5.11-8.16
				c4.07-5.01,9.53-8.83,15.53-11.1c6-2.3,12.45-3.2,18.81-3.17c6.38,0.04,12.73,0.91,18.87,2.67l-0.66,0.41
				c0.55-3.68,0.87-7.41,1.13-11.15l0.33-5.61l0.23-5.62c0.3-7.5,0.41-15,0.49-22.51c0.11-15.01-0.11-30.03-0.57-45.04
				c-0.47-15.01-1.26-30.01-2.38-44.98c-1.11-14.97-2.54-29.92-4.46-44.81c-1.81-14.96-2.11-30.04-1.7-45.08l0.51-11.27
				c0.18-3.76,0.55-7.5,0.82-11.25l0.44-5.62l0.59-5.61c0.42-3.74,0.76-7.48,1.26-11.21c3.74-29.85,9.26-59.45,16.51-88.65
				l0.88,1.03l-43.28,3.85l-43.32,3.76L340.5,93.1z"/>
		</g>
		<path class="st12" d="M370.64,90.28c0,0,6.31,33.08-42.17,37.78c0,0,1.24-23.04,11.98-35.03
			C360.97,91.15,370.64,90.28,370.64,90.28z"/>
		<path class="st12" d="M513.85,77.27l-8.82,40.37c0,0-39.08-10.33-28.62-36.97C495.94,78.9,513.85,77.27,513.85,77.27z"/>
		<g>
			<path class="st12" d="M343.55,423.07c0-0.22,0.05-0.29,0.07-0.41l0.08-0.33l0.18-0.66c0.12-0.44,0.26-0.87,0.4-1.31
				c0.29-0.86,0.6-1.73,0.96-2.57c0.71-1.68,1.49-3.34,2.4-4.93c1.78-3.19,3.93-6.2,6.38-8.93c4.9-5.47,10.96-9.9,17.63-13.02
				c3.32-1.57,6.78-2.88,10.32-3.86c1.75-0.55,3.56-0.92,5.34-1.35c1.8-0.34,3.6-0.71,5.42-0.96c7.27-1.06,14.63-1.17,21.93-0.7
				c7.3,0.56,14.56,1.92,21.5,4.24c3.44,1.24,6.86,2.56,10.09,4.28c1.66,0.78,3.21,1.75,4.81,2.63c1.53,0.99,3.1,1.93,4.56,3.03
				c1.51,1.03,2.91,2.21,4.33,3.35c1.37,1.21,2.74,2.41,4.04,3.69c2.61,2.55,5.03,5.3,7.21,8.23c4.32,5.88,7.99,12.28,10.23,19.33
				l0.24,0.75l-0.85-0.07c-4.55-0.36-9.26,0.24-13.65,1.55c-4.41,1.32-8.59,3.41-12.16,6.28c-1.79,1.43-3.47,3-4.95,4.75
				c-0.39,0.42-0.75,0.86-1.1,1.32c-0.35,0.46-0.71,0.9-1.05,1.36c-0.63,0.96-1.33,1.87-1.88,2.88c-2.37,3.94-4.14,8.23-5.41,12.67
				l-0.2,0.69l-0.73,0.03c-10.15,0.41-20.27,0.35-30.4,0.31c-10.13-0.05-20.25-0.17-30.37-0.42l-0.75-0.02l-0.12-0.75
				c-0.36-2.22-0.97-4.52-1.68-6.72c-0.72-2.22-1.58-4.39-2.57-6.5c-1.97-4.23-4.45-8.23-7.41-11.85c-1.48-1.81-3.11-3.5-4.81-5.1
				c-1.72-1.59-3.56-3.04-5.46-4.42c-1.94-1.31-3.93-2.59-6.04-3.64c-1.03-0.57-2.12-1.03-3.19-1.53
				C345.8,423.96,344.63,423.53,343.55,423.07z M343.72,422.97c1.12,0.39,2.2,0.71,3.29,1.16c1.09,0.46,2.21,0.88,3.27,1.41
				c2.17,0.97,4.22,2.18,6.25,3.44c4,2.59,7.62,5.78,10.76,9.38c3.12,3.62,5.81,7.63,7.9,11.95c1.05,2.15,1.97,4.37,2.75,6.64
				c0.78,2.28,1.44,4.56,1.87,7l-0.87-0.77l30.35,0.14l15.17-0.04c5.05-0.04,10.11-0.05,15.15-0.21l-0.92,0.72
				c1.35-4.57,3.22-9.01,5.73-13.09c2.48-4.09,5.71-7.77,9.53-10.68c3.8-2.94,8.2-5.07,12.81-6.34c2.31-0.63,4.66-1.06,7.04-1.27
				c2.38-0.21,4.75-0.25,7.16,0.03l-0.61,0.69c-0.98-3.41-2.4-6.78-4.04-9.98c-1.64-3.22-3.54-6.3-5.69-9.21
				c-4.29-5.81-9.44-11.03-15.41-15.13c-5.88-4.23-12.53-7.28-19.4-9.45c-6.9-2.11-14.08-3.25-21.27-3.65
				c-7.2-0.44-14.44-0.16-21.57,0.79c-1.78,0.23-3.55,0.57-5.32,0.89c-1.75,0.41-3.52,0.75-5.24,1.27
				c-3.47,0.93-6.86,2.17-10.11,3.67c-3.25,1.51-6.41,3.25-9.35,5.3c-2.94,2.06-5.69,4.41-8.15,7.03c-2.45,2.63-4.68,5.48-6.56,8.56
				c-0.95,1.53-1.79,3.14-2.55,4.77c-0.38,0.82-0.74,1.65-1.07,2.49c-0.16,0.42-0.32,0.85-0.47,1.27l-0.21,0.64l-0.1,0.32
				C343.78,422.82,343.77,422.97,343.72,422.97z"/>
		</g>
		<g>
			<path class="st7" d="M171.3,140.99c0,0-1.55-9.66-0.84-13.17c0.71-3.52,7.9-8.02,15.18,1.07s9.34,19.45,9.34,19.45l-8.99,4.42
				L171.3,140.99z"/>
			<path class="st7" d="M194.28,145.61c0,0,12.84-10.26,29.46,0.19c5.52,0.39,19.75-1.73,20.94,12.53
				c-0.18,1.72-0.26,2.52-0.26,2.52l-3.37,3.47l-27.02-8.65l-13.41-11.29L194.28,145.61z"/>
			<g>
				<path class="st2" d="M198.14,212.91c0,0,17.64,5.76,23.14,8.65c4.93,12.79,22.76,63.91,31.32,72.9
					c8.57,8.99,30.89,4.76,41.18-0.66c10.29-5.42,10.3-12.28,10.3-12.28l-5.54-17.57l-19.99,7.53c-5.23,1.97-11.09-0.37-13.52-5.4
					l-19.12-39.5c-1.16-2.4-0.78-5.26,0.96-7.28c3.61-4.18,9.46-11.42,10.86-15.84c2.06-6.5-12.89-11.99-12.54-13.11
					s-43.86,7.5-43.86,7.5L198.14,212.91z"/>
				<path class="st3" d="M198.22,212.86c0.15-0.01,0.46,0.12,0.68,0.18l0.74,0.23l1.48,0.46l2.95,0.93l5.87,1.94
					c1.95,0.66,3.9,1.35,5.84,2.06c1.93,0.73,3.85,1.48,5.75,2.42l0.18,0.09l0.08,0.2c2.14,5.42,4.18,10.87,6.27,16.29
					c2.05,5.44,4.13,10.87,6.25,16.28c2.12,5.41,4.33,10.78,6.56,16.14c2.24,5.35,4.57,10.67,7.2,15.81
					c1.32,2.56,2.69,5.13,4.39,7.35c1.68,2.2,4.19,3.64,6.85,4.55c2.68,0.92,5.55,1.29,8.42,1.41c2.87,0.1,5.76-0.07,8.63-0.47
					c5.71-0.84,11.38-2.34,16.58-4.83c2.56-1.3,5.02-2.88,6.98-4.97c0.99-1.03,1.87-2.17,2.54-3.42c0.65-1.24,1.16-2.63,1.24-3.97
					l0.02,0.11c-1.86-5.85-3.8-11.68-5.69-17.52l0.68,0.33l-20.07,7.81c-3.61,1.36-7.88,0.73-10.97-1.61
					c-1.53-1.17-2.81-2.74-3.6-4.46l-2.37-4.83l-9.46-19.33l-4.73-9.67l-2.34-4.84c-0.18-0.38-0.43-0.86-0.58-1.35
					c-0.17-0.49-0.29-1-0.35-1.52c-0.13-1.03-0.04-2.08,0.24-3.08c0.29-0.99,0.77-1.94,1.43-2.74l1.75-2.07
					c1.14-1.37,2.26-2.75,3.34-4.16c1.08-1.41,2.12-2.85,3.08-4.32c0.95-1.47,1.86-2.99,2.47-4.53l0.21-0.58l0.12-0.5
					c0.04-0.33,0.05-0.67-0.02-1.01c-0.12-0.68-0.46-1.37-0.92-2.02c-0.94-1.3-2.26-2.43-3.66-3.45c-1.41-1.02-2.92-1.94-4.46-2.85
					c-0.77-0.46-1.54-0.9-2.34-1.43c-0.2-0.14-0.4-0.28-0.64-0.49l-0.19-0.18c-0.06-0.06-0.17-0.23-0.24-0.35
					c-0.03-0.03-0.09-0.21-0.11-0.39c-0.01-0.09,0-0.18,0.01-0.27c0.05-0.16-0.03-0.18,0,0.29c0.02,0.25,0.33,0.53,0.35,0.53
					c0.07,0.05,0.17,0.09,0.17,0.09c0.07,0.02,0.07,0.02,0.07,0.02c-0.04-0.01-0.3-0.01-0.49,0l-0.64,0.05
					c-7.03,0.81-14.13,2.18-21.19,3.33l-21.2,3.71l0.3-0.3L198.22,212.86z M198.05,212.96l2.89-15.19l0.05-0.24l0.26-0.05
					c7.02-1.5,14.06-2.9,21.1-4.3c3.52-0.7,7.05-1.37,10.58-2.01c3.54-0.63,7.05-1.28,10.68-1.72l0.7-0.06
					c0.26-0.01,0.45-0.04,0.86,0c0.06,0.01,0.12,0.02,0.24,0.06c0.03,0.01,0.15,0.06,0.25,0.12c0.05,0.01,0.38,0.31,0.4,0.59
					c0.03,0.49-0.05,0.51,0.01,0.37c0.01-0.06,0.02-0.12,0.01-0.18c-0.01-0.13-0.08-0.25-0.06-0.24c0-0.03-0.06-0.09-0.04-0.07
					l0.06,0.05c0.1,0.09,0.27,0.21,0.44,0.32c0.7,0.45,1.49,0.89,2.27,1.34c1.56,0.89,3.14,1.82,4.65,2.88
					c1.5,1.07,2.99,2.25,4.17,3.85c0.58,0.81,1.08,1.75,1.28,2.84c0.11,0.54,0.1,1.11,0.03,1.66c-0.05,0.27-0.12,0.54-0.19,0.81
					l-0.25,0.69c-0.7,1.8-1.66,3.37-2.64,4.92c-0.99,1.54-2.06,3.01-3.15,4.45c-1.1,1.44-2.23,2.85-3.38,4.24l-1.72,2.05
					c-0.48,0.59-0.83,1.28-1.04,2c-0.2,0.73-0.27,1.5-0.16,2.25c0.04,0.38,0.13,0.74,0.26,1.1c0.11,0.36,0.28,0.68,0.49,1.11
					l2.35,4.84l4.65,9.71l9.29,19.41l2.32,4.86c0.69,1.56,1.73,2.85,3.03,3.89c2.62,2.04,6.28,2.66,9.43,1.52l20.22-7.35l0.52-0.19
					l0.16,0.52c1.8,5.87,3.55,11.76,5.38,17.62l0.02,0.07l0,0.04c-0.3,3.1-1.98,5.73-4.03,7.84c-2.04,2.15-4.59,3.72-7.18,5.07
					c-5.27,2.59-10.97,4.15-16.74,5.06c-2.89,0.44-5.82,0.71-8.76,0.68c-2.94-0.05-5.91-0.35-8.77-1.24
					c-2.83-0.88-5.64-2.38-7.58-4.8c-1.9-2.35-3.33-4.92-4.74-7.49c-5.39-10.4-9.7-21.23-13.87-32.11
					c-2.08-5.44-4.11-10.89-6.11-16.36c-1.97-5.47-3.89-10.97-5.89-16.42l0.25,0.29c-1.78-0.93-3.69-1.73-5.58-2.51
					c-1.9-0.78-3.81-1.53-5.74-2.27l-5.79-2.15l-2.9-1.06l-1.45-0.53l-0.73-0.26C198.57,213.16,198.39,213.13,198.05,212.96z"/>
			</g>
			<path class="st14" d="M220.43,147.47L266,170.49c0,0,15.93,13.93-2.24,37.29c-5.35,2.46-59,6.01-59,6.01
				S259.86,193.95,220.43,147.47z"/>
			<path class="st15" d="M145.82,204.72c0,0,7.32,3.19,25.55,2.65c14.77-0.56,21.08-2.22,21.08-2.22l4.76-45.95
				c0,0-5.22-7.72-11.97-11.9s-24.62-13.9-44.43-2.63c1.9,19.65,3.23,33.63,3.23,33.63L145.82,204.72z"/>
			<g>
				
					<ellipse transform="matrix(0.103 -0.9947 0.9947 0.103 -36.4679 306.9126)" class="st16" cx="151.94" cy="173.68" rx="31.51" ry="28.69"/>
				<g>
					<path class="st17" d="M180.42,176.63c0.36-3.92,0.1-7.9-0.9-11.7c-1-3.79-2.68-7.4-4.98-10.56c-2.3-3.14-5.16-5.88-8.49-7.89
						c-3.32-2-7.05-3.34-10.92-3.74c-7.74-0.93-15.78,1.91-21.47,7.3c-5.79,5.32-9.27,12.93-9.99,20.7
						c-0.73,7.79,1.28,15.8,5.78,22.14c4.44,6.35,11.55,10.84,19.29,11.61c3.85,0.42,7.77-0.09,11.43-1.36
						c3.66-1.27,7.03-3.35,9.93-5.95c2.89-2.61,5.28-5.8,7.04-9.3C178.89,184.38,179.97,180.53,180.42,176.63z M180.52,176.64
						c-0.8,7.84-4.24,15.48-9.97,21.04c-2.85,2.78-6.29,4.98-10.06,6.37c-3.76,1.4-7.86,1.9-11.85,1.49
						c-4-0.41-7.91-1.72-11.32-3.85c-3.42-2.12-6.35-4.97-8.63-8.25c-4.6-6.58-6.43-14.86-5.56-22.74
						c0.91-7.89,4.53-15.45,10.3-20.9c2.88-2.71,6.28-4.9,10.02-6.3c3.73-1.39,7.79-1.96,11.78-1.57c3.98,0.4,7.89,1.69,11.28,3.82
						c3.4,2.12,6.33,4.96,8.55,8.27C179.54,160.62,181.34,168.8,180.52,176.64z"/>
				</g>
			</g>
			<g>
				<g>
					<g>
						
							<ellipse transform="matrix(0.103 -0.9947 0.9947 0.103 6.1838 364.4201)" class="st18" cx="205.15" cy="178.78" rx="34.87" ry="32.03"/>
						<path class="st17" d="M236.95,182.08c0.4-4.35,0.1-8.78-1.02-13c-1.12-4.21-3.01-8.22-5.58-11.71
							c-2.57-3.49-5.78-6.51-9.49-8.73c-3.7-2.21-7.86-3.68-12.17-4.12c-8.61-1.03-17.56,2.09-23.93,8.04
							c-6.47,5.88-10.39,14.32-11.21,22.96c-0.83,8.66,1.45,17.58,6.5,24.6c4.98,7.04,12.93,11.99,21.54,12.84
							c4.29,0.47,8.65-0.09,12.73-1.48c4.08-1.39,7.85-3.68,11.08-6.57c3.23-2.89,5.9-6.42,7.86-10.31
							C235.25,190.69,236.45,186.42,236.95,182.08z M237.05,182.09c-0.89,8.71-4.77,17.19-11.19,23.3
							c-3.19,3.06-7.03,5.47-11.21,6.98c-4.18,1.53-8.72,2.06-13.15,1.61c-4.43-0.45-8.77-1.9-12.57-4.23
							c-3.8-2.32-7.08-5.46-9.63-9.09c-5.16-7.26-7.25-16.45-6.28-25.2c1-8.77,5.06-17.15,11.52-23.16
							c3.22-2.99,7.02-5.39,11.17-6.91c4.15-1.52,8.65-2.13,13.08-1.69c4.42,0.44,8.75,1.86,12.53,4.21
							c3.78,2.33,7.06,5.46,9.55,9.1C235.9,164.29,237.96,173.37,237.05,182.09z"/>
					</g>
				</g>
			</g>
			<g>
				
					<ellipse transform="matrix(0.103 -0.9947 0.9947 0.103 3.4543 360.6813)" class="st16" cx="201.71" cy="178.43" rx="31.1" ry="28.57"/>
				<g>
					<path class="st17" d="M230.08,181.36c0.36-3.88,0.09-7.83-0.92-11.59c-1.01-3.76-2.7-7.32-4.99-10.43
						c-4.54-6.24-11.6-10.65-19.3-11.44c-7.67-0.93-15.65,1.83-21.33,7.14c-5.77,5.24-9.26,12.77-9.98,20.47
						c-0.73,7.72,1.31,15.66,5.81,21.91c4.44,6.27,11.52,10.66,19.18,11.43c3.82,0.42,7.7-0.08,11.33-1.31
						c3.64-1.24,6.99-3.27,9.88-5.84c2.89-2.57,5.27-5.71,7.03-9.18C228.55,189.05,229.63,185.24,230.08,181.36z M230.18,181.37
						c-0.79,7.78-4.24,15.34-9.96,20.81c-2.84,2.74-6.27,4.89-10.01,6.25c-3.73,1.37-7.79,1.85-11.76,1.44
						c-3.96-0.4-7.84-1.69-11.23-3.78c-3.4-2.08-6.32-4.89-8.61-8.13c-4.61-6.49-6.46-14.7-5.59-22.51
						c0.9-7.83,4.54-15.3,10.29-20.67c2.87-2.67,6.26-4.82,9.97-6.18c3.7-1.36,7.73-1.91,11.68-1.53c3.95,0.4,7.82,1.66,11.2,3.76
						c3.38,2.08,6.3,4.88,8.52,8.14C229.16,165.49,230.99,173.6,230.18,181.37z"/>
				</g>
			</g>
			<polygon class="st19" points="272.08,181.08 279.19,181.82 277.04,202.56 268.33,201.66 			"/>
			<path class="st20" d="M278.93,182.02c0,0,3.39-3.7,7.45-0.39c4.06,3.32,2.45,21.1-2.34,22.57s-7.24-1.68-7.24-1.68L278.93,182.02
				z"/>
			<path class="st12" d="M184.81,154.52l23.54,53.51c0,0,4.84-1.36,7.87-3.69c-4.41-8.59-24.13-54.37-24.13-54.37
				S187.67,151.93,184.81,154.52z"/>
			<path class="st12" d="M194.11,149.25l22.88,54.37c0.9-0.63,1.49-0.68,3.66-3.03c-3.4-8.17-22-52.4-22-52.4L194.11,149.25z"/>
			<path class="st21" d="M219.59,221.97c0,0,25.47-2.87,27.87-1.58c2.08,0.07,2.38,5.76,2.38,5.76l0.29,5.84l-25.62,3.6
				C224.51,235.59,220.51,233.83,219.59,221.97z"/>
		</g>
		<g>
			<path class="st12" d="M332.19,173.43c1.85-11.74,11.62-21,23.95-22.22c4.18-0.41,9.28-0.92,14.76,0.96
				c22.54,7.74,24.57,41.23,23.69,61.06c-0.37,8.32-7.19,14.89-15.52,14.89h-50.61C328.46,228.11,329.04,193.41,332.19,173.43z"/>
			<path class="st22" d="M332.15,173.42c1.23-8.05,6.44-15.31,13.59-19.26c1.78-1,3.69-1.76,5.65-2.36
				c1.96-0.55,4.01-0.91,6.03-1.09c4.03-0.43,8.21-0.5,12.21,0.6c2,0.52,3.88,1.39,5.7,2.34c1.8,1,3.46,2.23,5.01,3.58
				c1.51,1.4,2.88,2.93,4.1,4.58c1.18,1.67,2.28,3.4,3.19,5.23c1.86,3.63,3.19,7.5,4.21,11.43c1,3.93,1.74,7.93,2.2,11.96
				c0.47,4.03,0.77,8.07,0.87,12.13c0.05,2.03,0.07,4.05,0.05,6.08c0,1.01-0.03,2.03-0.05,3.04l-0.05,1.52l-0.13,1.54
				c-0.51,4.09-2.73,7.94-6.02,10.46c-1.63,1.27-3.52,2.21-5.52,2.76c-2,0.58-4.13,0.6-6.12,0.59c-16.2,0.09-32.39,0.13-48.59,0.08
				l-0.52,0l0.01-0.51c0.08-4.58,0.28-9.14,0.49-13.71c0.21-4.57,0.49-9.13,0.83-13.69c0.34-4.56,0.7-9.12,1.18-13.67
				C330.91,182.48,331.43,177.94,332.15,173.42z M332.24,173.44c-0.68,4.52-1.15,9.06-1.55,13.62c-0.37,4.55-0.63,9.12-0.86,13.68
				c-0.42,9.13-0.69,18.26-0.87,27.39l-0.51-0.51c16.2-0.04,32.39-0.01,48.59,0.08c2.04,0.04,4.01,0.04,5.93-0.48
				c1.91-0.49,3.73-1.37,5.31-2.56c3.18-2.37,5.37-6.04,5.93-9.99l0.15-1.49l0.07-1.51c0.04-1.01,0.08-2.02,0.1-3.03
				c0.06-2.02,0.05-4.04,0.01-6.07c-0.09-4.04-0.32-8.09-0.83-12.1c-1-8-2.89-16.01-6.67-23.13c-0.93-1.79-2.04-3.46-3.22-5.07
				c-1.22-1.59-2.58-3.05-4.05-4.41c-1.51-1.3-3.13-2.48-4.87-3.44c-1.76-0.92-3.6-1.72-5.51-2.25c-3.84-1.1-7.9-1.09-11.9-0.71
				c-2.02,0.14-3.98,0.44-5.93,0.93c-1.93,0.54-3.81,1.24-5.59,2.18c-1.76,0.96-3.47,2.04-4.97,3.38c-0.8,0.62-1.46,1.38-2.19,2.08
				c-0.64,0.77-1.35,1.5-1.91,2.34C334.48,165.62,332.94,169.46,332.24,173.44z"/>
		</g>
		<g>
			<path class="st12" d="M478.87,173.43c-1.85-11.74-11.62-21-23.95-22.22c-4.18-0.41-9.28-0.92-14.76,0.96
				c-22.54,7.74-24.57,41.23-23.69,61.06c0.37,8.32,7.19,14.89,15.52,14.89h50.61C482.6,228.11,482.02,193.41,478.87,173.43z"/>
			<path class="st22" d="M478.82,173.44c-0.69-3.98-2.24-7.82-4.64-11.07c-0.55-0.84-1.26-1.57-1.91-2.34
				c-0.73-0.7-1.4-1.46-2.19-2.08c-1.5-1.34-3.22-2.42-4.97-3.38c-1.78-0.94-3.66-1.64-5.59-2.18c-1.95-0.49-3.91-0.79-5.93-0.93
				c-4-0.38-8.07-0.39-11.9,0.71c-1.91,0.53-3.75,1.33-5.51,2.25c-1.75,0.96-3.36,2.14-4.87,3.44c-1.46,1.35-2.83,2.82-4.05,4.41
				c-1.18,1.61-2.3,3.29-3.22,5.07c-3.78,7.12-5.67,15.13-6.67,23.13c-0.51,4.01-0.74,8.05-0.83,12.1
				c-0.04,2.02-0.05,4.04,0.01,6.07c0.02,1.01,0.06,2.02,0.1,3.03l0.07,1.51l0.15,1.49c0.56,3.95,2.75,7.62,5.93,9.99
				c1.58,1.19,3.4,2.07,5.31,2.56c1.92,0.52,3.89,0.52,5.93,0.48c16.2-0.09,32.39-0.13,48.59-0.08l-0.51,0.51
				c-0.18-9.13-0.45-18.26-0.87-27.39c-0.23-4.56-0.48-9.12-0.86-13.68C479.97,182.5,479.5,177.96,478.82,173.44z M478.92,173.42
				c0.72,4.52,1.23,9.06,1.68,13.61c0.48,4.55,0.84,9.11,1.18,13.67c0.34,4.56,0.62,9.12,0.83,13.69c0.21,4.57,0.41,9.14,0.49,13.71
				l0.01,0.51l-0.52,0c-16.2,0.04-32.39,0.01-48.59-0.08c-2,0.01-4.13-0.01-6.12-0.59c-2-0.54-3.89-1.49-5.52-2.76
				c-3.28-2.52-5.5-6.37-6.02-10.46l-0.13-1.54l-0.05-1.52c-0.02-1.01-0.05-2.03-0.05-3.04c-0.02-2.03,0-4.05,0.05-6.08
				c0.1-4.05,0.4-8.1,0.87-12.13c0.46-4.03,1.19-8.03,2.2-11.96c1.02-3.93,2.35-7.8,4.21-11.43c0.91-1.83,2.01-3.56,3.19-5.23
				c1.21-1.65,2.59-3.18,4.1-4.58c1.55-1.35,3.21-2.58,5.01-3.58c1.82-0.95,3.7-1.82,5.7-2.34c4-1.1,8.18-1.03,12.21-0.6
				c2.01,0.19,4.06,0.54,6.03,1.09c1.96,0.6,3.86,1.36,5.65,2.36C472.48,158.12,477.69,165.37,478.92,173.42z"/>
		</g>
		<g>
			<path class="st4" d="M311.71,292.54l-17.24,8.11l-20.49-41.23L310,224.48C310,224.48,308.21,257.18,311.71,292.54z"/>
			<g>
				<path class="st3" d="M311.76,292.57c-2.81,1.39-5.6,2.84-8.48,4.23c-2.86,1.41-5.73,2.84-8.64,4.21l-0.35,0.16l-0.17-0.35
					l-5.17-10.28c-1.69-3.45-3.41-6.88-5.06-10.34l-4.99-10.37c-1.65-3.46-3.37-6.89-5.05-10.34l-0.05-0.1l0.08-0.08
					c6.01-5.82,11.94-11.72,17.88-17.61c5.93-5.9,11.9-11.76,17.89-17.6l0.92-0.9l-0.05,1.29c-0.23,5.66-0.39,11.33-0.43,17
					c-0.04,5.67-0.02,11.35,0.06,17.02c0.08,5.67,0.26,11.35,0.55,17.01c0.12,2.84,0.32,5.67,0.48,8.5
					C311.32,286.87,311.56,289.77,311.76,292.57z M311.67,292.52c-0.29-2.86-0.64-5.61-0.88-8.45c-0.28-2.83-0.48-5.66-0.67-8.5
					c-0.39-5.67-0.66-11.35-0.85-17.03c-0.1-2.84-0.16-5.68-0.21-8.52c-0.02-2.84-0.03-5.68-0.01-8.53
					c0.04-5.68,0.13-11.36,0.44-17.05l0.87,0.39c-6.02,5.81-12.06,11.59-18.13,17.35c-6.06,5.77-12.14,11.52-18.14,17.34l0.03-0.18
					c1.73,3.42,3.43,6.86,5.19,10.27l5.25,10.24c1.76,3.41,3.45,6.85,5.18,10.28l5.08,10.33l-0.52-0.18c2.84-1.33,5.71-2.6,8.6-3.9
					L311.67,292.52z"/>
			</g>
		</g>
		<path class="st23" d="M358.25,141.67c0,0,32.58,0.66,39.88,27.9c0.3,1.12,1.97,0.87,1.92-0.29
			C399.5,156.67,393.34,136.34,358.25,141.67z"/>
		<path class="st23" d="M431.66,154.37c5.71-5.65,16.66-12.22,35.47-9.23c0,0-25.82-13.3-37.4,7.76
			C429.06,154.14,430.66,155.37,431.66,154.37z"/>
		<circle class="st12" cx="436.37" cy="187.87" r="9.66"/>
		<g>
			<path class="st12" d="M390,438.38c4.87-0.91,9.64-1.79,14.46-2.69c0.11,0.3,0.21,0.55,0.31,0.8c1.3,3.42,3.9,5.18,7.44,5.45
				c1.69,0.13,3.45-0.02,5.12-0.33c1.65-0.31,2.35-1.26,2.46-2.6c0.1-1.38-0.55-2.66-2.05-3.18c-2.08-0.73-4.24-1.25-6.39-1.77
				c-3.83-0.93-7.61-1.99-11.19-3.71c-5.61-2.71-8.06-8.88-7.55-14.1c0.8-8.06,5.73-13.43,13.91-15.27c0.74-0.17,1.8-0.12,2.14-0.59
				c0.39-0.53,0.17-1.53,0.18-2.32c0.01-1.29,0-2.59,0-3.88c0-0.38-0.04-0.75,0.53-0.75c2.43,0.01,4.86,0.01,7.41,0.01
				c0,2.35,0,4.61,0,6.91c8.27,0.99,14.5,4.62,17.52,12.75c-3.05,0.96-6.04,1.9-9.03,2.83c-1.09,0.34-2.18,0.67-3.26,1.03
				c-0.44,0.14-0.72,0.16-0.94-0.36c-1.65-3.83-5.19-4.99-9.08-4.64c-0.75,0.07-1.52,0.27-2.22,0.56c-1.12,0.47-1.7,1.39-1.7,2.62
				c-0.01,1.23,0.53,2.23,1.69,2.61c1.98,0.66,4.02,1.14,6.03,1.7c3.35,0.92,6.76,1.68,10.04,2.8c6.5,2.22,10.3,8.39,9.89,15.26
				c-0.47,7.82-5.86,13.17-12.79,15.37c-1.69,0.54-3.47,0.83-5.22,1.16c-0.65,0.12-0.95,0.31-0.93,1.04
				c0.05,2.06,0.02,4.12,0.02,6.3c-1.37,0-2.66,0-3.94,0c-1.08,0-2.16-0.03-3.23,0.01c-0.61,0.02-0.8-0.19-0.79-0.79
				c0.03-2.09,0.01-4.18,0.01-6.39C399.17,453.01,392.7,448.04,390,438.38z"/>
			<g>
				<path class="st3" d="M389.96,438.36l14.46-2.89l0.2-0.04l0.06,0.19c0.66,1.93,1.72,3.71,3.43,4.76
					c1.68,1.08,3.74,1.36,5.74,1.29c1.01-0.03,2.01-0.14,3.01-0.32c0.99-0.13,1.89-0.5,2.28-1.3c0.38-0.78,0.38-1.85-0.04-2.62
					c-0.21-0.39-0.53-0.72-0.92-0.94c-0.37-0.23-0.86-0.36-1.35-0.53c-3.87-1.22-7.96-1.89-11.89-3.22
					c-1.97-0.66-3.9-1.38-5.76-2.39c-1.85-1.05-3.43-2.56-4.58-4.33c-2.33-3.53-3.04-8.07-2.01-12.13c0.45-2.04,1.22-4.03,2.38-5.78
					c1.16-1.75,2.67-3.25,4.4-4.42c1.73-1.17,3.66-2.01,5.66-2.57l1.51-0.37c0.53-0.1,1.05-0.11,1.5-0.23
					c0.23-0.07,0.4-0.15,0.49-0.32c0.1-0.18,0.13-0.41,0.14-0.65c0.02-0.49-0.06-1-0.05-1.53l0.01-3.08l0-0.77
					c0-0.13-0.01-0.26,0.03-0.42c0.02-0.16,0.17-0.36,0.34-0.42c0.35-0.1,0.57-0.04,0.83-0.05l0.77,0l6.16,0.02l0.16,0l0,0.16
					l0.01,6.91l-0.15-0.17c3.8,0.44,7.63,1.5,10.85,3.7c1.6,1.1,3.01,2.47,4.16,4.02c1.16,1.56,2.06,3.29,2.74,5.1l0.1,0.26
					l-0.27,0.09l-12.51,4c-0.16,0.04-0.39,0.07-0.63-0.04c-0.23-0.11-0.35-0.3-0.43-0.45l-0.36-0.73c-0.25-0.46-0.54-0.9-0.88-1.29
					c-0.67-0.79-1.52-1.42-2.47-1.83c-1.9-0.81-4.17-0.88-6.17-0.44c-0.49,0.13-1.01,0.31-1.4,0.55c-0.39,0.25-0.69,0.6-0.85,1.02
					c-0.31,0.84-0.22,2,0.36,2.63c0.31,0.33,0.65,0.51,1.22,0.64l1.57,0.44l3.14,0.87c2.09,0.59,4.21,1.1,6.33,1.66
					c1.06,0.28,2.12,0.57,3.17,0.89c1.04,0.32,2.11,0.67,3.14,1.15c1.04,0.45,1.98,1.1,2.89,1.77c0.87,0.72,1.7,1.5,2.4,2.39
					c1.41,1.77,2.4,3.87,2.91,6.06c1.02,4.39,0.24,9.17-2.2,12.98c-2.46,3.81-6.42,6.44-10.67,7.73c-1.07,0.33-2.16,0.55-3.24,0.76
					l-1.61,0.29c-0.27,0.05-0.54,0.09-0.69,0.16c-0.14,0.07-0.14,0.07-0.18,0.29l-0.03,6.5l0,0.4l-0.39,0l-3.73-0.02
					c-1.26-0.01-2.42,0.01-3.77-0.03c-0.19-0.02-0.48-0.11-0.64-0.36c-0.15-0.23-0.16-0.45-0.17-0.63l0.01-0.95l0.02-1.86l0.03-3.72
					l0.26,0.3c-2.19-0.29-4.37-0.78-6.44-1.58c-2.07-0.79-4.04-1.88-5.73-3.32c-1.69-1.44-3.11-3.18-4.21-5.09
					C391.33,442.58,390.52,440.54,389.96,438.36z M390.05,438.41c0.64,2.03,1.46,4.11,2.6,5.96c1.13,1.86,2.56,3.54,4.25,4.9
					c1.69,1.36,3.62,2.41,5.65,3.16c2.04,0.75,4.17,1.21,6.33,1.46l0.26,0.03l0,0.27l0.02,3.73l0.01,1.86l0.01,0.91
					c0,0.13,0.03,0.24,0.06,0.26c0.02,0.02,0.05,0.05,0.16,0.06l7.41-0.05l-0.39,0.39l-0.05-6.6c0.02-0.17,0.06-0.38,0.18-0.58
					c0.12-0.2,0.33-0.35,0.5-0.42c0.35-0.15,0.63-0.18,0.89-0.23l1.6-0.31c1.06-0.21,2.11-0.45,3.13-0.77
					c2.03-0.65,3.97-1.6,5.71-2.82c1.74-1.22,3.23-2.78,4.39-4.55c2.27-3.56,3.01-8.08,2.04-12.18c-0.96-4.1-3.76-7.77-7.61-9.54
					c-0.94-0.46-1.95-0.8-3-1.12c-1.03-0.32-2.08-0.62-3.13-0.9c-2.1-0.57-4.23-1.09-6.33-1.7l-3.16-0.9l-1.58-0.45
					c-0.49-0.1-1.2-0.41-1.61-0.91c-0.44-0.5-0.66-1.13-0.73-1.74c-0.06-0.6-0.01-1.23,0.22-1.82c0.23-0.6,0.68-1.11,1.22-1.43
					c0.56-0.33,1.08-0.48,1.65-0.63c1.13-0.28,2.26-0.28,3.39-0.23c1.13,0.08,2.25,0.32,3.3,0.79c1.05,0.46,1.99,1.18,2.72,2.06
					c0.37,0.44,0.67,0.92,0.94,1.43l0.35,0.74c0.13,0.19,0.06,0.16,0.29,0.14l12.49-3.84l-0.17,0.35c-0.66-1.77-1.52-3.47-2.63-5
					c-1.11-1.53-2.47-2.87-4.02-3.95c-3.12-2.17-6.88-3.25-10.64-3.72l-0.15-0.02l0-0.15l0.01-6.91l0.16,0.16l-6.16,0.02l-0.77,0
					c-0.24,0.01-0.55-0.02-0.7,0.03c-0.13,0.03-0.14,0.23-0.13,0.5l0,0.77l0.01,3.08c-0.01,0.5,0.07,1,0.06,1.54
					c-0.01,0.27-0.04,0.56-0.18,0.84c-0.15,0.3-0.48,0.47-0.74,0.54c-0.54,0.15-1.06,0.16-1.53,0.26l-1.47,0.39
					c-1.95,0.57-3.81,1.42-5.47,2.58c-1.65,1.15-3.08,2.62-4.16,4.31c-1.08,1.69-1.79,3.61-2.19,5.57c-0.4,1.98-0.54,3.99-0.19,5.96
					c0.34,1.96,1.06,3.87,2.17,5.52c1.09,1.66,2.57,3.06,4.3,4.03c1.74,0.96,3.67,1.7,5.59,2.36c3.85,1.33,7.9,2.02,11.86,3.29
					c0.48,0.17,1,0.3,1.51,0.61c0.49,0.29,0.92,0.73,1.19,1.25c0.53,1.05,0.54,2.26,0.04,3.32c-0.26,0.54-0.73,0.96-1.25,1.22
					c-0.51,0.26-1.08,0.37-1.58,0.44c-1.03,0.17-2.07,0.27-3.11,0.28c-2.06,0.04-4.27-0.28-6.06-1.47
					c-1.83-1.15-2.95-3.13-3.57-5.07l0.26,0.15L390.05,438.41z"/>
			</g>
		</g>
		<polygon class="st12" points="138.19,146.33 161.74,201.22 163.07,200.44 139.82,145.39 		"/>
		<g>
			<g>
				<path class="st2" d="M550.16,369.24c0,0-7.34,9.92-14.24,12.79s-7.84,12.81-7.72,21.14s4.18,24.72,6.02,26.83
					c1.84,2.11,8.86-0.23,9.98-4.09c1.12-3.86,0.18-18.69,0.18-18.69s0.6,26.7,4.99,32.67c4.39,5.97,8.35,0.32,16.31,3.14
					c11.47,4.07,12.05-1.9,16.8-5.71c7.34-2.13,12.97-3.45,14.06-17.88s-1.44-35.33-6.89-43.9c-5.45-8.58-9.64-9.91-9.64-9.91
					L550.16,369.24z"/>
				<path class="st3" d="M550.21,369.33c-1.17,1.68-2.54,3.38-3.95,4.96c-1.41,1.59-2.91,3.12-4.52,4.52
					c-1.62,1.4-3.38,2.68-5.37,3.61c-1.9,0.78-3.38,2.18-4.43,3.9c-1.05,1.72-1.7,3.69-2.12,5.7c-0.42,2.02-0.65,4.09-0.75,6.18
					c-0.09,2.08-0.12,4.21,0,6.26c0.13,2.07,0.41,4.15,0.74,6.22c0.34,2.07,0.76,4.13,1.21,6.19c0.44,2.06,0.93,4.1,1.48,6.13
					c0.56,2,1.15,4.07,1.99,5.84c0.1,0.25,0.22,0.36,0.32,0.54c0.05,0.1,0.12,0.11,0.17,0.17c0.06,0.05,0.1,0.11,0.19,0.14
					c0.28,0.18,0.72,0.24,1.16,0.29c0.9,0.06,1.89-0.14,2.81-0.46c1.82-0.65,3.64-1.85,4.33-3.52c0.32-0.85,0.44-1.9,0.53-2.93
					c0.1-1.04,0.14-2.09,0.18-3.14c0.11-4.21,0.05-8.45-0.18-12.67l0.76-0.03c0.15,5.84,0.43,11.71,1.16,17.51
					c0.34,2.9,0.8,5.8,1.44,8.63c0.16,0.71,0.32,1.42,0.55,2.11c0.2,0.7,0.42,1.39,0.71,2.04c0.48,1.35,1.29,2.51,2.32,3.43
					c1.02,0.92,2.31,1.39,3.7,1.29c1.39-0.05,2.83-0.38,4.32-0.53c1.49-0.17,3.04-0.17,4.55,0.09c0.76,0.11,1.49,0.33,2.23,0.54
					l2.07,0.62c2.72,0.71,5.69,1.09,7.94-0.28c2.27-1.33,3.71-4.09,6.17-6.06l0.14-0.11l0.18-0.05c3.34-0.99,6.74-1.89,8.99-4.19
					c1.13-1.12,1.97-2.54,2.55-4.09c0.6-1.54,1-3.18,1.26-4.86c0.53-3.36,0.63-6.84,0.68-10.3c0.03-3.47-0.11-6.94-0.39-10.4
					c-0.58-6.91-1.64-13.83-3.7-20.39c-0.26-0.82-0.58-1.61-0.86-2.42c-0.33-0.78-0.67-1.57-1.04-2.32
					c-0.76-1.47-1.73-2.93-2.72-4.33c-1.01-1.38-2.1-2.71-3.3-3.91c-0.61-0.59-1.23-1.17-1.89-1.67c-0.64-0.5-1.4-1-2.02-1.26
					l0.3,0.03l-14.86,1.53L550.21,369.33z M550.11,369.16l14.83-2.15l14.99-2.07l0.16-0.02l0.14,0.05c1.01,0.38,1.72,0.87,2.49,1.41
					c0.74,0.54,1.41,1.15,2.08,1.76c1.3,1.25,2.46,2.62,3.55,4.04c1.07,1.44,2.07,2.88,2.96,4.5c0.42,0.8,0.79,1.63,1.16,2.45
					c0.32,0.84,0.67,1.66,0.95,2.51c2.33,6.76,3.33,13.8,3.98,20.82c0.31,3.52,0.47,7.05,0.45,10.58
					c-0.02,3.54-0.19,7.07-0.78,10.63c-0.29,1.77-0.74,3.55-1.44,5.26c-0.67,1.71-1.66,3.38-3.04,4.71
					c-1.36,1.35-3.06,2.28-4.75,2.95c-1.7,0.67-3.42,1.13-5.1,1.61l0.31-0.16c-1.08,0.84-2.01,1.89-2.99,3
					c-0.98,1.09-2.06,2.26-3.49,3.07c-1.42,0.82-3.09,1.11-4.64,1.05c-1.58-0.02-3.05-0.4-4.51-0.8l-2.12-0.71
					c-0.67-0.21-1.33-0.44-2.02-0.56c-1.37-0.28-2.78-0.33-4.2-0.21c-1.43,0.1-2.87,0.4-4.42,0.41c-0.38,0.03-0.78-0.05-1.17-0.07
					c-0.39-0.09-0.79-0.15-1.16-0.3c-0.37-0.16-0.75-0.3-1.07-0.54l-0.5-0.33c-0.15-0.12-0.29-0.26-0.43-0.39
					c-0.29-0.26-0.57-0.53-0.79-0.84c-0.23-0.31-0.51-0.57-0.68-0.93l-0.57-1.01c-0.18-0.34-0.28-0.7-0.42-1.05
					c-0.29-0.7-0.49-1.41-0.68-2.13c-0.21-0.71-0.38-1.43-0.53-2.15c-0.63-2.89-1.06-5.8-1.37-8.72
					c-0.61-5.84-1.08-11.69-1.28-17.57l0.76-0.03c0.26,4.24,0.54,8.47,0.54,12.73c-0.01,1.07-0.02,2.13-0.08,3.21
					c-0.07,1.07-0.13,2.16-0.52,3.31c-0.42,1.16-1.23,2.07-2.11,2.8c-0.89,0.73-1.89,1.28-2.95,1.69c-1.06,0.4-2.18,0.68-3.41,0.65
					c-0.31-0.03-0.61-0.02-0.94-0.12c-0.16-0.04-0.32-0.07-0.48-0.13l-0.48-0.23c-0.16-0.06-0.31-0.19-0.46-0.32
					c-0.14-0.13-0.31-0.25-0.39-0.39c-0.18-0.27-0.41-0.57-0.51-0.82c-0.99-2.06-1.57-4.08-2.18-6.15c-0.58-2.06-1.1-4.13-1.56-6.21
					c-0.43-2.09-0.83-4.19-1.15-6.3c-0.31-2.12-0.57-4.24-0.68-6.4c-0.09-2.18-0.04-4.29,0.08-6.44c0.14-2.14,0.38-4.29,0.88-6.41
					c0.51-2.11,1.25-4.21,2.48-6.07c0.58-0.95,1.36-1.78,2.2-2.51c0.43-0.36,0.91-0.66,1.38-0.97l1.49-0.72
					c1.88-0.8,3.61-2,5.26-3.28C544.49,375.52,547.36,372.46,550.11,369.16z"/>
			</g>
			<path class="st21" d="M553.71,356.2c-0.24,1.09-0.86,2.05-1.75,2.73c-1.9,1.46-5.08,4.49-4.5,8.11
				c0.82,5.11,20.53,2.29,20.53,2.29l14.71-0.11c2.11-0.02,3.61-2.04,3.01-4.06c-1.37-4.58-3.6-11.74-4.83-14.05
				c-1.86-3.5-26.06,0-26.06,0L553.71,356.2z"/>
		</g>
		<g>
			<g>
				<g>
					<path class="st3" d="M406.84,290.44h-0.4c-22.32-0.09-36.61-7.24-44.69-13.24c-8.85-6.59-12.3-13.13-12.45-13.41l1.94-1.01
						c0.03,0.07,3.42,6.45,11.92,12.74c7.82,5.79,21.71,12.69,43.47,12.73c41.77-0.08,55.26-25.21,55.39-25.47l1.94,1.01
						c-0.14,0.28-3.59,6.81-12.45,13.41C443.45,283.21,429.16,290.36,406.84,290.44L406.84,290.44z"/>
				</g>
				<g>
					<g>
						<path class="st3" d="M449.16,260.72c2.08-0.85,4.34-1.2,6.61-1.2c2.28,0.02,4.63,0.47,6.75,1.58
							c2.12,1.09,3.92,2.97,4.82,5.16c0.92,2.19,1.08,4.55,0.68,6.75c-0.51-2.17-1.14-4.24-2.22-5.97c-1.05-1.74-2.54-3.08-4.3-4.01
							c-1.77-0.93-3.78-1.48-5.87-1.81C453.55,260.89,451.4,260.77,449.16,260.72z"/>
					</g>
					<g>
						<path class="st3" d="M364.18,260.72c-2.23,0.05-4.39,0.18-6.48,0.51c-2.08,0.33-4.09,0.88-5.87,1.81
							c-1.77,0.93-3.25,2.27-4.31,4.01c-1.08,1.73-1.7,3.8-2.21,5.97c-0.4-2.2-0.24-4.56,0.68-6.75c0.91-2.2,2.7-4.07,4.82-5.16
							c2.12-1.11,4.48-1.55,6.75-1.58C359.84,259.52,362.1,259.86,364.18,260.72z"/>
					</g>
				</g>
			</g>
			<g>
				<path class="st3" d="M393.55,321.42c2.18,1.05,4.35,1.94,6.57,2.62c2.21,0.67,4.45,1.12,6.7,1.21c2.24,0.1,4.49-0.17,6.65-0.84
					c2.18-0.65,4.26-1.73,6.33-2.99c-1.45,1.94-3.43,3.54-5.71,4.59c-2.28,1.06-4.85,1.54-7.37,1.42c-2.53-0.11-4.98-0.76-7.22-1.79
					C397.28,324.58,395.2,323.21,393.55,321.42z"/>
			</g>
			<g>
				<path class="st3" d="M423.68,312.84h-34.02c-21.05,0-28.76-35.07-29.07-36.57l2.14-0.45c0.07,0.35,7.64,34.83,26.93,34.83h34.02
					c19.3,0,26.86-34.49,26.93-34.83l2.14,0.45C452.43,277.77,444.73,312.84,423.68,312.84z"/>
			</g>
			<g>
				<path class="st24" d="M423.67,310.66h-34.01c-16.19,0-24.12-24.28-26.3-32.3c8.3,5.73,22.16,12.01,43.07,12.09h0.4l0,0
					c20.97-0.08,34.86-6.4,43.16-12.14C447.83,286.27,439.91,310.66,423.67,310.66z"/>
				<path class="st25" d="M423.67,310.94h-34.01c-16.46,0-24.49-24.87-26.56-32.5l-0.19-0.72l0.62,0.43
					c7.89,5.45,21.75,11.96,42.92,12.04h0.4c21.22-0.08,35.1-6.63,43-12.1l0.62-0.43l-0.2,0.73
					C448.18,286.02,440.16,310.94,423.67,310.94z M363.82,279.01c2.33,8.25,10.25,31.39,25.84,31.39h34.01
					c15.63,0,23.53-23.18,25.86-31.44c-8.07,5.43-21.87,11.7-42.7,11.78h-0.4C385.67,290.65,371.87,284.41,363.82,279.01z"/>
			</g>
			<g>
				<path class="st12" d="M406.83,290.46L406.83,290.46h-0.4c-20.91-0.08-34.77-6.36-43.07-12.09c0.07,0.26,0.14,0.53,0.22,0.82
					c5.64,7.81,18.42,20.27,42.58,20.6v0.01c0.17,0,0.34,0,0.5,0c0.17,0,0.33,0,0.49,0v-0.01c24.18-0.33,36.95-12.8,42.59-20.6
					c0.09-0.31,0.17-0.6,0.24-0.87C441.69,284.06,427.8,290.38,406.83,290.46z"/>
			</g>
			<g>
				<path class="st12" d="M433.43,307.41c-6.68-3.59-15.3-6.24-26.28-6.4V301c-0.17,0-0.33,0-0.5,0c-0.16,0-0.32,0-0.49,0v0.01
					c-10.97,0.16-19.58,2.8-26.26,6.39c2.85,2.02,6.1,3.27,9.77,3.27h16.81v-0.33l0.06,0.33h17.14
					C427.35,310.66,430.59,309.42,433.43,307.41z"/>
			</g>
			<g>
				<g>
					<path class="st3" d="M471.45,266.72c0.11-1.57,0.21-3.09,0.12-4.56c-0.09-1.43-0.45-2.89-1.33-3.54
						c-0.42-0.33-1.05-0.51-1.73-0.58c-0.69-0.07-1.43-0.06-2.18-0.02c-1.5,0.07-3.05,0.27-4.63,0.2c1.46-0.59,2.91-1.11,4.47-1.46
						c0.78-0.16,1.59-0.28,2.44-0.26c0.84,0.03,1.79,0.2,2.61,0.8c0.82,0.61,1.26,1.5,1.48,2.35c0.21,0.86,0.24,1.7,0.16,2.52
						C472.71,263.8,472.23,265.34,471.45,266.72z"/>
				</g>
				<g>
					<path class="st3" d="M341.89,266.72c-0.78-1.38-1.26-2.92-1.42-4.54c-0.08-0.81-0.05-1.66,0.16-2.52
						c0.22-0.84,0.66-1.74,1.49-2.35c0.82-0.6,1.76-0.78,2.61-0.8c0.85-0.02,1.66,0.09,2.44,0.26c1.56,0.35,3.01,0.87,4.46,1.46
						c-1.58,0.07-3.13-0.12-4.63-0.2c-0.75-0.04-1.49-0.05-2.17,0.02c-0.68,0.08-1.3,0.25-1.73,0.58c-0.87,0.65-1.23,2.1-1.32,3.54
						C341.68,263.62,341.78,265.15,341.89,266.72z"/>
				</g>
			</g>
		</g>
		<g>
			<g>
				<path class="st12" d="M341.56,197c4.95,14.45,17.77,23.15,28.63,19.43c10.86-3.72,15.64-18.46,10.69-32.91
					c-4.96-14.46-17.77-23.15-28.63-19.43C341.39,167.81,336.61,182.55,341.56,197z"/>
				<path class="st25" d="M340.73,197.29c-2.46-7.17-2.67-14.64-0.59-21.04c2.11-6.48,6.31-11.1,11.83-12.99
					c1.76-0.6,3.6-0.9,5.49-0.9c10.07,0,20.05,8.59,24.26,20.89c2.46,7.17,2.67,14.64,0.59,21.04c-2.11,6.49-6.31,11.1-11.83,13
					c-1.76,0.6-3.61,0.91-5.49,0.91C354.92,218.18,344.94,209.59,340.73,197.29z M352.54,164.92c-4.98,1.71-8.79,5.93-10.72,11.87
					c-1.96,6.04-1.75,13.11,0.58,19.92c3.98,11.6,13.27,19.69,22.59,19.69c1.69,0,3.34-0.27,4.92-0.81
					c4.98-1.71,8.79-5.93,10.72-11.87c1.96-6.04,1.76-13.11-0.58-19.92c-3.97-11.6-13.27-19.69-22.59-19.69
					C355.76,164.11,354.11,164.39,352.54,164.92z"/>
			</g>
			<g>
				<g>
					<path class="st26" d="M346.2,202.1c3.22,7.59,10.34,11.83,15.91,9.47c5.56-2.36,7.46-10.43,4.23-18.02
						c-3.22-7.59-10.34-11.83-15.91-9.46C344.87,186.45,342.97,194.51,346.2,202.1z"/>
				</g>
				<g>
					<path class="st25" d="M350.98,200.07c1.69,3.99,5.43,6.22,8.36,4.97c2.92-1.24,3.92-5.48,2.22-9.46
						c-1.69-3.99-5.43-6.21-8.35-4.97C350.28,191.85,349.29,196.08,350.98,200.07z"/>
				</g>
				<g>
					<path class="st12" d="M354.91,192.17c1.44,1.98,3.78,2.72,5.22,1.67c1.45-1.05,1.46-3.5,0.02-5.48
						c-1.44-1.97-3.78-2.72-5.22-1.67C353.48,187.74,353.48,190.19,354.91,192.17z"/>
				</g>
			</g>
			<g>
				<path class="st27" d="M366.3,213.27c10.48-3.57,15.09-17.71,10.31-31.57c-2.22-6.44-6.1-11.99-10.65-15.41
					c6.05,3.07,11.43,9.57,14.21,17.63c4.78,13.87,0.23,28.15-10.25,31.72c-5.62,1.92-11.84,0.26-17.08-3.69
					C357.2,214.17,361.92,214.77,366.3,213.27z"/>
			</g>
		</g>
		<g>
			<g>
				<path class="st12" d="M429.49,195.29c4.85,14.17,17.42,22.69,28.06,19.04c10.64-3.65,15.33-18.09,10.48-32.26
					c-4.86-14.17-17.42-22.7-28.07-19.05C429.33,166.68,424.63,181.12,429.49,195.29z"/>
				<path class="st25" d="M428.68,195.56c-2.41-7.02-2.62-14.35-0.58-20.62c2.06-6.35,6.19-10.88,11.59-12.74
					c1.72-0.59,3.53-0.89,5.38-0.89c9.87,0,19.65,8.41,23.78,20.47c2.41,7.03,2.62,14.35,0.58,20.62
					c-2.07,6.36-6.18,10.88-11.59,12.74c-1.72,0.59-3.54,0.89-5.38,0.89C442.59,216.04,432.8,207.62,428.68,195.56z M440.25,163.84
					c-4.89,1.67-8.62,5.81-10.51,11.64c-1.92,5.92-1.72,12.85,0.57,19.53c3.9,11.37,13,19.3,22.15,19.3c1.66,0,3.28-0.27,4.82-0.8
					c4.89-1.68,8.61-5.81,10.51-11.64c1.92-5.92,1.72-12.85-0.57-19.52c-3.89-11.37-13-19.3-22.15-19.3
					C443.41,163.05,441.79,163.32,440.25,163.84z"/>
			</g>
			<g>
				<g>
					<path class="st26" d="M434.03,200.28c3.16,7.44,10.14,11.59,15.59,9.28c5.45-2.32,7.31-10.22,4.15-17.66
						c-3.16-7.44-10.14-11.59-15.59-9.27C432.74,184.94,430.87,192.84,434.03,200.28z"/>
				</g>
				<g>
					<path class="st25" d="M438.72,198.29c1.66,3.91,5.32,6.09,8.19,4.87c2.86-1.22,3.84-5.37,2.18-9.27
						c-1.66-3.91-5.33-6.09-8.19-4.87C438.04,190.23,437.06,194.39,438.72,198.29z"/>
				</g>
				<g>
					<path class="st12" d="M442.57,190.55c1.41,1.94,3.7,2.67,5.12,1.63c1.42-1.03,1.43-3.43,0.02-5.37
						c-1.41-1.93-3.7-2.67-5.12-1.63C441.17,186.21,441.17,188.61,442.57,190.55z"/>
				</g>
			</g>
			<g>
				<path class="st27" d="M453.74,211.23c10.27-3.5,14.79-17.36,10.1-30.95c-2.17-6.31-5.98-11.75-10.43-15.1
					c5.93,3.01,11.2,9.38,13.93,17.28c4.69,13.6,0.22,27.6-10.05,31.09c-5.5,1.88-11.6,0.26-16.74-3.61
					C444.82,212.11,449.44,212.7,453.74,211.23z"/>
			</g>
		</g>
	</g>
	<g class="st28">
		<g>
			<g>
				<g>
					<g>
						<text transform="matrix(0.9835 0.1812 -0.1812 0.9835 136.1991 165.2549)" class="st22 st29 st30">SPECIAL</text>
					</g>
					<text transform="matrix(0.9835 0.1812 -0.1812 0.9835 134.4992 174.483)" class="st22 st29 st31">OFFER</text>
					<g>
						<text transform="matrix(0.9835 0.1812 -0.1812 0.9835 128.6587 179.9152)"><tspan x="0" y="0" class="st22 st32 st33">UP TO</tspan><tspan x="16.08" y="0" class="st22 st29 st34">70</tspan><tspan x="24.79" y="0" class="st22 st32 st33">% OFF</tspan></text>
					</g>
				</g>
				<g>
					<polygon class="st22" points="153.25,157.25 153.42,158.55 154.72,158.79 153.53,159.36 153.7,160.66 152.8,159.71 
						151.61,160.28 152.24,159.12 151.33,158.17 152.62,158.41 					"/>
					<g>
						<polygon class="st22" points="158.82,158.28 158.99,159.58 160.28,159.82 159.1,160.39 159.27,161.69 158.36,160.74 
							157.18,161.3 157.8,160.15 156.9,159.2 158.19,159.43 						"/>
						<polygon class="st22" points="164.08,159.25 164.25,160.55 165.54,160.79 164.36,161.36 164.53,162.66 163.62,161.71 
							162.44,162.27 163.06,161.12 162.16,160.16 163.45,160.4 						"/>
					</g>
					<g>
						<polygon class="st22" points="147.68,156.23 147.06,157.38 145.76,157.14 146.67,158.1 146.04,159.25 147.23,158.69 
							148.13,159.64 147.96,158.34 149.15,157.77 147.85,157.53 						"/>
						<polygon class="st22" points="142.42,155.26 141.8,156.41 140.5,156.18 141.41,157.13 140.78,158.28 141.97,157.72 
							142.88,158.67 142.7,157.37 143.89,156.8 142.6,156.56 						"/>
					</g>
				</g>
				<g>
					<path class="st22" d="M167.88,189.59c0.03-0.14,0.16-0.23,0.3-0.21l0,0c0.14,0.03,0.23,0.16,0.21,0.3l0,0
						c-0.03,0.14-0.16,0.23-0.3,0.21l0,0C167.94,189.86,167.85,189.73,167.88,189.59z M166.86,189.4c0.03-0.14,0.16-0.23,0.3-0.21
						l0,0c0.14,0.03,0.23,0.16,0.21,0.3l0,0c-0.03,0.14-0.16,0.23-0.3,0.21l0,0C166.93,189.68,166.84,189.54,166.86,189.4z
						 M165.85,189.21c0.03-0.14,0.16-0.23,0.3-0.21l0,0c0.14,0.03,0.23,0.16,0.21,0.3l0,0c-0.03,0.14-0.16,0.23-0.3,0.21l0,0
						C165.92,189.49,165.83,189.35,165.85,189.21z M164.84,189.03c0.03-0.14,0.16-0.23,0.3-0.21l0,0c0.14,0.03,0.23,0.16,0.21,0.3
						l0,0c-0.03,0.14-0.16,0.23-0.3,0.21l0,0C164.91,189.3,164.81,189.17,164.84,189.03z M163.83,188.84
						c0.03-0.14,0.16-0.23,0.3-0.21l0,0c0.14,0.03,0.23,0.16,0.21,0.3l0,0c-0.03,0.14-0.16,0.23-0.3,0.21l0,0
						C163.89,189.12,163.8,188.98,163.83,188.84z M162.81,188.66c0.03-0.14,0.16-0.23,0.3-0.21l0,0c0.14,0.03,0.23,0.16,0.21,0.3
						l0,0c-0.03,0.14-0.16,0.23-0.3,0.21l0,0C162.88,188.93,162.79,188.79,162.81,188.66z M161.8,188.47
						c0.03-0.14,0.16-0.23,0.3-0.21l0,0c0.14,0.03,0.23,0.16,0.21,0.3l0,0c-0.03,0.14-0.16,0.23-0.3,0.21l0,0
						C161.87,188.74,161.78,188.61,161.8,188.47z M160.79,188.28c0.03-0.14,0.16-0.23,0.3-0.21l0,0c0.14,0.03,0.23,0.16,0.21,0.3
						l0,0c-0.03,0.14-0.16,0.23-0.3,0.21l0,0C160.86,188.56,160.76,188.42,160.79,188.28z M159.78,188.1
						c0.03-0.14,0.16-0.23,0.3-0.21l0,0c0.14,0.03,0.23,0.16,0.21,0.3l0,0c-0.03,0.14-0.16,0.23-0.3,0.21l0,0
						C159.84,188.37,159.75,188.24,159.78,188.1z M158.77,187.91c0.03-0.14,0.16-0.23,0.3-0.21l0,0c0.14,0.03,0.23,0.16,0.21,0.3
						l0,0c-0.03,0.14-0.16,0.23-0.3,0.21l0,0C158.83,188.18,158.74,188.05,158.77,187.91z M157.75,187.72
						c0.03-0.14,0.16-0.23,0.3-0.21l0,0c0.14,0.03,0.23,0.16,0.21,0.3l0,0c-0.03,0.14-0.16,0.23-0.3,0.21l0,0
						C157.82,188,157.73,187.86,157.75,187.72z M156.74,187.54c0.03-0.14,0.16-0.23,0.3-0.21l0,0c0.14,0.03,0.23,0.16,0.21,0.3l0,0
						c-0.03,0.14-0.16,0.23-0.3,0.21l0,0C156.81,187.81,156.71,187.68,156.74,187.54z M155.73,187.35c0.03-0.14,0.16-0.23,0.3-0.21
						l0,0c0.14,0.03,0.23,0.16,0.21,0.3l0,0c-0.03,0.14-0.16,0.23-0.3,0.21l0,0C155.8,187.62,155.7,187.49,155.73,187.35z
						 M154.72,187.16c0.03-0.14,0.16-0.23,0.3-0.21l0,0c0.14,0.03,0.23,0.16,0.21,0.3l0,0c-0.03,0.14-0.16,0.23-0.3,0.21l0,0
						C154.78,187.44,154.69,187.3,154.72,187.16z M153.7,186.98c0.03-0.14,0.16-0.23,0.3-0.21l0,0c0.14,0.03,0.23,0.16,0.21,0.3l0,0
						c-0.03,0.14-0.16,0.23-0.3,0.21l0,0C153.77,187.25,153.68,187.12,153.7,186.98z M152.69,186.79c0.03-0.14,0.16-0.23,0.3-0.21
						l0,0c0.14,0.03,0.23,0.16,0.21,0.3l0,0c-0.03,0.14-0.16,0.23-0.3,0.21l0,0C152.76,187.06,152.67,186.93,152.69,186.79z
						 M151.68,186.6c0.03-0.14,0.16-0.23,0.3-0.21l0,0c0.14,0.03,0.23,0.16,0.21,0.3l0,0c-0.03,0.14-0.16,0.23-0.3,0.21l0,0
						C151.75,186.88,151.65,186.74,151.68,186.6z M150.67,186.42c0.03-0.14,0.16-0.23,0.3-0.21l0,0c0.14,0.03,0.23,0.16,0.21,0.3
						l0,0c-0.03,0.14-0.16,0.23-0.3,0.21l0,0C150.73,186.69,150.64,186.56,150.67,186.42z M149.65,186.23
						c0.03-0.14,0.16-0.23,0.3-0.21l0,0c0.14,0.03,0.23,0.16,0.21,0.3l0,0c-0.03,0.14-0.16,0.23-0.3,0.21l0,0
						C149.72,186.51,149.63,186.37,149.65,186.23z M148.64,186.04c0.03-0.14,0.16-0.23,0.3-0.21l0,0c0.14,0.03,0.23,0.16,0.21,0.3
						l0,0c-0.03,0.14-0.16,0.23-0.3,0.21l0,0C148.71,186.32,148.62,186.18,148.64,186.04z M147.63,185.86
						c0.03-0.14,0.16-0.23,0.3-0.21l0,0c0.14,0.03,0.23,0.16,0.21,0.3l0,0c-0.03,0.14-0.16,0.23-0.3,0.21l0,0
						C147.7,186.13,147.6,186,147.63,185.86z M146.62,185.67c0.03-0.14,0.16-0.23,0.3-0.21l0,0c0.14,0.03,0.23,0.16,0.21,0.3l0,0
						c-0.03,0.14-0.16,0.23-0.3,0.21l0,0C146.69,185.95,146.59,185.81,146.62,185.67z M145.61,185.49c0.03-0.14,0.16-0.23,0.3-0.21
						l0,0c0.14,0.03,0.23,0.16,0.21,0.3l0,0c-0.03,0.14-0.16,0.23-0.3,0.21l0,0C145.67,185.76,145.58,185.62,145.61,185.49z
						 M144.59,185.3c0.03-0.14,0.16-0.23,0.3-0.21l0,0c0.14,0.03,0.23,0.16,0.21,0.3l0,0c-0.03,0.14-0.16,0.23-0.3,0.21l0,0
						C144.66,185.57,144.57,185.44,144.59,185.3z M143.58,185.11c0.03-0.14,0.16-0.23,0.3-0.21l0,0c0.14,0.03,0.23,0.16,0.21,0.3
						l0,0c-0.03,0.14-0.16,0.23-0.3,0.21l0,0C143.65,185.39,143.56,185.25,143.58,185.11z M142.57,184.93
						c0.03-0.14,0.16-0.23,0.3-0.21l0,0c0.14,0.03,0.23,0.16,0.21,0.3l0,0c-0.03,0.14-0.16,0.23-0.3,0.21l0,0
						C142.64,185.2,142.54,185.07,142.57,184.93z M141.56,184.74c0.03-0.14,0.16-0.23,0.3-0.21l0,0c0.14,0.03,0.23,0.16,0.21,0.3
						l0,0c-0.03,0.14-0.16,0.23-0.3,0.21l0,0C141.62,185.01,141.53,184.88,141.56,184.74z M140.54,184.55
						c0.03-0.14,0.16-0.23,0.3-0.21l0,0c0.14,0.03,0.23,0.16,0.21,0.3l0,0c-0.03,0.14-0.16,0.23-0.3,0.21l0,0
						C140.61,184.83,140.52,184.69,140.54,184.55z M139.53,184.37c0.03-0.14,0.16-0.23,0.3-0.21l0,0c0.14,0.03,0.23,0.16,0.21,0.3
						l0,0c-0.03,0.14-0.16,0.23-0.3,0.21l0,0C139.6,184.64,139.51,184.51,139.53,184.37z M138.52,184.18
						c0.03-0.14,0.16-0.23,0.3-0.21l0,0c0.14,0.03,0.23,0.16,0.21,0.3l0,0c-0.03,0.14-0.16,0.23-0.3,0.21l0,0
						C138.59,184.45,138.49,184.32,138.52,184.18z M137.51,183.99c0.03-0.14,0.16-0.23,0.3-0.21l0,0c0.14,0.03,0.23,0.16,0.21,0.3
						l0,0c-0.03,0.14-0.16,0.23-0.3,0.21l0,0C137.57,184.27,137.48,184.13,137.51,183.99z M136.5,183.81
						c0.03-0.14,0.16-0.23,0.3-0.21l0,0c0.14,0.03,0.23,0.16,0.21,0.3l0,0c-0.03,0.14-0.16,0.23-0.3,0.21l0,0
						C136.56,184.08,136.47,183.95,136.5,183.81z M135.48,183.62c0.03-0.14,0.16-0.23,0.3-0.21l0,0c0.14,0.03,0.23,0.16,0.21,0.3
						l0,0c-0.03,0.14-0.16,0.23-0.3,0.21l0,0C135.55,183.89,135.46,183.76,135.48,183.62z M134.47,183.43
						c0.03-0.14,0.16-0.23,0.3-0.21l0,0c0.14,0.03,0.23,0.16,0.21,0.3l0,0c-0.03,0.14-0.16,0.23-0.3,0.21l0,0
						C134.54,183.71,134.45,183.57,134.47,183.43z M133.46,183.25c0.03-0.14,0.16-0.23,0.3-0.21l0,0c0.14,0.03,0.23,0.16,0.21,0.3
						l0,0c-0.03,0.14-0.16,0.23-0.3,0.21l0,0C133.53,183.52,133.43,183.39,133.46,183.25z M132.45,183.06
						c0.03-0.14,0.16-0.23,0.3-0.21l0,0c0.14,0.03,0.23,0.16,0.21,0.3l0,0c-0.03,0.14-0.16,0.23-0.3,0.21l0,0
						C132.51,183.34,132.42,183.2,132.45,183.06z M131.43,182.88c0.03-0.14,0.16-0.23,0.3-0.21l0,0c0.14,0.03,0.23,0.16,0.21,0.3
						l0,0c-0.03,0.14-0.16,0.23-0.3,0.21l0,0C131.5,183.15,131.41,183.01,131.43,182.88z M130.42,182.69
						c0.03-0.14,0.16-0.23,0.3-0.21l0,0c0.14,0.03,0.23,0.16,0.21,0.3l0,0c-0.03,0.14-0.16,0.23-0.3,0.21l0,0
						C130.49,182.96,130.4,182.83,130.42,182.69z M129.41,182.5c0.03-0.14,0.16-0.23,0.3-0.21l0,0c0.14,0.03,0.23,0.16,0.21,0.3l0,0
						c-0.03,0.14-0.16,0.23-0.3,0.21l0,0C129.48,182.78,129.38,182.64,129.41,182.5z M128.4,182.32c0.03-0.14,0.16-0.23,0.3-0.21
						l0,0c0.14,0.03,0.23,0.16,0.21,0.3l0,0c-0.03,0.14-0.16,0.23-0.3,0.21l0,0C128.46,182.59,128.37,182.45,128.4,182.32z"/>
				</g>
			</g>
		</g>
	</g>
	<g>
		<g>
			<path class="st35" d="M571.67,442.33l0.03-0.67c-1.1-0.4-1.86-1.49-1.8-2.72c0.03-0.67,0.3-1.27,0.72-1.72
				c-7.03-0.99-12.28-7.2-11.94-14.43l-0.49-0.02c-0.08,1.22-1.12,2.16-2.34,2.1s-2.17-1.09-2.13-2.31l-0.34-0.02
				c-0.08,1.22-1.12,2.16-2.34,2.1c-1.23-0.06-2.17-1.09-2.13-2.31l-0.34-0.02c-0.08,1.22-1.12,2.16-2.34,2.1
				c-1.23-0.06-2.17-1.09-2.13-2.31l-0.34-0.02c-0.08,1.22-1.12,2.16-2.34,2.1c-1.23-0.06-2.17-1.09-2.13-2.31l-0.34-0.02
				c-0.08,1.22-1.12,2.16-2.34,2.1s-2.17-1.09-2.13-2.31l-0.34-0.02c-0.08,1.22-1.12,2.16-2.34,2.1c-1.23-0.06-2.17-1.09-2.13-2.31
				l-0.34-0.02c-0.08,1.22-1.12,2.16-2.34,2.1c-1.23-0.06-2.17-1.09-2.13-2.31l-0.34-0.02c-0.08,1.22-1.12,2.16-2.34,2.1
				c-1.23-0.06-2.17-1.09-2.13-2.31l-0.34-0.02c-0.08,1.22-1.12,2.16-2.34,2.1c-1.23-0.06-2.17-1.09-2.13-2.31l-0.34-0.02
				c-0.08,1.22-1.12,2.16-2.34,2.1c-1.23-0.06-2.17-1.09-2.13-2.31l-0.34-0.02c-0.08,1.22-1.12,2.16-2.34,2.1
				c-1.23-0.06-2.17-1.09-2.13-2.31l-0.34-0.02c-0.08,1.22-1.12,2.16-2.34,2.1c-1.23-0.06-2.17-1.09-2.13-2.31l-0.34-0.02
				c-0.08,1.22-1.12,2.16-2.34,2.1c-1.23-0.06-2.17-1.09-2.13-2.31l-0.34-0.02c-0.08,1.22-1.12,2.16-2.34,2.1
				c-1.23-0.06-2.17-1.09-2.13-2.31l-0.34-0.02c-0.08,1.22-1.12,2.16-2.34,2.1c-1.23-0.06-2.17-1.09-2.13-2.31l-0.34-0.02
				c-0.08,1.22-1.12,2.16-2.34,2.1c-1.23-0.06-2.17-1.09-2.13-2.31l-0.34-0.02c-0.08,1.22-1.12,2.16-2.34,2.1
				c-1.23-0.06-2.17-1.09-2.13-2.31l-0.34-0.02c-0.08,1.22-1.12,2.16-2.34,2.1c-1.23-0.06-2.17-1.09-2.13-2.31l-0.34-0.02
				c-0.08,1.22-1.12,2.16-2.34,2.1c-1.23-0.06-2.17-1.09-2.13-2.31l-0.34-0.02c-0.08,1.22-1.12,2.16-2.34,2.1
				c-1.23-0.06-2.17-1.09-2.13-2.31l-0.49-0.02c-0.35,7.24-6.16,12.91-13.26,13.23c0.37,0.5,0.58,1.12,0.55,1.78
				c-0.06,1.23-0.92,2.24-2.05,2.54l-0.03,0.67c1.1,0.4,1.86,1.49,1.8,2.72s-0.92,2.24-2.05,2.54l-0.04,0.73
				c1.1,0.4,1.86,1.49,1.8,2.72s-0.92,2.24-2.05,2.54l-0.03,0.67c1.1,0.4,1.86,1.49,1.8,2.72c-0.06,1.23-0.92,2.24-2.05,2.54
				l-0.04,0.78c1.1,0.4,1.86,1.49,1.8,2.72s-0.92,2.24-2.05,2.54l-0.03,0.67c1.1,0.4,1.86,1.49,1.8,2.72
				c-0.03,0.66-0.3,1.26-0.71,1.71c7.03,0.99,12.28,7.2,11.93,14.43l0.49,0.02c0.06-1.24,1.11-2.19,2.35-2.13
				c1.24,0.06,2.19,1.11,2.13,2.35l0.34,0.02c0.06-1.24,1.11-2.19,2.35-2.13c1.24,0.06,2.19,1.11,2.13,2.35l0.34,0.02
				c0.06-1.24,1.11-2.19,2.35-2.13c1.24,0.06,2.19,1.11,2.13,2.35l0.34,0.02c0.06-1.24,1.11-2.19,2.35-2.13
				c1.24,0.06,2.19,1.11,2.13,2.35l0.34,0.02c0.06-1.24,1.11-2.19,2.35-2.13c1.24,0.06,2.19,1.11,2.13,2.35l0.34,0.02
				c0.06-1.24,1.11-2.19,2.35-2.13c1.24,0.06,2.19,1.11,2.13,2.35l0.34,0.02c0.06-1.24,1.11-2.19,2.35-2.13
				c1.24,0.06,2.19,1.11,2.13,2.35l0.34,0.02c0.06-1.24,1.11-2.19,2.35-2.13c1.24,0.06,2.19,1.11,2.13,2.35l0.34,0.02
				c0.06-1.24,1.11-2.19,2.35-2.13c1.24,0.06,2.19,1.11,2.13,2.35l0.34,0.02c0.06-1.24,1.11-2.19,2.35-2.13
				c1.24,0.06,2.19,1.11,2.13,2.35l0.34,0.02c0.06-1.24,1.11-2.19,2.35-2.13c1.24,0.06,2.19,1.11,2.13,2.35l0.34,0.02
				c0.06-1.24,1.11-2.19,2.35-2.13c1.24,0.06,2.19,1.11,2.13,2.35l0.34,0.02c0.06-1.24,1.11-2.19,2.35-2.13
				c1.24,0.06,2.19,1.11,2.13,2.35l0.34,0.02c0.06-1.24,1.11-2.19,2.35-2.13c1.24,0.06,2.19,1.11,2.13,2.35l0.34,0.02
				c0.06-1.24,1.11-2.19,2.35-2.13c1.24,0.06,2.19,1.11,2.13,2.35l0.34,0.02c0.06-1.24,1.11-2.19,2.35-2.13
				c1.24,0.06,2.19,1.11,2.13,2.35l0.34,0.02c0.06-1.24,1.11-2.19,2.35-2.13c1.24,0.06,2.19,1.11,2.13,2.35l0.34,0.02
				c0.06-1.24,1.11-2.19,2.35-2.13c1.24,0.06,2.19,1.11,2.13,2.35l0.34,0.02c0.06-1.24,1.11-2.19,2.35-2.13
				c1.24,0.06,2.19,1.11,2.13,2.35l0.34,0.02c0.06-1.24,1.11-2.19,2.35-2.13c1.24,0.06,2.19,1.11,2.13,2.35l0.49,0.02
				c0.35-7.23,6.16-12.91,13.25-13.23c-0.37-0.49-0.57-1.11-0.54-1.77c0.06-1.23,0.92-2.24,2.05-2.54l0.03-0.67
				c-1.1-0.4-1.86-1.49-1.8-2.72c0.06-1.23,0.92-2.24,2.05-2.54l0.04-0.78c-1.1-0.4-1.86-1.49-1.8-2.72
				c0.06-1.23,0.92-2.24,2.05-2.54l0.03-0.67c-1.1-0.4-1.86-1.49-1.8-2.72s0.92-2.24,2.05-2.54l0.04-0.73
				c-1.1-0.4-1.86-1.49-1.8-2.72S570.54,442.63,571.67,442.33z"/>
			<path class="st12" d="M546.61,430.82l-73.67-3.52c-2.07-0.1-3.83,1.5-3.93,3.57l-1.73,36.27c-0.1,2.07,1.5,3.83,3.57,3.93
				l73.67,3.52c2.07,0.1,3.83-1.5,3.93-3.57l1.73-36.27C550.28,432.68,548.68,430.92,546.61,430.82z"/>
			
				<rect x="475.5" y="427.71" transform="matrix(0.9989 0.0477 -0.0477 0.9989 21.9846 -22.4141)" class="st36" width="10.65" height="43.83"/>
			<g>
				
					<rect x="480" y="429.82" transform="matrix(-0.0477 0.9989 -0.9989 -0.0477 936.8094 -27.7438)" class="st12" width="3.25" height="5.77"/>
				
					<rect x="479.57" y="438.91" transform="matrix(-0.0477 0.9989 -0.9989 -0.0477 945.4371 -17.784)" class="st12" width="3.25" height="5.77"/>
				
					<rect x="478.73" y="444.98" transform="matrix(-0.0477 0.9989 -0.9989 -0.0477 951.1953 -11.1367)" class="st12" width="4.35" height="5.77"/>
				
					<rect x="478.89" y="452.82" transform="matrix(-0.0477 0.9989 -0.9989 -0.0477 958.6289 -2.5553)" class="st12" width="3.29" height="5.77"/>
				
					<rect x="478.46" y="461.75" transform="matrix(-0.0477 0.9989 -0.9989 -0.0477 967.1025 7.2267)" class="st12" width="3.29" height="5.77"/>
				
					<rect x="480.82" y="432.68" transform="matrix(-0.0477 0.9989 -0.9989 -0.0477 939.5248 -24.6091)" class="st12" width="1.34" height="5.77"/>
				
					<rect x="480.74" y="434.47" transform="matrix(-0.0477 0.9989 -0.9989 -0.0477 941.2195 -22.6527)" class="st12" width="1.34" height="5.77"/>
				
					<rect x="480.66" y="436.17" transform="matrix(-0.0477 0.9989 -0.9989 -0.0477 942.8372 -20.7853)" class="st12" width="1.34" height="5.77"/>
				
					<rect x="479.73" y="455.5" transform="matrix(-0.0477 0.9989 -0.9989 -0.0477 961.171 0.3793)" class="st12" width="1.34" height="5.77"/>
				
					<rect x="479.65" y="457.28" transform="matrix(-0.0477 0.9989 -0.9989 -0.0477 962.8657 2.3357)" class="st12" width="1.34" height="5.77"/>
				
					<rect x="479.57" y="458.99" transform="matrix(-0.0477 0.9989 -0.9989 -0.0477 964.4834 4.2032)" class="st12" width="1.34" height="5.77"/>
				
					<rect x="480.08" y="448.27" transform="matrix(-0.0477 0.9989 -0.9989 -0.0477 954.3151 -7.5352)" class="st12" width="1.34" height="5.77"/>
				
					<rect x="479.99" y="450.06" transform="matrix(-0.0477 0.9989 -0.9989 -0.0477 956.0098 -5.5788)" class="st12" width="1.34" height="5.77"/>
				
					<rect x="480.39" y="441.69" transform="matrix(-0.0477 0.9989 -0.9989 -0.0477 948.0754 -14.7382)" class="st12" width="1.34" height="5.77"/>
				
					<rect x="479.3" y="464.51" transform="matrix(-0.0477 0.9989 -0.9989 -0.0477 969.7216 10.2502)" class="st12" width="1.34" height="5.77"/>
			</g>
			<g>
				<g>
					<g>
						<text transform="matrix(0.9989 0.0477 -0.0477 0.9989 495.1122 448.7301)" class="st5 st37 st38">UP TO</text>
					</g>
					<g>
						<g>
							<g>
								<text transform="matrix(0.9989 0.0477 -0.0477 0.9989 492.2153 469.8952)" class="st5 st39 st40">60</text>
							</g>
							<g>
								<text transform="matrix(0.9989 0.0477 -0.0477 0.9989 517.778 468.2011)" class="st5 st37 st41">OFF</text>
							</g>
							<g>
								<text transform="matrix(0.9989 0.0477 -0.0477 0.9989 518.0452 462.603)" class="st5 st37 st42">%</text>
							</g>
						</g>
					</g>
				</g>
				<text transform="matrix(0.0477 -0.9989 0.9989 0.0477 538.0333 470.2122)" class="st5 st37 st43">SUPER SALE</text>
				<g>
					<g>
						<g>
							<polygon class="st35" points="514.39,433.12 514.92,435.07 516.94,435.17 515.25,436.28 515.78,438.23 514.2,436.96 
								512.51,438.07 513.23,436.18 511.65,434.91 513.67,435.01 							"/>
						</g>
						<g>
							<g>
								<polygon class="st35" points="521.82,433.47 522.35,435.42 524.37,435.52 522.68,436.63 523.22,438.58 521.64,437.32 
									519.95,438.43 520.66,436.53 519.09,435.27 521.11,435.37 								"/>
							</g>
							<g>
								<polygon class="st35" points="529.15,433.82 529.68,435.77 531.7,435.87 530.01,436.98 530.54,438.93 528.96,437.67 
									527.27,438.78 527.99,436.88 526.41,435.62 528.43,435.71 								"/>
							</g>
						</g>
						<g>
							<g>
								<polygon class="st35" points="506.9,432.76 506.18,434.65 504.16,434.56 505.74,435.82 505.02,437.71 506.71,436.6 
									508.29,437.87 507.76,435.92 509.45,434.81 507.43,434.71 								"/>
							</g>
							<g>
								<polygon class="st35" points="499.57,432.41 498.86,434.3 496.84,434.21 498.42,435.47 497.7,437.36 499.39,436.25 
									500.97,437.52 500.44,435.57 502.13,434.46 500.11,434.36 								"/>
							</g>
						</g>
					</g>
				</g>
			</g>
		</g>
	</g>
	<g>
		<path class="st44" d="M577.84,415.8l0.25-0.96l-50.83-13.14c-1.03,3.97-4.85,6.46-8.81,5.92c0.39,0.43,0.57,1.03,0.41,1.64
			c-0.24,0.94-1.2,1.51-2.14,1.26c-0.94-0.24-1.51-1.2-1.26-2.14c0.16-0.6,0.61-1.05,1.16-1.23c-3.73-1.45-5.86-5.49-4.84-9.45
			l-50.83-13.14l-0.25,0.96c0.91,0.61,1.38,1.75,1.09,2.87c-0.29,1.12-1.25,1.89-2.35,1.98l-0.18,0.69
			c0.91,0.61,1.38,1.75,1.09,2.87s-1.25,1.89-2.35,1.98l-0.2,0.77c0.96,0.6,1.47,1.77,1.17,2.93c-0.3,1.15-1.31,1.93-2.44,1.99
			l-0.16,0.63c0.96,0.6,1.47,1.77,1.17,2.93c-0.3,1.15-1.31,1.93-2.44,1.99l-0.18,0.69c0.96,0.6,1.47,1.77,1.17,2.93
			c-0.3,1.15-1.31,1.93-2.44,1.99l-0.16,0.63c0.96,0.6,1.47,1.77,1.17,2.93s-1.31,1.93-2.44,1.99l-0.19,0.73
			c0.96,0.6,1.47,1.77,1.17,2.93c-0.3,1.15-1.31,1.93-2.44,1.99l-0.16,0.63c0.96,0.6,1.47,1.77,1.17,2.93
			c-0.3,1.15-1.31,1.93-2.44,1.99l-0.19,0.73c0.96,0.6,1.47,1.77,1.17,2.93s-1.31,1.93-2.44,1.99l-0.16,0.63
			c0.96,0.6,1.47,1.77,1.17,2.93s-1.31,1.93-2.44,1.99l-0.24,0.93l50.83,13.14c1.01-3.89,4.71-6.37,8.59-5.95
			c-0.27-0.4-0.37-0.91-0.24-1.42c0.24-0.94,1.21-1.51,2.14-1.26c0.94,0.24,1.51,1.2,1.26,2.14c-0.13,0.5-0.47,0.9-0.9,1.12
			c3.6,1.51,5.64,5.48,4.63,9.37l50.83,13.14l0.24-0.93c-0.96-0.6-1.47-1.77-1.17-2.93c0.3-1.15,1.31-1.93,2.44-1.99l0.16-0.63
			c-0.96-0.6-1.47-1.77-1.17-2.93c0.3-1.15,1.31-1.93,2.44-1.99l0.19-0.73c-0.96-0.6-1.47-1.77-1.17-2.93
			c0.3-1.15,1.31-1.93,2.44-1.99l0.16-0.63c-0.96-0.6-1.47-1.77-1.17-2.93c0.3-1.15,1.31-1.93,2.44-1.99l0.19-0.73
			c-0.96-0.6-1.47-1.77-1.17-2.93c0.3-1.15,1.31-1.93,2.44-1.99l0.16-0.63c-0.96-0.6-1.47-1.77-1.17-2.93
			c0.3-1.15,1.31-1.93,2.44-1.99l0.18-0.69c-0.96-0.6-1.47-1.77-1.17-2.93c0.3-1.15,1.31-1.93,2.44-1.99l0.16-0.63
			c-0.96-0.6-1.47-1.77-1.17-2.93c0.3-1.15,1.31-1.93,2.44-1.99l0.2-0.77c-0.91-0.61-1.38-1.75-1.09-2.87
			c0.29-1.12,1.25-1.89,2.35-1.98l0.18-0.69c-0.91-0.61-1.38-1.75-1.09-2.87C575.79,416.66,576.75,415.9,577.84,415.8z
			 M508.07,443.97c-0.94-0.24-1.51-1.2-1.26-2.14c0.24-0.94,1.21-1.51,2.14-1.26c0.94,0.24,1.51,1.21,1.26,2.14
			C509.97,443.65,509.01,444.21,508.07,443.97z M509.51,438.4c-0.94-0.24-1.51-1.2-1.26-2.14c0.24-0.94,1.21-1.51,2.14-1.26
			c0.94,0.24,1.51,1.21,1.26,2.14C511.41,438.07,510.45,438.64,509.51,438.4z M510.95,432.82c-0.94-0.24-1.51-1.21-1.26-2.14
			c0.24-0.94,1.21-1.51,2.14-1.26c0.94,0.24,1.51,1.2,1.26,2.14C512.85,432.5,511.89,433.07,510.95,432.82z M512.39,427.25
			c-0.94-0.24-1.51-1.2-1.26-2.14c0.24-0.94,1.21-1.51,2.14-1.26c0.94,0.24,1.51,1.21,1.26,2.14
			C514.29,426.92,513.34,427.49,512.39,427.25z M513.84,421.67c-0.94-0.24-1.51-1.2-1.26-2.14c0.24-0.94,1.21-1.51,2.14-1.26
			c0.94,0.24,1.51,1.21,1.26,2.14C515.74,421.35,514.78,421.91,513.84,421.67z M515.28,416.1c-0.94-0.24-1.51-1.21-1.26-2.14
			c0.24-0.94,1.21-1.51,2.14-1.26c0.94,0.24,1.51,1.2,1.26,2.14C517.18,415.78,516.22,416.34,515.28,416.1z"/>
		<g>
			<path class="st45" d="M578.73,412.39l0.25-0.96l-50.83-13.14c-1.03,3.97-4.85,6.46-8.81,5.92c0.39,0.43,0.57,1.03,0.41,1.64
				c-0.24,0.94-1.2,1.51-2.14,1.26c-0.94-0.24-1.51-1.2-1.26-2.14c0.16-0.6,0.61-1.05,1.16-1.23c-3.73-1.45-5.86-5.49-4.84-9.45
				l-50.83-13.14l-0.25,0.96c0.91,0.61,1.38,1.75,1.09,2.87c-0.29,1.12-1.25,1.89-2.35,1.98l-0.18,0.69
				c0.91,0.61,1.38,1.75,1.09,2.87c-0.29,1.12-1.25,1.89-2.35,1.98l-0.2,0.77c0.96,0.6,1.47,1.77,1.17,2.93s-1.31,1.93-2.44,1.99
				l-0.16,0.63c0.96,0.6,1.47,1.77,1.17,2.93s-1.31,1.93-2.44,1.99l-0.18,0.69c0.96,0.6,1.47,1.77,1.17,2.93
				c-0.3,1.15-1.31,1.93-2.44,1.99l-0.16,0.63c0.96,0.6,1.47,1.77,1.17,2.93c-0.3,1.15-1.31,1.93-2.44,1.99l-0.19,0.73
				c0.96,0.6,1.47,1.77,1.17,2.93c-0.3,1.15-1.31,1.93-2.44,1.99l-0.16,0.63c0.96,0.6,1.47,1.77,1.17,2.93
				c-0.3,1.15-1.31,1.93-2.44,1.99l-0.19,0.73c0.96,0.6,1.47,1.77,1.17,2.93s-1.31,1.93-2.44,1.99l-0.16,0.63
				c0.96,0.6,1.47,1.77,1.17,2.93c-0.3,1.15-1.31,1.93-2.44,1.99l-0.24,0.93l50.83,13.14c1.01-3.89,4.71-6.37,8.59-5.95
				c-0.27-0.4-0.37-0.91-0.24-1.42c0.24-0.94,1.21-1.51,2.14-1.26c0.94,0.24,1.51,1.2,1.26,2.14c-0.13,0.5-0.47,0.9-0.9,1.12
				c3.6,1.51,5.64,5.48,4.63,9.37l50.83,13.14l0.24-0.93c-0.96-0.6-1.47-1.77-1.17-2.93c0.3-1.15,1.31-1.93,2.44-1.99l0.16-0.63
				c-0.96-0.6-1.47-1.77-1.17-2.93c0.3-1.15,1.31-1.93,2.44-1.99l0.19-0.73c-0.96-0.6-1.47-1.77-1.17-2.93
				c0.3-1.15,1.31-1.93,2.44-1.99l0.16-0.63c-0.96-0.6-1.47-1.77-1.17-2.93c0.3-1.15,1.31-1.93,2.44-1.99l0.19-0.73
				c-0.96-0.6-1.47-1.77-1.17-2.93c0.3-1.15,1.31-1.93,2.44-1.99l0.16-0.63c-0.96-0.6-1.47-1.77-1.17-2.93
				c0.3-1.15,1.31-1.93,2.44-1.99l0.18-0.69c-0.96-0.6-1.47-1.77-1.17-2.93c0.3-1.15,1.31-1.93,2.44-1.99l0.16-0.63
				c-0.96-0.6-1.47-1.77-1.17-2.93c0.3-1.15,1.31-1.93,2.44-1.99l0.2-0.77c-0.91-0.61-1.38-1.75-1.09-2.87s1.25-1.89,2.35-1.98
				l0.18-0.69c-0.91-0.61-1.38-1.75-1.09-2.87C576.67,413.26,577.63,412.49,578.73,412.39z M508.95,440.56
				c-0.94-0.24-1.51-1.2-1.26-2.14c0.24-0.94,1.21-1.51,2.14-1.26c0.94,0.24,1.51,1.21,1.26,2.14
				C510.85,440.24,509.89,440.8,508.95,440.56z M510.39,434.99c-0.94-0.24-1.51-1.2-1.26-2.14c0.24-0.94,1.21-1.51,2.14-1.26
				c0.94,0.24,1.51,1.21,1.26,2.14C512.29,434.66,511.33,435.23,510.39,434.99z M511.83,429.41c-0.94-0.24-1.51-1.21-1.26-2.14
				c0.24-0.94,1.21-1.51,2.14-1.26c0.94,0.24,1.51,1.2,1.26,2.14C513.73,429.09,512.77,429.66,511.83,429.41z M513.28,423.84
				c-0.94-0.24-1.51-1.2-1.26-2.14c0.24-0.94,1.21-1.51,2.14-1.26c0.94,0.24,1.51,1.21,1.26,2.14
				C515.18,423.52,514.22,424.08,513.28,423.84z M514.72,418.26c-0.94-0.24-1.51-1.2-1.26-2.14c0.24-0.94,1.21-1.51,2.14-1.26
				c0.94,0.24,1.51,1.21,1.26,2.14C516.62,417.94,515.66,418.51,514.72,418.26z M516.16,412.69c-0.94-0.24-1.51-1.21-1.26-2.14
				c0.24-0.94,1.21-1.51,2.14-1.26c0.94,0.24,1.51,1.2,1.26,2.14C518.06,412.37,517.1,412.93,516.16,412.69z"/>
			
				<rect x="463.32" y="396.73" transform="matrix(0.9682 0.2503 -0.2503 0.9682 119.7071 -107.4552)" class="st2" width="37.96" height="40.31"/>
			
				<rect x="524.33" y="412.5" transform="matrix(0.9682 0.2503 -0.2503 0.9682 125.598 -122.2251)" class="st12" width="37.96" height="40.31"/>
			<g>
				<g>
					<g>
						<text transform="matrix(0.9682 0.2503 -0.2503 0.9682 529.42 420.3548)" class="st36 st32 st46">SPECIAL</text>
						<text transform="matrix(0.9682 0.2503 -0.2503 0.9682 527.947 426.0522)" class="st36 st32 st47">DISCOUNT</text>
					</g>
				</g>
				<g>
					<text transform="matrix(0.9682 0.2503 -0.2503 0.9682 526.8396 432.1766)" class="st36 st32 st48">LIMITED TIME OFFER</text>
				</g>
				<g>
					<g>
						
							<rect x="551.52" y="447.07" transform="matrix(0.2503 -0.9682 0.9682 0.2503 -18.724 872.7562)" class="st36" width="5.34" height="2.81"/>
						
							<rect x="543.91" y="445.1" transform="matrix(0.2503 -0.9682 0.9682 0.2503 -22.5236 863.9147)" class="st36" width="5.34" height="2.81"/>
						
							<rect x="538.83" y="443.31" transform="matrix(0.2503 -0.9682 0.9682 0.2503 -25.0595 858.0138)" class="st36" width="5.34" height="3.75"/>
						
							<rect x="532.28" y="442.07" transform="matrix(0.2503 -0.9682 0.9682 0.2503 -28.3333 850.3959)" class="st36" width="5.34" height="2.84"/>
						
							<rect x="524.8" y="440.14" transform="matrix(0.2503 -0.9682 0.9682 0.2503 -32.0651 841.7123)" class="st36" width="5.34" height="2.84"/>
						
							<rect x="549.13" y="447.27" transform="matrix(0.2503 -0.9682 0.9682 0.2503 -19.9198 869.9735)" class="st36" width="5.34" height="1.16"/>
						
							<rect x="547.63" y="446.88" transform="matrix(0.2503 -0.9682 0.9682 0.2503 -20.6662 868.2368)" class="st36" width="5.34" height="1.16"/>
						
							<rect x="546.2" y="446.52" transform="matrix(0.2503 -0.9682 0.9682 0.2503 -21.3786 866.579)" class="st36" width="5.34" height="1.16"/>
						
							<rect x="530.04" y="442.33" transform="matrix(0.2503 -0.9682 0.9682 0.2503 -29.4529 847.7908)" class="st36" width="5.34" height="1.16"/>
						
							<rect x="528.54" y="441.95" transform="matrix(0.2503 -0.9682 0.9682 0.2503 -30.1992 846.0541)" class="st36" width="5.34" height="1.16"/>
						
							<rect x="527.11" y="441.58" transform="matrix(0.2503 -0.9682 0.9682 0.2503 -30.9117 844.3964)" class="st36" width="5.34" height="1.16"/>
						
							<rect x="536.08" y="443.9" transform="matrix(0.2503 -0.9682 0.9682 0.2503 -26.4335 854.8167)" class="st36" width="5.34" height="1.16"/>
						
							<rect x="534.59" y="443.51" transform="matrix(0.2503 -0.9682 0.9682 0.2503 -27.1799 853.08)" class="st36" width="5.34" height="1.16"/>
						
							<rect x="541.58" y="445.32" transform="matrix(0.2503 -0.9682 0.9682 0.2503 -23.6856 861.2109)" class="st36" width="5.34" height="1.16"/>
						
							<rect x="522.49" y="440.38" transform="matrix(0.2503 -0.9682 0.9682 0.2503 -33.2186 839.0283)" class="st36" width="5.34" height="1.16"/>
					</g>
				</g>
			</g>
			<g>
				<g>
					<g>
						<g>
							<text transform="matrix(0.9682 0.2503 -0.2503 0.9682 469.3144 409.7849)" class="st12 st32 st49">UP TO</text>
						</g>
						<g>
							<g>
								<g>
									<text transform="matrix(0.9682 0.2503 -0.2503 0.9682 465.2691 424.6437)" class="st12 st29 st50">70</text>
								</g>
								<g>
									<text transform="matrix(0.9682 0.2503 -0.2503 0.9682 486.6785 430.2548)" class="st12 st32 st51">OFF</text>
								</g>
								<g>
									<text transform="matrix(0.9682 0.2503 -0.2503 0.9682 487.7894 425.9581)" class="st12 st32 st52">%</text>
								</g>
							</g>
						</g>
					</g>
				</g>
				<g>
					<polygon class="st12" points="486.37,401.13 486.46,402.55 487.83,402.9 486.51,403.42 486.6,404.83 485.7,403.74 
						484.38,404.26 485.14,403.06 484.24,401.97 485.61,402.33 					"/>
					<g>
						<polygon class="st12" points="492.26,402.66 492.35,404.07 493.72,404.42 492.4,404.94 492.49,406.35 491.59,405.26 
							490.27,405.78 491.03,404.59 490.13,403.5 491.5,403.85 						"/>
						<polygon class="st12" points="497.83,404.1 497.91,405.51 499.28,405.86 497.97,406.38 498.05,407.79 497.16,406.7 
							495.84,407.22 496.6,406.03 495.7,404.94 497.07,405.29 						"/>
					</g>
					<g>
						<polygon class="st12" points="480.48,399.61 479.72,400.8 478.35,400.45 479.25,401.54 478.49,402.73 479.81,402.21 
							480.7,403.31 480.62,401.89 481.93,401.38 480.56,401.02 						"/>
						<polygon class="st12" points="474.91,398.17 474.15,399.36 472.78,399.01 473.68,400.1 472.92,401.29 474.24,400.78 
							475.14,401.87 475.05,400.45 476.37,399.94 475,399.58 						"/>
					</g>
				</g>
				<g>
					<polygon class="st12" points="479.15,429.07 479.23,430.48 480.6,430.83 479.29,431.35 479.37,432.76 478.48,431.67 
						477.16,432.19 477.92,431 477.02,429.91 478.39,430.26 					"/>
					<g>
						<polygon class="st12" points="485.04,430.59 485.13,432 486.5,432.36 485.18,432.87 485.27,434.28 484.37,433.19 
							483.05,433.71 483.81,432.52 482.91,431.43 484.28,431.78 						"/>
						<polygon class="st12" points="490.61,432.03 490.69,433.44 492.06,433.79 490.75,434.31 490.83,435.72 489.93,434.63 
							488.62,435.15 489.38,433.96 488.48,432.87 489.85,433.22 						"/>
					</g>
					<g>
						<polygon class="st12" points="473.26,427.54 472.5,428.74 471.13,428.38 472.03,429.47 471.27,430.67 472.58,430.15 
							473.48,431.24 473.4,429.83 474.71,429.31 473.34,428.95 						"/>
						<polygon class="st12" points="467.69,426.1 466.93,427.3 465.56,426.94 466.46,428.03 465.7,429.23 467.02,428.71 
							467.92,429.8 467.83,428.39 469.15,427.87 467.78,427.52 						"/>
					</g>
				</g>
			</g>
		</g>
	</g>
	<g>
		<path class="st2" d="M528.31,398.04c0,0,4.14,29.92,4.73,34.36c0.59,4.45,5.57,4.2,8.52,0.44s6.55-29.45,5.76-32.98"/>
		<path class="st3" d="M528.81,397.97l2.6,19.75l1.3,9.88l0.65,4.93c0.11,0.78,0.42,1.53,0.96,2.07c0.53,0.54,1.29,0.83,2.07,0.85
			c1.58,0.03,3.11-0.79,4.26-1.91c1.24-1.09,1.72-2.7,2.24-4.26c0.97-3.16,1.64-6.42,2.26-9.67c0.61-3.26,1.12-6.54,1.55-9.83
			c0.21-1.65,0.4-3.3,0.54-4.95c0.11-1.65,0.3-3.32,0.09-4.97c0.24,1.65,0.07,3.32-0.02,4.97c-0.12,1.66-0.29,3.31-0.48,4.96
			c-0.38,3.3-0.86,6.59-1.42,9.86c-0.58,3.27-1.21,6.54-2.15,9.74c-0.24,0.8-0.5,1.59-0.84,2.37c-0.17,0.39-0.36,0.77-0.62,1.13
			c-0.25,0.35-0.53,0.67-0.84,0.96c-1.2,1.18-2.8,2.1-4.58,2.1c-0.88-0.01-1.79-0.33-2.43-0.97c-0.65-0.64-1.01-1.5-1.14-2.35
			l-0.72-4.94l-1.42-9.86l-2.84-19.72L528.81,397.97z"/>
	</g>
	<g class="st53">
		<g>
			<g>
				<text transform="matrix(0.9989 0.0477 -0.0477 0.9989 185.8012 175.679)" class="st22 st37 st54">UP TO</text>
			</g>
			<g>
				<g>
					<g>
						<text transform="matrix(0.9989 0.0477 -0.0477 0.9989 183.2674 194.1886)" class="st22 st39 st55">60</text>
					</g>
					<g>
						<text transform="matrix(0.9989 0.0477 -0.0477 0.9989 205.6232 192.707)" class="st22 st37 st56">OFF</text>
					</g>
					<g>
						<text transform="matrix(0.9989 0.0477 -0.0477 0.9989 205.8569 187.8112)" class="st22 st37 st57">%</text>
					</g>
				</g>
			</g>
		</g>
		<text transform="matrix(0.0477 -0.9989 0.9989 0.0477 223.3378 194.4657)" class="st22 st37 st58">SUPER SALE</text>
		<g>
			<g>
				<g>
					<polygon class="st22" points="202.66,162.03 203.12,163.73 204.89,163.82 203.41,164.79 203.88,166.49 202.5,165.39 
						201.02,166.36 201.65,164.7 200.27,163.6 202.03,163.68 					"/>
				</g>
				<g>
					<g>
						<polygon class="st22" points="209.16,162.34 209.63,164.04 211.39,164.13 209.91,165.1 210.38,166.8 209,165.7 207.52,166.67 
							208.15,165.01 206.77,163.91 208.53,163.99 						"/>
					</g>
					<g>
						<polygon class="st22" points="215.56,162.64 216.03,164.35 217.8,164.43 216.32,165.4 216.78,167.11 215.4,166 213.93,166.97 
							214.55,165.32 213.17,164.21 214.94,164.3 						"/>
					</g>
				</g>
				<g>
					<g>
						<polygon class="st22" points="196.11,161.71 195.48,163.37 193.71,163.28 195.09,164.39 194.47,166.04 195.95,165.07 
							197.33,166.18 196.86,164.47 198.34,163.5 196.57,163.42 						"/>
					</g>
					<g>
						<polygon class="st22" points="189.7,161.41 189.08,163.06 187.31,162.98 188.69,164.08 188.06,165.74 189.54,164.77 
							190.92,165.88 190.46,164.17 191.94,163.2 190.17,163.11 						"/>
					</g>
				</g>
			</g>
		</g>
	</g>
</g>
</svg>
