<?xml version="1.0" encoding="utf-8"?>
<!-- Generator: Adobe Illustrator 24.2.1, SVG Export Plug-In . SVG Version: 6.00 Build 0)  -->
<svg version="1.1" id="Layer_1" xmlns="http://www.w3.org/2000/svg" xmlns:xlink="http://www.w3.org/1999/xlink" x="0px" y="0px"
	 viewBox="0 0 720 720" style="enable-background:new 0 0 720 720;" xml:space="preserve">
<style type="text/css">
	.st0{fill:#F4897E;stroke:#A1554F;stroke-miterlimit:10;}
	.st1{fill:#BE655D;stroke:#A1554F;stroke-miterlimit:10;}
	.st2{fill:#6AAE44;}
	.st3{fill:#231F20;}
	.st4{fill:#C2DC86;}
	.st5{fill:#F7AA9E;stroke:#A1554F;stroke-miterlimit:10;}
	.st6{fill:#FFFFFF;stroke:#A1554F;stroke-miterlimit:10;}
	.st7{opacity:0.65;fill:url(#SVGID_1_);}
	.st8{opacity:0.92;fill:url(#SVGID_2_);}
	.st9{fill:#565AA7;}
	.st10{fill:#3D3E7A;}
	.st11{fill:#D6DADD;}
	.st12{fill:#A1554F;}
	.st13{fill:#F7AA9E;}
	.st14{fill:#FFFFFF;}
	.st15{fill:#9EDCF8;}
	.st16{fill:none;stroke:#FFFFFF;stroke-miterlimit:10;}
	.st17{fill:#FFFFFF;stroke:#3D3E7A;stroke-miterlimit:10;}
	.st18{fill:#6163AC;}
	.st19{fill:#232468;}
	.st20{fill:#404041;}
	.st21{opacity:0.04;fill:#000F24;}
	.st22{fill:#323031;}
	.st23{fill:#87D2DB;}
	.st24{fill:#D0D2D3;}
	.st25{fill:#7C0612;}
	.st26{fill:#EF5359;}
</style>
<g>
	<g>
		<path class="st0" d="M149.16,252.75l14.23,3.88l-5.11-14.55l-9.81-5.03l-2.17,11.11C145.9,250.2,147.15,252.2,149.16,252.75z"/>
		<path class="st1" d="M150.3,253.36c0,0-0.32,5.89,1.85,7.21c2.17,1.32,24.56,5.82,24.56,5.82l-1.94-13.75L150.3,253.36z"/>
		<g>
			<g>
				<g>
					<path class="st2" d="M176.86,230.88l5.66-74.36c0.17-2.27-1.47-4.24-3.68-4.41l-32.89-2.5c-2.2-0.17-4.13,1.53-4.3,3.8
						l-5.66,74.36c-0.17,2.27,1.47,4.24,3.68,4.41l32.89,2.5C174.76,234.85,176.69,233.15,176.86,230.88z"/>
					<path class="st3" d="M176.84,230.88l2.16-30c0.71-10,1.42-20,2.24-30c0.37-4.99,0.84-10.01,1.14-14.97
						c-0.07-1.21-0.73-2.37-1.74-3.05c-1.01-0.73-2.32-0.64-3.56-0.77l-7.5-0.6l-15-1.14l-7.5-0.55c-0.63-0.03-1.26-0.13-1.85-0.07
						c-0.61,0.06-1.19,0.29-1.69,0.63c-1.02,0.67-1.67,1.84-1.76,3.05l-4.46,59.99c-0.36,4.98-0.79,10.03-1.1,14.96
						c0.06,1.19,0.71,2.32,1.69,2.99c0.49,0.33,1.06,0.54,1.66,0.6l1.87,0.16l7.5,0.61l14.99,1.21l7.5,0.6
						c0.62,0.04,1.25,0.14,1.87,0.08c0.62-0.06,1.21-0.29,1.73-0.63C176.06,233.31,176.73,232.12,176.84,230.88z M176.89,230.88
						c-0.09,1.26-0.76,2.48-1.83,3.17c-0.52,0.35-1.13,0.59-1.76,0.66c-0.64,0.07-1.26-0.03-1.89-0.06l-7.5-0.54l-15-1.07l-7.5-0.53
						l-1.88-0.14c-0.66-0.07-1.3-0.29-1.85-0.65c-1.1-0.73-1.84-1.99-1.92-3.31c0.07-2.57,0.34-5.02,0.51-7.53l0.57-7.5l4.67-59.98
						c0.1-1.29,0.8-2.53,1.89-3.24c0.54-0.35,1.16-0.6,1.8-0.66c0.65-0.07,1.27,0.04,1.9,0.08l7.5,0.59l15,1.15l7.5,0.55l1.88,0.14
						c0.64,0.07,1.27,0.29,1.81,0.64c1.08,0.72,1.8,1.95,1.88,3.25c-0.26,5.04-0.7,10.01-1.05,15.02c-0.7,10-1.52,20-2.33,29.99
						L176.89,230.88z"/>
				</g>
				<path class="st4" d="M163.57,230.14l-14.33-1.09c0.39-5.07-3.41-9.5-8.49-9.89l4.3-56.53c5.07,0.39,9.5-3.41,9.89-8.49
					l14.33,1.09c-0.39,5.07,3.41,9.5,8.49,9.89l-4.3,56.53C168.38,221.26,163.95,225.06,163.57,230.14z"/>
				<g>
					
						<ellipse transform="matrix(0.0759 -0.9971 0.9971 0.0759 -44.4204 336.3491)" class="st2" cx="159.25" cy="192.14" rx="10.96" ry="12.46"/>
				</g>
				<g>
					<circle class="st2" cx="157.54" cy="214.67" r="3.2"/>
					<circle class="st2" cx="160.97" cy="169.61" r="3.2"/>
				</g>
				<path class="st4" d="M158.35,196.35c0.54-0.33,0.94-0.76,1.21-1.29c0.25-0.49,0.48-1.11,0.69-1.84
					c0.02-0.06,0.03-0.11,0.05-0.18c0.01-0.04,0.02-0.07,0.03-0.1c0.01-0.03,0.02-0.07,0.03-0.1c0.01-0.02,0.01-0.05,0.02-0.07
					c0-0.02,0.01-0.05,0.02-0.07c0.16-0.56,0.3-1,0.42-1.31c0.05-0.12,0.11-0.23,0.18-0.34c0.1-0.16,0.22-0.3,0.36-0.42
					c0.23-0.2,0.54-0.28,0.91-0.25l0.01,0c0.44,0.03,0.78,0.26,0.99,0.7c0.03,0.05,0.05,0.1,0.07,0.16
					c0.16,0.41,0.22,0.95,0.17,1.62c-0.02,0.2-0.05,0.41-0.09,0.61c-0.07,0.3-0.17,0.62-0.31,0.93c-0.13,0.31-0.29,0.6-0.48,0.89
					c-0.23,0.35-0.1,0.82,0.25,1.04l0.71,0.42c0.34,0.2,0.78,0.11,1-0.21c0.15-0.23,0.29-0.46,0.42-0.7
					c0.24-0.45,0.43-0.91,0.57-1.39c0.08-0.27,0.14-0.53,0.19-0.8l1.95,0.15c0.25,0.02,0.46-0.17,0.48-0.41l0.1-1.32
					c0.02-0.25-0.17-0.46-0.41-0.48l-2.07-0.16c-0.05-0.37-0.13-0.71-0.24-1.02c-0.26-0.74-0.67-1.32-1.24-1.74
					c-0.57-0.42-1.27-0.66-2.11-0.72l-0.01,0c-0.95-0.07-1.69,0.07-2.24,0.43c-0.55,0.36-0.94,0.82-1.19,1.37
					c-0.14,0.32-0.28,0.69-0.41,1.12c-0.1,0.31-0.18,0.64-0.27,1.01l-0.04,0.2c0,0.02-0.01,0.03-0.01,0.05
					c0,0.02-0.01,0.03-0.01,0.05c-0.08,0.34-0.16,0.63-0.24,0.88c-0.03,0.11-0.07,0.22-0.11,0.31c-0.12,0.31-0.29,0.55-0.51,0.73
					c-0.22,0.18-0.5,0.26-0.84,0.23l-0.01,0c-0.49-0.04-0.86-0.29-1.1-0.75c-0.11-0.21-0.19-0.46-0.23-0.74
					c-0.06-0.33-0.07-0.71-0.03-1.14c0.03-0.36,0.08-0.72,0.18-1.07c0.08-0.31,0.18-0.62,0.31-0.93c0.17-0.39,0.37-0.74,0.6-1.07
					c0.24-0.34,0.15-0.82-0.2-1.05l-0.69-0.46c-0.33-0.22-0.78-0.14-1.02,0.18c-0.18,0.24-0.36,0.51-0.51,0.79
					c-0.28,0.5-0.51,1.04-0.68,1.63c-0.07,0.24-0.13,0.49-0.18,0.73l-1.98-0.15c-0.25-0.02-0.46,0.17-0.48,0.41l-0.1,1.32
					c-0.02,0.25,0.17,0.46,0.41,0.48l1.99,0.15c0.03,0.58,0.12,1.1,0.28,1.57c0.25,0.77,0.66,1.36,1.22,1.8
					c0.56,0.43,1.25,0.68,2.08,0.74l0.02,0C157.1,196.81,157.81,196.68,158.35,196.35z"/>
			</g>
			<g>
				<g>
					<path class="st2" d="M175.37,226.07l-15.47-72.96c-0.47-2.22-2.61-3.66-4.77-3.2l-32.27,6.84c-2.16,0.46-3.53,2.63-3.06,4.86
						l15.47,72.96c0.47,2.22,2.61,3.66,4.77,3.2l32.27-6.84C174.47,230.47,175.84,228.3,175.37,226.07z"/>
					<path class="st3" d="M175.34,226.08l-6.36-29.4c-2.13-9.8-4.26-19.6-6.28-29.42c-1.04-4.89-2.01-9.85-3.12-14.69
						c-0.4-1.15-1.37-2.07-2.52-2.44c-1.18-0.42-2.41,0.04-3.63,0.26l-7.36,1.54l-14.71,3.12l-7.35,1.58
						c-0.61,0.14-1.24,0.23-1.8,0.46c-0.56,0.23-1.06,0.61-1.44,1.08c-0.79,0.93-1.08,2.23-0.83,3.42l12.58,58.83
						c1.05,4.88,2.06,9.85,3.15,14.67c0.39,1.12,1.33,2.03,2.46,2.39c0.57,0.18,1.17,0.22,1.76,0.11l1.84-0.37l7.36-1.52l14.73-3.05
						l7.36-1.53c0.61-0.14,1.24-0.22,1.81-0.45c0.58-0.23,1.08-0.62,1.48-1.09C175.29,228.63,175.6,227.3,175.34,226.08z
						 M175.39,226.07c0.26,1.23-0.03,2.59-0.86,3.56c-0.41,0.48-0.92,0.89-1.51,1.13c-0.59,0.24-1.22,0.32-1.83,0.47l-7.35,1.59
						l-14.7,3.19l-7.35,1.6l-1.84,0.39c-0.65,0.12-1.33,0.08-1.96-0.11c-1.27-0.39-2.32-1.39-2.78-2.64
						c-0.65-2.49-1.09-4.91-1.63-7.37l-1.56-7.36l-12.38-58.87c-0.26-1.26,0.05-2.65,0.9-3.64c0.42-0.49,0.94-0.9,1.55-1.14
						c0.61-0.25,1.23-0.32,1.84-0.46l7.36-1.54l14.71-3.12l7.35-1.58l1.84-0.39c0.64-0.12,1.3-0.08,1.92,0.11
						c1.24,0.38,2.27,1.37,2.71,2.59c1.16,4.92,2.14,9.81,3.22,14.71c2.14,9.8,4.17,19.62,6.2,29.43L175.39,226.07z"/>
				</g>
				<path class="st4" d="M162.4,229.1l-14.06,2.98c-1.06-4.98-5.95-8.16-10.92-7.1l-11.76-55.46c4.98-1.06,8.16-5.95,7.1-10.92
					l14.06-2.98c1.06,4.98,5.95,8.16,10.92,7.1l11.76,55.46C164.53,219.23,161.35,224.12,162.4,229.1z"/>
				<g>
					
						<ellipse transform="matrix(0.9782 -0.2074 0.2074 0.9782 -37.0029 34.833)" class="st2" cx="147.58" cy="193.85" rx="12.46" ry="10.96"/>
				</g>
				<g>
					<circle class="st2" cx="152.27" cy="215.95" r="3.2"/>
					<circle class="st2" cx="142.9" cy="171.75" r="3.2"/>
				</g>
				<path class="st4" d="M147.89,198.14c0.42-0.47,0.69-0.99,0.8-1.58c0.1-0.54,0.15-1.2,0.15-1.96c0-0.06,0-0.12,0-0.18
					c0-0.04,0-0.07,0-0.11c0-0.03,0-0.07,0-0.11c0-0.02,0-0.05,0-0.07c0-0.02,0-0.05,0-0.07c-0.01-0.58,0.01-1.04,0.04-1.37
					c0.01-0.13,0.04-0.25,0.08-0.38c0.05-0.18,0.13-0.35,0.23-0.5c0.17-0.26,0.44-0.42,0.8-0.5l0.01,0
					c0.44-0.09,0.82,0.04,1.15,0.39c0.04,0.04,0.07,0.08,0.11,0.13c0.27,0.35,0.48,0.85,0.62,1.51c0.04,0.2,0.07,0.4,0.08,0.61
					c0.02,0.31,0.01,0.64-0.04,0.98c-0.04,0.33-0.11,0.66-0.21,0.99c-0.12,0.4,0.13,0.82,0.53,0.92l0.8,0.21
					c0.38,0.1,0.78-0.11,0.9-0.49c0.08-0.26,0.15-0.52,0.2-0.79c0.1-0.5,0.15-1,0.16-1.5c0-0.28-0.01-0.55-0.04-0.82l1.92-0.41
					c0.24-0.05,0.4-0.29,0.35-0.53l-0.27-1.29c-0.05-0.24-0.29-0.4-0.53-0.35l-2.03,0.43c-0.15-0.34-0.32-0.64-0.52-0.91
					c-0.45-0.64-1.01-1.08-1.68-1.32c-0.66-0.24-1.41-0.28-2.23-0.1l-0.01,0c-0.93,0.2-1.6,0.54-2.03,1.04
					c-0.42,0.5-0.67,1.05-0.76,1.65c-0.05,0.35-0.07,0.74-0.08,1.19c0,0.32,0.01,0.67,0.02,1.04l0.01,0.2c0,0.02,0,0.03,0,0.05
					c0,0.02,0,0.03,0,0.05c0.02,0.35,0.02,0.65,0.01,0.91c0,0.12-0.01,0.23-0.02,0.33c-0.03,0.33-0.12,0.61-0.28,0.85
					c-0.16,0.23-0.41,0.39-0.74,0.46l-0.01,0c-0.48,0.1-0.9-0.03-1.26-0.41c-0.17-0.17-0.31-0.39-0.43-0.65
					c-0.15-0.3-0.26-0.67-0.35-1.09c-0.08-0.36-0.12-0.72-0.13-1.08c-0.02-0.32,0-0.65,0.04-0.98c0.05-0.42,0.14-0.82,0.27-1.19
					c0.14-0.4-0.08-0.83-0.48-0.95l-0.8-0.25c-0.38-0.12-0.79,0.08-0.93,0.46c-0.11,0.29-0.2,0.59-0.27,0.9
					c-0.13,0.56-0.19,1.14-0.19,1.75c0,0.25,0.01,0.5,0.04,0.75l-1.95,0.41c-0.24,0.05-0.4,0.29-0.35,0.53l0.27,1.29
					c0.05,0.24,0.29,0.4,0.53,0.35l1.95-0.41c0.19,0.55,0.43,1.02,0.71,1.43c0.46,0.66,1.02,1.12,1.68,1.38
					c0.66,0.26,1.39,0.3,2.21,0.13l0.02,0C146.83,198.93,147.47,198.61,147.89,198.14z"/>
			</g>
			<g>
				<g>
					<path class="st2" d="M172.59,221.88l-35.36-65.67c-1.08-2-3.53-2.78-5.48-1.73l-29.04,15.64c-1.95,1.05-2.65,3.52-1.57,5.52
						l35.36,65.67c1.08,2,3.53,2.78,5.48,1.73l29.04-15.64C172.96,226.36,173.66,223.89,172.59,221.88z"/>
					<path class="st3" d="M172.57,221.9l-14.37-26.43c-4.8-8.8-9.6-17.61-14.3-26.46c-2.38-4.4-4.7-8.89-7.12-13.22
						c-0.71-0.99-1.89-1.6-3.11-1.63c-1.24-0.07-2.3,0.71-3.41,1.28l-6.63,3.54l-13.24,7.13l-6.61,3.58
						c-0.54,0.31-1.13,0.57-1.6,0.94c-0.48,0.38-0.84,0.89-1.08,1.44c-0.5,1.11-0.41,2.45,0.16,3.51l28.61,52.92
						c2.38,4.39,4.75,8.87,7.15,13.19c0.69,0.97,1.85,1.57,3.04,1.6c0.59,0.01,1.19-0.12,1.72-0.38l1.66-0.87l6.64-3.53l13.27-7.07
						l6.64-3.54c0.55-0.31,1.13-0.56,1.61-0.94c0.49-0.38,0.86-0.9,1.12-1.46C173.23,224.36,173.15,222.99,172.57,221.9z
						 M172.61,221.87c0.6,1.11,0.69,2.49,0.18,3.66c-0.25,0.58-0.63,1.11-1.13,1.51c-0.5,0.4-1.08,0.65-1.62,0.96l-6.61,3.59
						l-13.21,7.19l-6.6,3.6l-1.66,0.9c-0.59,0.3-1.25,0.45-1.91,0.45c-1.32-0.02-2.62-0.68-3.4-1.75c-1.33-2.2-2.42-4.41-3.64-6.62
						l-3.56-6.62l-28.43-53.02c-0.61-1.14-0.69-2.56-0.16-3.74c0.26-0.59,0.65-1.13,1.16-1.53c0.51-0.41,1.09-0.65,1.64-0.96
						l6.63-3.55l13.24-7.13l6.61-3.59l1.66-0.89c0.58-0.29,1.23-0.44,1.87-0.44c1.3,0.02,2.57,0.67,3.33,1.72
						c2.5,4.39,4.81,8.81,7.22,13.21c4.81,8.8,9.51,17.65,14.22,26.5L172.61,221.87z"/>
				</g>
				<path class="st4" d="M161,228.43l-12.65,6.81c-2.41-4.48-8-6.16-12.48-3.74l-26.88-49.92c4.48-2.41,6.16-8,3.74-12.48
					l12.65-6.81c2.41,4.48,8,6.16,12.48,3.74l26.88,49.92C160.26,218.36,158.58,223.95,161,228.43z"/>
				<g>
					
						<ellipse transform="matrix(0.8805 -0.4741 0.4741 0.8805 -77.8737 88.6398)" class="st2" cx="136.86" cy="198.77" rx="12.46" ry="10.96"/>
				</g>
				<g>
					<circle class="st2" cx="147.57" cy="218.66" r="3.2"/>
					<circle class="st2" cx="126.15" cy="178.87" r="3.2"/>
				</g>
				<path class="st4" d="M138.37,202.8c0.28-0.57,0.38-1.15,0.32-1.74c-0.05-0.55-0.19-1.19-0.41-1.92
					c-0.02-0.06-0.04-0.11-0.05-0.17c-0.01-0.03-0.02-0.07-0.03-0.1c-0.01-0.03-0.02-0.07-0.03-0.1c-0.01-0.02-0.01-0.05-0.02-0.07
					c-0.01-0.02-0.02-0.05-0.02-0.07c-0.17-0.56-0.29-1-0.35-1.33c-0.02-0.13-0.04-0.25-0.03-0.38c0-0.19,0.03-0.37,0.08-0.55
					c0.09-0.29,0.3-0.53,0.63-0.71l0.01,0c0.39-0.21,0.8-0.2,1.21,0.05c0.05,0.03,0.09,0.06,0.14,0.09c0.36,0.26,0.7,0.68,1.01,1.27
					c0.1,0.18,0.18,0.37,0.25,0.57c0.11,0.29,0.19,0.61,0.24,0.95c0.05,0.33,0.08,0.67,0.08,1.01c0,0.42,0.35,0.75,0.77,0.73
					l0.83-0.03c0.39-0.01,0.72-0.33,0.73-0.72c0.01-0.27,0-0.54-0.03-0.81c-0.04-0.51-0.13-1-0.27-1.48
					c-0.08-0.27-0.17-0.53-0.27-0.77l1.72-0.93c0.22-0.12,0.3-0.39,0.18-0.61l-0.63-1.16c-0.12-0.22-0.39-0.3-0.61-0.18l-1.83,0.99
					c-0.24-0.28-0.49-0.53-0.75-0.73c-0.61-0.48-1.27-0.75-1.98-0.8c-0.71-0.05-1.43,0.13-2.17,0.53l-0.01,0
					c-0.84,0.45-1.39,0.97-1.65,1.57c-0.27,0.6-0.35,1.2-0.26,1.8c0.05,0.35,0.14,0.73,0.26,1.16c0.09,0.31,0.19,0.64,0.32,0.99
					l0.07,0.19c0,0.02,0.01,0.03,0.02,0.05c0.01,0.01,0.01,0.03,0.01,0.05c0.11,0.33,0.21,0.62,0.27,0.87
					c0.03,0.12,0.06,0.22,0.08,0.32c0.07,0.32,0.06,0.62-0.03,0.89c-0.09,0.27-0.28,0.49-0.58,0.65l-0.01,0
					c-0.44,0.23-0.88,0.22-1.33-0.04c-0.21-0.12-0.41-0.29-0.6-0.5c-0.23-0.25-0.44-0.56-0.65-0.95c-0.17-0.32-0.32-0.65-0.43-1
					c-0.11-0.31-0.18-0.62-0.24-0.95c-0.07-0.42-0.09-0.82-0.08-1.22c0.02-0.42-0.31-0.77-0.73-0.78l-0.83-0.02
					c-0.4-0.01-0.73,0.3-0.76,0.7c-0.02,0.31-0.03,0.62-0.01,0.94c0.03,0.57,0.14,1.15,0.31,1.74c0.07,0.24,0.15,0.48,0.25,0.71
					l-1.75,0.94c-0.22,0.12-0.3,0.39-0.18,0.61l0.63,1.16c0.12,0.22,0.39,0.3,0.61,0.18l1.76-0.95c0.33,0.47,0.7,0.86,1.08,1.17
					c0.63,0.51,1.29,0.79,2,0.85c0.71,0.06,1.42-0.1,2.15-0.5l0.01-0.01C137.57,203.86,138.09,203.37,138.37,202.8z"/>
			</g>
			<g>
				<g>
					<path class="st2" d="M168.78,224.39l-23.48,23.17c-0.53,0.53-1.18,0.87-1.87,1.03c-1.34,0.31-2.81-0.08-3.87-1.15l-52.39-53.08
						c-1.59-1.62-1.62-4.19-0.04-5.74l23.47-23.17c0.61-0.6,1.37-0.96,2.16-1.08c1.26-0.2,2.6,0.21,3.58,1.2l52.39,53.08
						C170.34,220.26,170.35,222.83,168.78,224.39z"/>
					<path class="st3" d="M168.8,224.4l-21.32,21.21l-1.33,1.33c-0.45,0.43-0.85,0.92-1.42,1.28c-1.11,0.71-2.55,0.82-3.76,0.35
						c-0.61-0.23-1.17-0.62-1.61-1.08l-1.33-1.33l-2.65-2.66l-10.55-10.72l-21.06-21.47l-10.57-10.7l-5.3-5.34
						c-0.43-0.45-0.91-0.86-1.29-1.4c-0.37-0.53-0.62-1.14-0.72-1.78c-0.22-1.28,0.22-2.65,1.14-3.56l21.34-21.2l1.34-1.32
						c0.45-0.42,0.86-0.92,1.44-1.28c1.13-0.71,2.59-0.83,3.82-0.34c0.62,0.24,1.18,0.63,1.62,1.1l1.32,1.34l2.64,2.67l10.57,10.7
						c7.06,7.12,14.06,14.29,21.07,21.47l10.52,10.75l5.26,5.37c0.43,0.46,0.91,0.87,1.27,1.39c0.36,0.52,0.6,1.13,0.69,1.75
						C170.14,222.19,169.71,223.52,168.8,224.4z M168.77,224.37c0.88-0.88,1.3-2.19,1.09-3.42c-0.1-0.61-0.33-1.2-0.69-1.71
						c-0.36-0.5-0.84-0.92-1.27-1.37l-5.3-5.33l-10.61-10.66c-7.08-7.1-14.17-14.19-21.19-21.35l-10.56-10.71l-2.64-2.68l-1.32-1.34
						c-0.42-0.44-0.91-0.78-1.46-1c-1.1-0.44-2.41-0.34-3.4,0.3c-0.5,0.3-0.9,0.78-1.36,1.22l-1.34,1.32l-21.47,21.07
						c-0.87,0.85-1.28,2.12-1.09,3.33c0.09,0.6,0.32,1.18,0.67,1.68c0.34,0.5,0.82,0.91,1.25,1.37l5.27,5.37l10.56,10.71l21.2,21.34
						l10.58,10.69l2.63,2.69c0.91,0.86,1.65,1.94,2.79,2.35c1.11,0.45,2.44,0.35,3.46-0.29c0.51-0.31,0.91-0.79,1.38-1.22l1.34-1.31
						L168.77,224.37z"/>
				</g>
				<path class="st4" d="M159.46,228.19l-10.23,10.1c-3.57-3.62-9.41-3.66-13.03-0.09l-39.83-40.35c3.62-3.57,3.66-9.41,0.09-13.03
					l10.23-10.1c3.57,3.62,9.41,3.66,13.03,0.09l39.83,40.35C155.92,218.73,155.88,224.57,159.46,228.19z"/>
				<g>
					
						<ellipse transform="matrix(0.7117 -0.7025 0.7025 0.7117 -108.1735 149.4198)" class="st2" cx="127.96" cy="206.5" rx="12.46" ry="10.96"/>
				</g>
				<g>
					
						<ellipse transform="matrix(0.855 -0.5186 0.5186 0.855 -94.5778 106.8578)" class="st2" cx="143.83" cy="222.58" rx="3.2" ry="3.2"/>
					<circle class="st2" cx="112.09" cy="190.42" r="3.2"/>
				</g>
				<path class="st4" d="M130.53,209.95c0.11-0.62,0.04-1.21-0.18-1.76c-0.21-0.51-0.52-1.09-0.93-1.73
					c-0.03-0.05-0.07-0.1-0.1-0.15c-0.02-0.03-0.04-0.06-0.06-0.09c-0.02-0.03-0.04-0.06-0.06-0.09c-0.01-0.02-0.03-0.04-0.04-0.06
					c-0.01-0.02-0.03-0.04-0.04-0.06c-0.32-0.49-0.56-0.88-0.71-1.18c-0.06-0.12-0.11-0.23-0.14-0.36
					c-0.06-0.18-0.08-0.36-0.08-0.55c0-0.31,0.14-0.59,0.41-0.86l0.01-0.01c0.32-0.31,0.71-0.41,1.18-0.29
					c0.06,0.01,0.11,0.03,0.16,0.05c0.42,0.15,0.86,0.46,1.33,0.94c0.14,0.14,0.28,0.3,0.4,0.47c0.18,0.25,0.35,0.54,0.5,0.85
					c0.14,0.3,0.26,0.62,0.36,0.95c0.12,0.4,0.55,0.62,0.95,0.49l0.79-0.26c0.37-0.12,0.6-0.52,0.5-0.9
					c-0.07-0.26-0.16-0.52-0.25-0.77c-0.19-0.47-0.41-0.92-0.67-1.35c-0.15-0.24-0.31-0.46-0.48-0.67l1.39-1.38
					c0.18-0.17,0.18-0.46,0-0.64l-0.93-0.94c-0.17-0.18-0.46-0.18-0.63,0l-1.48,1.46c-0.31-0.2-0.62-0.37-0.93-0.49
					c-0.72-0.29-1.43-0.36-2.12-0.21c-0.69,0.15-1.33,0.52-1.93,1.12l-0.01,0.01c-0.68,0.67-1.06,1.32-1.14,1.97
					c-0.09,0.65,0,1.25,0.25,1.8c0.15,0.32,0.34,0.66,0.58,1.04c0.17,0.27,0.37,0.56,0.58,0.86l0.12,0.16
					c0.01,0.01,0.02,0.03,0.03,0.04c0.01,0.01,0.02,0.03,0.03,0.04c0.2,0.28,0.37,0.53,0.51,0.76c0.06,0.1,0.12,0.2,0.17,0.29
					c0.15,0.29,0.23,0.58,0.22,0.86c-0.01,0.28-0.13,0.55-0.38,0.79l-0.01,0.01c-0.35,0.35-0.78,0.46-1.29,0.34
					c-0.23-0.06-0.47-0.16-0.71-0.32c-0.29-0.17-0.58-0.42-0.89-0.73c-0.26-0.26-0.49-0.54-0.69-0.83
					c-0.19-0.26-0.35-0.55-0.49-0.84c-0.18-0.38-0.32-0.76-0.42-1.15c-0.1-0.41-0.52-0.65-0.92-0.54l-0.8,0.22
					c-0.39,0.11-0.62,0.5-0.54,0.89c0.06,0.3,0.15,0.6,0.26,0.9c0.19,0.54,0.46,1.07,0.78,1.58c0.13,0.21,0.28,0.42,0.44,0.61
					l-1.42,1.4c-0.18,0.17-0.18,0.46,0,0.63l0.93,0.94c0.17,0.18,0.46,0.18,0.63,0l1.42-1.4c0.45,0.36,0.91,0.63,1.37,0.82
					c0.74,0.31,1.46,0.4,2.16,0.26c0.7-0.14,1.33-0.5,1.93-1.08l0.01-0.01C130.06,211.19,130.43,210.57,130.53,209.95z"/>
			</g>
		</g>
		<path class="st5" d="M308.22,294l-7.01-29.9c0,0-27.52,31.83-42.81,37.68l0,0c-1.3,0.59-2.83,0.33-3.87-0.65
			c-7.38-6.99-36.26-34.55-40.37-42.05c-4.72-8.61-10-35.32-10.37-36.42c-0.26-0.76-9.08-9.43-14.5-14.71
			c-2.73-2.65-6.01-4.66-9.62-5.87l0,0l-1.76,19.25c-0.39,4.26-3.12,8.06-7.16,9.47c-1.23,0.43-2.29,0.5-2.81-0.15
			c-1.74-2.17-20.38-20.72-35.73-14.44c0,0-9.59,4.75-5.97,10.6c3.61,5.85,22.33,9.88,30.86,21.24
			c8.54,11.36,9.69,13.88,15.76,16.79c6.06,2.92,14.36,4.12,19.58,3.92s33.91,43.23,35.56,46.51c0.97,1.94,9.23,13.77,15.85,23.04
			c4.2,5.89,12.67,6.62,17.82,1.55L308.22,294z"/>
		<path class="st6" d="M217.87,256.63c0,0-24.88,10.21-26.61,18.33c4.35,7.07,11.04,13.85,11.04,13.85s24.28-14.95,24.37-19.28
			C226.76,265.19,217.87,256.63,217.87,256.63z"/>
	</g>
	<radialGradient id="SVGID_1_" cx="384.7057" cy="632.4817" r="118.2256" gradientUnits="userSpaceOnUse">
		<stop  offset="0" style="stop-color:#FFFFFF"/>
		<stop  offset="1" style="stop-color:#000000;stop-opacity:0.1"/>
	</radialGradient>
	<ellipse class="st7" cx="312.62" cy="632.74" rx="61.37" ry="5.93"/>
	
		<radialGradient id="SVGID_2_" cx="201.7902" cy="649.4355" r="118.2256" gradientTransform="matrix(0.896 0.1125 -0.4644 3.6971 672.9974 -1784.5796)" gradientUnits="userSpaceOnUse">
		<stop  offset="0" style="stop-color:#FFFFFF"/>
		<stop  offset="1" style="stop-color:#000000;stop-opacity:0.1"/>
	</radialGradient>
	<path class="st8" d="M542.49,638.91c-1.52,12.11-27.37,18.83-57.74,15.01c-30.37-3.81-53.76-16.72-52.24-28.83
		c1.52-12.11,27.37-18.83,57.74-15.01C520.62,613.9,544.01,626.81,542.49,638.91z"/>
	<path class="st5" d="M259.89,607.8c0,0-0.83,0.25-1.65,0.8c-1.43,0.98-2.79,2.91,0.55,6.11c5.24,5.03,38.08,14.97,56.91,12.18
		c18.83-2.79,54.97-12.03,56.8-18.57s-4.06-5.9-4.06-5.9l-36.32,8.69C332.13,611.12,296.91,624.86,259.89,607.8z"/>
	<path class="st5" d="M431.25,614.75c0,0-4.56,3.14-3.79,6.51c0.78,3.37,29.84,21.53,51.11,23.87s63.57-1.91,64.86-10.56
		c0.52-7.09-10.38-3.19-10.38-3.19s-23.35,7.78-43.07,4.41c-19.72-3.37-29.37-6.94-29.37-6.94S432.96,618.87,431.25,614.75z"/>
	<g>
		<path class="st9" d="M520.43,417.71c0,0,6.53,37.74-10.89,69.67c-10.16-2.18-142.97,18.14-209.74-24.68
			c5.81-13.79,11-18.4,18.93-71.11C333.92,403.92,513.9,430.78,520.43,417.71z"/>
		<g>
			<path class="st10" d="M520.44,417.61c0.08,0.17,0.17,0.47,0.18,0.64l0.09,0.55c0.06,0.37,0.11,0.74,0.16,1.11
				c0.1,0.74,0.21,1.48,0.28,2.23c0.18,1.48,0.31,2.97,0.42,4.47c0.13,1.49,0.18,2.99,0.27,4.48l0.12,4.49
				c0.05,5.99-0.3,11.98-1.11,17.92c-0.23,1.48-0.38,2.98-0.67,4.45l-0.85,4.42c-0.28,1.48-0.71,2.92-1.05,4.38l-0.55,2.18
				c-0.18,0.73-0.44,1.43-0.66,2.15l-1.37,4.3l-1.66,4.2l-0.84,2.1l-1,2.03l-1.99,4.06l-0.23,0.47l-0.61-0.08
				c-1.97-0.26-4.31-0.1-6.49-0.02c-2.22,0.11-4.45,0.25-6.67,0.4l-13.37,0.91c-8.92,0.6-17.84,1.09-26.78,1.36
				c-17.87,0.61-35.78,0.4-53.63-0.81c-8.92-0.63-17.82-1.53-26.69-2.68c-8.86-1.2-17.66-2.82-26.39-4.76
				c-8.73-1.93-17.33-4.51-25.71-7.64c-8.38-3.14-16.54-6.94-24.16-11.72l-0.4-0.25l0.19-0.45c2.4-5.72,5.2-11.19,7.19-16.98
				c2.05-5.77,3.56-11.73,4.91-17.72c1.34-5.99,2.43-12.05,3.5-18.1l1.51-9.1l1.4-9.13l0.25-1.62l1.3,1.02
				c0.73,0.57,1.64,1.06,2.57,1.49c0.94,0.44,1.91,0.83,2.89,1.21c1.97,0.74,4,1.39,6.03,2c4.08,1.22,8.21,2.28,12.37,3.27
				c8.31,1.97,16.69,3.72,25.09,5.35c16.8,3.26,33.71,5.97,50.65,8.49c16.94,2.51,33.93,4.62,50.97,6.29
				c8.52,0.81,17.06,1.46,25.61,1.77c4.27,0.15,8.55,0.21,12.82,0.02c2.13-0.11,4.27-0.27,6.37-0.63c1.05-0.18,2.09-0.41,3.1-0.75
				c0.5-0.18,0.99-0.38,1.44-0.65c0.22-0.14,0.44-0.29,0.63-0.46c0.1-0.08,0.17-0.19,0.26-0.28
				C520.21,417.88,520.34,417.71,520.44,417.61z M520.42,417.81c-0.04,0.13-0.03,0.2-0.12,0.3c-0.09,0.1-0.17,0.22-0.28,0.31
				c-0.2,0.19-0.42,0.35-0.65,0.51c-0.46,0.29-0.96,0.51-1.47,0.71c-1.02,0.37-2.07,0.63-3.13,0.83c-2.12,0.41-4.26,0.63-6.4,0.79
				c-4.29,0.3-8.58,0.34-12.87,0.29c-8.58-0.12-17.15-0.66-25.7-1.32c-17.1-1.33-34.14-3.38-51.13-5.69
				c-16.99-2.32-33.92-5.12-50.78-8.32c-8.43-1.61-16.83-3.34-25.18-5.4c-4.17-1.02-8.33-2.11-12.46-3.37
				c-2.06-0.63-4.12-1.31-6.15-2.08c-1.02-0.39-2.03-0.81-3.03-1.28c-1-0.48-1.99-1-2.95-1.76l1.55-0.6l-1.45,9.14l-1.57,9.12
				c-1.12,6.07-2.31,12.13-3.73,18.15c-1.43,6.01-3.03,12-5.18,17.82c-2.1,5.85-4.99,11.35-7.43,16.96l-0.22-0.7
				c15,9.6,32.05,15.67,49.39,19.69c8.69,2.02,17.5,3.48,26.34,4.65c8.85,1.12,17.75,1.85,26.66,2.33
				c17.82,0.92,35.67,0.76,53.5,0.15c8.91-0.35,17.82-0.8,26.74-1.33l13.37-0.82c2.23-0.13,4.46-0.26,6.7-0.36
				c2.27-0.06,4.42-0.25,6.89,0.09l-0.84,0.38l1.98-3.97l0.99-1.99l0.85-2.05l1.69-4.11l1.42-4.22c0.23-0.71,0.49-1.4,0.69-2.12
				l0.58-2.15c0.36-1.44,0.81-2.86,1.11-4.31l0.91-4.36c0.31-1.45,0.48-2.93,0.73-4.4c0.86-5.88,1.39-11.82,1.49-17.78l0-4.47
				c-0.05-1.49-0.06-2.98-0.15-4.47c-0.08-1.49-0.17-2.98-0.31-4.46c-0.05-0.74-0.14-1.48-0.22-2.22c-0.04-0.37-0.08-0.74-0.13-1.11
				l-0.07-0.55C520.37,418.07,520.39,418.01,520.42,417.81z"/>
		</g>
	</g>
	<g>
		<path class="st11" d="M335.37,85.33c0,0,71.12-11.61,204.66-20.32c-18.14,44.27-29.03,149.5-21.05,232.96s0.73,161.11,0.73,161.11
			s-33.38-42.82-70.4,7.26c-14.51-0.73-70.4,0-70.4,0s-1.17-64.35-67.94-33.14c2.9-18.87,20.12-94.73,16.41-125.79
			C321.58,258.84,318.56,226.07,335.37,85.33z"/>
		<g>
			<path class="st12" d="M335.29,85.26c2.23-0.41,4.26-0.7,6.41-1.04l6.36-0.95l12.73-1.79c8.49-1.17,17-2.25,25.51-3.3
				c17.02-2.09,34.07-3.88,51.13-5.6c17.06-1.7,34.14-3.24,51.23-4.62l25.64-1.99l25.66-1.8l1.32-0.09l-0.48,1.26
				c-2.93,7.67-5.49,15.5-7.47,23.51l-1.52,5.99c-0.52,1.99-0.88,4.03-1.34,6.04c-0.87,4.03-1.79,8.05-2.48,12.12
				c-3.06,16.21-5.33,32.58-6.97,49.01c-0.48,4.1-0.83,8.21-1.18,12.33c-0.34,4.11-0.77,8.22-1,12.35l-0.81,12.36l-0.56,12.38
				c-0.59,16.5-0.88,33.03-0.33,49.55c0.05,4.13,0.27,8.26,0.48,12.38c0.23,4.12,0.35,8.25,0.73,12.37
				c0.64,8.23,1.31,16.47,2.01,24.71l0.26,3.09l0.2,3.09l0.39,6.19l0.39,6.19l0.28,6.2c0.44,8.26,0.7,16.52,0.93,24.79
				c0.41,16.53,0.35,33.08-0.04,49.61c-0.44,16.53-1.18,33.06-2.54,49.56l-0.11,1.32l-0.88-1.04c-4.47-5.29-10.05-9.77-16.25-12.88
				c-3.11-1.54-6.41-2.7-9.82-3.32c-3.4-0.62-6.9-0.69-10.31-0.18c-3.41,0.5-6.73,1.57-9.87,3.01c-1.52,0.83-3.1,1.55-4.53,2.55
				c-0.72,0.48-1.48,0.9-2.17,1.43l-2.08,1.57c-5.49,4.28-10.13,9.6-14.29,15.21l-0.25,0.34l-0.43-0.02
				c-5.83-0.22-11.7-0.23-17.56-0.25l-17.59,0.06c-11.73,0.07-23.46,0.19-35.19,0.35l-0.91,0.01l-0.05-0.94
				c-0.4-7.69-2.24-15.49-5.65-22.42c-1.72-3.46-3.9-6.69-6.59-9.41c-2.68-2.73-5.9-4.92-9.43-6.37c-3.53-1.46-7.35-2.18-11.18-2.39
				l-2.89-0.06c-0.96,0.04-1.93,0.13-2.89,0.18l-1.45,0.1l-1.44,0.22l-2.88,0.44c-7.65,1.46-15.02,4.25-22.14,7.51l-1.81,0.83
				l0.32-1.95c1.19-7.25,2.63-14.38,4-21.55c1.37-7.16,2.74-14.32,4.04-21.49c2.59-14.34,4.99-28.72,6.78-43.16
				c0.83-7.23,1.62-14.46,1.92-21.71c0.06-1.81,0.24-3.63,0.21-5.43l0-5.43c-0.18-3.6-0.43-7.17-0.9-10.81
				c-0.85-7.25-1.6-14.51-2.25-21.79c-0.29-3.64-0.59-7.28-0.81-10.93c-0.18-3.65-0.46-7.29-0.54-10.95
				c-1.06-29.23,0.87-58.42,3.33-87.48C328.26,143.24,331.67,114.28,335.29,85.26z M335.44,85.39c-3.23,28.91-6.25,57.95-8.68,87.01
				c-2.28,29.06-4.03,58.22-2.79,87.32c0.1,3.64,0.4,7.27,0.6,10.9c0.25,3.63,0.57,7.26,0.88,10.88c0.7,7.25,1.49,14.49,2.38,21.72
				c0.49,3.59,0.77,7.29,0.98,10.97l0.03,5.51c0.02,0.92-0.01,1.84-0.06,2.75l-0.12,2.75c-0.3,7.33-1.09,14.6-1.91,21.86
				c-1.78,14.51-4.17,28.92-6.76,43.28c-1.29,7.18-2.65,14.35-4.02,21.52c-1.36,7.16-2.79,14.33-3.96,21.48l-1.49-1.12
				c7.22-3.33,14.75-6.17,22.65-7.65l2.98-0.45l1.49-0.22l1.51-0.1c1.01-0.06,2.01-0.15,3.02-0.18l3.03,0.07
				c4.04,0.23,8.09,1.01,11.86,2.58c3.78,1.56,7.22,3.92,10.07,6.83c2.86,2.91,5.14,6.32,6.93,9.94c1.79,3.62,3.1,7.44,4.07,11.34
				c0.92,3.91,1.56,7.85,1.72,11.92l-0.96-0.93c11.74-0.13,23.47-0.21,35.21-0.25l17.61,0.04c5.87,0.06,11.74,0.1,17.63,0.36
				l-0.68,0.32c4.26-5.67,9-11.05,14.67-15.42l2.14-1.6c0.71-0.54,1.5-0.97,2.25-1.46c1.48-1.01,3.11-1.76,4.69-2.6
				c3.27-1.47,6.72-2.57,10.29-3.07c3.56-0.51,7.2-0.42,10.73,0.25c3.53,0.67,6.94,1.88,10.13,3.49c6.37,3.25,11.99,7.8,16.58,13.3
				l-0.98,0.29c1.43-16.45,2.22-32.97,2.74-49.48c0.46-16.52,0.59-33.05,0.25-49.57c-0.2-8.26-0.4-16.52-0.84-24.77l-0.3-6.19
				l-0.41-6.18l-0.41-6.18l-0.21-3.09l-0.27-3.09c-0.72-8.23-1.42-16.46-2.08-24.71c-0.39-4.12-0.52-8.25-0.77-12.38
				c-0.24-4.13-0.49-8.26-0.57-12.39c-0.68-16.53-0.52-33.09-0.06-49.62l0.46-12.4l0.72-12.39c0.2-4.13,0.59-8.25,0.91-12.38
				c0.32-4.12,0.64-8.25,1.09-12.36c1.6-16.47,3.84-32.89,6.88-49.17c0.68-4.08,1.6-8.13,2.46-12.18c0.45-2.02,0.83-4.06,1.35-6.07
				l1.54-6.02c2.01-8.04,4.62-15.94,7.61-23.7l0.84,1.17l-25.65,1.73l-25.64,1.91c-17.09,1.36-34.17,2.74-51.24,4.32
				c-17.07,1.57-34.12,3.31-51.16,5.18c-8.52,0.95-17.03,1.92-25.54,2.99l-12.75,1.64L335.44,85.39z"/>
		</g>
	</g>
	<g>
		<path class="st13" d="M352.54,96.94L520.43,81.7c0,0-26.85,103.78-18.14,172.73s8.13,156.26,5.08,174.18
			c-12.34-3.63-49.35-8.71-58.78,27.58c-6.53,1.45-58.78,0-58.78,0s-6.53-47.9-65.32-42.82c9.43-58.06,15.24-85.64,10.89-126.28
			C331.01,246.44,331.25,128.87,352.54,96.94z"/>
		<path class="st14" d="M352.49,96.85l41.86-4.08l41.95-4.02l42.01-3.98l42.05-3.89l1.16-0.11l-0.28,1.14
			c-3.5,14.08-6.45,28.32-9.11,42.6c-2.66,14.28-5.02,28.62-6.82,43.03c-1.72,14.42-3.22,28.87-3.79,43.38
			c-0.51,14.5-0.35,29.04,1.27,43.47c1.71,14.45,3.01,28.95,4.05,43.46c1.06,14.51,1.68,29.05,2.21,43.58
			c0.52,14.54,0.79,29.08,0.75,43.63c-0.04,7.27-0.12,14.55-0.37,21.82l-0.2,5.46l-0.29,5.45c-0.23,3.64-0.53,7.27-1.06,10.91
			l-0.08,0.58l-0.58-0.16c-5.83-1.65-11.92-2.45-17.98-2.45c-6.05,0.02-12.14,0.91-17.76,3.11c-5.61,2.17-10.66,5.76-14.42,10.45
			c-1.87,2.35-3.42,4.94-4.72,7.65c-1.31,2.71-2.21,5.6-3.03,8.51l-0.14,0.49l-0.43,0.06l-1.92,0.27l-1.86,0.13
			c-1.24,0.09-2.46,0.11-3.7,0.17c-2.46,0.07-4.91,0.12-7.37,0.14c-4.91,0.04-9.81,0.03-14.72-0.01c-9.81-0.07-19.61-0.26-29.42-0.5
			l-0.76-0.02l-0.13-0.78c-0.58-3.4-1.67-6.85-3.02-10.11c-1.34-3.28-3.03-6.41-5-9.36c-3.94-5.88-9.1-10.93-15.15-14.59
			c-3.03-1.81-6.23-3.36-9.56-4.54c-3.35-1.13-6.77-2.1-10.29-2.62c-7-1.18-14.18-1.29-21.29-0.66l-1.36,0.12l0.22-1.34l6.46-39.47
			c2.05-13.16,4.02-26.34,5.06-39.59c0.57-6.62,0.81-13.26,0.86-19.9l-0.03-4.98l-0.16-4.98l-0.08-2.49l-0.15-2.49l-0.31-4.97
			c-0.57-6.6-1.29-13.28-1.65-19.94c-0.4-6.67-0.65-13.34-0.82-20.01c-0.33-13.34-0.3-26.69,0.05-40.03
			c0.34-13.34,1.03-26.67,2.1-39.97c1.13-13.29,2.63-26.57,5.09-39.7c1.25-6.56,2.72-13.08,4.65-19.47
			C346.47,108.82,348.78,102.53,352.49,96.85z M352.59,97.02c-1.69,2.81-3.26,5.75-4.44,8.87l-0.92,2.32l-0.8,2.36
			c-0.26,0.79-0.55,1.57-0.79,2.37l-0.7,2.4c-1.84,6.4-3.22,12.92-4.38,19.47c-2.24,13.13-3.68,26.38-4.71,39.66
			c-0.98,13.28-1.58,26.6-1.82,39.92c-0.26,13.32-0.19,26.64,0.23,39.96c0.21,6.65,0.51,13.31,0.95,19.94
			c0.41,6.65,1.16,13.22,1.79,19.9c1.12,13.34,1.08,26.78-0.01,40.11c-1.03,13.34-3,26.57-5.03,39.75
			c-2.08,13.18-4.29,26.33-6.43,39.48l-1.14-1.22c7.25-0.62,14.6-0.49,21.82,0.75c3.62,0.55,7.16,1.56,10.63,2.75
			c3.46,1.24,6.77,2.85,9.92,4.75c6.29,3.82,11.65,9.11,15.71,15.22c2.03,3.06,3.77,6.31,5.14,9.7c1.38,3.41,2.49,6.87,3.11,10.58
			l-0.89-0.8c9.79,0.27,19.59,0.49,29.39,0.64c4.9,0.07,9.8,0.12,14.69,0.11c2.45,0,4.89-0.03,7.33-0.09
			c1.22-0.05,2.44-0.06,3.65-0.14l1.81-0.11l1.73-0.22l-0.57,0.55c0.86-2.98,1.81-5.95,3.18-8.75c1.36-2.8,2.99-5.48,4.95-7.91
			c3.95-4.85,9.23-8.55,15.04-10.75c5.82-2.23,12.05-3.09,18.22-3.07c6.18,0.04,12.33,0.89,18.28,2.59l-0.66,0.41
			c0.53-3.56,0.84-7.18,1.09-10.79l0.32-5.44l0.23-5.44c0.29-7.26,0.4-14.53,0.47-21.79c0.11-14.54-0.1-29.07-0.55-43.61
			c-0.46-14.53-1.22-29.05-2.3-43.55c-1.07-14.5-2.46-28.97-4.32-43.38c-1.76-14.48-2.04-29.09-1.66-43.64l0.49-10.91
			c0.18-3.64,0.53-7.26,0.79-10.89l0.43-5.45l0.57-5.43c0.41-3.62,0.73-7.25,1.22-10.85c3.62-28.9,8.96-57.56,15.99-85.83l0.88,1.03
			l-41.9,3.73l-41.94,3.64L352.59,97.02z"/>
	</g>
	<path class="st14" d="M381.77,94.28c0,0,6.11,32.03-40.83,36.57c0,0,1.2-22.31,11.6-33.92C372.41,95.13,381.77,94.28,381.77,94.28z
		"/>
	<path class="st14" d="M520.43,81.7l-8.54,39.08c0,0-37.84-10-27.71-35.79C503.09,83.27,520.43,81.7,520.43,81.7z"/>
	<g>
		<path class="st14" d="M355.54,416.48c0-0.22,0.05-0.28,0.06-0.4l0.08-0.32l0.17-0.64c0.12-0.43,0.25-0.85,0.39-1.27
			c0.28-0.84,0.58-1.67,0.93-2.49c0.68-1.63,1.44-3.23,2.32-4.78c1.73-3.09,3.8-6,6.17-8.65c4.74-5.3,10.61-9.6,17.07-12.61
			c3.22-1.52,6.56-2.79,9.99-3.74c1.7-0.54,3.44-0.89,5.17-1.31c1.74-0.33,3.49-0.69,5.25-0.94c7.04-1.03,14.16-1.14,21.24-0.67
			c7.07,0.54,14.1,1.87,20.82,4.12c3.33,1.21,6.65,2.48,9.77,4.15c1.6,0.75,3.11,1.69,4.65,2.55c1.48,0.96,3,1.87,4.42,2.94
			c1.46,1,2.81,2.14,4.19,3.25c1.33,1.17,2.65,2.33,3.91,3.58c2.53,2.47,4.87,5.13,6.98,7.97c4.18,5.7,7.74,11.89,9.92,18.72
			l0.24,0.75l-0.85-0.07c-4.4-0.34-8.96,0.23-13.21,1.5c-4.26,1.28-8.31,3.3-11.77,6.08c-1.73,1.38-3.36,2.9-4.78,4.6
			c-0.38,0.41-0.73,0.84-1.06,1.28c-0.34,0.44-0.69,0.87-1.01,1.32c-0.61,0.93-1.28,1.81-1.82,2.79c-2.29,3.81-4,7.97-5.23,12.26
			l-0.2,0.69l-0.73,0.03c-9.83,0.4-19.63,0.35-29.43,0.3c-9.8-0.05-19.6-0.16-29.4-0.41l-0.75-0.02l-0.12-0.75
			c-0.34-2.15-0.94-4.37-1.63-6.5c-0.7-2.14-1.53-4.25-2.49-6.29c-1.91-4.09-4.3-7.96-7.17-11.47c-1.43-1.76-3-3.39-4.66-4.94
			c-1.66-1.54-3.45-2.94-5.28-4.28c-1.88-1.27-3.8-2.51-5.84-3.52c-1-0.55-2.05-1-3.08-1.48
			C357.72,417.35,356.59,416.93,355.54,416.48z M355.72,416.39c1.09,0.38,2.13,0.69,3.18,1.12c1.06,0.44,2.14,0.85,3.17,1.36
			c2.1,0.94,4.09,2.11,6.05,3.32c3.88,2.51,7.38,5.59,10.43,9.08c3.02,3.51,5.63,7.39,7.65,11.57c1.02,2.08,1.91,4.23,2.67,6.43
			c0.76,2.21,1.4,4.41,1.82,6.78l-0.87-0.77l29.38,0.13l14.69-0.04c4.89-0.04,9.79-0.04,14.66-0.2l-0.92,0.72
			c1.31-4.42,3.12-8.73,5.55-12.68c2.41-3.96,5.53-7.53,9.23-10.35c3.68-2.85,7.95-4.91,12.41-6.14c2.23-0.61,4.52-1.03,6.82-1.23
			c2.31-0.2,4.6-0.24,6.94,0.03l-0.61,0.69c-0.95-3.3-2.32-6.56-3.91-9.66c-1.59-3.11-3.43-6.1-5.51-8.92
			c-4.16-5.62-9.14-10.68-14.92-14.65c-5.69-4.09-12.13-7.04-18.78-9.14c-6.68-2.04-13.63-3.14-20.59-3.52
			c-6.96-0.43-13.97-0.15-20.88,0.76c-1.73,0.22-3.44,0.55-5.15,0.86c-1.69,0.39-3.41,0.72-5.07,1.23c-3.36,0.9-6.64,2.1-9.79,3.55
			c-3.15,1.46-6.2,3.14-9.05,5.13c-2.84,2-5.51,4.26-7.89,6.8c-2.37,2.55-4.53,5.3-6.36,8.29c-0.92,1.48-1.74,3.04-2.48,4.62
			c-0.37,0.79-0.71,1.6-1.04,2.41c-0.16,0.41-0.31,0.82-0.45,1.23l-0.21,0.62l-0.1,0.31C355.78,416.24,355.77,416.39,355.72,416.39z
			"/>
	</g>
	<g>
		<path class="st14" d="M344.55,174.79c1.79-11.36,11.25-20.33,23.19-21.51c4.05-0.4,8.99-0.89,14.29,0.93
			c21.82,7.49,23.79,39.91,22.94,59.11c-0.36,8.06-6.96,14.41-15.03,14.41h-49C340.94,227.73,341.5,194.13,344.55,174.79z"/>
		<path class="st3" d="M344.5,174.78c1.19-7.8,6.24-14.82,13.16-18.65c1.73-0.97,3.57-1.71,5.47-2.29c1.9-0.53,3.89-0.88,5.84-1.06
			c3.9-0.41,7.95-0.48,11.83,0.58c1.94,0.5,3.76,1.35,5.52,2.27c1.74,0.97,3.35,2.16,4.85,3.47c1.46,1.35,2.79,2.84,3.97,4.43
			c1.14,1.62,2.21,3.29,3.09,5.06c1.8,3.52,3.09,7.27,4.07,11.07c0.97,3.81,1.68,7.68,2.12,11.58c0.46,3.9,0.74,7.82,0.84,11.74
			c0.05,1.96,0.07,3.92,0.05,5.89c0,0.98-0.03,1.96-0.05,2.94l-0.05,1.47l-0.13,1.49c-0.49,3.96-2.64,7.69-5.83,10.13
			c-1.58,1.23-3.41,2.14-5.35,2.67c-1.93,0.56-4,0.58-5.93,0.58c-15.68,0.09-31.36,0.13-47.04,0.08l-0.52,0l0.01-0.51
			c0.08-4.43,0.27-8.85,0.48-13.28c0.2-4.42,0.48-8.84,0.81-13.26c0.34-4.41,0.68-8.83,1.15-13.23
			C343.31,183.55,343.81,179.15,344.5,174.78z M344.6,174.8c-0.65,4.38-1.11,8.78-1.5,13.18c-0.36,4.41-0.61,8.83-0.82,13.24
			c-0.4,8.84-0.66,17.68-0.84,26.52l-0.51-0.51c15.68-0.04,31.36-0.01,47.04,0.08c1.98,0.03,3.88,0.04,5.74-0.46
			c1.85-0.47,3.6-1.32,5.14-2.47c3.08-2.29,5.2-5.84,5.74-9.66l0.14-1.44l0.07-1.47c0.04-0.98,0.08-1.96,0.1-2.93
			c0.06-1.96,0.05-3.91,0.01-5.87c-0.09-3.91-0.31-7.83-0.8-11.71c-0.97-7.74-2.8-15.5-6.46-22.39c-0.9-1.73-1.97-3.35-3.12-4.91
			c-1.18-1.54-2.5-2.95-3.92-4.26c-1.46-1.26-3.02-2.4-4.72-3.33c-1.7-0.89-3.48-1.67-5.34-2.18c-3.71-1.07-7.64-1.05-11.52-0.69
			c-1.96,0.13-3.86,0.42-5.74,0.89c-1.86,0.52-3.69,1.2-5.41,2.11c-1.7,0.93-3.36,1.98-4.82,3.27c-0.77,0.6-1.42,1.33-2.12,2.01
			c-0.62,0.75-1.31,1.45-1.85,2.27C346.77,167.23,345.27,170.95,344.6,174.8z"/>
	</g>
	<g>
		<path class="st14" d="M486.56,174.79c-1.79-11.36-11.25-20.33-23.19-21.51c-4.05-0.4-8.99-0.89-14.29,0.93
			c-21.82,7.49-23.79,39.91-22.94,59.11c0.36,8.06,6.96,14.41,15.03,14.41h49C490.17,227.73,489.61,194.13,486.56,174.79z"/>
		<path class="st3" d="M486.51,174.8c-0.67-3.85-2.17-7.57-4.49-10.71c-0.54-0.82-1.22-1.52-1.85-2.27
			c-0.7-0.67-1.35-1.41-2.12-2.01c-1.46-1.3-3.11-2.34-4.82-3.27c-1.72-0.91-3.55-1.59-5.41-2.11c-1.89-0.47-3.78-0.76-5.74-0.89
			c-3.88-0.37-7.81-0.38-11.52,0.69c-1.85,0.51-3.63,1.29-5.34,2.18c-1.69,0.93-3.25,2.07-4.72,3.33c-1.42,1.31-2.74,2.72-3.92,4.26
			c-1.15,1.56-2.22,3.18-3.12,4.91c-3.66,6.89-5.49,14.65-6.46,22.39c-0.5,3.88-0.71,7.8-0.8,11.71c-0.04,1.96-0.05,3.92,0.01,5.87
			c0.02,0.98,0.06,1.96,0.1,2.93l0.07,1.47l0.14,1.44c0.54,3.83,2.66,7.37,5.74,9.66c1.53,1.15,3.29,2,5.14,2.47
			c1.86,0.51,3.76,0.5,5.74,0.46c15.68-0.09,31.36-0.13,47.04-0.08l-0.51,0.51c-0.17-8.84-0.43-17.68-0.84-26.52
			c-0.22-4.42-0.46-8.83-0.82-13.24C487.62,183.57,487.16,179.17,486.51,174.8z M486.61,174.78c0.7,4.37,1.19,8.77,1.63,13.18
			c0.47,4.4,0.82,8.82,1.15,13.23c0.33,4.42,0.61,8.83,0.81,13.26c0.21,4.42,0.4,8.84,0.48,13.28l0.01,0.51l-0.52,0
			c-15.68,0.04-31.36,0.01-47.04-0.08c-1.93,0.01-4-0.01-5.93-0.58c-1.94-0.53-3.77-1.44-5.35-2.67c-3.18-2.44-5.33-6.17-5.83-10.13
			l-0.13-1.49l-0.05-1.47c-0.02-0.98-0.05-1.96-0.05-2.94c-0.02-1.96,0-3.93,0.05-5.89c0.1-3.92,0.38-7.84,0.84-11.74
			c0.44-3.9,1.15-7.77,2.12-11.58c0.98-3.8,2.27-7.55,4.07-11.07c0.88-1.77,1.94-3.44,3.09-5.06c1.17-1.6,2.51-3.08,3.97-4.43
			c1.5-1.31,3.11-2.5,4.85-3.47c1.76-0.92,3.58-1.76,5.52-2.27c3.87-1.07,7.93-1,11.83-0.58c1.95,0.18,3.93,0.53,5.84,1.06
			c1.89,0.58,3.74,1.32,5.47,2.29C480.37,159.96,485.42,166.99,486.61,174.78z"/>
	</g>
	<g>
		<path class="st11" d="M324.48,280.42l-16.45,17.55l-19.84-39.92l34.87-33.84C323.07,224.21,321.09,246.18,324.48,280.42z"/>
		<g>
			<path class="st12" d="M324.53,280.43c-2.67,2.95-5.31,5.94-8.03,8.9c-2.71,2.97-5.42,5.95-8.17,8.9l-0.39,0.41l-0.26-0.51
				l-5.01-9.96c-1.63-3.34-3.3-6.66-4.9-10.01l-4.83-10.04c-1.6-3.35-3.26-6.68-4.89-10.01l-0.05-0.1l0.08-0.08
				c5.82-5.64,11.55-11.35,17.31-17.05c5.74-5.71,11.52-11.38,17.31-17.04l0.96-0.94l-0.09,1.35c-0.32,4.65-0.48,9.34-0.54,14.02
				c-0.05,4.68-0.01,9.37,0.05,14.05c0.11,4.68,0.26,9.37,0.53,14.05c0.1,2.34,0.31,4.68,0.42,7.02L324.53,280.43z M324.43,280.4
				l-0.77-6.98c-0.23-2.34-0.44-4.67-0.61-7.01c-0.37-4.68-0.62-9.37-0.83-14.06c-0.19-4.69-0.27-9.39-0.22-14.09
				c0.06-4.7,0.15-9.39,0.55-14.1l0.87,0.41c-5.83,5.62-11.68,11.22-17.56,16.79c-5.87,5.58-11.75,11.14-17.56,16.79l0.03-0.18
				c1.68,3.31,3.32,6.64,5.03,9.94l5.09,9.91c1.7,3.3,3.34,6.63,5.02,9.95l4.91,10l-0.64-0.09c2.73-2.9,5.5-5.76,8.28-8.65
				C318.78,286.16,321.62,283.3,324.43,280.4z"/>
		</g>
	</g>
	<g>
		<path class="st11" d="M516.41,249.66c-0.01-1.8,32.41,32.59,33.37,40.33c-2.9,6.45-18.71,29.67-18.71,29.67l-10.65-4.48
			C520.42,315.18,516.48,265.46,516.41,249.66z"/>
		<g>
			<path class="st12" d="M516.36,249.66c-0.01-0.05,0.05-0.13,0.11-0.12c0.05,0,0.09,0.02,0.12,0.03c0.07,0.03,0.13,0.07,0.19,0.1
				c0.12,0.08,0.23,0.16,0.34,0.24c0.22,0.17,0.43,0.35,0.64,0.53c0.42,0.36,0.82,0.73,1.23,1.11c0.8,0.75,1.59,1.52,2.37,2.3
				l4.64,4.7c3.06,3.17,6.09,6.37,9,9.68c1.45,1.66,2.89,3.33,4.31,5.02c1.39,1.71,2.76,3.44,4.1,5.2c1.34,1.76,2.61,3.56,3.8,5.43
				c0.59,0.94,1.16,1.89,1.67,2.88c0.49,1,1,2.01,1.16,3.18l0.01,0.08l-0.03,0.06c-0.66,1.33-1.38,2.61-2.13,3.86
				c-0.74,1.27-1.51,2.51-2.27,3.76l-4.7,7.41c-3.18,4.91-6.32,9.85-9.57,14.72l-0.15,0.22l-0.25-0.1l-10.7-4.36l-0.25-0.1
				l-0.02-0.28l-1.32-16.36l-1.11-16.38c-0.31-5.46-0.57-10.93-0.75-16.4l-0.26-8.21C516.43,255.13,516.37,252.39,516.36,249.66z
				 M516.46,249.66c0.09,5.47,0.42,10.93,0.83,16.39l1.25,16.36l2.34,32.74l-0.28-0.38l10.6,4.59l-0.4,0.12
				c3.32-4.81,6.65-9.62,9.83-14.53c1.6-2.45,3.17-4.91,4.68-7.42c1.51-2.5,3.02-5.02,4.23-7.65l-0.02,0.14
				c-0.17-1.02-0.68-2.01-1.19-2.96c-0.53-0.95-1.11-1.87-1.72-2.78c-1.22-1.82-2.55-3.56-3.88-5.31c-1.34-1.74-2.72-3.45-4.12-5.14
				c-1.38-1.71-2.79-3.4-4.21-5.07c-2.85-3.35-5.71-6.7-8.67-9.95c-1.48-1.63-2.96-3.26-4.51-4.82c-0.77-0.79-1.55-1.57-2.34-2.33
				c-0.4-0.38-0.8-0.76-1.21-1.12c-0.21-0.18-0.41-0.36-0.63-0.53c-0.11-0.08-0.22-0.17-0.33-0.24
				C516.63,249.69,516.43,249.6,516.46,249.66z"/>
		</g>
	</g>
	<g>
		<path class="st13" d="M547.63,294c0,0,27.31,16.95,38.92,70.82c-5.48-3.23-25.48,0-25.48,0s7.38-21.29-24.37-53.56L547.63,294z"/>
		<g>
			<path class="st12" d="M547.62,293.95c5.83,3.83,10.56,8.93,14.85,14.32c2.12,2.72,4.09,5.56,5.93,8.48
				c1.85,2.91,3.55,5.92,5.09,9c3.15,6.14,5.65,12.59,7.81,19.12c2.15,6.54,3.94,13.19,5.43,19.91l0.08,0.37l-0.35-0.18
				c-1.85-0.98-4.06-1.15-6.17-1.28c-2.13-0.1-4.27-0.04-6.41,0.08c-4.27,0.26-8.53,0.77-12.75,1.46l-0.64,0.1l0.18-0.65
				c0.64-2.35,0.74-4.93,0.63-7.42c-0.12-2.51-0.52-5.01-1.11-7.45c-1.19-4.9-3.14-9.6-5.5-14.07c-4.82-8.91-11.15-16.96-18.2-24.27
				l-0.16-0.17l0.12-0.19l5.6-8.64L547.62,293.95z M547.65,294.05l-5.36,8.74l-5.34,8.62l-0.04-0.36c3.61,3.61,7.05,7.39,10.23,11.4
				c3.19,4,6.03,8.29,8.47,12.79c1.2,2.27,2.3,4.59,3.26,6.97c0.94,2.39,1.71,4.85,2.3,7.36c0.59,2.5,0.97,5.06,1.07,7.64
				c0.09,2.58-0.02,5.17-0.78,7.73L561,364.4c4.27-0.61,8.55-1.04,12.85-1.22c2.15-0.08,4.31-0.1,6.46,0.04
				c1.08,0.08,2.15,0.19,3.22,0.4c1.06,0.21,2.13,0.48,3.1,1.03l-0.26,0.19c-2.79-13.45-7.4-26.52-13.66-38.71
				c-3.12-6.1-6.68-11.97-10.82-17.43c-2.06-2.74-4.26-5.37-6.62-7.85C552.92,298.41,550.38,296.01,547.65,294.05z"/>
		</g>
	</g>
	<g>
		<path class="st14" d="M562.15,362.48c0,0-5.6,1.36-5.28,2.33c0.32,0.97-0.02,12.9-0.02,12.9l35.5-2.26l-2.38-9.09
			c-0.33-1.24-1.34-2.17-2.6-2.4C582.92,363.19,578.57,360.04,562.15,362.48z"/>
		<g>
			<path class="st12" d="M562.16,362.53c-1.51,0.41-3.05,0.81-4.44,1.52c-0.31,0.17-0.74,0.41-0.76,0.7
				c0.09,0.37,0.11,0.79,0.14,1.17c0.05,0.79,0.08,1.58,0.11,2.36l0.1,4.72c0.03,1.57-0.01,3.15-0.02,4.72l-0.46-0.44
				c2.96-0.21,5.92-0.37,8.88-0.48c2.96-0.12,5.93-0.21,8.89-0.39c2.96-0.16,5.92-0.38,8.87-0.62l8.86-0.75l-0.37,0.51l-2.55-9.28
				c-0.23-0.64-0.7-1.18-1.3-1.5c-0.31-0.17-0.6-0.25-0.99-0.33c-0.41-0.08-0.82-0.17-1.21-0.28c-1.59-0.42-3.1-0.92-4.65-1.26
				c-3.09-0.72-6.28-1.01-9.49-1.05c-1.6-0.02-3.21,0.04-4.82,0.14C565.36,362.13,563.76,362.34,562.16,362.53z M562.15,362.43
				c1.59-0.24,3.19-0.48,4.8-0.65c1.6-0.21,3.21-0.37,4.83-0.46c3.23-0.21,6.52-0.09,9.72,0.61c1.6,0.34,3.16,0.84,4.69,1.23
				c0.38,0.1,0.76,0.18,1.15,0.25c0.4,0.07,0.9,0.2,1.3,0.43c0.83,0.44,1.46,1.21,1.76,2.09c0.83,3.2,1.61,6.26,2.38,9.41l0.12,0.49
				l-0.49,0.02l-8.89,0.38c-2.96,0.13-5.92,0.29-8.88,0.5c-2.96,0.2-5.91,0.48-8.86,0.74c-2.95,0.27-5.91,0.48-8.87,0.65l-0.48,0.03
				l0.02-0.47l0.39-9.42c0.02-0.79,0.04-1.57,0.04-2.35c-0.01-0.4,0-0.77-0.08-1.17c0-0.28,0.21-0.42,0.36-0.55
				c0.17-0.12,0.34-0.22,0.52-0.31C559.1,363.24,560.62,362.82,562.15,362.43z"/>
		</g>
	</g>
	<g>
		<path class="st13" d="M613.93,423.89c0-1.27-10.23-29.97-20.99-47.49c-0.36-0.58-1.01-0.92-1.69-0.88
			c-7.02,0.38-24.97,0.94-31.75,1.15c-1.83,0.06-3.56,0.82-4.85,2.13c-3.89,3.96-11.81,13.66-14.63,29.23
			c-3.79,20.97-1.89,45.16-3.32,51.61c-1.43,6.45,14.66,6.22,20.16-3.18c5.5-9.4,6.72-23.48,6.72-23.48s2.33,48.04,3.94,57.35
			c0,0,2.46,16.79,14.36,11.46c8.44-3.78,0.2-16.87,1.38-29.9c1.19-13.04-2-30-2-30s6.41,43.78,11.09,55.63
			c4.69,11.85,17.72,11.26,15.94,1.78c-1.78-9.48-11.57-44.84-11.56-54.22c0,0,13.93,44.74,17.48,48.89
			c3.56,4.15,13.04,2.8,12.44-3.64s-17.63-49.37-17.63-49.37s11.3,28.52,17.66,35.23c4.57,4.81,11.45-2.52,4.12-15.41
			C625.54,451.5,613.93,423.89,613.93,423.89z"/>
		<g>
			<path class="st12" d="M613.88,423.9c-0.56-2.28-1.45-4.48-2.24-6.69c-0.82-2.21-1.67-4.4-2.55-6.59
				c-1.75-4.37-3.58-8.71-5.52-13.01c-1.94-4.29-3.98-8.54-6.15-12.71c-1.09-2.09-2.22-4.15-3.41-6.18l-0.9-1.51l-0.45-0.74
				c-0.14-0.21-0.34-0.38-0.56-0.5c-0.22-0.12-0.47-0.18-0.73-0.18l-0.86,0.04l-1.77,0.09c-9.42,0.43-18.84,0.74-28.26,1.05
				c-0.59,0.03-1.18,0.01-1.73,0.1c-0.56,0.08-1.1,0.23-1.62,0.45c-1.05,0.43-1.93,1.12-2.7,2c-1.61,1.69-3.08,3.53-4.43,5.43
				c-2.71,3.82-4.9,8-6.59,12.36c-1.68,4.38-2.77,8.94-3.46,13.59c-0.72,4.64-1.17,9.33-1.48,14.02c-0.3,4.69-0.48,9.4-0.58,14.1
				c-0.11,4.71-0.12,9.42-0.26,14.14c-0.04,1.18-0.09,2.36-0.18,3.55c-0.05,0.59-0.1,1.19-0.18,1.78c-0.06,0.58-0.23,1.23-0.28,1.72
				c-0.11,1.06,0.51,2.01,1.46,2.54c0.94,0.55,2.08,0.8,3.21,0.9c2.28,0.18,4.62-0.22,6.79-0.99c2.17-0.78,4.21-1.96,5.87-3.56
				c0.83-0.8,1.56-1.69,2.15-2.68c0.57-1.01,1.14-2.03,1.61-3.1c0.98-2.12,1.78-4.33,2.46-6.57c1.32-4.5,2.24-9.13,2.74-13.79
				l0.58,0.01c0.56,11.75,1.18,23.5,1.92,35.24c0.38,5.87,0.77,11.74,1.34,17.59c0.29,2.92,0.6,5.85,1.61,8.61
				c0.96,2.72,2.4,5.45,4.82,7.08c1.2,0.81,2.64,1.21,4.08,1.17c1.44-0.01,2.86-0.45,4.19-1.03c0.64-0.32,1.27-0.68,1.79-1.17
				c0.51-0.49,0.94-1.07,1.23-1.72c0.58-1.31,0.72-2.79,0.68-4.23c-0.09-2.92-0.74-5.8-1.27-8.69c-0.55-2.89-1.07-5.8-1.26-8.75
				c-0.1-1.48-0.12-2.96-0.03-4.44c0.08-1.48,0.24-2.93,0.25-4.4c0.09-2.93,0.03-5.87-0.15-8.79c-0.37-5.86-1.08-11.7-2.11-17.47
				l0.6-0.1c1.73,11.31,3.61,22.6,5.8,33.82c1.12,5.61,2.28,11.21,3.79,16.71c0.79,2.73,1.56,5.5,3.06,7.85
				c1.47,2.35,3.61,4.34,6.2,5.25c1.28,0.45,2.68,0.63,3.97,0.33c1.29-0.28,2.45-1.07,3.03-2.24c1.28-2.39,0.12-5.32-0.4-8.07
				c-1.28-5.57-2.69-11.12-4.04-16.68c-1.36-5.56-2.7-11.13-3.93-16.72c-0.61-2.8-1.2-5.6-1.72-8.43c-0.49-2.83-1.01-5.65-1.07-8.59
				l-0.07-3.31l0.99,3.17c3.02,9.62,6.13,19.22,9.41,28.76c1.65,4.76,3.33,9.52,5.2,14.19c0.47,1.16,0.96,2.32,1.49,3.45
				c0.27,0.56,0.54,1.12,0.85,1.64c0.15,0.26,0.31,0.5,0.49,0.7c0.19,0.22,0.4,0.42,0.62,0.6c1.82,1.47,4.45,1.87,6.75,1.33
				c1.15-0.27,2.24-0.82,3.03-1.65c0.79-0.83,1.19-1.95,1.18-3.1c-0.03-1.15-0.39-2.37-0.71-3.57c-0.33-1.21-0.71-2.4-1.09-3.6
				c-1.55-4.79-3.24-9.54-4.97-14.28c-3.46-9.47-7.07-18.9-10.75-28.29l0.73-0.29c3.2,7.97,6.58,15.88,10.41,23.56
				c0.96,1.92,1.96,3.82,3.03,5.68c1.07,1.85,2.2,3.68,3.54,5.32c0.67,0.82,1.43,1.53,2.39,1.84c0.94,0.34,2,0.14,2.8-0.46
				c0.81-0.59,1.37-1.51,1.7-2.48c0.34-0.98,0.49-2.03,0.49-3.08c0-2.11-0.48-4.21-1.23-6.2c-0.36-1-0.82-1.97-1.29-2.92l-1.53-2.83
				c-2-3.82-3.79-7.73-5.58-11.64C620.59,439.75,617.21,431.86,613.88,423.9z M613.98,423.88c3.39,7.88,6.85,15.77,10.47,23.57
				c1.82,3.89,3.66,7.78,5.67,11.57c2.14,3.67,4.15,7.74,4.17,12.18c0,1.1-0.15,2.2-0.51,3.26c-0.35,1.05-0.96,2.06-1.88,2.75
				c-0.91,0.71-2.21,0.95-3.31,0.56c-1.11-0.35-1.99-1.18-2.67-2.01c-1.39-1.69-2.54-3.53-3.62-5.39c-1.08-1.87-2.09-3.77-3.07-5.69
				c-3.88-7.7-7.31-15.59-10.56-23.57l0.73-0.29c3.73,9.38,7.38,18.79,10.9,28.26c1.74,4.74,3.49,9.48,5.04,14.3
				c0.38,1.21,0.76,2.41,1.1,3.64c0.32,1.23,0.7,2.45,0.75,3.83c0.02,1.36-0.48,2.79-1.45,3.79c-0.95,1.01-2.22,1.63-3.52,1.94
				c-2.58,0.59-5.46,0.18-7.6-1.53c-0.26-0.22-0.51-0.46-0.73-0.72c-0.24-0.28-0.42-0.57-0.59-0.85c-0.33-0.57-0.62-1.14-0.89-1.72
				c-0.54-1.16-1.03-2.33-1.51-3.5c-1.88-4.7-3.56-9.47-5.21-14.24c-3.28-9.55-6.38-19.16-9.4-28.79l0.93-0.14
				c0.05,2.79,0.56,5.62,1.05,8.42c0.51,2.81,1.09,5.6,1.7,8.4c1.23,5.58,2.56,11.15,3.91,16.7c1.35,5.56,2.75,11.11,4.03,16.7
				c0.31,1.4,0.64,2.79,0.88,4.23c0.13,0.73,0.14,1.5,0.09,2.26c-0.09,0.76-0.29,1.52-0.65,2.21c-0.7,1.42-2.15,2.38-3.64,2.7
				c-1.51,0.34-3.07,0.13-4.47-0.36c-2.84-1.01-5.11-3.15-6.66-5.63c-0.78-1.24-1.39-2.6-1.86-3.97c-0.48-1.37-0.89-2.75-1.27-4.13
				c-1.5-5.55-2.63-11.17-3.72-16.79c-2.14-11.25-3.97-22.56-5.65-33.88l0.6-0.1c1.01,5.81,1.69,11.67,2.04,17.55
				c0.17,2.94,0.22,5.89,0.12,8.84c-0.02,1.47-0.18,2.96-0.27,4.41c-0.1,1.45-0.08,2.92,0.01,4.38c0.18,2.92,0.68,5.82,1.22,8.71
				c0.51,2.89,1.16,5.78,1.24,8.76c0.03,1.48-0.11,3.01-0.74,4.4c-0.32,0.69-0.78,1.31-1.32,1.83c-0.55,0.53-1.22,0.9-1.89,1.23
				c-1.36,0.6-2.82,1.04-4.32,1.05c-1.5,0.03-3.02-0.4-4.26-1.24c-1.25-0.83-2.25-1.98-3.04-3.24c-0.8-1.26-1.41-2.61-1.9-4.01
				c-1.03-2.79-1.36-5.76-1.66-8.68c-0.6-5.86-1.01-11.73-1.42-17.6c-0.79-11.74-1.46-23.49-2.07-35.24l0.58,0.01
				c-0.48,4.72-1.39,9.37-2.7,13.92c-0.68,2.27-1.48,4.51-2.46,6.67c-0.48,1.09-1.05,2.13-1.63,3.17c-0.62,1.04-1.39,1.99-2.25,2.83
				c-1.73,1.69-3.86,2.92-6.11,3.74c-2.26,0.8-4.67,1.24-7.1,1.05c-1.2-0.1-2.43-0.35-3.54-0.99c-0.55-0.32-1.06-0.76-1.4-1.33
				c-0.36-0.57-0.49-1.27-0.44-1.92c0.46-2.37,0.54-4.64,0.62-7.01c0.21-9.4,0.08-18.85,0.76-28.28c0.33-4.71,0.8-9.42,1.54-14.09
				c0.71-4.67,1.84-9.32,3.56-13.74c1.73-4.42,3.96-8.64,6.72-12.5c1.38-1.93,2.87-3.78,4.52-5.49c0.78-0.88,1.8-1.7,2.94-2.15
				c0.57-0.24,1.17-0.4,1.78-0.48c0.62-0.09,1.22-0.07,1.8-0.1c9.42-0.28,18.84-0.55,28.25-0.94l1.76-0.08l0.9-0.04
				c0.34,0.01,0.67,0.09,0.97,0.25c0.3,0.16,0.56,0.39,0.75,0.67l0.47,0.77l0.9,1.53c1.19,2.04,2.31,4.12,3.39,6.21
				c2.17,4.19,4.16,8.47,6.06,12.79c1.9,4.32,3.69,8.68,5.39,13.07c0.85,2.2,1.68,4.4,2.48,6.62
				C612.57,419.38,613.44,421.58,613.98,423.88z"/>
		</g>
	</g>
	<g>
		<path class="st15" d="M360.09,548.68c2.42-30,15.09-100.63,15.09-100.63s-7.2-28.21-40.08-22.74c0,0-2.38,61.33-4.22,122.59
			C330.88,547.89,347.37,559.53,360.09,548.68z"/>
		<g>
			<path class="st10" d="M360.05,548.66c0.59-8.43,1.59-16.89,2.69-25.29c1.09-8.42,2.32-16.81,3.62-25.19
				c1.27-8.39,2.65-16.76,4.08-25.12c1.45-8.36,2.96-16.71,4.51-25.05l0,0.1c-1.16-4.02-3.18-7.82-5.74-11.15
				c-2.57-3.33-5.78-6.2-9.5-8.19c-1.85-1.01-3.79-1.84-5.81-2.43c-1-0.34-2.04-0.53-3.06-0.78c-1.04-0.16-2.07-0.39-3.12-0.47
				c-4.19-0.45-8.43-0.22-12.58,0.48l0.23-0.26l-0.88,30.65l-0.97,30.65l-1.08,30.64l-1.24,30.64l-0.14-0.27
				c2.13,1.44,4.48,2.62,6.9,3.55c2.42,0.93,4.97,1.57,7.55,1.81c2.58,0.24,5.22,0.08,7.71-0.67
				C355.73,551.62,358.05,550.27,360.05,548.66z M360.14,548.7c-2.02,1.73-4.3,3.1-6.83,3.88c-2.51,0.82-5.2,1.04-7.83,0.86
				c-2.63-0.22-5.23-0.84-7.7-1.75c-2.48-0.92-4.85-2.07-7.08-3.53l-0.14-0.09l0.01-0.18l0.87-30.65l1.03-30.65l1.14-30.64
				l1.23-30.64l0.01-0.22l0.22-0.04c4.2-0.68,8.49-0.88,12.72-0.38c1.06,0.09,2.1,0.32,3.15,0.5c1.03,0.26,2.08,0.46,3.09,0.81
				c2.04,0.61,4,1.47,5.86,2.51c3.72,2.06,6.99,4.92,9.61,8.27c1.32,1.67,2.47,3.47,3.46,5.35c0.99,1.89,1.85,3.83,2.46,5.9
				l0.01,0.04l-0.01,0.06c-1.43,8.36-2.79,16.73-4.15,25.1l-4.07,25.11c-1.34,8.37-2.61,16.76-3.84,25.15
				C362.16,531.85,360.96,540.22,360.14,548.7z"/>
		</g>
	</g>
	<path class="st16" d="M320.61,566.81"/>
	<g>
		<path class="st15" d="M457.68,456.46c0,0-15.06,42.9-12.22,105.13c9.9,3.87,27.41,2.62,27.41,2.62l23.27-120.97
			C496.13,443.24,475.07,435.66,457.68,456.46z"/>
		<g>
			<path class="st10" d="M457.72,456.49c-1.34,4.2-2.46,8.51-3.47,12.81c-1.02,4.31-1.95,8.64-2.77,12.99
				c-1.62,8.7-2.95,17.46-3.89,26.26c-0.94,8.8-1.6,17.63-1.94,26.48c-0.33,8.85-0.38,17.71-0.01,26.56l-0.12-0.16
				c2.14,0.83,4.38,1.38,6.65,1.77c2.27,0.4,4.56,0.66,6.86,0.81c4.6,0.29,9.22,0.28,13.82,0l-0.2,0.17l11.36-60.54l5.8-30.25
				c1.93-10.08,3.93-20.15,5.94-30.22l0.25,0.44c-3.34-1.07-6.96-1.46-10.51-1.36c-3.56,0.12-7.11,0.74-10.47,1.95
				c-1.68,0.6-3.33,1.3-4.89,2.16c-0.8,0.4-1.55,0.88-2.33,1.33c-0.74,0.5-1.51,0.96-2.22,1.51
				C462.68,451.29,460.05,453.78,457.72,456.49z M457.64,456.44c2.29-2.8,4.86-5.34,7.74-7.52c2.86-2.2,6.07-3.96,9.47-5.21
				c3.39-1.27,7-1.95,10.62-2.11c3.63-0.14,7.27,0.19,10.8,1.28l0.32,0.1l-0.06,0.34c-1.87,10.09-3.75,20.19-5.7,30.27l-5.83,30.24
				l-11.91,60.43l-0.03,0.17l-0.16,0.01c-4.63,0.25-9.25,0.22-13.87-0.11c-4.6-0.37-9.25-0.92-13.62-2.55l-0.11-0.04l-0.01-0.12
				c-0.42-8.86-0.58-17.73-0.36-26.6c0.1-4.43,0.31-8.87,0.62-13.29c0.29-4.43,0.7-8.85,1.2-13.26c1.02-8.81,2.33-17.6,4.11-26.29
				C452.64,473.47,454.76,464.85,457.64,456.44z"/>
		</g>
	</g>
	<path class="st17" d="M361.46,537.22c0,0,6.12,2.81,3.68,18.19c-1.21,9.27-1.91,12.04-1.91,12.04s-28.85,9.61-38.75-7.46
		c1.99-7.57,3.21-20.24,3.21-20.24s1.41-5.56,12.24-5.94S361.46,537.22,361.46,537.22z"/>
	<g>
		<path class="st18" d="M325.59,554.9c0,0-7.65-1.73-9.73,9.76c6.5,7.07,23.01,26.24,20.43,47.11c16.47-3.17,32.16-9.35,32.16-9.35
			s6.94-17.24,0.01-28.22c2.5-5.8,2.89-12.83-3.49-17.52c-6.38-4.69-28.42-3.2-28.42-3.2L325.59,554.9z"/>
		<g>
			<path class="st19" d="M325.59,555c-1.28-0.15-2.54,0.1-3.67,0.6c-1.13,0.5-2.09,1.33-2.83,2.3c-0.78,0.95-1.26,2.11-1.74,3.25
				c-0.17,0.6-0.37,1.19-0.53,1.79l-0.37,1.84l-0.15-0.52c1.53,1.6,3.03,3.24,4.49,4.92c1.43,1.7,2.82,3.44,4.14,5.23
				c2.62,3.6,5.03,7.37,6.99,11.39c1.96,4.02,3.43,8.29,4.27,12.69c0.86,4.39,1.02,8.91,0.45,13.34l-0.43-0.4
				c2.74-0.5,5.47-1.07,8.18-1.76c2.7-0.69,5.39-1.44,8.06-2.25c2.67-0.81,5.31-1.71,7.94-2.65c2.62-0.94,5.24-1.93,7.8-2.98
				l-0.39,0.39c0.78-2.22,1.41-4.57,1.88-6.9c0.46-2.34,0.78-4.71,0.88-7.08c0.08-2.37-0.04-4.73-0.48-7.02
				c-0.49-2.28-1.32-4.45-2.5-6.4l-0.28-0.46l0.21-0.51c0.9-2.19,1.53-4.5,1.57-6.8c0.04-1.15-0.11-2.29-0.41-3.37
				c-0.28-1.09-0.73-2.13-1.37-3.06c-0.28-0.49-0.68-0.9-1.03-1.35c-0.41-0.39-0.78-0.83-1.25-1.18l-0.67-0.55l-0.71-0.42
				c-0.44-0.31-1.01-0.49-1.53-0.73c-2.17-0.84-4.59-1.29-7-1.64c-2.42-0.33-4.87-0.5-7.33-0.62c-2.46-0.13-4.93-0.18-7.39-0.17
				c-1.23,0.01-2.48,0.02-3.69,0.07l-3.71,0.35L325.59,555z M325.6,554.8l7.35-1.22c1.22-0.2,2.43-0.41,3.67-0.58
				c1.26-0.11,2.49-0.19,3.74-0.25c4.97-0.27,9.96-0.29,14.97,0.22c2.5,0.29,5.01,0.66,7.49,1.53c0.62,0.25,1.24,0.43,1.83,0.82
				l0.9,0.53c0.27,0.2,0.52,0.41,0.78,0.61c0.53,0.39,0.98,0.89,1.47,1.35c0.43,0.52,0.9,1,1.25,1.58c1.56,2.22,2.26,5,2.18,7.64
				c-0.05,2.66-0.75,5.22-1.79,7.59l-0.08-0.97c1.31,2.23,2.18,4.66,2.67,7.14c0.43,2.49,0.52,5,0.39,7.49
				c-0.14,2.49-0.56,4.93-1.11,7.34c-0.57,2.41-1.24,4.76-2.19,7.07l-0.12,0.29l-0.27,0.1c-2.65,0.96-5.31,1.82-7.99,2.66
				c-2.67,0.85-5.37,1.61-8.06,2.37c-2.69,0.78-5.4,1.49-8.12,2.14c-2.71,0.7-5.45,1.28-8.19,1.88l-0.48,0.11l0.05-0.51
				c0.43-4.36-0.01-8.75-1.03-12.97c-1.03-4.23-2.65-8.28-4.57-12.19c-1.96-3.89-4.22-7.63-6.75-11.2
				c-2.51-3.58-5.28-6.99-8.16-10.31l-0.22-0.25l0.07-0.27l0.48-1.91c0.2-0.63,0.43-1.25,0.65-1.87c0.55-1.2,1.15-2.41,2.08-3.39
				c0.89-1,2-1.82,3.25-2.27C322.96,554.64,324.34,554.53,325.6,554.8z"/>
		</g>
	</g>
	<g>
		<path class="st14" d="M315.86,564.66c0,0-12.43-6.13-25.3-2.81c-12.87,3.32-28.51,10.82-30.28,35.24
			c-0.39,10.71-0.39,10.71-0.39,10.71s52.31,20.38,76.4,3.98C336.56,607.75,339.05,590.67,315.86,564.66z"/>
		<path class="st19" d="M315.83,564.7c-3.3-1.43-6.82-2.42-10.37-2.98c-3.55-0.58-7.18-0.75-10.74-0.28
			c-3.54,0.47-7.02,1.54-10.38,2.79c-3.36,1.28-6.58,2.91-9.48,5.01c-2.91,2.07-5.49,4.61-7.56,7.52c-2.13,2.88-3.61,6.2-4.73,9.6
			c-0.25,0.86-0.54,1.72-0.77,2.58l-0.55,2.64c-0.09,0.44-0.2,0.88-0.26,1.33l-0.16,1.34l-0.33,2.68l-0.45,10.85l-0.1-0.15
			c6.15,2.29,12.45,4.18,18.83,5.73c6.37,1.57,12.83,2.79,19.34,3.55c3.26,0.36,6.52,0.61,9.79,0.71c3.27,0.07,6.54-0.03,9.78-0.35
			c6.45-0.7,12.93-2.35,18.32-5.95l-0.22,0.39c0.44-4.37,0.15-8.72-0.82-12.98c-0.95-4.26-2.49-8.37-4.36-12.33
			c-1.02-1.94-1.97-3.91-3.15-5.77c-1.08-1.91-2.33-3.72-3.56-5.54c-1.22-1.82-2.6-3.54-3.89-5.32
			C318.64,568.09,317.23,566.41,315.83,564.7z M315.89,564.62c1.44,1.66,2.92,3.3,4.35,4.99l2.05,2.59
			c0.69,0.86,1.38,1.72,1.99,2.64c1.27,1.81,2.55,3.6,3.67,5.51c1.21,1.85,2.21,3.83,3.27,5.77c1.96,3.97,3.6,8.11,4.64,12.44
			c1.09,4.3,1.35,8.86,0.93,13.25l-0.02,0.26l-0.2,0.13c-5.59,3.75-12.23,5.47-18.8,6.11c-3.3,0.31-6.61,0.38-9.91,0.28
			c-3.3-0.12-6.59-0.41-9.86-0.83c-6.54-0.87-13-2.2-19.36-3.88c-6.36-1.7-12.65-3.62-18.81-5.94l-0.1-0.04l0-0.11l0.36-10.86
			l0.28-2.71l0.14-1.36c0.05-0.45,0.16-0.9,0.23-1.34l0.5-2.69c0.21-0.89,0.48-1.76,0.72-2.64c1.07-3.47,2.49-6.91,4.64-9.9
			c2.11-3,4.74-5.64,7.72-7.78c2.99-2.13,6.3-3.77,9.72-5.04c3.43-1.23,6.93-2.31,10.59-2.71c3.64-0.41,7.32-0.17,10.9,0.5
			C309.11,561.96,312.59,563.06,315.89,564.62z"/>
	</g>
	<path class="st17" d="M473.13,552.88c0,0-21.53-4.04-27.24,0c-5.71,4.04-7.01,10.26-7.01,10.26v12.45c0,0,1.56,12.53,20.5,10.94
		c18.94-1.6,19.2-7.82,19.2-7.82v-20.24C478.58,558.47,478.06,555.33,473.13,552.88z"/>
	<g>
		<path class="st18" d="M437.58,572.23c0,0-2.34,1.56-2.59,6.23c-0.26,4.67,0,10.79,0,10.79s-3.11,2.7-3.63,10.23
			c-0.52,7.52,1.04,17.49,1.04,17.49s12.19,8.2,30.1,12.35c0.78-7.52,6.23-34.25,27.5-45.4c-0.52-5.71-9.6-9.86-11.42-9.86
			S437.58,572.23,437.58,572.23z"/>
		<g>
			<path class="st19" d="M437.61,572.32c-1.02,0.93-1.66,2.35-1.96,3.73c-0.33,1.4-0.3,2.86-0.29,4.34
				c0.02,2.94,0.11,5.89,0.29,8.82l0.02,0.27l-0.24,0.25c-0.67,0.71-1.28,1.77-1.71,2.78c-0.44,1.04-0.79,2.14-1.02,3.26
				c-0.48,2.25-0.58,4.58-0.57,6.93c0.05,4.7,0.52,9.44,1.12,14.11l-0.37-0.57c2.21,1.45,4.56,2.84,6.94,4.11
				c2.39,1.26,4.82,2.46,7.31,3.53c4.96,2.19,10.14,3.89,15.44,5.1l-0.39,0.28c0.23-2.31,0.65-4.57,1.14-6.83
				c0.26-1.12,0.49-2.26,0.79-3.37c0.27-1.12,0.59-2.23,0.93-3.34c1.35-4.42,3.04-8.75,5.25-12.85c2.22-4.08,4.83-8,8.11-11.36
				c3.24-3.38,6.99-6.29,11.11-8.57l-0.56,1.04c-0.22-1.94-1.61-3.76-3.31-5.17c-1.7-1.42-3.71-2.63-5.78-3.42
				c-0.51-0.18-1.03-0.34-1.37-0.36l-1.77-0.09l-3.53-0.2l-7.07-0.43c-4.72-0.27-9.45-0.58-14.19-0.92
				C447.16,573.09,442.4,572.72,437.61,572.32z M437.56,572.13c4.69,0.02,9.41,0.07,14.15,0.17c4.74,0.08,9.49,0.18,14.25,0.34
				l7.15,0.2l3.58,0.11l1.79,0.07c0.85,0.02,1.47,0.26,2.08,0.45c1.2,0.43,2.31,0.97,3.39,1.59c1.07,0.62,2.12,1.3,3.07,2.13
				c0.95,0.82,1.87,1.72,2.6,2.83c0.73,1.09,1.3,2.37,1.45,3.78l0.07,0.7l-0.64,0.34c-3.94,2.11-7.57,4.81-10.73,8.01
				c-3.18,3.18-5.83,6.9-8.11,10.8c-2.27,3.92-4.18,8.07-5.67,12.39c-1.49,4.31-2.63,8.77-3.17,13.3l-0.04,0.37l-0.35-0.09
				c-2.65-0.68-5.3-1.34-7.9-2.18c-2.62-0.78-5.19-1.7-7.76-2.65c-2.56-0.96-5.08-2.05-7.56-3.21c-2.48-1.19-4.92-2.41-7.28-3.91
				l-0.3-0.19l-0.06-0.38c-0.4-2.39-0.66-4.76-0.87-7.16c-0.2-2.39-0.3-4.8-0.29-7.22c0-2.41,0.18-4.87,0.76-7.28
				c0.61-2.4,1.48-4.75,3.41-6.68l-0.23,0.52c-0.02-1.49-0.02-2.97-0.01-4.45c0.02-1.48,0.05-2.97,0.14-4.45
				c0.1-1.47,0.18-3,0.63-4.46C435.54,574.46,436.25,573.06,437.56,572.13z"/>
		</g>
	</g>
	<g>
		<path class="st14" d="M462.49,629.31c0,0-0.78-29.58,27.5-46.18c14.79-4.67,41.25,1.04,47.22,21.79
			c5.97,20.76,3.89,25.34,3.89,25.34S500.11,646.95,462.49,629.31z"/>
		<path class="st19" d="M462.45,629.33c-0.05-2.4,0.18-4.7,0.5-7.04c0.17-1.16,0.39-2.31,0.61-3.47c0.28-1.14,0.53-2.29,0.85-3.42
			c1.27-4.52,3.07-8.92,5.5-12.96c2.4-4.04,5.25-7.86,8.67-11.12c1.6-1.74,3.51-3.14,5.34-4.62c0.89-0.78,1.92-1.36,2.9-2.01
			l2.96-1.92l0.04-0.02l0.05-0.01c6.77-1.97,13.95-1.76,20.73-0.28c3.4,0.73,6.71,1.87,9.85,3.37c3.13,1.52,6.09,3.41,8.66,5.77
			c2.57,2.34,4.78,5.12,6.37,8.24c0.83,1.54,1.43,3.19,1.97,4.86c0.48,1.67,0.98,3.33,1.41,5.01c0.91,3.35,1.7,6.74,2.3,10.17
			c0.28,1.72,0.55,3.44,0.66,5.2c0.06,0.87,0.09,1.75,0.08,2.64c-0.02,0.44-0.03,0.89-0.09,1.34c-0.06,0.46-0.1,0.86-0.29,1.41
			l-0.06,0.17l-0.19,0.08c-3.17,1.23-6.39,2.23-9.65,3.11c-3.26,0.88-6.55,1.62-9.87,2.2c-6.64,1.16-13.38,1.87-20.13,1.85
			c-6.74-0.01-13.5-0.64-20.09-2.03C474.92,634.5,468.55,632.27,462.45,629.33z M462.53,629.28c3.08,1.3,6.17,2.57,9.4,3.51
			c1.59,0.53,3.22,0.92,4.83,1.38c1.64,0.36,3.25,0.79,4.91,1.07c6.57,1.27,13.28,1.78,19.97,1.68c6.69-0.1,13.37-0.75,19.95-1.94
			c6.56-1.23,13.11-2.83,19.34-5.16l-0.25,0.25c0.09-0.27,0.18-0.73,0.22-1.13c0.05-0.41,0.07-0.83,0.09-1.25
			c0.02-0.85-0.01-1.7-0.06-2.55c-0.1-1.71-0.34-3.42-0.59-5.12c-0.54-3.4-1.28-6.78-2.12-10.14c-0.4-1.68-0.88-3.35-1.33-5.01
			c-0.5-1.64-1.07-3.26-1.86-4.79c-0.76-1.54-1.65-3.01-2.7-4.38c-1.02-1.39-2.19-2.66-3.46-3.82c-2.53-2.35-5.44-4.25-8.55-5.76
			c-3.12-1.47-6.42-2.57-9.8-3.26c-1.69-0.36-3.4-0.6-5.11-0.75c-1.72-0.16-3.44-0.22-5.16-0.18c-3.44,0.07-6.87,0.57-10.13,1.6
			l0.08-0.04l-2.91,1.92c-0.96,0.66-1.98,1.23-2.85,2l-2.7,2.2c-0.46,0.36-0.9,0.73-1.3,1.15l-1.25,1.22
			c-3.39,3.17-6.23,6.91-8.62,10.88c-0.56,1.01-1.22,1.98-1.71,3.04l-1.53,3.13l-1.31,3.24c-0.4,1.09-0.74,2.21-1.11,3.31
			C463.58,620,462.68,624.66,462.53,629.28z"/>
	</g>
	<path class="st20" d="M356.22,146.14c0,0,30.25-8.96,44.99,14.03c0.61,0.95,2.07,0.22,1.68-0.84
		C398.68,147.87,387.02,130.92,356.22,146.14z"/>
	<path class="st20" d="M433,158.23c5.27-5.73,15.55-12.57,33.88-10.54c0,0-25.58-11.68-35.81,9.21
		C430.47,158.12,432.08,159.24,433,158.23z"/>
	<g>
		<path class="st14" d="M400.52,431.31c4.72-0.88,9.33-1.73,14-2.6c0.11,0.29,0.2,0.53,0.3,0.78c1.26,3.31,3.78,5.02,7.21,5.28
			c1.64,0.12,3.34-0.02,4.96-0.32c1.6-0.3,2.28-1.22,2.38-2.52c0.1-1.34-0.54-2.57-1.99-3.08c-2.02-0.7-4.1-1.21-6.18-1.71
			c-3.71-0.9-7.37-1.92-10.83-3.6c-5.43-2.63-7.81-8.6-7.31-13.65c0.77-7.8,5.55-13.01,13.47-14.79c0.72-0.16,1.74-0.11,2.07-0.57
			c0.38-0.51,0.16-1.48,0.17-2.25c0.01-1.25,0-2.51,0-3.76c0-0.37-0.04-0.73,0.52-0.73c2.35,0.01,4.7,0,7.17,0c0,2.27,0,4.46,0,6.69
			c8,0.95,14.03,4.47,16.97,12.34c-2.95,0.93-5.84,1.83-8.74,2.74c-1.05,0.33-2.11,0.65-3.15,0.99c-0.42,0.14-0.69,0.15-0.91-0.35
			c-1.6-3.71-5.02-4.84-8.79-4.49c-0.73,0.07-1.48,0.26-2.15,0.54c-1.09,0.45-1.64,1.35-1.65,2.54c-0.01,1.19,0.51,2.16,1.63,2.53
			c1.92,0.63,3.89,1.11,5.84,1.64c3.24,0.89,6.54,1.62,9.72,2.71c6.29,2.15,9.97,8.12,9.57,14.77c-0.46,7.58-5.68,12.75-12.38,14.88
			c-1.64,0.52-3.36,0.8-5.05,1.12c-0.63,0.12-0.92,0.3-0.9,1c0.05,1.99,0.02,3.99,0.02,6.1c-1.33,0-2.57,0-3.82,0
			c-1.04,0-2.09-0.03-3.13,0.01c-0.59,0.02-0.78-0.18-0.77-0.77c0.03-2.02,0.01-4.05,0.01-6.19
			C409.4,445.47,403.13,440.66,400.52,431.31z"/>
		<g>
			<path class="st12" d="M400.48,431.28l14-2.81l0.2-0.04l0.06,0.19c0.64,1.86,1.67,3.59,3.32,4.6c1.62,1.04,3.61,1.31,5.55,1.24
				c0.97-0.03,1.95-0.14,2.91-0.31c0.96-0.13,1.83-0.48,2.2-1.26c0.36-0.75,0.36-1.79-0.04-2.52c-0.2-0.38-0.51-0.69-0.88-0.91
				c-0.35-0.22-0.83-0.35-1.3-0.51c-3.75-1.18-7.71-1.83-11.51-3.12c-1.91-0.64-3.78-1.33-5.58-2.32c-1.79-1.01-3.32-2.48-4.44-4.2
				c-2.26-3.42-2.94-7.82-1.95-11.75c0.44-1.98,1.19-3.9,2.31-5.6c1.12-1.7,2.59-3.15,4.27-4.28c1.68-1.14,3.55-1.95,5.48-2.48
				l1.47-0.36c0.51-0.1,1.02-0.1,1.45-0.22c0.22-0.06,0.38-0.15,0.47-0.31c0.09-0.17,0.13-0.4,0.14-0.63
				c0.02-0.47-0.05-0.97-0.04-1.48l0.01-2.98l0-0.74c0-0.12-0.01-0.25,0.03-0.41c0.02-0.15,0.16-0.35,0.34-0.41
				c0.34-0.1,0.55-0.03,0.81-0.05l0.74,0l5.96,0.02l0.16,0l0,0.16l0.01,6.69l-0.15-0.17c3.68,0.43,7.39,1.45,10.51,3.58
				c1.55,1.06,2.91,2.39,4.03,3.9c1.12,1.51,1.99,3.19,2.66,4.94l0.1,0.26l-0.27,0.09l-12.11,3.88c-0.15,0.04-0.38,0.07-0.61-0.04
				c-0.23-0.11-0.34-0.29-0.42-0.44l-0.35-0.71c-0.24-0.44-0.52-0.87-0.85-1.25c-0.65-0.76-1.47-1.37-2.39-1.76
				c-1.84-0.78-4.03-0.85-5.96-0.42c-0.47,0.13-0.98,0.3-1.35,0.53c-0.38,0.24-0.66,0.58-0.82,0.98c-0.3,0.81-0.21,1.93,0.35,2.53
				c0.3,0.32,0.62,0.49,1.17,0.61l1.52,0.42l3.04,0.85c2.02,0.58,4.08,1.07,6.13,1.61c1.03,0.27,2.05,0.55,3.07,0.86
				c1.01,0.31,2.05,0.64,3.04,1.12c1.01,0.44,1.92,1.06,2.8,1.71c0.84,0.7,1.65,1.45,2.32,2.32c1.37,1.71,2.32,3.75,2.82,5.88
				c0.99,4.26,0.23,8.89-2.13,12.58c-2.38,3.69-6.22,6.24-10.34,7.49c-1.04,0.32-2.09,0.54-3.14,0.73l-1.56,0.28
				c-0.26,0.05-0.52,0.09-0.67,0.15c-0.13,0.07-0.13,0.06-0.17,0.27l-0.03,6.3l0,0.4l-0.39,0l-3.61-0.02
				c-1.23-0.01-2.34,0-3.65-0.03c-0.18-0.02-0.47-0.11-0.63-0.35c-0.15-0.23-0.16-0.44-0.17-0.61l0.01-0.92l0.02-1.8l0.03-3.6
				l0.26,0.3c-2.12-0.28-4.23-0.76-6.24-1.53c-2-0.77-3.92-1.82-5.55-3.22c-1.64-1.39-3.01-3.08-4.07-4.93
				C401.8,435.37,401.02,433.4,400.48,431.28z M400.57,431.33c0.62,1.96,1.42,3.98,2.52,5.77c1.1,1.8,2.48,3.43,4.12,4.74
				c1.64,1.32,3.5,2.34,5.47,3.06c1.97,0.73,4.04,1.17,6.13,1.41l0.26,0.03l0,0.27l0.02,3.61l0.01,1.81l0.01,0.88
				c0,0.12,0.03,0.23,0.05,0.25c0.01,0.02,0.04,0.04,0.15,0.05l7.17-0.05l-0.39,0.39l-0.05-6.39c0.02-0.17,0.06-0.37,0.18-0.56
				c0.12-0.2,0.32-0.34,0.49-0.41c0.34-0.15,0.62-0.17,0.87-0.23l1.55-0.3c1.03-0.21,2.05-0.44,3.03-0.75
				c1.97-0.63,3.84-1.55,5.52-2.73c1.68-1.18,3.12-2.69,4.24-4.4c2.2-3.44,2.91-7.81,1.97-11.78c-0.93-3.97-3.64-7.51-7.36-9.23
				c-0.91-0.44-1.89-0.77-2.9-1.08c-1-0.31-2.01-0.6-3.03-0.87c-2.03-0.55-4.09-1.05-6.13-1.65l-3.06-0.87l-1.53-0.44
				c-0.48-0.1-1.16-0.4-1.57-0.88c-0.43-0.48-0.64-1.1-0.71-1.69c-0.06-0.59-0.01-1.19,0.22-1.77c0.23-0.58,0.67-1.08,1.19-1.4
				c0.54-0.32,1.05-0.47,1.6-0.61c1.1-0.27,2.19-0.27,3.28-0.22c1.09,0.08,2.18,0.32,3.2,0.76c1.02,0.44,1.93,1.15,2.64,2
				c0.36,0.43,0.65,0.9,0.91,1.38l0.34,0.72c0.13,0.18,0.05,0.15,0.27,0.13l12.1-3.72l-0.17,0.35c-0.64-1.72-1.47-3.36-2.55-4.84
				c-1.07-1.48-2.39-2.78-3.89-3.83c-3.01-2.1-6.65-3.15-10.3-3.6l-0.15-0.02l0-0.15l0.01-6.69l0.16,0.16l-5.96,0.02l-0.75,0
				c-0.24,0.01-0.54-0.02-0.67,0.03c-0.12,0.03-0.13,0.21-0.13,0.48l0,0.75l0.01,2.98c-0.01,0.48,0.07,0.97,0.06,1.49
				c-0.01,0.26-0.04,0.54-0.17,0.82c-0.15,0.29-0.47,0.46-0.72,0.52c-0.52,0.15-1.03,0.16-1.49,0.26l-1.42,0.38
				c-1.88,0.56-3.69,1.38-5.29,2.5c-1.6,1.12-2.98,2.53-4.03,4.17c-1.04,1.64-1.73,3.49-2.12,5.39c-0.39,1.91-0.53,3.86-0.18,5.77
				c0.33,1.9,1.03,3.74,2.1,5.34c1.05,1.6,2.49,2.96,4.16,3.9c1.68,0.93,3.55,1.65,5.4,2.28c3.73,1.29,7.65,1.96,11.48,3.19
				c0.46,0.16,0.97,0.29,1.46,0.59c0.48,0.28,0.89,0.71,1.16,1.21c0.52,1.02,0.52,2.2,0.03,3.23c-0.25,0.52-0.71,0.93-1.21,1.18
				c-0.5,0.25-1.05,0.36-1.53,0.43c-1,0.16-2,0.26-3.01,0.27c-2,0.04-4.14-0.27-5.88-1.42c-1.77-1.11-2.86-3.03-3.46-4.91l0.26,0.15
				L400.57,431.33z"/>
		</g>
	</g>
	<circle class="st21" cx="449.84" cy="195.82" r="3.46"/>
	<circle class="st21" cx="377.55" cy="198.9" r="3.46"/>
	<circle class="st21" cx="455.12" cy="198.56" r="2.22"/>
	<circle class="st21" cx="384.6" cy="198.56" r="2.22"/>
	<g>
		<g>
			<g>
				<path class="st14" d="M394.24,201.88c-5.14,14.99-18.44,24.01-29.7,20.15c-11.26-3.86-16.22-19.15-11.09-34.14
					c5.14-15,18.44-24.02,29.7-20.16C394.42,171.6,399.38,186.88,394.24,201.88z"/>
				<path class="st22" d="M369.94,223.84c-1.95,0-3.87-0.32-5.69-0.94c-5.73-1.97-10.08-6.75-12.27-13.48
					c-2.15-6.63-1.93-14.38,0.61-21.82c4.38-12.76,14.72-21.66,25.17-21.66c1.95,0,3.87,0.32,5.69,0.94
					c5.72,1.97,10.08,6.75,12.27,13.48c2.15,6.64,1.94,14.39-0.61,21.82C390.73,214.93,380.38,223.84,369.94,223.84z M377.76,167.77
					c-9.67,0-19.32,8.4-23.44,20.43c-2.43,7.06-2.64,14.4-0.61,20.66c2.01,6.17,5.95,10.54,11.12,12.31
					c1.63,0.56,3.35,0.84,5.1,0.84c9.67,0,19.31-8.4,23.44-20.43c2.42-7.07,2.64-14.4,0.6-20.66c-2-6.17-5.95-10.54-11.12-12.31
					C381.22,168.05,379.51,167.77,377.76,167.77z"/>
			</g>
			<g>
				<g>
					<path class="st23" d="M389.43,207.16c-3.34,7.88-10.73,12.27-16.5,9.82c-5.77-2.45-7.74-10.82-4.39-18.69
						c3.34-7.87,10.73-12.27,16.5-9.81C390.81,190.93,392.78,199.29,389.43,207.16z"/>
				</g>
				<g>
					<path class="st22" d="M384.47,205.06c-1.75,4.14-5.63,6.45-8.67,5.15c-3.03-1.29-4.06-5.68-2.31-9.81
						c1.76-4.14,5.64-6.44,8.67-5.16C385.19,196.53,386.23,200.93,384.47,205.06z"/>
				</g>
				<g>
					<path class="st14" d="M380.4,196.86c-1.49,2.05-3.92,2.82-5.42,1.73c-1.5-1.09-1.51-3.63-0.02-5.68
						c1.49-2.05,3.92-2.82,5.42-1.73C381.88,192.27,381.88,194.81,380.4,196.86z"/>
				</g>
			</g>
			<g>
				<path class="st24" d="M368.58,218.75c-10.87-3.7-15.65-18.37-10.69-32.75c2.3-6.68,6.33-12.43,11.04-15.98
					c-6.27,3.19-11.85,9.92-14.74,18.29c-4.96,14.39-0.24,29.2,10.63,32.9c5.83,1.99,12.28,0.27,17.72-3.82
					C378.02,219.68,373.12,220.31,368.58,218.75z"/>
			</g>
		</g>
		<g>
			<g>
				<path class="st14" d="M439.54,201.45c5.14,14.99,18.44,24.01,29.7,20.15c11.27-3.86,16.22-19.15,11.08-34.14
					c-5.14-15-18.44-24.02-29.7-20.16C439.37,171.17,434.4,186.45,439.54,201.45z"/>
				<path class="st22" d="M463.85,223.41L463.85,223.41c-10.44,0-20.79-8.91-25.17-21.67c-5.29-15.44-0.07-31.28,11.66-35.3
					c1.82-0.62,3.74-0.94,5.69-0.94c10.45,0,20.8,8.9,25.17,21.66c5.3,15.45,0.07,31.28-11.65,35.3
					C467.71,223.09,465.8,223.41,463.85,223.41z M456.02,167.33c-1.75,0-3.47,0.28-5.1,0.84c-10.77,3.69-15.49,18.49-10.52,32.98
					c4.12,12.03,13.76,20.43,23.44,20.43l0,0c1.75,0,3.47-0.28,5.1-0.84c10.76-3.69,15.48-18.48,10.52-32.97
					C475.34,175.73,465.7,167.33,456.02,167.33z"/>
			</g>
			<g>
				<g>
					<path class="st23" d="M444.35,206.73c3.34,7.88,10.73,12.27,16.49,9.82c5.77-2.45,7.75-10.82,4.4-18.69
						c-3.34-7.87-10.73-12.27-16.5-9.81C442.97,190.5,441,198.86,444.35,206.73z"/>
				</g>
				<g>
					<path class="st22" d="M449.31,204.63c1.76,4.14,5.64,6.45,8.67,5.15c3.03-1.29,4.06-5.68,2.3-9.81
						c-1.75-4.14-5.63-6.44-8.67-5.16C448.59,196.1,447.55,200.49,449.31,204.63z"/>
				</g>
				<g>
					<path class="st14" d="M453.38,196.43c1.49,2.05,3.92,2.82,5.42,1.73c1.51-1.09,1.51-3.63,0.02-5.68
						c-1.48-2.05-3.91-2.82-5.41-1.73C451.91,191.84,451.9,194.38,453.38,196.43z"/>
				</g>
			</g>
			<g>
				<path class="st24" d="M465.14,218.32c10.87-3.7,15.66-18.37,10.7-32.75c-2.3-6.68-6.06-12.27-10.76-15.82
					c6.27,3.19,11.57,9.76,14.46,18.12c4.96,14.39,0.2,29.23-10.66,32.94c-5.82,1.98-12.25,0.24-17.69-3.86
					C455.7,219.25,460.6,219.87,465.14,218.32z"/>
			</g>
		</g>
	</g>
	<g>
		<g>
			<g>
				<path class="st12" d="M459.38,269.82c2.08-0.6,4.28-0.68,6.46-0.43c2.17,0.28,4.38,0.97,6.28,2.28
					c1.92,1.29,3.41,3.31,4.02,5.52c0.62,2.21,0.48,4.49-0.18,6.53c-0.27-2.13-0.64-4.16-1.47-5.93c-0.81-1.77-2.07-3.2-3.64-4.29
					c-1.57-1.08-3.42-1.84-5.36-2.41C463.54,270.54,461.5,270.15,459.38,269.82z"/>
			</g>
			<g>
				<path class="st12" d="M378.31,260.01c-2.14-0.18-4.21-0.29-6.24-0.21c-2.02,0.09-4,0.38-5.78,1.06
					c-1.78,0.68-3.34,1.77-4.55,3.3c-1.23,1.51-2.07,3.4-2.84,5.4c-0.16-2.14,0.26-4.38,1.39-6.38c1.11-2,3.05-3.61,5.21-4.4
					c2.17-0.82,4.47-0.97,6.65-0.72C374.31,258.33,376.43,258.94,378.31,260.01z"/>
			</g>
		</g>
		<g>
			<path class="st12" d="M397.63,335.39c1.97,1.23,3.95,2.31,5.99,3.2c2.03,0.89,4.11,1.57,6.23,1.92c2.12,0.34,4.28,0.36,6.42-0.02
				c2.15-0.36,4.25-1.13,6.39-2.07c-1.59,1.71-3.66,3.01-5.96,3.77c-2.3,0.76-4.82,0.92-7.21,0.52c-2.4-0.4-4.68-1.32-6.69-2.57
				C400.79,338.86,398.97,337.31,397.63,335.39z"/>
		</g>
		<g>
			<g>
				<path class="st12" d="M480.35,274.86c0.26-1.5,0.53-2.94,0.6-4.34c0.08-1.38-0.1-2.79-0.85-3.49c-0.36-0.35-0.92-0.59-1.56-0.74
					c-0.64-0.14-1.34-0.23-2.06-0.28c-1.43-0.12-2.94-0.12-4.44-0.39c1.45-0.41,2.89-0.76,4.42-0.92c0.76-0.07,1.55-0.09,2.37,0.03
					c0.81,0.12,1.7,0.41,2.42,1.08c0.72,0.69,1.05,1.61,1.16,2.44c0.1,0.85,0.02,1.67-0.14,2.43
					C481.91,272.23,481.27,273.65,480.35,274.86z"/>
			</g>
			<g>
				<path class="st12" d="M356.75,259.91c-0.61-1.4-0.9-2.92-0.87-4.5c0.02-0.79,0.14-1.59,0.44-2.4c0.31-0.79,0.84-1.6,1.71-2.1
					c0.86-0.48,1.8-0.55,2.61-0.47c0.82,0.08,1.58,0.29,2.31,0.54c1.45,0.52,2.77,1.2,4.08,1.94c-1.52-0.1-2.98-0.46-4.41-0.68
					c-0.71-0.12-1.41-0.21-2.07-0.22c-0.66-0.01-1.26,0.09-1.69,0.34c-0.89,0.5-1.4,1.83-1.66,3.18
					C356.94,256.94,356.85,258.4,356.75,259.91z"/>
			</g>
		</g>
		<g>
			<path class="st25" d="M415.58,291.93c0.07,0.01,0.13,0.02,0.2,0.03l-0.39-0.05C415.45,291.92,415.51,291.92,415.58,291.93
				c-35.77-4.39-48.57-24.52-51.68-30.65c0.6,6.53,7.18,66.83,45.86,72.91l0,0.03c0.24,0.03,0.47,0.04,0.7,0.07
				c0.23,0.03,0.46,0.07,0.7,0.1l0-0.03c39.01,3.31,59.78-53.68,61.92-59.88C468.6,279.7,451.37,296.19,415.58,291.93z"/>
			<path class="st12" d="M411.02,335.5c-0.15-0.02-0.3-0.04-0.45-0.06l-0.27-0.04l-0.24-0.02c-0.26-0.02-0.53-0.03-0.76-0.13
				c-39.22-6.44-45.89-66.98-46.53-73.87c-0.05-0.53,0.29-1.03,0.81-1.17c0.51-0.15,1.06,0.09,1.31,0.57
				c3.02,5.96,15.6,25.72,50.82,30.05c35.23,4.19,52.16-12,56.52-17.07c0.35-0.41,0.94-0.51,1.4-0.24c0.47,0.26,0.67,0.82,0.5,1.33
				c-2.26,6.55-23.18,63.75-62.8,60.65C411.24,335.52,411.13,335.52,411.02,335.5z M410.58,333.18l0.35,0.05
				c0.03,0.01,0.07,0.01,0.11,0.02c0.07-0.01,0.15-0.01,0.22,0c33.1,2.81,52.88-39.03,58.95-54.28
				c-7.7,6.85-24.82,17.55-54.48,14.11c-0.02,0-0.05-0.01-0.08-0.01l-0.39-0.05c-0.03,0-0.05-0.01-0.08-0.01
				c-29.62-3.73-43.71-18.2-49.55-26.68c2.27,16.25,11.5,61.61,44.32,66.76c0.07,0.01,0.15,0.03,0.21,0.05
				c0.03,0,0.07,0.01,0.11,0.01L410.58,333.18z"/>
		</g>
		<g>
			<path class="st14" d="M415.64,293.04l-0.47-0.06c-35.53-6.03-40.67-17.43-49.55-26.59c0.04,0.37,0.08,0.76,0.13,1.17
				c5.37,11.65,18.95,34.45,47.54,38.38l0,0.02c0.2,0.02,0.39,0.04,0.59,0.06c0.2,0.03,0.39,0.06,0.59,0.08l0-0.02
				c28.7,3,47.56-16.08,55.55-26.11c0.15-0.42,0.3-0.81,0.44-1.18C459.64,285.59,450.69,296.04,415.64,293.04z"/>
		</g>
		<g>
			<path class="st26" d="M411.21,333.22c9.53,0.65,19.35-2.34,27.74-8.82c-6.43-5.11-15.96-11.3-24.93-12.6l0-0.03
				c-0.23-0.03-0.46-0.04-0.68-0.07c-0.23-0.03-0.45-0.07-0.68-0.1l0,0.03c-9.13-0.89-20.17,2.53-27.73,6.09
				c5.65,8.85,15.55,13.69,24.88,15.33l-0.01,0.05c0.24,0.03,0.47,0.04,0.71,0.06c0.23,0.03,0.46,0.08,0.7,0.11L411.21,333.22z"/>
		</g>
	</g>
</g>
</svg>
