<svg id="Layer_1" data-name="Layer 1" xmlns="http://www.w3.org/2000/svg" viewBox="0 0 500 221.27"><defs><style>.cls-1{fill:#f85501;}</style></defs><path class="cls-1" d="M250,500.77c2.07-1.8,3.92-4,6.26-5.35,18.25-10.64,36.6-21.13,54.92-31.65.88-.51,1.8-.94,3.18-1.66.1,1.7.24,3,.25,4.26q0,27.93,0,55.86c0,7.81,1.78,8.81,8.62,4.89Q346.16,514,369,500.84c5.18-3,5.17-5.73,0-8.74q-25.56-14.75-51.19-29.38a4.55,4.55,0,0,1-2.67-4.62c.09-21,.05-42,.05-63,0-.62,0-1.25,0-1.87.25-3.67,2.18-4.79,5.41-3,8.16,4.6,16.27,9.29,24.39,14,10,5.76,20,11.59,30.08,17.24a7.69,7.69,0,0,1,4.41,7.49q-.12,70.05,0,140.12a7.74,7.74,0,0,1-4.36,7.52Q346.48,592.87,318,609.37a18.52,18.52,0,0,0-1.69,1.26h-2.5a3.55,3.55,0,0,0-.67-.62c-19.06-11-38.16-21.84-57.16-32.89-2.24-1.3-4-3.44-5.95-5.19Z" transform="translate(-250 -389.37)"/><path class="cls-1" d="M425.92,510.74q0-28.07,0-56.15c0-4.58.35-4.92,5-4.92,9.06,0,18.12-.08,27.18.08a59,59,0,0,1,9.9,1.14c10.13,1.92,16.94,7.91,20.82,17.38a67.21,67.21,0,0,1,4.7,24.68c.19,14,.08,28.07-.6,42.07a65.85,65.85,0,0,1-3.69,17.28c-3.94,11.91-12.78,18.45-25.07,19.34-11.61.83-23.31.52-35,.69-2.87,0-3.33-1.84-3.32-4.19,0-10.4,0-20.8,0-31.19Zm25,0c0,12.79,0,25.58.05,38.38,0,1.07.43,2.79,1.15,3.1,5.33,2.3,12.95-1.12,14.54-6.69a42.86,42.86,0,0,0,1.6-10.74c.2-11.95.17-23.92.09-35.88-.05-6.23-.08-12.48-.66-18.68-.81-8.57-4.19-11.18-12.9-11.37-3-.06-4,.75-3.94,3.81C451,485.38,450.93,498.07,450.93,510.76Z" transform="translate(-250 -389.37)"/><path class="cls-1" d="M687.05,520.75c0,8.43-.21,16.86.07,25.27.24,7,.92,14.06,1.65,21.06.5,4.69.19,5.26-4.58,5.26-4.27,0-8.55-.16-12.81.06-3.4.17-5-1.27-5.48-4.5a31.79,31.79,0,0,0-1.3-5.45c-.25-.73-1.08-1.27-1.64-1.89-.51.56-1.32,1-1.49,1.69-2,7.6-7.2,10.76-14.67,11.11-8.82.41-14.45-2.61-17.91-9.76a45.34,45.34,0,0,1-4-19.4c-.14-13.51-.11-27,.59-40.52a42.51,42.51,0,0,1,4-15.21c4.16-9,17.34-12.3,25.57-6.73,2.16,1.46,3.39,4.29,5.12,6.43a13.29,13.29,0,0,0,1.88,1.61,7.65,7.65,0,0,0,.81-2.1c.45-7.29.43-7.29,7.78-7.29,4.06,0,8.13,0,12.19,0,3.6,0,4.2.6,4.2,4.16C687.07,496.63,687.05,508.69,687.05,520.75Zm-37.66,5h-.09c0,4.68-.1,9.36,0,14a83.48,83.48,0,0,0,.8,10.85c.59,3.63,2.72,5.19,6,5.16s5.18-1.63,6-5.22a22.84,22.84,0,0,0,.66-4.93c.06-13.2.09-26.4,0-39.6a24.24,24.24,0,0,0-1.13-6.4c-.78-2.78-2.93-3.93-5.71-3.89a5.16,5.16,0,0,0-5.35,4,26.61,26.61,0,0,0-1.12,6.4C649.3,512.67,649.39,519.22,649.39,525.77Z" transform="translate(-250 -389.37)"/><path class="cls-1" d="M564.49,520.67c0,8.53-.22,17.07.06,25.58.23,6.93.92,13.85,1.66,20.75.51,4.73.19,5.34-4.49,5.34s-9.17-.06-13.75,0a3.91,3.91,0,0,1-4.39-3.48c-.48-2.23-.93-4.48-1.58-6.67-.19-.65-1-1.12-1.5-1.67-.54.54-1.41,1-1.55,1.62-1.92,8.29-8.37,11.13-15.55,11.21-8.83.1-14.72-3-17.39-10.89a62.72,62.72,0,0,1-3.61-18.21c-.39-13.6-.16-27.24.51-40.83a41.67,41.67,0,0,1,3.83-14.64c4.16-9.2,17.21-12.71,25.7-7.12,2.11,1.39,3.36,4.06,5,6.11.59.71,1.28,1.34,1.93,2a7.84,7.84,0,0,0,.88-2.35c.33-7.06.3-7.06,7.41-7.06h11.87c4.61,0,4.9.31,4.9,5Q564.5,503,564.49,520.67ZM540.27,526c0-6.55.09-13.1,0-19.65a28.24,28.24,0,0,0-1.06-6.42c-.71-2.77-2.75-4.08-5.55-4.11s-4.86,1.26-5.62,4a23.36,23.36,0,0,0-1.09,6.1q-.15,20,0,39.92a23.13,23.13,0,0,0,1,5.81,5.29,5.29,0,0,0,5.48,4.2c3,.06,5.09-1.22,5.87-4.1a27.66,27.66,0,0,0,1-6.43C540.36,538.84,540.28,532.39,540.27,526Z" transform="translate(-250 -389.37)"/><path class="cls-1" d="M724.79,554.64H744c5.81,0,6,.22,6,5.89,0,2.71,0,5.41,0,8.12,0,2.44-1.12,3.68-3.58,3.68-16.36,0-32.72,0-49.08,0-3,0-3.68-1.3-2.58-4.66q10.72-32.91,21.48-65.8c.34-1.06.61-2.14,1.08-3.76h-4.06c-4.9,0-9.79,0-14.69,0-2.61,0-3.86-1.08-3.82-3.72,0-3.44,0-6.87,0-10.3,0-2.44,1-3.69,3.54-3.69,15.42,0,30.85,0,46.27,0,3,0,3.66,1.24,2.55,4.69q-6.75,20.92-13.53,41.82c-2.57,7.91-5.16,15.81-7.71,23.72C725.49,551.8,725.23,553,724.79,554.64Z" transform="translate(-250 -389.37)"/><path class="cls-1" d="M597.2,493.82c1.79-1.05,2.78-1.53,3.66-2.15,4.93-3.48,9.8-7,14.77-10.46.85-.59,2.29-1.18,3-.85s1.15,1.86,1.17,2.88c.12,5.19,0,10.39.09,15.59a6.06,6.06,0,0,1-2.83,5.51c-5.46,3.8-10.8,7.79-16.3,11.54a5.27,5.27,0,0,0-2.49,4.92c.08,15.49.05,31,0,46.47,0,4.84-.25,5.07-5.17,5.07s-10-.06-15,0c-2.75,0-4-1.09-4-3.88q0-42.11,0-84.2c0-2.75,1.18-4,4-3.92q7.65.12,15.3,0c2.64,0,3.83,1.12,3.79,3.74C597.16,487.07,597.2,490,597.2,493.82Z" transform="translate(-250 -389.37)"/></svg>