<?xml version="1.0" encoding="utf-8"?>
<!-- Generator: Adobe Illustrator 22.0.1, SVG Export Plug-In . SVG Version: 6.00 Build 0)  -->
<svg version="1.1" id="Layer_1" xmlns="http://www.w3.org/2000/svg" xmlns:xlink="http://www.w3.org/1999/xlink" x="0px" y="0px"
	 viewBox="0 0 198.8 70.9" style="enable-background:new 0 0 198.8 70.9;" xml:space="preserve">
<style type="text/css">
	.st0{fill:#FFFFFF;}
	.st1{fill:#FF7F32;}
	.st2{fill:#9E2A2B;}
	.st3{fill:#E5161E;}
</style>
<g>
	<g>
		<path class="st0" d="M94.6,45.2c-2.4,0-4.5-1.1-5.9-3v8.1c0,0.9-0.7,1.6-1.7,1.6c-0.9,0-1.6-0.7-1.6-1.6v-22
			c0-0.9,0.7-1.6,1.7-1.6c0.9,0,1.6,0.7,1.6,1.6v1.2c1.3-1.8,3.5-3,5.9-3c4.7,0,8,3.5,8,9.4C102.6,41.6,99.3,45.2,94.6,45.2z
			 M93.6,29.3c-2,0-4.1,1.2-5,2.6v7.6c0.9,1.4,3,2.7,5,2.7c3.4,0,5.4-2.7,5.4-6.5S97.1,29.3,93.6,29.3z"/>
		<path class="st0" d="M114.1,22.3c0,1.2-0.9,2.1-2.1,2.1s-2.1-1-2.1-2.1c0-1.2,1-2.2,2.1-2.2C113.3,20.1,114.1,21.1,114.1,22.3z
			 M112.1,44.9c-0.9,0-1.6-0.7-1.6-1.6V28.2c0-0.9,0.7-1.6,1.7-1.6c0.9,0,1.6,0.7,1.6,1.6v15.1C113.8,44.2,112.9,44.9,112.1,44.9z"
			/>
		<path class="st0" d="M136.6,43c-1.3,1.3-3.2,2.2-5.8,2.2c-5.4,0-9.1-4-9.1-9.4c0-5.3,3.7-9.4,9.1-9.4c2.7,0,4.7,1,6,2.4
			c0.2,0.2,0.3,0.5,0.3,0.8c0,0.8-0.7,1.5-1.5,1.5c-0.4,0-0.7-0.1-1-0.4c-1-0.9-2.2-1.3-3.5-1.3c-3.6,0-5.9,2.7-5.9,6.5
			s2.3,6.5,5.9,6.5c1.3,0,2.5-0.4,3.5-1.3c0.3-0.2,0.7-0.3,1-0.3c0.8,0,1.6,0.6,1.6,1.4C137.1,42.3,136.9,42.7,136.6,43z"/>
		<path class="st0" d="M152.8,45.2c-5.6,0-9-4.3-9-9.4s3.5-9.4,9-9.4c5.6,0,9.1,4.2,9.1,9.4S158.4,45.2,152.8,45.2z M152.8,29.3
			c-3.6,0-5.6,3-5.6,6.5s2,6.5,5.6,6.5s5.6-3,5.6-6.5S156.4,29.3,152.8,29.3z"/>
		<path class="st0" d="M184.3,44.9c-0.9,0-1.6-0.7-1.6-1.6v-1.2c-1.4,1.8-3.5,3-5.9,3c-4.6,0-8-3.5-8-9.4c0-5.8,3.3-9.4,8-9.4
			c2.3,0,4.5,1.1,5.9,3v-8.1c0-0.9,0.7-1.6,1.7-1.6c0.9,0,1.6,0.7,1.6,1.6v22C185.9,44.2,185.3,44.9,184.3,44.9z M182.6,31.9
			c-0.9-1.4-3-2.7-5-2.7c-3.3,0-5.4,2.7-5.4,6.5c0,3.7,2.1,6.5,5.4,6.5c2.1,0,4.1-1.2,5-2.6V31.9z"/>
		<path class="st0" d="M198.8,22.3c0,1.2-0.9,2.1-2.1,2.1c-1.2,0-2.1-1-2.1-2.1c0-1.2,1-2.2,2.1-2.2
			C197.8,20.1,198.8,21.1,198.8,22.3z M196.6,44.9c-0.9,0-1.6-0.7-1.6-1.6V28.2c0-0.9,0.7-1.6,1.7-1.6c0.9,0,1.6,0.7,1.6,1.6v15.1
			C198.3,44.2,197.6,44.9,196.6,44.9z"/>
	</g>
	<g>
		<path d="M28.4,31c-0.6,0.7-1.3,1.3-2,1.9l0,0c-0.2,0.2-0.3,0.5-0.3,0.8c0,0.6,0.5,1.1,1.1,1.1l0,0c0.3,0,0.8,0,1.1,0
			c0.6,0,1.2,0,1.8-0.1C30,33.3,29.4,31.9,28.4,31z"/>
		<path class="st1" d="M57,13.7L57,13.7c-1.7-5.3-4.8-9.9-9-13.3l0,0c-0.2-0.2-0.5-0.3-0.8-0.3c-0.6,0-1.1,0.5-1.1,1.1
			c0,0.3,0.2,0.6,0.1,0.5c0.6,1.6,1,3.4,1,5.2c0,1.2-0.2,2.4-0.5,3.6c-0.3,0-0.6-0.1-0.9-0.1c-0.2,0-0.4,0-0.6-0.1
			c-0.6,0-1.2-0.1-1.8-0.1c-0.9,0-1.7,0-2.6,0.1c-0.1,0-0.1,0-0.2,0c-0.3,0-0.7,0.1-1,0.1c-1.8-2.7-4.4-4.7-7.5-5.7
			c0.1,0-0.1-0.1-0.4-0.1c-0.5,0-0.8,0.4-0.8,0.8c0,0.1,0,0.3,0.1,0.4c1.1,1.9,1.9,3.9,2.4,6.1l0,0c0.1,0.3,0.1,0.7,0.2,1V13
			c0.1,0.3,0.1,0.6,0.1,0.9c0,0.2,0,0.3,0,0.5s0,0.5,0.1,0.7c0,0.4,0,0.9,0,1.3c0,0.4,0,0.8,0,1.2c0,0.1,0,0.3,0,0.4s0,0.1,0,0.2
			c0,0.2,0,0.4,0,0.5c0,0.2,0,0.3-0.1,0.5c0,0.1,0,0.2,0,0.3s0,0.2,0,0.3c0,0.2-0.1,0.4-0.1,0.6s-0.1,0.3-0.1,0.5c0,0,0,0,0,0.1
			c0,0.2-0.1,0.4-0.1,0.6s-0.1,0.3-0.1,0.5c-0.1,0.2-0.1,0.4-0.2,0.6c0,0.2-0.1,0.3-0.1,0.5c-0.1,0.2-0.1,0.4-0.2,0.6
			c-0.1,0.1-0.1,0.3-0.2,0.4c-0.1,0.2-0.2,0.4-0.3,0.6c-0.1,0.1-0.1,0.3-0.2,0.4c-0.1,0.2-0.2,0.4-0.3,0.6c-0.1,0.1-0.1,0.2-0.2,0.4
			c-0.1,0.2-0.2,0.4-0.3,0.6c-0.1,0.1-0.1,0.2-0.2,0.4c-0.1,0.2-0.2,0.4-0.4,0.6c-0.1,0.1-0.1,0.2-0.2,0.3c-0.1,0.2-0.3,0.4-0.4,0.6
			c-0.1,0.1-0.2,0.2-0.2,0.3c-0.1,0.2-0.3,0.4-0.4,0.5s-0.2,0.2-0.3,0.3c-0.1,0.2-0.3,0.3-0.4,0.5c-0.1,0.1-0.2,0.2-0.3,0.3
			l-0.1,0.1c0.1-0.1,0.1-0.1,0.2-0.2c1,1,1.7,2.3,1.8,3.8l0,0c0,0,0,0,0-0.1c2.1-1,4-2.3,5.6-3.9c0.7-0.7,1.3-1.4,1.9-2.2
			c0-0.1,0.1-0.1,0.1-0.2c0.3-0.3,0.5-0.7,0.7-1.1c0-0.1,0.1-0.1,0.1-0.2c0.2-0.4,0.5-0.8,0.7-1.2c0,0,0,0,0-0.1
			c0.2-0.4,0.4-0.9,0.6-1.4c0-0.1,0.1-0.1,0.1-0.2c0.2-0.4,0.3-0.8,0.4-1.1c0-0.1,0.1-0.3,0.1-0.4c0.1-0.3,0.2-0.7,0.3-1
			c0-0.1,0.1-0.3,0.1-0.4c0.1-0.5,0.2-1,0.3-1.4c0.4-2.8,2.9-4.9,5.8-4.9c0.2,0,0.4,0,0.6,0c0.1,0,0.1,0,0.2,0s0.2,0,0.4,0.1
			c0.1,0,0.2,0,0.3,0.1c0.1,0,0.2,0,0.3,0.1c0.1,0,0.2,0.1,0.3,0.1s0.2,0.1,0.2,0.1c0.1,0,0.2,0.1,0.3,0.1s0.1,0.1,0.2,0.1
			c0.1,0.1,0.2,0.1,0.3,0.2c0.1,0,0.1,0.1,0.2,0.1c0.1,0.1,0.2,0.1,0.3,0.2l0.1,0.1c0.1,0.1,0.2,0.2,0.3,0.3l0.1,0.1
			c0.1,0.1,0.2,0.2,0.3,0.3c0,0,0,0,0.1,0.1s0.2,0.2,0.3,0.4c0,0,0,0,0,0.1c0.1,0.1,0.2,0.3,0.3,0.4l0,0c0.1,0.1,0.2,0.3,0.2,0.5
			l0,0c0.1,0.2,0.1,0.3,0.2,0.5l0,0c0.2,0.6,0.4,1.3,0.4,2l0,0c0,0.7,0.1,1.3,0.1,2c0,1.5-0.1,2.9-0.4,4.4l5.2-1.1
			c0.2-1.2,0.3-2.5,0.3-3.8C58.3,19.3,57.8,16.4,57,13.7z"/>
		<path class="st0" d="M53,20.8L53,20.8c0-0.7-0.1-1.4-0.4-2l0,0c-0.1-0.2-0.1-0.3-0.2-0.5l0,0c-0.1-0.2-0.2-0.3-0.2-0.5l0,0
			c-0.1-0.1-0.2-0.3-0.3-0.4c0,0,0,0,0-0.1c-0.1-0.1-0.2-0.3-0.3-0.4c0,0,0,0-0.1-0.1s-0.2-0.2-0.3-0.3l-0.1-0.1
			c-0.1-0.1-0.2-0.2-0.3-0.3L50.7,16c-0.1-0.1-0.2-0.2-0.3-0.2s-0.1-0.1-0.2-0.1c-0.1-0.1-0.2-0.1-0.3-0.2c-0.1,0-0.1-0.1-0.2-0.1
			s-0.2-0.1-0.3-0.1s-0.2-0.1-0.2-0.1c-0.1,0-0.2-0.1-0.3-0.1S48.7,15,48.6,15s-0.2,0-0.3-0.1c-0.1,0-0.2,0-0.4-0.1
			c-0.1,0-0.1,0-0.2,0c-0.2,0-0.4,0-0.6,0c-2.9,0-5.3,2.1-5.8,4.9c-0.1,0.5-0.2,1-0.3,1.4c0,0.1-0.1,0.3-0.1,0.4
			c-0.1,0.3-0.2,0.7-0.3,1c0,0.1-0.1,0.3-0.1,0.4c-0.1,0.4-0.3,0.8-0.4,1.1c0,0.1-0.1,0.1-0.1,0.2c-0.2,0.5-0.4,0.9-0.6,1.4
			c0,0,0,0,0,0.1c-0.2,0.4-0.4,0.8-0.7,1.2c0,0.1-0.1,0.1-0.1,0.2c-0.2,0.4-0.5,0.7-0.7,1.1c0,0.1-0.1,0.1-0.1,0.2
			c-0.6,0.8-1.2,1.5-1.9,2.2c-1.6,1.6-3.5,2.9-5.6,3.9c0,0,0,0,0,0.1c6-0.4,11.5-2.6,15.9-6.1c0,0,0.5-0.3,1.2-1
			c0.8-0.7,1.4-1.4,1.8-1.8c-1.1-0.8-1.3-2-1.3-2s0.7,1,1.7,1.6c0.9,0.7,2.2,0.7,2.2,0.7s-1.1,0.5-2.4-0.2c-0.1,0.3-0.3,0.6-0.5,1
			c-0.6,0.9-0.9,1.2-1.1,1.4l5.2-1.1c0.2-1.4,0.4-2.9,0.4-4.4C53.1,22.1,53.1,21.5,53,20.8z M45.4,21.5c-0.9,0-1.6-0.7-1.6-1.6
			s0.7-1.6,1.6-1.6S47,19,47,19.9S46.3,21.5,45.4,21.5z"/>
		<circle cx="45.4" cy="19.9" r="1.6"/>
		<path d="M49.4,25.5c-0.9-0.7-1.7-1.6-1.7-1.6s0.2,1.2,1.3,2c-0.4,0.4-1,1.1-1.8,1.8c-0.7,0.7-1.2,1-1.2,1l1.5-0.3
			c0,0,0.4-0.3,1.1-1.4c0.2-0.3,0.4-0.7,0.5-1l0,0c1.3,0.8,2.4,0.2,2.4,0.2S50.3,26.2,49.4,25.5z"/>
	</g>
	<path class="st2" d="M23.3,54.9l-5-10.1L15,63l44.8,7.9l10.1-10.6l-4.7-10.7L23.3,54.9z M62.4,60.7c-0.9,0-1.6-0.7-1.6-1.6
		s0.7-1.6,1.6-1.6s1.6,0.7,1.6,1.6S63.1,60.7,62.4,60.7z"/>
	<g>
		<path class="st3" d="M36.1,37.9c-1,0.2-1.6,1.1-1.3,2.3c0.2,1.1,1.1,1.7,2.1,1.5s1.5-1.1,1.3-2.2C38,38.2,37.1,37.6,36.1,37.9z"/>
		<path class="st3" d="M48,43.3c-1,0.2-1.5,1.1-1.3,2.3s1.1,1.7,2.1,1.5s1.6-1.1,1.3-2.2C49.9,43.7,49,43.1,48,43.3z"/>
		<path class="st3" d="M60.6,25.5L46,28.6c-4.9,3.9-11,6.2-17.7,6.2c-0.3,0-0.7,0-1,0h-0.1c-0.6,0-1.1-0.5-1.1-1.1
			c0-0.3,0.1-0.6,0.3-0.8l0,0l0.1-0.1L16.1,35l5.1,24l44.5-9.5l5.4-13.7L60.6,25.5z M33,40.6c-0.4-2,0.7-3.9,2.9-4.4s4,0.8,4.4,2.8
			s-0.7,3.8-2.9,4.3C35.2,43.8,33.4,42.6,33,40.6z M39.9,50.7c-0.4,0.1-0.8-0.1-0.9-0.5c0-0.1,0-0.3,0-0.4l5.7-15.1
			c0.1-0.2,0.3-0.4,0.5-0.4c0.4-0.1,0.8,0.2,0.9,0.5c0,0.1,0,0.2,0,0.4l-5.7,15.1C40.3,50.5,40,50.6,39.9,50.7z M49.1,48.8
			c-2.2,0.5-4-0.8-4.4-2.8s0.7-3.9,2.9-4.4s4,0.8,4.4,2.8C52.5,46.4,51.4,48.3,49.1,48.8z M62.9,39.3c-0.9,0-1.6-0.7-1.6-1.6
			s0.7-1.6,1.6-1.6s1.6,0.7,1.6,1.6S63.8,39.3,62.9,39.3z"/>
	</g>
	<g>
		<path class="st0" d="M37.4,43.3c-2.2,0.5-4-0.8-4.4-2.8s0.7-3.9,2.9-4.4s4,0.8,4.4,2.8C40.6,41,39.5,42.8,37.4,43.3z M37,41.6
			c1-0.2,1.5-1.1,1.3-2.2c-0.3-1.2-1.1-1.8-2.1-1.6s-1.6,1.1-1.3,2.3S36,41.8,37,41.6z M40.4,50.2c-0.1,0.2-0.3,0.4-0.5,0.4
			c-0.4,0.1-0.8-0.1-0.9-0.5c0-0.1,0-0.3,0-0.4l5.7-15.1c0.1-0.2,0.3-0.4,0.5-0.4c0.4-0.1,0.8,0.2,0.9,0.5c0,0.1,0,0.2,0,0.4
			L40.4,50.2z M49.1,48.8c-2.2,0.5-4-0.8-4.4-2.8s0.7-3.9,2.9-4.4s4,0.8,4.4,2.8C52.5,46.4,51.4,48.3,49.1,48.8z M48.9,47.1
			c1-0.2,1.6-1.1,1.3-2.2c-0.3-1.2-1.1-1.8-2.1-1.6s-1.5,1.1-1.3,2.3C47,46.7,47.9,47.3,48.9,47.1z"/>
	</g>
	<path class="st0" d="M25.5,2c0.1-0.1,0.2-0.2,0.2-0.4c0-0.3-0.2-0.5-0.5-0.5c0,0,0,0-0.1,0l0,0C19.6,2,14.9,4,10.9,7.6
		c0.8,2.9,3,4.9,5.9,5.5C19,9,21.9,5,25.5,2C25.5,2.1,25.5,2.1,25.5,2L25.5,2L25.5,2z"/>
	<path class="st1" d="M26,0.1C11.5,2.4,0.3,15.1,0.3,30.3c0,11.5,6.4,21.6,15.8,26.8l1.6-8.8c-3.1-5.3-4.9-11.4-4.9-18
		c0-11.5,5.5-21.7,14-28.1C27,2,27.2,1.6,27.2,1.3C27.2,0.6,26.7,0.1,26,0.1z M25.5,2L25.5,2C25.5,2.1,25.5,2.1,25.5,2
		c-3.7,2.9-6.6,6.9-8.9,11.1c-2.9-0.6-5.1-2.6-5.9-5.5C14.7,4,19.4,2,25,1.1l0,0c0,0,0,0,0.1,0c0.3,0,0.5,0.2,0.5,0.5
		C25.8,1.8,25.7,1.9,25.5,2L25.5,2z"/>
</g>
</svg>
