<svg xmlns="http://www.w3.org/2000/svg" xmlns:xlink="http://www.w3.org/1999/xlink" version="1.1" id="Layer_1" x="0px" y="0px" style="enable-background:new 0 0 841.9 595.3;" xml:space="preserve" viewBox="246.1 166.8 350.1 262.4">
<style type="text/css">
	.st0{fill:#F7941D;}
	.st1{fill:#E18C26;}
	.st2{fill:#FECF0A;}
	.st3{opacity:0.25;fill:#FFFFFF;}
	.st4{fill:#BC7129;}
	.st5{fill:#233065;}
</style>
<g>
	<path class="st0" d="M345.4,191.6h-67.2v74h23.3c4.9,0,8.6,1.1,11,3.3c2.4,2.2,3.6,5.1,3.6,8.8c0,3.7-1.2,6.6-3.7,8.8   s-6.1,3.2-10.9,3.2h-23.3v99.4c0,6.6-1.5,11.6-4.5,14.8c-3,3.2-6.8,4.8-11.5,4.8c-4.8,0-8.6-1.6-11.6-4.9c-3-3.2-4.5-8.1-4.5-14.7   V186.5c0-4.6,0.7-8.4,2.1-11.3c1.4-2.9,3.5-5,6.4-6.4c2.9-1.3,6.6-2,11.2-2h79.6c5.1,0,8.9,1.1,11.4,3.4c2.5,2.3,3.7,5.2,3.7,8.9   c0,3.7-1.2,6.8-3.7,9C354.3,190.5,350.5,191.6,345.4,191.6z"/>
	<path class="st0" d="M318.3,283.4v-32.9c0-6.5,1.5-11.4,4.4-14.6c2.9-3.2,6.8-4.9,11.5-4.9c5,0,8.9,1.6,11.8,4.9   c2.9,3.2,4.4,8.1,4.4,14.6v34.7c0,8.9,1,16.3,3,22.2c2,5.9,5.5,10.6,10.5,13.8c5,3.3,12.1,4.9,21.2,4.9c12.5,0,21.4-3.3,26.6-10   c5.2-6.7,7.8-16.8,7.8-30.3v-35.3c0-6.6,1.4-11.4,4.3-14.7c2.9-3.2,6.7-4.8,11.6-4.8c4.8,0,8.7,1.6,11.7,4.8   c3,3.2,4.5,8.1,4.5,14.7v32.9c0,12.4-1.2,22.7-3.6,31c-2.4,8.3-7,15.6-13.7,21.8c-5.8,5.3-12.5,9.2-20.1,11.7   c-7.6,2.5-16.6,3.7-26.8,3.7c-12.2,0-22.7-1.3-31.5-3.9s-16-6.7-21.5-12.2c-5.6-5.5-9.6-12.6-12.2-21.2   C319.6,305.6,318.3,295.3,318.3,283.4z"/>
	<path class="st0" d="M497.4,219.1l56.6,85.6v-86.4c0-5.6,1.2-9.8,3.6-12.6c2.4-2.8,5.7-4.2,9.8-4.2c4.2,0,7.6,1.4,10,4.2   c2.4,2.8,3.7,7,3.7,12.6v114.2c0,12.7-5.3,19.1-15.9,19.1c-2.6,0-5-0.4-7.1-1.1c-2.1-0.8-4.1-2-5.9-3.6s-3.6-3.6-5.2-5.8   c-1.6-2.2-3.2-4.5-4.8-6.8L487,249.7v85.1c0,5.5-1.3,9.7-3.9,12.6c-2.6,2.8-5.9,4.3-9.9,4.3c-4.2,0-7.5-1.4-10-4.3   c-2.5-2.9-3.8-7-3.8-12.5v-112c0-4.8,0.5-8.5,1.6-11.2c1.3-3,3.3-5.4,6.2-7.3c2.9-1.9,6-2.8,9.4-2.8c2.6,0,4.9,0.4,6.8,1.3   c1.9,0.9,3.5,2,5,3.5c1.4,1.5,2.9,3.3,4.4,5.6C494.2,214.1,495.8,216.6,497.4,219.1z"/>
	<g>
		<g>
			<path class="st1" d="M416.8,226.6c-8.8,5.3-20.2,2.5-25.5-6.3c-1-1.7-1.8-3.6-2.2-5.5c-1.7-7.6,1.5-15.8,8.5-20     c6.1-3.7,13.6-3.4,19.3,0.1c1.4,0.9,2.7,1.9,3.8,3.1c0.9,0.9,1.7,2,2.4,3.2c0.3,0.6,0.7,1.2,0.9,1.8     C428,211.4,425,221.6,416.8,226.6z"/>
			<path class="st2" d="M392.3,219.7c0,0-0.1-0.2-0.3-0.5c-0.1-0.2-0.2-0.4-0.4-0.6c-0.1-0.1-0.1-0.3-0.2-0.4     c-0.1-0.2-0.1-0.3-0.2-0.5c-0.3-0.7-0.7-1.5-0.9-2.5c-0.3-1-0.5-2.2-0.6-3.5c-0.1-1.3,0-2.7,0.2-4.2c0.1-0.7,0.3-1.5,0.5-2.2     c0.2-0.7,0.5-1.5,0.9-2.2c0.7-1.5,1.6-2.9,2.8-4.2c0.6-0.6,1.2-1.2,1.9-1.8c0.7-0.6,1.4-1,2.1-1.5c0.7-0.4,1.5-0.8,2.3-1.2     c0.8-0.3,1.6-0.6,2.5-0.8c1.7-0.4,3.4-0.6,5-0.5c1.6,0.1,3.2,0.4,4.6,0.8c1.4,0.5,2.7,1.1,3.8,1.7c1.1,0.7,2,1.4,2.8,2.1     c0.8,0.7,1.4,1.4,1.8,2c0.1,0.1,0.2,0.3,0.3,0.4c0.1,0.1,0.2,0.3,0.3,0.4c0.2,0.2,0.3,0.4,0.4,0.6c0.2,0.3,0.3,0.5,0.3,0.5     s-0.1-0.2-0.3-0.5c-0.1-0.2-0.3-0.4-0.4-0.6c-0.1-0.1-0.2-0.2-0.3-0.4c-0.1-0.1-0.2-0.3-0.3-0.4c-0.5-0.6-1.1-1.2-1.9-1.9     c-0.8-0.7-1.7-1.4-2.8-2c-1.1-0.6-2.4-1.2-3.8-1.6c-0.7-0.2-1.4-0.4-2.2-0.5c-0.4-0.1-0.8-0.1-1.1-0.2c-0.2,0-0.4,0-0.6,0     c-0.2,0-0.4,0-0.6,0c-1.6-0.1-3.2,0.1-4.8,0.5c-0.8,0.2-1.6,0.5-2.4,0.8c-0.8,0.3-1.5,0.7-2.3,1.2c-0.7,0.4-1.4,0.9-2.1,1.4     c-0.6,0.5-1.3,1.1-1.8,1.7c-1.1,1.2-2,2.6-2.7,4c-0.3,0.7-0.6,1.4-0.9,2.2c-0.3,0.7-0.4,1.4-0.6,2.2c-0.3,1.4-0.4,2.8-0.3,4.1     c0.1,1.3,0.2,2.4,0.5,3.4c0.2,1,0.5,1.9,0.8,2.6c0.1,0.2,0.1,0.3,0.2,0.5c0.1,0.2,0.1,0.3,0.2,0.4c0.1,0.3,0.2,0.5,0.3,0.7     C392.2,219.5,392.3,219.7,392.3,219.7z"/>
			<path class="st2" d="M420.9,202.5c0,0,0.1,0.2,0.3,0.5c0.1,0.2,0.2,0.4,0.3,0.6c0.1,0.1,0.1,0.2,0.2,0.4c0.1,0.1,0.1,0.3,0.2,0.4     c0.3,0.6,0.6,1.4,0.9,2.3c0.3,0.9,0.5,2,0.5,3.2c0.1,1.2,0,2.5-0.2,3.8c-0.2,1.3-0.7,2.7-1.3,4.1c-0.6,1.3-1.5,2.6-2.5,3.8     c-0.5,0.6-1.1,1.1-1.7,1.6c-0.6,0.5-1.3,1-1.9,1.4c-0.7,0.4-1.4,0.8-2.1,1.1c-0.7,0.3-1.5,0.6-2.2,0.7c-1.5,0.4-3.1,0.5-4.6,0.5     c-1.5,0-2.9-0.3-4.2-0.8c-1.3-0.4-2.5-1-3.5-1.6c-1-0.6-1.9-1.3-2.6-2c-0.7-0.7-1.2-1.3-1.7-1.8c-0.1-0.1-0.2-0.3-0.3-0.4     c-0.1-0.1-0.2-0.2-0.2-0.4c-0.2-0.2-0.3-0.4-0.4-0.6c-0.2-0.3-0.3-0.5-0.3-0.5s0.1,0.2,0.3,0.5c0.1,0.2,0.2,0.3,0.4,0.5     c0.2,0.2,0.3,0.5,0.6,0.7c0.4,0.5,1,1.1,1.7,1.8c0.7,0.6,1.6,1.3,2.6,1.9c1,0.6,2.2,1.1,3.4,1.5c0.6,0.2,1.3,0.3,2,0.5     c0.3,0.1,0.7,0.1,1,0.1c0.4,0,0.7,0.1,1.1,0.1c1.4,0,2.9-0.1,4.4-0.5c0.7-0.2,1.5-0.4,2.2-0.7c0.7-0.3,1.4-0.7,2.1-1.1     c0.6-0.4,1.3-0.8,1.9-1.3c0.6-0.5,1.2-1,1.7-1.6c1-1.1,1.9-2.4,2.5-3.7c0.3-0.6,0.6-1.3,0.8-2c0.2-0.7,0.4-1.3,0.5-2     c0.3-1.3,0.4-2.6,0.3-3.7c0-1.2-0.2-2.2-0.4-3.1c-0.2-0.9-0.5-1.7-0.8-2.3c-0.1-0.3-0.3-0.6-0.4-0.8c-0.1-0.2-0.2-0.4-0.3-0.6     C421,202.6,420.9,202.5,420.9,202.5z"/>
			<path class="st3" d="M416.9,194.8c-2,6.2-8.7,20.5-27.8,20c-1.7-7.6,1.5-15.8,8.5-20C403.7,191.1,411.2,191.3,416.9,194.8z"/>
			<path class="st3" d="M424,202.9c-11.4,16.6-29.4,13.9-29.4,13.9c14.1-0.5,22.4-12,26.1-18.8c0.9,0.9,1.7,2,2.4,3.2     C423.4,201.7,423.8,202.3,424,202.9z"/>
			<path class="st2" d="M422,214.4c-2,8.2-10.3,13.2-18.5,11.2c-5.4-1.3-9.4-5.4-10.9-10.4c-0.8-2.6-0.9-5.4-0.2-8.2     c2-8.2,10.3-13.2,18.5-11.1c2,0.5,3.8,1.4,5.3,2.5c1.2,0.9,2.3,1.9,3.2,3.1c1.2,1.5,2,3.3,2.6,5.1     C422.6,209,422.7,211.7,422,214.4z"/>
			<path class="st3" d="M416.2,198.3c-2.8,6.5-9.4,16-23.6,16.8c-0.8-2.6-0.9-5.4-0.2-8.2c2-8.2,10.3-13.2,18.5-11.1     C412.8,196.3,414.6,197.2,416.2,198.3z"/>
			<path class="st3" d="M421.9,206.6c-11.3,12.9-26.8,10.6-26.8,10.6c12.1-0.4,19.9-9,24.3-15.7C420.5,203,421.4,204.7,421.9,206.6z     "/>
			<path class="st4" d="M420.5,203.1c-2-3.2-5.2-5.6-9.2-6.6c-8.2-2-16.5,3-18.5,11.1c-1,4-0.3,8,1.6,11.3c-2.2-3.4-3-7.7-2-11.9     c2-8.2,10.3-13.2,18.5-11.1C415.1,196.9,418.5,199.6,420.5,203.1z"/>
		</g>
		<circle class="st5" cx="406.2" cy="217.1" r="6.4"/>
	</g>
	<g>
		<g>
			<path class="st1" d="M376.6,234.7c-8,4.8-18.3,2.2-23.1-5.7c-0.9-1.6-1.6-3.2-2-4.9c-1.6-6.9,1.3-14.3,7.7-18.1     c5.6-3.4,12.3-3.1,17.5,0.1c1.3,0.8,2.4,1.7,3.5,2.8c0.8,0.9,1.5,1.8,2.2,2.9c0.3,0.5,0.6,1.1,0.8,1.6     C386.7,220.9,384,230.3,376.6,234.7z"/>
			<path class="st2" d="M354.4,228.5c0,0-0.1-0.2-0.3-0.5c-0.1-0.2-0.2-0.4-0.3-0.6c-0.1-0.1-0.1-0.2-0.2-0.4     c-0.1-0.1-0.1-0.3-0.2-0.4c-0.3-0.6-0.6-1.4-0.8-2.3c-0.3-0.9-0.5-2-0.5-3.1c-0.1-1.2,0-2.4,0.2-3.8c0.1-0.7,0.3-1.3,0.5-2     c0.2-0.7,0.5-1.4,0.8-2c0.6-1.3,1.5-2.6,2.5-3.8c0.5-0.6,1.1-1.1,1.7-1.6c0.6-0.5,1.2-0.9,1.9-1.4c0.7-0.4,1.4-0.8,2.1-1.1     c0.7-0.3,1.5-0.5,2.2-0.7c1.5-0.4,3-0.5,4.5-0.5c1.5,0,2.9,0.3,4.2,0.7c1.3,0.4,2.4,1,3.4,1.6c1,0.6,1.8,1.3,2.5,1.9     c0.7,0.6,1.2,1.3,1.6,1.8c0.1,0.1,0.2,0.3,0.3,0.4c0.1,0.1,0.2,0.2,0.2,0.4c0.1,0.2,0.3,0.4,0.4,0.6c0.2,0.3,0.3,0.5,0.3,0.5     s-0.1-0.2-0.3-0.5c-0.1-0.2-0.2-0.3-0.4-0.5c-0.1-0.1-0.2-0.2-0.3-0.3c-0.1-0.1-0.2-0.2-0.3-0.4c-0.4-0.5-1-1.1-1.7-1.7     c-0.7-0.6-1.6-1.3-2.6-1.8c-1-0.6-2.1-1.1-3.4-1.5c-0.6-0.2-1.3-0.3-2-0.4c-0.3-0.1-0.7-0.1-1-0.1c-0.2,0-0.4,0-0.5,0     c-0.2,0-0.4,0-0.5,0c-1.4,0-2.9,0.1-4.4,0.5c-0.7,0.2-1.4,0.4-2.1,0.7c-0.7,0.3-1.4,0.6-2,1c-0.6,0.4-1.3,0.8-1.9,1.3     c-0.6,0.5-1.1,1-1.6,1.6c-1,1.1-1.8,2.4-2.5,3.6c-0.3,0.6-0.6,1.3-0.8,2c-0.2,0.7-0.4,1.3-0.5,2c-0.3,1.3-0.3,2.5-0.3,3.7     c0.1,1.2,0.2,2.2,0.4,3.1c0.2,0.9,0.5,1.7,0.7,2.3c0.1,0.2,0.1,0.3,0.2,0.4c0.1,0.1,0.1,0.3,0.2,0.4c0.1,0.2,0.2,0.4,0.3,0.6     C354.3,228.3,354.4,228.5,354.4,228.5z"/>
			<path class="st2" d="M380.4,212.9c0,0,0.1,0.2,0.3,0.4c0.1,0.1,0.2,0.3,0.3,0.5c0.1,0.1,0.1,0.2,0.2,0.3c0.1,0.1,0.1,0.3,0.2,0.4     c0.3,0.6,0.5,1.3,0.8,2.1c0.2,0.8,0.4,1.8,0.5,2.9c0.1,1.1,0,2.2-0.2,3.5c-0.2,1.2-0.6,2.5-1.2,3.7c-0.6,1.2-1.4,2.4-2.3,3.5     c-0.5,0.5-1,1-1.5,1.5c-0.6,0.5-1.1,0.9-1.8,1.3c-0.6,0.4-1.3,0.7-1.9,1c-0.7,0.3-1.3,0.5-2,0.7c-1.4,0.3-2.8,0.5-4.1,0.4     c-1.4,0-2.6-0.3-3.8-0.7c-1.2-0.4-2.2-0.9-3.2-1.4c-0.9-0.6-1.7-1.2-2.3-1.8c-0.6-0.6-1.1-1.2-1.5-1.7c-0.1-0.1-0.2-0.2-0.3-0.4     c-0.1-0.1-0.2-0.2-0.2-0.3c-0.1-0.2-0.2-0.4-0.3-0.5c-0.2-0.3-0.3-0.4-0.3-0.4s0.1,0.1,0.3,0.4c0.1,0.1,0.2,0.3,0.4,0.5     c0.1,0.2,0.3,0.4,0.5,0.6c0.4,0.5,0.9,1,1.6,1.6c0.6,0.6,1.4,1.1,2.3,1.7c0.9,0.5,2,1,3.1,1.3c0.6,0.2,1.2,0.3,1.8,0.4     c0.3,0.1,0.6,0.1,0.9,0.1c0.3,0,0.6,0.1,1,0.1c1.3,0,2.7-0.1,4-0.4c0.7-0.2,1.3-0.4,2-0.7c0.6-0.3,1.2-0.6,1.9-1     c0.6-0.4,1.2-0.8,1.7-1.2c0.5-0.4,1-0.9,1.5-1.4c0.9-1,1.7-2.2,2.3-3.3c0.3-0.6,0.5-1.2,0.7-1.8c0.2-0.6,0.4-1.2,0.5-1.8     c0.2-1.2,0.3-2.3,0.3-3.4c0-1.1-0.2-2-0.4-2.9c-0.2-0.8-0.4-1.5-0.7-2.1c-0.1-0.3-0.2-0.5-0.3-0.8c-0.1-0.2-0.2-0.4-0.3-0.5     C380.4,213,380.4,212.9,380.4,212.9z"/>
			<path class="st3" d="M376.7,206c-1.8,5.6-7.9,18.5-25.2,18.1c-1.6-6.9,1.3-14.3,7.7-18.1C364.8,202.6,371.5,202.8,376.7,206z"/>
			<path class="st3" d="M383.2,213.2c-10.3,15-26.6,12.6-26.6,12.6c12.7-0.4,20.3-10.8,23.6-17c0.8,0.9,1.5,1.8,2.2,2.9     C382.6,212.2,382.9,212.7,383.2,213.2z"/>
			<path class="st2" d="M381.3,223.7c-1.8,7.4-9.4,11.9-16.8,10.1c-4.9-1.2-8.5-4.9-9.9-9.4c-0.7-2.3-0.8-4.9-0.2-7.4     c1.8-7.4,9.4-11.9,16.8-10.1c1.8,0.4,3.4,1.2,4.8,2.3c1.1,0.8,2.1,1.7,2.9,2.8c1.1,1.4,1.8,3,2.3,4.7     C381.9,218.8,381.9,221.3,381.3,223.7z"/>
			<path class="st3" d="M376.1,209.1c-2.6,5.8-8.5,14.5-21.4,15.2c-0.7-2.3-0.8-4.9-0.2-7.4c1.8-7.4,9.4-11.9,16.8-10.1     C373,207.3,374.7,208.1,376.1,209.1z"/>
			<path class="st3" d="M381.2,216.6c-10.3,11.6-24.3,9.6-24.3,9.6c11-0.4,18.1-8.1,22-14.2C380,213.3,380.8,214.9,381.2,216.6z"/>
			<path class="st4" d="M379.9,213.5c-1.8-2.9-4.7-5.1-8.3-6c-7.4-1.8-14.9,2.7-16.8,10.1c-0.9,3.6-0.3,7.2,1.4,10.2     c-2-3.1-2.7-7-1.8-10.8c1.8-7.4,9.4-11.9,16.8-10.1C375.1,207.8,378.1,210.3,379.9,213.5z"/>
		</g>
		<circle class="st5" cx="367" cy="226.1" r="5.8"/>
	</g>
	<g>
		<path class="st5" d="M399.5,398c0,1.7-0.4,3.6-1.3,5.6c-0.9,2-2.2,4-4,6c-1.8,1.9-4.2,3.5-7,4.7s-6.2,1.8-10,1.8    c-2.9,0-5.5-0.3-7.9-0.8c-2.4-0.5-4.5-1.4-6.4-2.6c-1.9-1.2-3.7-2.7-5.3-4.6c-1.4-1.7-2.7-3.6-3.7-5.8c-1-2.1-1.8-4.4-2.3-6.8    c-0.5-2.4-0.8-5-0.8-7.7c0-4.4,0.6-8.3,1.9-11.8c1.3-3.5,3.1-6.4,5.5-8.9c2.4-2.5,5.2-4.4,8.4-5.6c3.2-1.3,6.6-1.9,10.2-1.9    c4.4,0,8.4,0.9,11.8,2.6c3.5,1.8,6.1,3.9,7.9,6.5s2.8,5,2.8,7.4c0,1.3-0.4,2.4-1.3,3.4c-0.9,1-2,1.5-3.2,1.5c-1.4,0-2.5-0.3-3.2-1    c-0.7-0.7-1.5-1.8-2.4-3.5c-1.4-2.7-3.1-4.7-5.1-6.1c-2-1.3-4.4-2-7.2-2c-4.5,0-8.2,1.7-10.9,5.2c-2.7,3.5-4,8.4-4,14.7    c0,4.2,0.6,7.8,1.8,10.6c1.2,2.8,2.9,4.9,5.1,6.3c2.2,1.4,4.7,2.1,7.7,2.1c3.2,0,5.9-0.8,8.1-2.4c2.2-1.6,3.9-3.9,5-6.9    c0.5-1.4,1.1-2.6,1.8-3.5c0.7-0.9,1.8-1.4,3.4-1.4c1.3,0,2.4,0.5,3.4,1.4C399,395.5,399.5,396.7,399.5,398z"/>
		<path class="st5" d="M424.9,391.9h-3.9v17.5c0,2.3-0.5,4-1.5,5.1c-1,1.1-2.3,1.6-4,1.6c-1.8,0-3.1-0.6-4.1-1.7    c-1-1.1-1.5-2.8-1.5-5v-42c0-2.4,0.5-4.1,1.6-5.2c1.1-1.1,2.8-1.6,5.2-1.6h18c2.5,0,4.6,0.1,6.4,0.3c1.8,0.2,3.4,0.6,4.8,1.3    c1.7,0.7,3.2,1.8,4.5,3.1s2.3,2.9,3,4.7c0.7,1.8,1,3.7,1,5.6c0,4.1-1.2,7.3-3.4,9.8c-2.3,2.4-5.8,4.2-10.4,5.2    c2,1,3.8,2.6,5.6,4.6c1.8,2,3.4,4.2,4.8,6.5c1.4,2.3,2.5,4.4,3.3,6.2c0.8,1.8,1.2,3.1,1.2,3.8c0,0.7-0.2,1.4-0.7,2.1    c-0.5,0.7-1.1,1.3-1.9,1.7c-0.8,0.4-1.7,0.6-2.8,0.6c-1.2,0-2.3-0.3-3.1-0.9c-0.8-0.6-1.6-1.3-2.2-2.2c-0.6-0.9-1.4-2.2-2.5-3.9    l-4.4-7.4c-1.6-2.7-3-4.8-4.3-6.2c-1.3-1.4-2.5-2.4-3.8-2.9C428.5,392.2,426.9,391.9,424.9,391.9z M431.3,369h-10.2v15h9.9    c2.7,0,4.9-0.2,6.7-0.7c1.8-0.5,3.2-1.2,4.2-2.3c1-1.1,1.4-2.6,1.4-4.6c0-1.5-0.4-2.9-1.2-4c-0.8-1.2-1.8-2-3.2-2.6    C437.6,369.3,435.1,369,431.3,369z"/>
		<path class="st5" d="M467.9,409.5v-43c0-2.2,0.5-3.9,1.5-5c1-1.1,2.3-1.7,3.9-1.7c1.7,0,3,0.6,4,1.7c1,1.1,1.5,2.8,1.5,5v43    c0,2.3-0.5,3.9-1.5,5.1c-1,1.1-2.4,1.7-4,1.7c-1.6,0-2.9-0.6-3.9-1.7C468.5,413.4,467.9,411.7,467.9,409.5z"/>
		<path class="st5" d="M510.5,407l-8.8-34.8V410c0,2.1-0.5,3.7-1.4,4.7s-2.2,1.6-3.7,1.6c-1.5,0-2.7-0.5-3.7-1.5    c-0.9-1-1.4-2.6-1.4-4.7v-43.2c0-2.4,0.6-4,1.9-4.8c1.2-0.8,2.9-1.2,5-1.2h3.4c2.1,0,3.6,0.2,4.5,0.6c0.9,0.4,1.6,1,2.1,2    c0.4,1,1,2.5,1.5,4.7l7.9,29.9l7.9-29.9c0.6-2.2,1.1-3.8,1.5-4.7c0.4-1,1.1-1.6,2.1-2c0.9-0.4,2.4-0.6,4.5-0.6h3.4    c2.1,0,3.8,0.4,5,1.2c1.2,0.8,1.9,2.4,1.9,4.8V410c0,2.1-0.5,3.7-1.4,4.7c-0.9,1-2.2,1.6-3.7,1.6c-1.5,0-2.7-0.5-3.6-1.6    s-1.4-2.6-1.4-4.7v-37.7l-8.8,34.8c-0.6,2.3-1,3.9-1.4,5c-0.4,1.1-1,2-2,2.9c-1,0.9-2.3,1.3-4,1.3c-1.3,0-2.4-0.3-3.3-0.8    c-0.9-0.6-1.6-1.3-2.1-2.1c-0.5-0.9-0.9-1.8-1.2-2.9C511.1,409.3,510.8,408.2,510.5,407z"/>
		<path class="st5" d="M575.6,394h-10.1v15.5c0,2.2-0.5,3.9-1.6,5c-1,1.1-2.4,1.7-3.9,1.7c-1.7,0-3-0.6-4-1.7c-1-1.1-1.5-2.8-1.5-5    v-42.1c0-2.4,0.6-4.2,1.7-5.2c1.1-1,2.9-1.6,5.3-1.6h14.2c4.2,0,7.4,0.3,9.7,1c2.2,0.6,4.2,1.7,5.8,3.1c1.6,1.4,2.9,3.2,3.7,5.3    c0.8,2.1,1.3,4.4,1.3,7c0,5.6-1.7,9.8-5.1,12.6S582.4,394,575.6,394z M572.9,369h-7.4v16.7h7.4c2.6,0,4.8-0.3,6.5-0.8    c1.8-0.5,3.1-1.4,4-2.7c0.9-1.2,1.4-2.9,1.4-4.9c0-2.4-0.7-4.4-2.1-5.9C581.1,369.8,577.9,369,572.9,369z"/>
		<g>
			<path class="st0" d="M313.8,416v8.8c0,2.4,2,4.4,4.4,4.4c2.4,0,4.4-2,4.4-4.4v-8.2c-0.7,0-1.3,0.1-2,0.1     C318.1,416.6,315.9,416.4,313.8,416z"/>
			<path class="st0" d="M322.6,351.3v-9.1c0-2.4-2-4.4-4.4-4.4c-2.4,0-4.4,2-4.4,4.4v9.4c2.1-0.3,4.3-0.5,6.7-0.5     C321.2,351.2,321.9,351.3,322.6,351.3z"/>
			<path class="st0" d="M313.8,361.3v12.6c0.8,0.3,1.5,0.7,2.3,1c1.2,0.4,3.3,0.9,6.1,1.6c0.1,0,0.3,0.1,0.4,0.1v-16.1     c-0.9-0.1-1.9-0.2-3-0.2C317.3,360.3,315.4,360.7,313.8,361.3z"/>
			<path class="st0" d="M322.6,407v-18.3c-1.3-0.4-2.9-0.7-4.5-1.1c-1.5-0.4-2.9-0.7-4.3-1.1v19.5c1.7,0.8,3.8,1.2,6.5,1.2     C321.1,407.2,321.8,407.1,322.6,407z"/>
			<path class="st5" d="M313.6,405.9c-1.7-0.9-3-2-3.9-3.3c-0.9-1.4-1.8-3-2.6-5c-0.7-1.7-1.5-3-2.4-3.8c-0.9-0.9-2.1-1.3-3.4-1.3     c-1.7,0-3,0.6-4.1,1.7c-1.1,1.1-1.6,2.4-1.6,4c0,2.7,0.9,5.4,2.7,8.3c1.8,2.8,4.1,5.1,7,6.8c2.5,1.4,5.4,2.4,8.6,2.9v-10     C313.7,405.9,313.6,405.9,313.6,405.9z"/>
			<path class="st5" d="M327.3,362.3c1.6,1.3,3,3.2,4.1,5.6c0.9,1.7,1.7,2.9,2.5,3.6c0.8,0.7,1.9,1.1,3.3,1.1c1.6,0,3-0.6,4-1.8     c1.1-1.2,1.6-2.6,1.6-4.1c0-1.7-0.4-3.4-1.3-5.1c-0.9-1.8-2.2-3.4-4.1-5c-1.9-1.6-4.2-2.9-7.1-3.8c-2.3-0.8-5-1.1-7.9-1.3v9.2     C324.6,360.8,326.2,361.4,327.3,362.3z"/>
			<path class="st5" d="M344,388.4c-1.1-2.2-2.7-4-4.7-5.5c-2-1.4-4.5-2.7-7.4-3.7c-2.8-1-5.9-1.9-9.3-2.7v12.1     c1.4,0.4,2.6,0.7,3.6,1.1c2,0.7,3.7,1.7,5,3c1.3,1.3,1.9,3,1.9,5.1c0,2.6-1.2,4.9-3.6,6.6c-1.9,1.4-4.2,2.2-6.9,2.5v9.5     c4.4-0.2,8.2-1,11.5-2.5c3.8-1.7,6.7-4.1,8.6-7.2c2-3,3-6.5,3-10.3C345.7,393.3,345.1,390.6,344,388.4z"/>
			<path class="st5" d="M312.4,373.4c-1.2-0.7-2.2-1.5-2.8-2.4c-0.7-0.9-1-2-1-3.3c0-2,1-3.8,3-5.2c0.7-0.5,1.4-0.8,2.2-1.2v-9.6     c-2.2,0.4-4.2,0.9-6,1.7c-3.6,1.4-6.3,3.5-8.2,6.2c-1.9,2.7-2.8,5.8-2.8,9.3c0,3.6,0.9,6.7,2.7,9.2c1.8,2.5,4.2,4.4,7.3,5.8     c2,0.9,4.4,1.8,7.1,2.6v-12.5C313.3,373.7,312.9,373.6,312.4,373.4z"/>
			<path class="st5" d="M319.6,360.3c1.1,0,2.1,0.1,3,0.2v-9.2c-0.7,0-1.4-0.1-2.2-0.1c-2.4,0-4.6,0.2-6.7,0.5v9.6     C315.4,360.7,317.3,360.3,319.6,360.3z"/>
			<path class="st5" d="M320.3,407.2c-2.7,0-4.8-0.4-6.5-1.2v10c2.1,0.4,4.4,0.6,6.8,0.6c0.7,0,1.3-0.1,2-0.1V407     C321.8,407.1,321.1,407.2,320.3,407.2z"/>
			<path class="st0" d="M322.6,388.7v-12.1c-0.1,0-0.3-0.1-0.4-0.1c-2.8-0.7-4.9-1.3-6.1-1.6c-0.8-0.2-1.5-0.6-2.3-1v12.5     c1.4,0.4,2.8,0.8,4.3,1.1C319.7,388,321.3,388.4,322.6,388.7z"/>
		</g>
	</g>
</g>
</svg>