<?xml version="1.0" encoding="utf-8"?>
<!-- Generator: Adobe Illustrator 24.2.1, SVG Export Plug-In . SVG Version: 6.00 Build 0)  -->
<svg version="1.1" id="Layer_1" xmlns="http://www.w3.org/2000/svg" xmlns:xlink="http://www.w3.org/1999/xlink" x="0px" y="0px"
	 viewBox="0 0 720 720" style="enable-background:new 0 0 720 720;" xml:space="preserve">
<style type="text/css">
	.st0{fill:#FFFFFF;}
	.st1{fill:#F6B1A6;}
	.st2{fill:#E28C05;}
	.st3{fill:#FFD000;}
	.st4{opacity:0.25;fill:#FFFFFF;}
	.st5{fill:#C06F17;}
	.st6{fill:#6061A9;}
</style>
<rect class="st0" width="720" height="720"/>
<g>
	<path class="st1" d="M284.34,253.61h-67.2v74.02h23.35c4.9,0,8.56,1.1,10.98,3.3c2.42,2.2,3.62,5.14,3.62,8.82
		c0,3.68-1.23,6.6-3.68,8.76c-2.45,2.16-6.09,3.24-10.92,3.24h-23.35v99.44c0,6.63-1.5,11.56-4.49,14.76
		c-2.99,3.2-6.83,4.81-11.52,4.81c-4.76,0-8.63-1.62-11.63-4.86c-2.99-3.25-4.49-8.15-4.49-14.71V248.52c0-4.61,0.69-8.38,2.06-11.3
		c1.37-2.92,3.51-5.04,6.43-6.38c2.92-1.33,6.65-2,11.19-2h79.63c5.12,0,8.92,1.14,11.41,3.41s3.73,5.24,3.73,8.92
		c0,3.75-1.24,6.76-3.73,9.03C293.26,252.47,289.46,253.61,284.34,253.61z"/>
	<path class="st1" d="M257.2,345.38v-32.93c0-6.49,1.46-11.36,4.38-14.6c2.92-3.24,6.76-4.86,11.52-4.86
		c4.98,0,8.92,1.62,11.84,4.86c2.92,3.25,4.38,8.11,4.38,14.6v34.66c0,8.87,0.99,16.27,2.97,22.23c1.98,5.95,5.5,10.56,10.54,13.84
		c5.04,3.28,12.11,4.92,21.19,4.92c12.54,0,21.41-3.33,26.6-10c5.19-6.67,7.79-16.78,7.79-30.34v-35.3c0-6.56,1.44-11.44,4.32-14.65
		c2.88-3.21,6.74-4.81,11.57-4.81c4.83,0,8.74,1.61,11.73,4.81c2.99,3.21,4.49,8.09,4.49,14.65v32.93c0,12.4-1.21,22.74-3.62,31.03
		c-2.42,8.29-6.97,15.57-13.68,21.85c-5.77,5.33-12.47,9.23-20.11,11.68c-7.64,2.45-16.58,3.68-26.82,3.68
		c-12.19,0-22.67-1.32-31.47-3.95c-8.8-2.63-15.97-6.7-21.52-12.22c-5.55-5.52-9.62-12.58-12.22-21.2
		C258.5,367.64,257.2,357.34,257.2,345.38z"/>
	<path class="st1" d="M436.29,281.07l56.56,85.59v-86.38c0-5.61,1.2-9.82,3.61-12.63c2.41-2.81,5.66-4.21,9.76-4.21
		c4.22,0,7.56,1.4,10,4.21c2.44,2.81,3.67,7.01,3.67,12.63v114.22c0,12.75-5.29,19.12-15.85,19.12c-2.64,0-5.02-0.38-7.13-1.14
		c-2.12-0.76-4.1-1.97-5.94-3.62c-1.85-1.65-3.56-3.58-5.15-5.79c-1.58-2.22-3.17-4.48-4.75-6.79l-55.17-84.6v85.09
		c0,5.55-1.29,9.74-3.86,12.58c-2.57,2.84-5.88,4.26-9.91,4.26c-4.16,0-7.5-1.44-10.01-4.31c-2.51-2.87-3.76-7.04-3.76-12.53V284.73
		c0-4.75,0.53-8.49,1.59-11.2c1.25-2.97,3.33-5.4,6.24-7.28c2.9-1.88,6.04-2.82,9.41-2.82c2.64,0,4.9,0.43,6.79,1.29
		c1.88,0.86,3.53,2.02,4.95,3.47c1.42,1.45,2.87,3.34,4.36,5.65C433.17,276.15,434.71,278.56,436.29,281.07z"/>
	<g>
		<g>
			<path class="st2" d="M355.68,288.59c-8.79,5.29-20.2,2.45-25.5-6.34c-1.05-1.74-1.78-3.58-2.2-5.46
				c-1.73-7.61,1.49-15.79,8.54-20.03c6.15-3.7,13.58-3.43,19.3,0.08c1.39,0.85,2.67,1.89,3.81,3.1c0.89,0.94,1.69,2,2.38,3.15
				c0.35,0.58,0.66,1.16,0.94,1.76C366.91,273.36,363.9,283.65,355.68,288.59z"/>
			<path class="st3" d="M331.21,281.68c0,0-0.11-0.18-0.32-0.53c-0.11-0.17-0.23-0.39-0.36-0.65c-0.07-0.13-0.14-0.27-0.22-0.42
				c-0.07-0.15-0.14-0.31-0.22-0.48c-0.31-0.68-0.65-1.53-0.93-2.55c-0.28-1.01-0.51-2.18-0.58-3.48c-0.08-1.29-0.01-2.71,0.24-4.17
				c0.14-0.73,0.31-1.48,0.55-2.22c0.23-0.75,0.53-1.49,0.88-2.22c0.7-1.47,1.64-2.88,2.78-4.16c0.57-0.64,1.2-1.23,1.86-1.79
				c0.67-0.55,1.38-1.05,2.13-1.51c0.73-0.43,1.52-0.83,2.32-1.16c0.8-0.32,1.62-0.61,2.45-0.81c1.66-0.41,3.35-0.58,4.98-0.51
				c1.63,0.05,3.18,0.36,4.6,0.82c1.41,0.46,2.7,1.06,3.8,1.74c1.11,0.67,2.04,1.42,2.8,2.14c0.77,0.72,1.36,1.42,1.82,2.01
				c0.11,0.15,0.22,0.29,0.32,0.42c0.1,0.14,0.18,0.27,0.26,0.39c0.16,0.24,0.3,0.45,0.4,0.62c0.21,0.34,0.32,0.53,0.32,0.53
				s-0.12-0.18-0.34-0.51c-0.11-0.17-0.25-0.37-0.43-0.6c-0.09-0.12-0.18-0.24-0.28-0.37c-0.11-0.13-0.22-0.27-0.34-0.41
				c-0.48-0.57-1.09-1.25-1.87-1.93c-0.78-0.68-1.72-1.38-2.82-2.03c-1.1-0.64-2.37-1.2-3.76-1.62c-0.7-0.2-1.42-0.38-2.18-0.5
				c-0.38-0.07-0.76-0.1-1.14-0.15c-0.19-0.02-0.39-0.03-0.58-0.05c-0.2-0.02-0.39-0.03-0.59-0.03c-1.58-0.06-3.22,0.12-4.83,0.53
				c-0.81,0.2-1.6,0.48-2.37,0.8c-0.78,0.33-1.51,0.71-2.25,1.15c-0.71,0.43-1.41,0.92-2.06,1.45c-0.64,0.54-1.26,1.1-1.82,1.72
				c-1.12,1.23-2.04,2.6-2.73,4.02c-0.35,0.71-0.64,1.43-0.88,2.16c-0.25,0.72-0.43,1.45-0.58,2.16c-0.28,1.43-0.38,2.81-0.33,4.08
				c0.06,1.27,0.23,2.43,0.47,3.44c0.24,1.01,0.54,1.87,0.83,2.56c0.07,0.17,0.14,0.34,0.21,0.49c0.07,0.15,0.14,0.29,0.2,0.42
				c0.12,0.26,0.23,0.49,0.33,0.66C331.1,281.49,331.21,281.68,331.21,281.68z"/>
			<path class="st3" d="M359.86,264.46c0,0,0.1,0.17,0.29,0.48c0.1,0.16,0.21,0.35,0.33,0.59c0.06,0.12,0.13,0.25,0.2,0.38
				c0.06,0.14,0.13,0.29,0.21,0.44c0.29,0.63,0.6,1.41,0.85,2.33c0.26,0.93,0.47,2,0.54,3.19c0.08,1.19,0.01,2.48-0.22,3.82
				c-0.24,1.34-0.65,2.74-1.31,4.08c-0.64,1.35-1.5,2.65-2.55,3.81c-0.52,0.59-1.1,1.13-1.71,1.64c-0.61,0.51-1.26,0.96-1.95,1.39
				c-0.67,0.39-1.4,0.76-2.13,1.07c-0.74,0.3-1.49,0.56-2.25,0.74c-1.52,0.38-3.07,0.53-4.56,0.47c-1.49-0.05-2.92-0.34-4.22-0.75
				c-1.3-0.42-2.47-0.97-3.48-1.6c-1.01-0.62-1.87-1.31-2.56-1.97c-0.7-0.66-1.24-1.3-1.66-1.85c-0.1-0.14-0.2-0.27-0.29-0.39
				c-0.09-0.13-0.17-0.25-0.24-0.36c-0.15-0.22-0.28-0.41-0.37-0.57c-0.19-0.32-0.29-0.48-0.29-0.48s0.11,0.16,0.32,0.47
				c0.1,0.15,0.23,0.34,0.4,0.55c0.16,0.22,0.35,0.45,0.57,0.72c0.44,0.52,1,1.14,1.72,1.76c0.71,0.62,1.58,1.26,2.58,1.85
				c1.01,0.59,2.17,1.1,3.44,1.48c0.64,0.18,1.3,0.35,1.99,0.45c0.34,0.06,0.69,0.09,1.05,0.14c0.35,0.03,0.71,0.07,1.07,0.07
				c1.45,0.05,2.95-0.11,4.42-0.49c0.74-0.19,1.46-0.44,2.17-0.73c0.71-0.3,1.38-0.65,2.06-1.05c0.64-0.4,1.29-0.84,1.88-1.32
				c0.59-0.49,1.16-1.01,1.66-1.57c1.02-1.12,1.87-2.37,2.5-3.68c0.32-0.65,0.59-1.31,0.81-1.97c0.23-0.66,0.4-1.32,0.53-1.97
				c0.26-1.31,0.35-2.57,0.3-3.74c-0.05-1.16-0.21-2.23-0.43-3.15c-0.21-0.93-0.49-1.71-0.75-2.34c-0.13-0.32-0.25-0.6-0.37-0.84
				c-0.11-0.24-0.21-0.45-0.3-0.61C359.95,264.63,359.86,264.46,359.86,264.46z"/>
			<path class="st4" d="M355.82,256.84c-2.01,6.21-8.72,20.47-27.84,19.95c-1.73-7.61,1.49-15.79,8.54-20.03
				C342.67,253.06,350.1,253.34,355.82,256.84z"/>
			<path class="st4" d="M362.95,264.86c-11.41,16.56-29.4,13.88-29.4,13.88c14.05-0.47,22.37-11.96,26.08-18.79
				c0.89,0.94,1.69,2,2.38,3.15C362.36,263.67,362.68,264.26,362.95,264.86z"/>
			<path class="st3" d="M360.94,276.36c-2.04,8.2-10.33,13.19-18.52,11.15c-5.4-1.34-9.41-5.4-10.93-10.36
				c-0.79-2.56-0.91-5.37-0.22-8.16c2.04-8.19,10.33-13.18,18.52-11.15c1.98,0.49,3.77,1.35,5.33,2.49
				c1.21,0.88,2.27,1.93,3.16,3.11c1.16,1.53,2.03,3.28,2.55,5.14C361.52,271.04,361.6,273.71,360.94,276.36z"/>
			<path class="st4" d="M355.12,260.33c-2.82,6.46-9.37,16-23.63,16.82c-0.79-2.56-0.91-5.37-0.22-8.16
				c2.04-8.19,10.33-13.18,18.52-11.15C351.77,258.34,353.56,259.19,355.12,260.33z"/>
			<path class="st4" d="M360.83,268.58c-11.34,12.86-26.81,10.56-26.81,10.56c12.1-0.4,19.94-8.97,24.26-15.7
				C359.44,264.97,360.31,266.71,360.83,268.58z"/>
			<path class="st5" d="M359.38,265.11c-2.03-3.18-5.24-5.62-9.2-6.6c-8.19-2.04-16.48,2.95-18.52,11.15
				c-0.99,3.97-0.32,7.96,1.55,11.25c-2.18-3.41-3.01-7.68-1.96-11.92c2.04-8.19,10.33-13.18,18.52-11.15
				C354.01,258.89,357.39,261.61,359.38,265.11z"/>
		</g>
		<circle class="st6" cx="345.11" cy="279.06" r="6.38"/>
	</g>
	<g>
		<g>
			<path class="st2" d="M315.5,296.74c-7.96,4.79-18.29,2.22-23.08-5.74c-0.95-1.57-1.61-3.24-1.99-4.94
				c-1.57-6.89,1.35-14.3,7.73-18.14c5.57-3.35,12.29-3.1,17.48,0.07c1.25,0.77,2.42,1.71,3.45,2.81c0.8,0.86,1.53,1.81,2.16,2.85
				c0.31,0.52,0.6,1.05,0.85,1.59C325.67,282.94,322.94,292.26,315.5,296.74z"/>
			<path class="st3" d="M293.34,290.48c0,0-0.1-0.17-0.29-0.48c-0.1-0.15-0.2-0.35-0.33-0.58c-0.06-0.12-0.13-0.24-0.2-0.38
				c-0.06-0.14-0.13-0.28-0.2-0.44c-0.28-0.62-0.59-1.39-0.84-2.31c-0.25-0.92-0.46-1.98-0.53-3.15c-0.08-1.17-0.01-2.45,0.22-3.78
				c0.12-0.66,0.28-1.34,0.5-2.01c0.21-0.68,0.48-1.35,0.8-2.01c0.63-1.33,1.48-2.61,2.52-3.76c0.51-0.58,1.09-1.11,1.69-1.62
				c0.61-0.5,1.25-0.95,1.92-1.37c0.66-0.39,1.38-0.76,2.1-1.05c0.73-0.29,1.47-0.55,2.22-0.73c1.5-0.37,3.03-0.53,4.51-0.46
				c1.47,0.05,2.88,0.33,4.17,0.74c1.28,0.42,2.44,0.96,3.44,1.57c1,0.61,1.84,1.29,2.53,1.94c0.69,0.65,1.23,1.28,1.65,1.82
				c0.1,0.14,0.2,0.26,0.29,0.38c0.09,0.12,0.17,0.24,0.24,0.35c0.15,0.22,0.27,0.4,0.36,0.56c0.19,0.31,0.29,0.48,0.29,0.48
				s-0.11-0.16-0.31-0.46c-0.1-0.15-0.23-0.33-0.39-0.54c-0.08-0.1-0.16-0.22-0.25-0.34c-0.1-0.12-0.2-0.24-0.3-0.37
				c-0.43-0.52-0.99-1.13-1.7-1.74c-0.71-0.62-1.56-1.25-2.55-1.84c-0.99-0.58-2.14-1.09-3.4-1.47c-0.63-0.18-1.29-0.35-1.97-0.45
				c-0.34-0.06-0.69-0.09-1.04-0.14c-0.18-0.02-0.35-0.03-0.53-0.04c-0.18-0.02-0.36-0.03-0.53-0.03c-1.43-0.05-2.92,0.11-4.38,0.48
				c-0.73,0.18-1.44,0.44-2.15,0.73c-0.7,0.3-1.36,0.64-2.04,1.04c-0.64,0.39-1.28,0.83-1.87,1.31c-0.58,0.49-1.14,1-1.65,1.56
				c-1.01,1.11-1.85,2.35-2.47,3.64c-0.32,0.64-0.58,1.3-0.8,1.95c-0.23,0.65-0.39,1.31-0.53,1.95c-0.25,1.29-0.35,2.54-0.3,3.7
				c0.05,1.15,0.21,2.2,0.43,3.12c0.21,0.92,0.49,1.69,0.75,2.32c0.07,0.16,0.13,0.3,0.19,0.44c0.06,0.14,0.12,0.26,0.18,0.38
				c0.11,0.24,0.21,0.44,0.3,0.6C293.25,290.31,293.34,290.48,293.34,290.48z"/>
			<path class="st3" d="M319.28,274.88c0,0,0.09,0.15,0.26,0.44c0.09,0.14,0.19,0.32,0.3,0.54c0.06,0.11,0.12,0.22,0.18,0.34
				c0.06,0.13,0.12,0.26,0.19,0.4c0.26,0.57,0.54,1.27,0.77,2.11c0.23,0.84,0.42,1.81,0.49,2.88c0.07,1.07,0.01,2.25-0.2,3.46
				c-0.22,1.21-0.59,2.48-1.19,3.69c-0.58,1.22-1.36,2.4-2.31,3.45c-0.47,0.53-1,1.02-1.55,1.48c-0.56,0.46-1.14,0.87-1.77,1.26
				c-0.61,0.35-1.27,0.69-1.93,0.97c-0.67,0.27-1.34,0.5-2.04,0.67c-1.38,0.34-2.78,0.48-4.13,0.42c-1.35-0.05-2.64-0.3-3.82-0.68
				c-1.17-0.38-2.24-0.88-3.15-1.45c-0.92-0.56-1.69-1.18-2.32-1.78c-0.64-0.6-1.13-1.18-1.51-1.67c-0.09-0.12-0.18-0.24-0.27-0.35
				c-0.08-0.11-0.15-0.22-0.22-0.32c-0.14-0.2-0.25-0.37-0.33-0.52c-0.17-0.29-0.26-0.44-0.26-0.44s0.1,0.15,0.29,0.42
				c0.09,0.14,0.21,0.3,0.36,0.5c0.14,0.2,0.31,0.41,0.51,0.65c0.4,0.47,0.9,1.03,1.56,1.6c0.65,0.57,1.43,1.14,2.34,1.68
				c0.91,0.53,1.96,0.99,3.12,1.34c0.58,0.17,1.18,0.31,1.81,0.41c0.31,0.06,0.63,0.09,0.95,0.13c0.32,0.02,0.64,0.06,0.97,0.06
				c1.31,0.05,2.67-0.1,4-0.44c0.67-0.17,1.32-0.4,1.96-0.66c0.64-0.27,1.25-0.59,1.87-0.95c0.58-0.36,1.17-0.76,1.71-1.2
				c0.53-0.45,1.05-0.91,1.51-1.42c0.93-1.02,1.69-2.15,2.26-3.33c0.29-0.59,0.53-1.19,0.73-1.79c0.21-0.6,0.36-1.2,0.48-1.79
				c0.23-1.18,0.32-2.33,0.27-3.38c-0.05-1.05-0.19-2.02-0.39-2.85c-0.19-0.84-0.45-1.55-0.68-2.12c-0.12-0.29-0.23-0.54-0.33-0.76
				c-0.1-0.22-0.19-0.4-0.27-0.55C319.37,275.04,319.28,274.88,319.28,274.88z"/>
			<path class="st4" d="M315.63,267.99c-1.82,5.62-7.9,18.54-25.21,18.07c-1.57-6.89,1.35-14.3,7.73-18.14
				C303.72,264.57,310.44,264.81,315.63,267.99z"/>
			<path class="st4" d="M322.08,275.25c-10.33,14.99-26.62,12.57-26.62,12.57c12.73-0.43,20.25-10.83,23.61-17.01
				c0.8,0.86,1.53,1.81,2.16,2.85C321.55,274.17,321.83,274.71,322.08,275.25z"/>
			<path class="st3" d="M320.26,285.66c-1.84,7.42-9.35,11.94-16.77,10.1c-4.89-1.22-8.52-4.89-9.9-9.38
				c-0.71-2.32-0.82-4.86-0.2-7.39c1.84-7.42,9.35-11.94,16.77-10.09c1.79,0.45,3.42,1.22,4.82,2.25c1.09,0.8,2.06,1.75,2.86,2.81
				c1.05,1.39,1.84,2.97,2.31,4.65C320.78,280.84,320.85,283.26,320.26,285.66z"/>
			<path class="st4" d="M314.99,271.14c-2.55,5.84-8.48,14.48-21.4,15.23c-0.71-2.32-0.82-4.86-0.2-7.39
				c1.84-7.42,9.35-11.94,16.77-10.09C311.96,269.34,313.58,270.12,314.99,271.14z"/>
			<path class="st4" d="M320.16,278.61c-10.27,11.64-24.27,9.56-24.27,9.56c10.95-0.37,18.05-8.12,21.96-14.22
				C318.9,275.35,319.69,276.92,320.16,278.61z"/>
			<path class="st5" d="M318.85,275.48c-1.84-2.88-4.75-5.09-8.33-5.98c-7.42-1.84-14.93,2.68-16.77,10.09
				c-0.89,3.59-0.29,7.21,1.41,10.19c-1.98-3.09-2.73-6.95-1.77-10.79c1.84-7.42,9.35-11.94,16.77-10.09
				C313.99,269.84,317.04,272.3,318.85,275.48z"/>
		</g>
		<circle class="st6" cx="305.93" cy="288.1" r="5.78"/>
	</g>
	<g>
		<path class="st6" d="M338.81,460.03c0,1.74-0.43,3.62-1.28,5.65c-0.86,2.02-2.21,4.01-4.04,5.96c-1.84,1.95-4.18,3.53-7.04,4.75
			s-6.18,1.83-9.98,1.83c-2.88,0-5.5-0.28-7.86-0.82s-4.5-1.4-6.42-2.55c-1.93-1.15-3.69-2.68-5.31-4.56
			c-1.44-1.71-2.67-3.63-3.69-5.76c-1.02-2.12-1.78-4.39-2.29-6.8c-0.51-2.41-0.76-4.97-0.76-7.67c0-4.4,0.64-8.33,1.92-11.81
			c1.28-3.48,3.11-6.45,5.49-8.92c2.38-2.47,5.18-4.35,8.38-5.64c3.2-1.29,6.62-1.93,10.24-1.93c4.42,0,8.36,0.88,11.81,2.64
			c3.45,1.76,6.1,3.94,7.93,6.54c1.84,2.59,2.76,5.05,2.76,7.36c0,1.27-0.45,2.38-1.34,3.35c-0.89,0.97-1.98,1.45-3.24,1.45
			c-1.42,0-2.48-0.34-3.19-1.01s-1.49-1.82-2.36-3.46c-1.44-2.71-3.13-4.73-5.08-6.07c-1.95-1.34-4.35-2.01-7.21-2.01
			c-4.55,0-8.16,1.73-10.86,5.18c-2.69,3.45-4.04,8.36-4.04,14.71c0,4.25,0.59,7.78,1.79,10.6c1.19,2.82,2.88,4.92,5.07,6.31
			c2.18,1.39,4.74,2.09,7.67,2.09c3.18,0,5.87-0.79,8.06-2.36c2.2-1.58,3.85-3.89,4.97-6.95c0.47-1.44,1.05-2.61,1.75-3.52
			c0.69-0.91,1.81-1.36,3.35-1.36c1.32,0,2.45,0.46,3.39,1.38C338.34,457.53,338.81,458.67,338.81,460.03z"/>
		<path class="st6" d="M364.3,453.92h-3.88v17.54c0,2.31-0.51,4.01-1.53,5.1c-1.02,1.09-2.35,1.64-3.99,1.64
			c-1.76,0-3.13-0.57-4.1-1.71c-0.97-1.14-1.45-2.82-1.45-5.03v-42.02c0-2.38,0.53-4.11,1.6-5.18s2.79-1.6,5.18-1.6h17.99
			c2.48,0,4.61,0.11,6.37,0.32c1.76,0.21,3.35,0.64,4.77,1.29c1.72,0.72,3.23,1.75,4.55,3.09s2.32,2.9,3,4.68
			c0.68,1.78,1.02,3.66,1.02,5.64c0,4.07-1.15,7.32-3.45,9.76c-2.3,2.43-5.78,4.16-10.45,5.18c1.96,1.04,3.83,2.58,5.62,4.62
			c1.79,2.04,3.38,4.2,4.79,6.5s2.49,4.37,3.28,6.22c0.78,1.85,1.17,3.12,1.17,3.82c0,0.72-0.23,1.44-0.69,2.14
			c-0.46,0.71-1.09,1.27-1.88,1.68c-0.79,0.41-1.71,0.62-2.76,0.62c-1.24,0-2.29-0.29-3.13-0.88c-0.84-0.58-1.57-1.32-2.18-2.22
			c-0.61-0.89-1.44-2.21-2.48-3.95l-4.43-7.38c-1.59-2.71-3.01-4.77-4.26-6.18c-1.25-1.42-2.53-2.39-3.82-2.91
			C367.88,454.19,366.26,453.92,364.3,453.92z M370.63,430.98h-10.21v15.01h9.91c2.66,0,4.89-0.23,6.7-0.69
			c1.81-0.46,3.2-1.24,4.15-2.35c0.96-1.11,1.44-2.63,1.44-4.56c0-1.52-0.39-2.85-1.15-4.01c-0.77-1.15-1.84-2.02-3.21-2.59
			C376.97,431.25,374.43,430.98,370.63,430.98z"/>
		<path class="st6" d="M407.29,471.47v-43.02c0-2.23,0.51-3.91,1.53-5.03c1.02-1.12,2.33-1.68,3.95-1.68c1.66,0,3.01,0.55,4.04,1.66
			c1.03,1.11,1.55,2.79,1.55,5.05v43.02c0,2.26-0.52,3.95-1.55,5.06c-1.03,1.12-2.38,1.68-4.04,1.68c-1.59,0-2.9-0.57-3.93-1.7
			C407.81,475.39,407.29,473.7,407.29,471.47z"/>
		<path class="st6" d="M449.84,469.05l-8.75-34.79v37.69c0,2.09-0.46,3.65-1.4,4.69s-2.17,1.56-3.71,1.56
			c-1.49,0-2.71-0.52-3.65-1.55c-0.94-1.03-1.42-2.6-1.42-4.71v-43.21c0-2.38,0.62-3.99,1.86-4.82c1.24-0.83,2.92-1.25,5.03-1.25
			h3.43c2.06,0,3.56,0.19,4.49,0.56c0.93,0.37,1.62,1.04,2.07,2.01c0.45,0.97,0.95,2.55,1.53,4.73l7.93,29.91l7.93-29.91
			c0.57-2.19,1.08-3.76,1.53-4.73c0.45-0.97,1.14-1.64,2.06-2.01c0.93-0.37,2.43-0.56,4.49-0.56h3.43c2.11,0,3.79,0.42,5.03,1.25
			c1.24,0.83,1.86,2.44,1.86,4.82v43.21c0,2.09-0.46,3.65-1.4,4.69c-0.93,1.04-2.18,1.56-3.74,1.56c-1.46,0-2.67-0.52-3.61-1.56
			c-0.94-1.04-1.42-2.61-1.42-4.69v-37.69l-8.75,34.79c-0.57,2.26-1.04,3.92-1.39,4.97c-0.36,1.06-1.02,2.02-1.99,2.89
			c-0.97,0.87-2.31,1.31-4.02,1.31c-1.29,0-2.38-0.28-3.28-0.84c-0.89-0.56-1.59-1.27-2.09-2.14c-0.5-0.87-0.89-1.83-1.17-2.89
			C450.43,471.29,450.13,470.19,449.84,469.05z"/>
		<path class="st6" d="M514.95,456.01h-10.13v15.46c0,2.21-0.52,3.89-1.56,5.03c-1.04,1.14-2.36,1.71-3.95,1.71
			c-1.66,0-3.01-0.57-4.02-1.7c-1.02-1.13-1.53-2.79-1.53-4.97v-42.09c0-2.43,0.56-4.17,1.68-5.22c1.12-1.04,2.89-1.56,5.32-1.56
			h14.19c4.2,0,7.42,0.32,9.68,0.97c2.23,0.62,4.17,1.65,5.79,3.09c1.62,1.44,2.86,3.2,3.71,5.29c0.84,2.09,1.27,4.43,1.27,7.04
			c0,5.56-1.71,9.78-5.14,12.65S521.73,456.01,514.95,456.01z M512.27,430.98h-7.45v16.69h7.45c2.61,0,4.79-0.27,6.54-0.82
			c1.75-0.55,3.09-1.44,4.01-2.68c0.92-1.24,1.38-2.87,1.38-4.88c0-2.41-0.71-4.37-2.12-5.88
			C520.48,431.79,517.21,430.98,512.27,430.98z"/>
	</g>
	<path class="st6" d="M229.77,461.11c5.87-1.09,11.62-2.16,17.43-3.24c0.14,0.36,0.25,0.66,0.37,0.97c1.57,4.12,4.7,6.24,8.97,6.57
		c2.04,0.15,4.16-0.03,6.18-0.4c1.99-0.37,2.84-1.52,2.96-3.14c0.13-1.67-0.67-3.2-2.47-3.83c-2.51-0.88-5.11-1.51-7.7-2.13
		c-4.62-1.12-9.18-2.39-13.49-4.48c-6.76-3.27-9.72-10.71-9.1-16.99c0.96-9.71,6.91-16.19,16.77-18.41c0.9-0.2,2.16-0.14,2.58-0.71
		c0.47-0.64,0.2-1.84,0.21-2.8c0.02-1.56,0-3.12,0-4.68c0-0.46-0.05-0.91,0.64-0.9c2.93,0.01,5.85,0.01,8.93,0.01
		c0,2.83,0,5.56,0,8.33c9.97,1.19,17.47,5.57,21.12,15.36c-3.67,1.15-7.28,2.28-10.88,3.42c-1.31,0.41-2.62,0.81-3.93,1.24
		c-0.53,0.17-0.86,0.19-1.13-0.43c-1.99-4.62-6.25-6.02-10.95-5.59c-0.91,0.08-1.84,0.32-2.68,0.67c-1.36,0.56-2.04,1.68-2.05,3.16
		c-0.01,1.49,0.64,2.69,2.03,3.15c2.39,0.79,4.84,1.38,7.27,2.05c4.04,1.11,8.15,2.02,12.1,3.37c7.83,2.68,12.42,10.11,11.92,18.39
		c-0.57,9.43-7.07,15.87-15.41,18.52c-2.04,0.65-4.18,1-6.29,1.4c-0.79,0.15-1.14,0.37-1.12,1.25c0.06,2.48,0.02,4.96,0.02,7.59
		c-1.65,0-3.2,0-4.75,0c-1.3,0-2.6-0.03-3.9,0.01c-0.73,0.03-0.97-0.22-0.95-0.95c0.04-2.52,0.01-5.04,0.01-7.71
		C240.82,478.75,233.01,472.75,229.77,461.11z"/>
</g>
</svg>
