<?xml version="1.0" encoding="utf-8"?>
<!-- Generator: Adobe Illustrator 24.2.1, SVG Export Plug-In . SVG Version: 6.00 Build 0)  -->
<svg version="1.1" id="Layer_1" xmlns="http://www.w3.org/2000/svg" xmlns:xlink="http://www.w3.org/1999/xlink" x="0px" y="0px"
	 viewBox="0 0 1512 648" style="enable-background:new 0 0 1512 648;" xml:space="preserve">
<style type="text/css">
	.st0{fill:#EDEEF1;}
	.st1{fill:#FAFAFA;}
	.st2{fill:#FAF9F8;}
</style>
<g>
	<rect class="st0" width="1512" height="648"/>
	<path class="st1" d="M1317.2,361.35c-40.43-57.59-105.37-73.38-167.25-73.93c-69.98-0.63-136.02,27.35-205.26,28.4
		c-99.89,1.51-197.13-61.56-283.01-113.74c-61.18-37.17-117.37-85.32-182.83-113c-55.69-23.55-115.55-29.48-174.3-21.04
		C39.91,106.05-68.14,451.59,45.59,648h1284.44C1372.56,578.03,1381.2,452.54,1317.2,361.35z"/>
	<path class="st2" d="M1481.1,648H596.57l-0.31-0.77c-15.93-39.22-24.25-79.64-24.06-116.9c0.22-42.15,10.96-79.06,31.92-109.71
		c23.57-34.45,62.57-52.17,115.91-52.67c24.94-0.23,49.48,5.01,73.22,10.08c22.12,4.72,44.99,9.6,67.93,9.96
		c64.5,1.01,127.96-38.73,183.96-73.78l10.06-6.29c14.66-9.14,29.15-19.4,43.17-29.32c26.2-18.54,53.29-37.72,82.68-50.47
		c36.77-15.95,78.41-21.11,120.41-14.92c78.93,11.64,142.9,63.93,180.13,147.24c40.6,90.87,40.54,200.79-0.16,286.87L1481.1,648z
		 M598.05,645.33h881.66c40-85.2,39.95-193.82-0.2-283.68c-36.86-82.51-100.2-134.29-178.35-145.8
		c-41.62-6.13-82.87-1.03-119.29,14.77c-29.19,12.66-56.18,31.77-82.28,50.24c-14.04,9.94-28.57,20.22-43.28,29.39l-10.06,6.29
		c-56.24,35.21-119.92,75.14-185.11,74.11c-23.14-0.36-46.11-5.26-68.33-10c-23.63-5.05-48.08-10.3-72.78-10.03
		c-52.59,0.49-90.98,17.86-114.09,51.65l-0.92-0.82l0.92,0.82C566.79,479.51,563.93,560.77,598.05,645.33z"/>
	<path class="st2" d="M1069.29,648H184.75l-0.31-0.77c-15.93-39.22-24.25-79.64-24.06-116.9c0.22-42.15,10.96-79.06,31.92-109.71
		c23.57-34.45,62.57-52.17,115.91-52.67c24.94-0.23,49.48,5.01,73.22,10.08c22.12,4.72,44.99,9.6,67.93,9.96
		c64.5,1.01,127.96-38.73,183.96-73.78l10.06-6.29c14.66-9.14,29.15-19.4,43.17-29.32c26.2-18.54,53.29-37.72,82.68-50.47
		c36.77-15.95,78.41-21.11,120.41-14.92c78.93,11.64,142.9,63.93,180.13,147.24c40.6,90.87,40.54,200.79-0.16,286.87L1069.29,648z
		 M186.24,645.33h881.66c40-85.2,39.95-193.82-0.2-283.68c-36.86-82.51-100.2-134.29-178.35-145.8
		c-41.62-6.13-82.87-1.03-119.29,14.77c-29.19,12.66-56.18,31.77-82.28,50.24c-14.04,9.94-28.57,20.22-43.28,29.39l-10.06,6.29
		c-56.24,35.21-119.92,75.14-185.11,74.11c-23.14-0.36-46.11-5.26-68.33-10c-23.63-5.05-48.08-10.3-72.78-10.03
		c-52.59,0.49-90.98,17.86-114.09,51.65l-0.92-0.82l0.92,0.82C154.98,479.51,152.11,560.77,186.24,645.33z"/>
</g>
</svg>
